%TF.GenerationSoftware,KiCad,Pcbnew,7.0.2*%
%TF.CreationDate,2023-06-20T23:12:55+02:00*%
%TF.ProjectId,qca7000,71636137-3030-4302-9e6b-696361645f70,rev?*%
%TF.SameCoordinates,Original*%
%TF.FileFunction,Soldermask,Bot*%
%TF.FilePolarity,Negative*%
%FSLAX46Y46*%
G04 Gerber Fmt 4.6, Leading zero omitted, Abs format (unit mm)*
G04 Created by KiCad (PCBNEW 7.0.2) date 2023-06-20 23:12:55*
%MOMM*%
%LPD*%
G01*
G04 APERTURE LIST*
G04 Aperture macros list*
%AMRoundRect*
0 Rectangle with rounded corners*
0 $1 Rounding radius*
0 $2 $3 $4 $5 $6 $7 $8 $9 X,Y pos of 4 corners*
0 Add a 4 corners polygon primitive as box body*
4,1,4,$2,$3,$4,$5,$6,$7,$8,$9,$2,$3,0*
0 Add four circle primitives for the rounded corners*
1,1,$1+$1,$2,$3*
1,1,$1+$1,$4,$5*
1,1,$1+$1,$6,$7*
1,1,$1+$1,$8,$9*
0 Add four rect primitives between the rounded corners*
20,1,$1+$1,$2,$3,$4,$5,0*
20,1,$1+$1,$4,$5,$6,$7,0*
20,1,$1+$1,$6,$7,$8,$9,0*
20,1,$1+$1,$8,$9,$2,$3,0*%
G04 Aperture macros list end*
%ADD10R,1.700000X1.700000*%
%ADD11O,1.700000X1.700000*%
%ADD12C,1.000000*%
%ADD13RoundRect,0.250000X0.412500X0.650000X-0.412500X0.650000X-0.412500X-0.650000X0.412500X-0.650000X0*%
%ADD14RoundRect,0.250000X-0.650000X0.412500X-0.650000X-0.412500X0.650000X-0.412500X0.650000X0.412500X0*%
%ADD15RoundRect,0.250000X-0.412500X-1.100000X0.412500X-1.100000X0.412500X1.100000X-0.412500X1.100000X0*%
%ADD16RoundRect,0.250000X0.650000X-0.412500X0.650000X0.412500X-0.650000X0.412500X-0.650000X-0.412500X0*%
%ADD17RoundRect,0.250000X0.337500X0.475000X-0.337500X0.475000X-0.337500X-0.475000X0.337500X-0.475000X0*%
%ADD18RoundRect,0.250000X-1.100000X0.412500X-1.100000X-0.412500X1.100000X-0.412500X1.100000X0.412500X0*%
%TA.AperFunction,Profile*%
%ADD19C,0.100000*%
%TD*%
G04 APERTURE END LIST*
D10*
%TO.C,J1*%
X92580000Y-66820000D03*
D11*
X92580000Y-64280000D03*
X92580000Y-61740000D03*
X92580000Y-59200000D03*
%TD*%
D12*
%TO.C,TP9*%
X154900000Y-54450000D03*
%TD*%
%TO.C,TP6*%
X155950000Y-51290000D03*
%TD*%
D10*
%TO.C,J2*%
X136700000Y-42500000D03*
D11*
X134160000Y-42500000D03*
X131620000Y-42500000D03*
X129080000Y-42500000D03*
X126540000Y-42500000D03*
X124000000Y-42500000D03*
X121460000Y-42500000D03*
X118920000Y-42500000D03*
%TD*%
D12*
%TO.C,TP8*%
X162940000Y-59280000D03*
%TD*%
%TO.C,TP7*%
X157520000Y-59050000D03*
%TD*%
D13*
%TO.C,C31*%
X146212500Y-62600000D03*
X143087500Y-62600000D03*
%TD*%
%TO.C,C26*%
X144612500Y-68900000D03*
X141487500Y-68900000D03*
%TD*%
D14*
%TO.C,C11*%
X132000000Y-68237500D03*
X132000000Y-71362500D03*
%TD*%
D13*
%TO.C,C28*%
X143512500Y-72550000D03*
X140387500Y-72550000D03*
%TD*%
%TO.C,C40*%
X128762500Y-58750000D03*
X125637500Y-58750000D03*
%TD*%
D15*
%TO.C,C54*%
X143887500Y-55350000D03*
X147012500Y-55350000D03*
%TD*%
D13*
%TO.C,C50*%
X130062500Y-55950000D03*
X126937500Y-55950000D03*
%TD*%
D16*
%TO.C,C25*%
X134500000Y-71312500D03*
X134500000Y-68187500D03*
%TD*%
D13*
%TO.C,C33*%
X129112500Y-64500000D03*
X125987500Y-64500000D03*
%TD*%
%TO.C,C16*%
X145212500Y-66500000D03*
X142087500Y-66500000D03*
%TD*%
D17*
%TO.C,C18*%
X135977500Y-57990000D03*
X133902500Y-57990000D03*
%TD*%
D16*
%TO.C,C27*%
X141450000Y-55462500D03*
X141450000Y-52337500D03*
%TD*%
D18*
%TO.C,C37*%
X129930000Y-50307500D03*
X129930000Y-53432500D03*
%TD*%
D19*
X91000000Y-40500000D02*
X167000000Y-40500000D01*
X167000000Y-80500000D01*
X91000000Y-80500000D01*
X91000000Y-40500000D01*
M02*
