%TF.GenerationSoftware,KiCad,Pcbnew,7.0.2*%
%TF.CreationDate,2023-06-20T23:12:55+02:00*%
%TF.ProjectId,qca7000,71636137-3030-4302-9e6b-696361645f70,rev?*%
%TF.SameCoordinates,Original*%
%TF.FileFunction,Legend,Top*%
%TF.FilePolarity,Positive*%
%FSLAX46Y46*%
G04 Gerber Fmt 4.6, Leading zero omitted, Abs format (unit mm)*
G04 Created by KiCad (PCBNEW 7.0.2) date 2023-06-20 23:12:55*
%MOMM*%
%LPD*%
G01*
G04 APERTURE LIST*
G04 Aperture macros list*
%AMRoundRect*
0 Rectangle with rounded corners*
0 $1 Rounding radius*
0 $2 $3 $4 $5 $6 $7 $8 $9 X,Y pos of 4 corners*
0 Add a 4 corners polygon primitive as box body*
4,1,4,$2,$3,$4,$5,$6,$7,$8,$9,$2,$3,0*
0 Add four circle primitives for the rounded corners*
1,1,$1+$1,$2,$3*
1,1,$1+$1,$4,$5*
1,1,$1+$1,$6,$7*
1,1,$1+$1,$8,$9*
0 Add four rect primitives between the rounded corners*
20,1,$1+$1,$2,$3,$4,$5,0*
20,1,$1+$1,$4,$5,$6,$7,0*
20,1,$1+$1,$6,$7,$8,$9,0*
20,1,$1+$1,$8,$9,$2,$3,0*%
G04 Aperture macros list end*
%ADD10C,0.175000*%
%ADD11C,0.200000*%
%ADD12C,0.150000*%
%ADD13C,0.120000*%
%ADD14R,1.700000X1.700000*%
%ADD15O,1.700000X1.700000*%
%ADD16RoundRect,0.150000X-0.150000X0.587500X-0.150000X-0.587500X0.150000X-0.587500X0.150000X0.587500X0*%
%ADD17C,1.000000*%
%ADD18RoundRect,0.250000X-0.400000X-0.625000X0.400000X-0.625000X0.400000X0.625000X-0.400000X0.625000X0*%
%ADD19RoundRect,0.250000X-0.412500X-0.650000X0.412500X-0.650000X0.412500X0.650000X-0.412500X0.650000X0*%
%ADD20RoundRect,0.250000X0.412500X0.650000X-0.412500X0.650000X-0.412500X-0.650000X0.412500X-0.650000X0*%
%ADD21RoundRect,0.250000X0.625000X-0.400000X0.625000X0.400000X-0.625000X0.400000X-0.625000X-0.400000X0*%
%ADD22RoundRect,0.250000X-0.475000X0.337500X-0.475000X-0.337500X0.475000X-0.337500X0.475000X0.337500X0*%
%ADD23RoundRect,0.250000X-0.337500X-0.475000X0.337500X-0.475000X0.337500X0.475000X-0.337500X0.475000X0*%
%ADD24RoundRect,0.250000X0.650000X-0.412500X0.650000X0.412500X-0.650000X0.412500X-0.650000X-0.412500X0*%
%ADD25RoundRect,0.250000X0.412500X1.100000X-0.412500X1.100000X-0.412500X-1.100000X0.412500X-1.100000X0*%
%ADD26RoundRect,0.250000X-0.650000X0.412500X-0.650000X-0.412500X0.650000X-0.412500X0.650000X0.412500X0*%
%ADD27RoundRect,0.250000X-0.625000X0.400000X-0.625000X-0.400000X0.625000X-0.400000X0.625000X0.400000X0*%
%ADD28RoundRect,0.250000X-0.362500X-0.700000X0.362500X-0.700000X0.362500X0.700000X-0.362500X0.700000X0*%
%ADD29RoundRect,0.225000X0.225000X0.375000X-0.225000X0.375000X-0.225000X-0.375000X0.225000X-0.375000X0*%
%ADD30RoundRect,0.250000X0.700000X-0.362500X0.700000X0.362500X-0.700000X0.362500X-0.700000X-0.362500X0*%
%ADD31RoundRect,0.250000X1.100000X-0.412500X1.100000X0.412500X-1.100000X0.412500X-1.100000X-0.412500X0*%
%ADD32RoundRect,0.250000X-0.412500X-1.100000X0.412500X-1.100000X0.412500X1.100000X-0.412500X1.100000X0*%
%ADD33RoundRect,0.250000X0.337500X0.475000X-0.337500X0.475000X-0.337500X-0.475000X0.337500X-0.475000X0*%
%ADD34RoundRect,0.250000X-0.700000X0.362500X-0.700000X-0.362500X0.700000X-0.362500X0.700000X0.362500X0*%
%ADD35RoundRect,0.250000X-0.650000X1.000000X-0.650000X-1.000000X0.650000X-1.000000X0.650000X1.000000X0*%
%ADD36RoundRect,0.250000X0.362500X0.700000X-0.362500X0.700000X-0.362500X-0.700000X0.362500X-0.700000X0*%
%ADD37RoundRect,0.250000X-1.100000X0.412500X-1.100000X-0.412500X1.100000X-0.412500X1.100000X0.412500X0*%
%ADD38RoundRect,0.050000X-0.050000X0.362500X-0.050000X-0.362500X0.050000X-0.362500X0.050000X0.362500X0*%
%ADD39RoundRect,0.050000X-0.362500X0.050000X-0.362500X-0.050000X0.362500X-0.050000X0.362500X0.050000X0*%
%ADD40R,5.200000X5.200000*%
%ADD41RoundRect,0.250000X0.475000X-0.337500X0.475000X0.337500X-0.475000X0.337500X-0.475000X-0.337500X0*%
%ADD42R,1.400000X1.200000*%
%ADD43RoundRect,0.150000X-0.650000X-0.150000X0.650000X-0.150000X0.650000X0.150000X-0.650000X0.150000X0*%
%ADD44RoundRect,0.225000X-0.225000X-0.375000X0.225000X-0.375000X0.225000X0.375000X-0.225000X0.375000X0*%
%TA.AperFunction,Profile*%
%ADD45C,0.100000*%
%TD*%
G04 APERTURE END LIST*
D10*
X93613333Y-43563000D02*
X93546666Y-43529666D01*
X93546666Y-43529666D02*
X93480000Y-43463000D01*
X93480000Y-43463000D02*
X93380000Y-43363000D01*
X93380000Y-43363000D02*
X93313333Y-43329666D01*
X93313333Y-43329666D02*
X93246666Y-43329666D01*
X93280000Y-43496333D02*
X93213333Y-43463000D01*
X93213333Y-43463000D02*
X93146666Y-43396333D01*
X93146666Y-43396333D02*
X93113333Y-43263000D01*
X93113333Y-43263000D02*
X93113333Y-43029666D01*
X93113333Y-43029666D02*
X93146666Y-42896333D01*
X93146666Y-42896333D02*
X93213333Y-42829666D01*
X93213333Y-42829666D02*
X93280000Y-42796333D01*
X93280000Y-42796333D02*
X93413333Y-42796333D01*
X93413333Y-42796333D02*
X93480000Y-42829666D01*
X93480000Y-42829666D02*
X93546666Y-42896333D01*
X93546666Y-42896333D02*
X93580000Y-43029666D01*
X93580000Y-43029666D02*
X93580000Y-43263000D01*
X93580000Y-43263000D02*
X93546666Y-43396333D01*
X93546666Y-43396333D02*
X93480000Y-43463000D01*
X93480000Y-43463000D02*
X93413333Y-43496333D01*
X93413333Y-43496333D02*
X93280000Y-43496333D01*
X94279999Y-43429666D02*
X94246666Y-43463000D01*
X94246666Y-43463000D02*
X94146666Y-43496333D01*
X94146666Y-43496333D02*
X94079999Y-43496333D01*
X94079999Y-43496333D02*
X93979999Y-43463000D01*
X93979999Y-43463000D02*
X93913333Y-43396333D01*
X93913333Y-43396333D02*
X93879999Y-43329666D01*
X93879999Y-43329666D02*
X93846666Y-43196333D01*
X93846666Y-43196333D02*
X93846666Y-43096333D01*
X93846666Y-43096333D02*
X93879999Y-42963000D01*
X93879999Y-42963000D02*
X93913333Y-42896333D01*
X93913333Y-42896333D02*
X93979999Y-42829666D01*
X93979999Y-42829666D02*
X94079999Y-42796333D01*
X94079999Y-42796333D02*
X94146666Y-42796333D01*
X94146666Y-42796333D02*
X94246666Y-42829666D01*
X94246666Y-42829666D02*
X94279999Y-42863000D01*
X94546666Y-43296333D02*
X94879999Y-43296333D01*
X94479999Y-43496333D02*
X94713333Y-42796333D01*
X94713333Y-42796333D02*
X94946666Y-43496333D01*
X95113333Y-42796333D02*
X95579999Y-42796333D01*
X95579999Y-42796333D02*
X95279999Y-43496333D01*
X95980000Y-42796333D02*
X96046666Y-42796333D01*
X96046666Y-42796333D02*
X96113333Y-42829666D01*
X96113333Y-42829666D02*
X96146666Y-42863000D01*
X96146666Y-42863000D02*
X96180000Y-42929666D01*
X96180000Y-42929666D02*
X96213333Y-43063000D01*
X96213333Y-43063000D02*
X96213333Y-43229666D01*
X96213333Y-43229666D02*
X96180000Y-43363000D01*
X96180000Y-43363000D02*
X96146666Y-43429666D01*
X96146666Y-43429666D02*
X96113333Y-43463000D01*
X96113333Y-43463000D02*
X96046666Y-43496333D01*
X96046666Y-43496333D02*
X95980000Y-43496333D01*
X95980000Y-43496333D02*
X95913333Y-43463000D01*
X95913333Y-43463000D02*
X95880000Y-43429666D01*
X95880000Y-43429666D02*
X95846666Y-43363000D01*
X95846666Y-43363000D02*
X95813333Y-43229666D01*
X95813333Y-43229666D02*
X95813333Y-43063000D01*
X95813333Y-43063000D02*
X95846666Y-42929666D01*
X95846666Y-42929666D02*
X95880000Y-42863000D01*
X95880000Y-42863000D02*
X95913333Y-42829666D01*
X95913333Y-42829666D02*
X95980000Y-42796333D01*
X96646667Y-42796333D02*
X96713333Y-42796333D01*
X96713333Y-42796333D02*
X96780000Y-42829666D01*
X96780000Y-42829666D02*
X96813333Y-42863000D01*
X96813333Y-42863000D02*
X96846667Y-42929666D01*
X96846667Y-42929666D02*
X96880000Y-43063000D01*
X96880000Y-43063000D02*
X96880000Y-43229666D01*
X96880000Y-43229666D02*
X96846667Y-43363000D01*
X96846667Y-43363000D02*
X96813333Y-43429666D01*
X96813333Y-43429666D02*
X96780000Y-43463000D01*
X96780000Y-43463000D02*
X96713333Y-43496333D01*
X96713333Y-43496333D02*
X96646667Y-43496333D01*
X96646667Y-43496333D02*
X96580000Y-43463000D01*
X96580000Y-43463000D02*
X96546667Y-43429666D01*
X96546667Y-43429666D02*
X96513333Y-43363000D01*
X96513333Y-43363000D02*
X96480000Y-43229666D01*
X96480000Y-43229666D02*
X96480000Y-43063000D01*
X96480000Y-43063000D02*
X96513333Y-42929666D01*
X96513333Y-42929666D02*
X96546667Y-42863000D01*
X96546667Y-42863000D02*
X96580000Y-42829666D01*
X96580000Y-42829666D02*
X96646667Y-42796333D01*
X97513334Y-42796333D02*
X97180000Y-42796333D01*
X97180000Y-42796333D02*
X97146667Y-43129666D01*
X97146667Y-43129666D02*
X97180000Y-43096333D01*
X97180000Y-43096333D02*
X97246667Y-43063000D01*
X97246667Y-43063000D02*
X97413334Y-43063000D01*
X97413334Y-43063000D02*
X97480000Y-43096333D01*
X97480000Y-43096333D02*
X97513334Y-43129666D01*
X97513334Y-43129666D02*
X97546667Y-43196333D01*
X97546667Y-43196333D02*
X97546667Y-43363000D01*
X97546667Y-43363000D02*
X97513334Y-43429666D01*
X97513334Y-43429666D02*
X97480000Y-43463000D01*
X97480000Y-43463000D02*
X97413334Y-43496333D01*
X97413334Y-43496333D02*
X97246667Y-43496333D01*
X97246667Y-43496333D02*
X97180000Y-43463000D01*
X97180000Y-43463000D02*
X97146667Y-43429666D01*
X98380000Y-43496333D02*
X98380000Y-42796333D01*
X98680000Y-43496333D02*
X98680000Y-43129666D01*
X98680000Y-43129666D02*
X98646667Y-43063000D01*
X98646667Y-43063000D02*
X98580000Y-43029666D01*
X98580000Y-43029666D02*
X98480000Y-43029666D01*
X98480000Y-43029666D02*
X98413334Y-43063000D01*
X98413334Y-43063000D02*
X98380000Y-43096333D01*
X99113333Y-43496333D02*
X99046667Y-43463000D01*
X99046667Y-43463000D02*
X99013333Y-43429666D01*
X99013333Y-43429666D02*
X98980000Y-43363000D01*
X98980000Y-43363000D02*
X98980000Y-43163000D01*
X98980000Y-43163000D02*
X99013333Y-43096333D01*
X99013333Y-43096333D02*
X99046667Y-43063000D01*
X99046667Y-43063000D02*
X99113333Y-43029666D01*
X99113333Y-43029666D02*
X99213333Y-43029666D01*
X99213333Y-43029666D02*
X99280000Y-43063000D01*
X99280000Y-43063000D02*
X99313333Y-43096333D01*
X99313333Y-43096333D02*
X99346667Y-43163000D01*
X99346667Y-43163000D02*
X99346667Y-43363000D01*
X99346667Y-43363000D02*
X99313333Y-43429666D01*
X99313333Y-43429666D02*
X99280000Y-43463000D01*
X99280000Y-43463000D02*
X99213333Y-43496333D01*
X99213333Y-43496333D02*
X99113333Y-43496333D01*
X99646666Y-43496333D02*
X99646666Y-43029666D01*
X99646666Y-43096333D02*
X99680000Y-43063000D01*
X99680000Y-43063000D02*
X99746666Y-43029666D01*
X99746666Y-43029666D02*
X99846666Y-43029666D01*
X99846666Y-43029666D02*
X99913333Y-43063000D01*
X99913333Y-43063000D02*
X99946666Y-43129666D01*
X99946666Y-43129666D02*
X99946666Y-43496333D01*
X99946666Y-43129666D02*
X99980000Y-43063000D01*
X99980000Y-43063000D02*
X100046666Y-43029666D01*
X100046666Y-43029666D02*
X100146666Y-43029666D01*
X100146666Y-43029666D02*
X100213333Y-43063000D01*
X100213333Y-43063000D02*
X100246666Y-43129666D01*
X100246666Y-43129666D02*
X100246666Y-43496333D01*
X100846666Y-43463000D02*
X100779999Y-43496333D01*
X100779999Y-43496333D02*
X100646666Y-43496333D01*
X100646666Y-43496333D02*
X100579999Y-43463000D01*
X100579999Y-43463000D02*
X100546666Y-43396333D01*
X100546666Y-43396333D02*
X100546666Y-43129666D01*
X100546666Y-43129666D02*
X100579999Y-43063000D01*
X100579999Y-43063000D02*
X100646666Y-43029666D01*
X100646666Y-43029666D02*
X100779999Y-43029666D01*
X100779999Y-43029666D02*
X100846666Y-43063000D01*
X100846666Y-43063000D02*
X100879999Y-43129666D01*
X100879999Y-43129666D02*
X100879999Y-43196333D01*
X100879999Y-43196333D02*
X100546666Y-43263000D01*
X101179999Y-43029666D02*
X101179999Y-43729666D01*
X101179999Y-43063000D02*
X101246666Y-43029666D01*
X101246666Y-43029666D02*
X101379999Y-43029666D01*
X101379999Y-43029666D02*
X101446666Y-43063000D01*
X101446666Y-43063000D02*
X101479999Y-43096333D01*
X101479999Y-43096333D02*
X101513333Y-43163000D01*
X101513333Y-43163000D02*
X101513333Y-43363000D01*
X101513333Y-43363000D02*
X101479999Y-43429666D01*
X101479999Y-43429666D02*
X101446666Y-43463000D01*
X101446666Y-43463000D02*
X101379999Y-43496333D01*
X101379999Y-43496333D02*
X101246666Y-43496333D01*
X101246666Y-43496333D02*
X101179999Y-43463000D01*
X101913332Y-43496333D02*
X101846666Y-43463000D01*
X101846666Y-43463000D02*
X101813332Y-43396333D01*
X101813332Y-43396333D02*
X101813332Y-42796333D01*
X102479999Y-43029666D02*
X102479999Y-43496333D01*
X102179999Y-43029666D02*
X102179999Y-43396333D01*
X102179999Y-43396333D02*
X102213333Y-43463000D01*
X102213333Y-43463000D02*
X102279999Y-43496333D01*
X102279999Y-43496333D02*
X102379999Y-43496333D01*
X102379999Y-43496333D02*
X102446666Y-43463000D01*
X102446666Y-43463000D02*
X102479999Y-43429666D01*
X103113332Y-43029666D02*
X103113332Y-43596333D01*
X103113332Y-43596333D02*
X103079999Y-43663000D01*
X103079999Y-43663000D02*
X103046666Y-43696333D01*
X103046666Y-43696333D02*
X102979999Y-43729666D01*
X102979999Y-43729666D02*
X102879999Y-43729666D01*
X102879999Y-43729666D02*
X102813332Y-43696333D01*
X103113332Y-43463000D02*
X103046666Y-43496333D01*
X103046666Y-43496333D02*
X102913332Y-43496333D01*
X102913332Y-43496333D02*
X102846666Y-43463000D01*
X102846666Y-43463000D02*
X102813332Y-43429666D01*
X102813332Y-43429666D02*
X102779999Y-43363000D01*
X102779999Y-43363000D02*
X102779999Y-43163000D01*
X102779999Y-43163000D02*
X102813332Y-43096333D01*
X102813332Y-43096333D02*
X102846666Y-43063000D01*
X102846666Y-43063000D02*
X102913332Y-43029666D01*
X102913332Y-43029666D02*
X103046666Y-43029666D01*
X103046666Y-43029666D02*
X103113332Y-43063000D01*
X103979998Y-43496333D02*
X103979998Y-43029666D01*
X103979998Y-43096333D02*
X104013332Y-43063000D01*
X104013332Y-43063000D02*
X104079998Y-43029666D01*
X104079998Y-43029666D02*
X104179998Y-43029666D01*
X104179998Y-43029666D02*
X104246665Y-43063000D01*
X104246665Y-43063000D02*
X104279998Y-43129666D01*
X104279998Y-43129666D02*
X104279998Y-43496333D01*
X104279998Y-43129666D02*
X104313332Y-43063000D01*
X104313332Y-43063000D02*
X104379998Y-43029666D01*
X104379998Y-43029666D02*
X104479998Y-43029666D01*
X104479998Y-43029666D02*
X104546665Y-43063000D01*
X104546665Y-43063000D02*
X104579998Y-43129666D01*
X104579998Y-43129666D02*
X104579998Y-43496333D01*
X105013331Y-43496333D02*
X104946665Y-43463000D01*
X104946665Y-43463000D02*
X104913331Y-43429666D01*
X104913331Y-43429666D02*
X104879998Y-43363000D01*
X104879998Y-43363000D02*
X104879998Y-43163000D01*
X104879998Y-43163000D02*
X104913331Y-43096333D01*
X104913331Y-43096333D02*
X104946665Y-43063000D01*
X104946665Y-43063000D02*
X105013331Y-43029666D01*
X105013331Y-43029666D02*
X105113331Y-43029666D01*
X105113331Y-43029666D02*
X105179998Y-43063000D01*
X105179998Y-43063000D02*
X105213331Y-43096333D01*
X105213331Y-43096333D02*
X105246665Y-43163000D01*
X105246665Y-43163000D02*
X105246665Y-43363000D01*
X105246665Y-43363000D02*
X105213331Y-43429666D01*
X105213331Y-43429666D02*
X105179998Y-43463000D01*
X105179998Y-43463000D02*
X105113331Y-43496333D01*
X105113331Y-43496333D02*
X105013331Y-43496333D01*
X105846664Y-43496333D02*
X105846664Y-42796333D01*
X105846664Y-43463000D02*
X105779998Y-43496333D01*
X105779998Y-43496333D02*
X105646664Y-43496333D01*
X105646664Y-43496333D02*
X105579998Y-43463000D01*
X105579998Y-43463000D02*
X105546664Y-43429666D01*
X105546664Y-43429666D02*
X105513331Y-43363000D01*
X105513331Y-43363000D02*
X105513331Y-43163000D01*
X105513331Y-43163000D02*
X105546664Y-43096333D01*
X105546664Y-43096333D02*
X105579998Y-43063000D01*
X105579998Y-43063000D02*
X105646664Y-43029666D01*
X105646664Y-43029666D02*
X105779998Y-43029666D01*
X105779998Y-43029666D02*
X105846664Y-43063000D01*
X106446664Y-43463000D02*
X106379997Y-43496333D01*
X106379997Y-43496333D02*
X106246664Y-43496333D01*
X106246664Y-43496333D02*
X106179997Y-43463000D01*
X106179997Y-43463000D02*
X106146664Y-43396333D01*
X106146664Y-43396333D02*
X106146664Y-43129666D01*
X106146664Y-43129666D02*
X106179997Y-43063000D01*
X106179997Y-43063000D02*
X106246664Y-43029666D01*
X106246664Y-43029666D02*
X106379997Y-43029666D01*
X106379997Y-43029666D02*
X106446664Y-43063000D01*
X106446664Y-43063000D02*
X106479997Y-43129666D01*
X106479997Y-43129666D02*
X106479997Y-43196333D01*
X106479997Y-43196333D02*
X106146664Y-43263000D01*
X106779997Y-43496333D02*
X106779997Y-43029666D01*
X106779997Y-43096333D02*
X106813331Y-43063000D01*
X106813331Y-43063000D02*
X106879997Y-43029666D01*
X106879997Y-43029666D02*
X106979997Y-43029666D01*
X106979997Y-43029666D02*
X107046664Y-43063000D01*
X107046664Y-43063000D02*
X107079997Y-43129666D01*
X107079997Y-43129666D02*
X107079997Y-43496333D01*
X107079997Y-43129666D02*
X107113331Y-43063000D01*
X107113331Y-43063000D02*
X107179997Y-43029666D01*
X107179997Y-43029666D02*
X107279997Y-43029666D01*
X107279997Y-43029666D02*
X107346664Y-43063000D01*
X107346664Y-43063000D02*
X107379997Y-43129666D01*
X107379997Y-43129666D02*
X107379997Y-43496333D01*
X93446666Y-44163666D02*
X93446666Y-44730333D01*
X93446666Y-44730333D02*
X93413333Y-44797000D01*
X93413333Y-44797000D02*
X93380000Y-44830333D01*
X93380000Y-44830333D02*
X93313333Y-44863666D01*
X93313333Y-44863666D02*
X93213333Y-44863666D01*
X93213333Y-44863666D02*
X93146666Y-44830333D01*
X93446666Y-44597000D02*
X93380000Y-44630333D01*
X93380000Y-44630333D02*
X93246666Y-44630333D01*
X93246666Y-44630333D02*
X93180000Y-44597000D01*
X93180000Y-44597000D02*
X93146666Y-44563666D01*
X93146666Y-44563666D02*
X93113333Y-44497000D01*
X93113333Y-44497000D02*
X93113333Y-44297000D01*
X93113333Y-44297000D02*
X93146666Y-44230333D01*
X93146666Y-44230333D02*
X93180000Y-44197000D01*
X93180000Y-44197000D02*
X93246666Y-44163666D01*
X93246666Y-44163666D02*
X93380000Y-44163666D01*
X93380000Y-44163666D02*
X93446666Y-44197000D01*
X93779999Y-44630333D02*
X93779999Y-44163666D01*
X93779999Y-43930333D02*
X93746666Y-43963666D01*
X93746666Y-43963666D02*
X93779999Y-43997000D01*
X93779999Y-43997000D02*
X93813333Y-43963666D01*
X93813333Y-43963666D02*
X93779999Y-43930333D01*
X93779999Y-43930333D02*
X93779999Y-43997000D01*
X94013332Y-44163666D02*
X94279999Y-44163666D01*
X94113332Y-43930333D02*
X94113332Y-44530333D01*
X94113332Y-44530333D02*
X94146666Y-44597000D01*
X94146666Y-44597000D02*
X94213332Y-44630333D01*
X94213332Y-44630333D02*
X94279999Y-44630333D01*
X94513332Y-44630333D02*
X94513332Y-43930333D01*
X94813332Y-44630333D02*
X94813332Y-44263666D01*
X94813332Y-44263666D02*
X94779999Y-44197000D01*
X94779999Y-44197000D02*
X94713332Y-44163666D01*
X94713332Y-44163666D02*
X94613332Y-44163666D01*
X94613332Y-44163666D02*
X94546666Y-44197000D01*
X94546666Y-44197000D02*
X94513332Y-44230333D01*
X95446665Y-44163666D02*
X95446665Y-44630333D01*
X95146665Y-44163666D02*
X95146665Y-44530333D01*
X95146665Y-44530333D02*
X95179999Y-44597000D01*
X95179999Y-44597000D02*
X95246665Y-44630333D01*
X95246665Y-44630333D02*
X95346665Y-44630333D01*
X95346665Y-44630333D02*
X95413332Y-44597000D01*
X95413332Y-44597000D02*
X95446665Y-44563666D01*
X95779998Y-44630333D02*
X95779998Y-43930333D01*
X95779998Y-44197000D02*
X95846665Y-44163666D01*
X95846665Y-44163666D02*
X95979998Y-44163666D01*
X95979998Y-44163666D02*
X96046665Y-44197000D01*
X96046665Y-44197000D02*
X96079998Y-44230333D01*
X96079998Y-44230333D02*
X96113332Y-44297000D01*
X96113332Y-44297000D02*
X96113332Y-44497000D01*
X96113332Y-44497000D02*
X96079998Y-44563666D01*
X96079998Y-44563666D02*
X96046665Y-44597000D01*
X96046665Y-44597000D02*
X95979998Y-44630333D01*
X95979998Y-44630333D02*
X95846665Y-44630333D01*
X95846665Y-44630333D02*
X95779998Y-44597000D01*
X96413331Y-44563666D02*
X96446665Y-44597000D01*
X96446665Y-44597000D02*
X96413331Y-44630333D01*
X96413331Y-44630333D02*
X96379998Y-44597000D01*
X96379998Y-44597000D02*
X96413331Y-44563666D01*
X96413331Y-44563666D02*
X96413331Y-44630333D01*
X97046664Y-44597000D02*
X96979998Y-44630333D01*
X96979998Y-44630333D02*
X96846664Y-44630333D01*
X96846664Y-44630333D02*
X96779998Y-44597000D01*
X96779998Y-44597000D02*
X96746664Y-44563666D01*
X96746664Y-44563666D02*
X96713331Y-44497000D01*
X96713331Y-44497000D02*
X96713331Y-44297000D01*
X96713331Y-44297000D02*
X96746664Y-44230333D01*
X96746664Y-44230333D02*
X96779998Y-44197000D01*
X96779998Y-44197000D02*
X96846664Y-44163666D01*
X96846664Y-44163666D02*
X96979998Y-44163666D01*
X96979998Y-44163666D02*
X97046664Y-44197000D01*
X97446664Y-44630333D02*
X97379998Y-44597000D01*
X97379998Y-44597000D02*
X97346664Y-44563666D01*
X97346664Y-44563666D02*
X97313331Y-44497000D01*
X97313331Y-44497000D02*
X97313331Y-44297000D01*
X97313331Y-44297000D02*
X97346664Y-44230333D01*
X97346664Y-44230333D02*
X97379998Y-44197000D01*
X97379998Y-44197000D02*
X97446664Y-44163666D01*
X97446664Y-44163666D02*
X97546664Y-44163666D01*
X97546664Y-44163666D02*
X97613331Y-44197000D01*
X97613331Y-44197000D02*
X97646664Y-44230333D01*
X97646664Y-44230333D02*
X97679998Y-44297000D01*
X97679998Y-44297000D02*
X97679998Y-44497000D01*
X97679998Y-44497000D02*
X97646664Y-44563666D01*
X97646664Y-44563666D02*
X97613331Y-44597000D01*
X97613331Y-44597000D02*
X97546664Y-44630333D01*
X97546664Y-44630333D02*
X97446664Y-44630333D01*
X97979997Y-44630333D02*
X97979997Y-44163666D01*
X97979997Y-44230333D02*
X98013331Y-44197000D01*
X98013331Y-44197000D02*
X98079997Y-44163666D01*
X98079997Y-44163666D02*
X98179997Y-44163666D01*
X98179997Y-44163666D02*
X98246664Y-44197000D01*
X98246664Y-44197000D02*
X98279997Y-44263666D01*
X98279997Y-44263666D02*
X98279997Y-44630333D01*
X98279997Y-44263666D02*
X98313331Y-44197000D01*
X98313331Y-44197000D02*
X98379997Y-44163666D01*
X98379997Y-44163666D02*
X98479997Y-44163666D01*
X98479997Y-44163666D02*
X98546664Y-44197000D01*
X98546664Y-44197000D02*
X98579997Y-44263666D01*
X98579997Y-44263666D02*
X98579997Y-44630333D01*
X99413330Y-43897000D02*
X98813330Y-44797000D01*
X99946663Y-44163666D02*
X99946663Y-44630333D01*
X99646663Y-44163666D02*
X99646663Y-44530333D01*
X99646663Y-44530333D02*
X99679997Y-44597000D01*
X99679997Y-44597000D02*
X99746663Y-44630333D01*
X99746663Y-44630333D02*
X99846663Y-44630333D01*
X99846663Y-44630333D02*
X99913330Y-44597000D01*
X99913330Y-44597000D02*
X99946663Y-44563666D01*
X100279996Y-44630333D02*
X100279996Y-43930333D01*
X100579996Y-44630333D02*
X100579996Y-44263666D01*
X100579996Y-44263666D02*
X100546663Y-44197000D01*
X100546663Y-44197000D02*
X100479996Y-44163666D01*
X100479996Y-44163666D02*
X100379996Y-44163666D01*
X100379996Y-44163666D02*
X100313330Y-44197000D01*
X100313330Y-44197000D02*
X100279996Y-44230333D01*
X100913329Y-44630333D02*
X100913329Y-44163666D01*
X100913329Y-43930333D02*
X100879996Y-43963666D01*
X100879996Y-43963666D02*
X100913329Y-43997000D01*
X100913329Y-43997000D02*
X100946663Y-43963666D01*
X100946663Y-43963666D02*
X100913329Y-43930333D01*
X100913329Y-43930333D02*
X100913329Y-43997000D01*
X101213329Y-43997000D02*
X101246662Y-43963666D01*
X101246662Y-43963666D02*
X101313329Y-43930333D01*
X101313329Y-43930333D02*
X101479996Y-43930333D01*
X101479996Y-43930333D02*
X101546662Y-43963666D01*
X101546662Y-43963666D02*
X101579996Y-43997000D01*
X101579996Y-43997000D02*
X101613329Y-44063666D01*
X101613329Y-44063666D02*
X101613329Y-44130333D01*
X101613329Y-44130333D02*
X101579996Y-44230333D01*
X101579996Y-44230333D02*
X101179996Y-44630333D01*
X101179996Y-44630333D02*
X101613329Y-44630333D01*
X101879996Y-43997000D02*
X101913329Y-43963666D01*
X101913329Y-43963666D02*
X101979996Y-43930333D01*
X101979996Y-43930333D02*
X102146663Y-43930333D01*
X102146663Y-43930333D02*
X102213329Y-43963666D01*
X102213329Y-43963666D02*
X102246663Y-43997000D01*
X102246663Y-43997000D02*
X102279996Y-44063666D01*
X102279996Y-44063666D02*
X102279996Y-44130333D01*
X102279996Y-44130333D02*
X102246663Y-44230333D01*
X102246663Y-44230333D02*
X101846663Y-44630333D01*
X101846663Y-44630333D02*
X102279996Y-44630333D01*
X103079996Y-43897000D02*
X102479996Y-44797000D01*
X103779996Y-44697000D02*
X103713329Y-44663666D01*
X103713329Y-44663666D02*
X103646663Y-44597000D01*
X103646663Y-44597000D02*
X103546663Y-44497000D01*
X103546663Y-44497000D02*
X103479996Y-44463666D01*
X103479996Y-44463666D02*
X103413329Y-44463666D01*
X103446663Y-44630333D02*
X103379996Y-44597000D01*
X103379996Y-44597000D02*
X103313329Y-44530333D01*
X103313329Y-44530333D02*
X103279996Y-44397000D01*
X103279996Y-44397000D02*
X103279996Y-44163666D01*
X103279996Y-44163666D02*
X103313329Y-44030333D01*
X103313329Y-44030333D02*
X103379996Y-43963666D01*
X103379996Y-43963666D02*
X103446663Y-43930333D01*
X103446663Y-43930333D02*
X103579996Y-43930333D01*
X103579996Y-43930333D02*
X103646663Y-43963666D01*
X103646663Y-43963666D02*
X103713329Y-44030333D01*
X103713329Y-44030333D02*
X103746663Y-44163666D01*
X103746663Y-44163666D02*
X103746663Y-44397000D01*
X103746663Y-44397000D02*
X103713329Y-44530333D01*
X103713329Y-44530333D02*
X103646663Y-44597000D01*
X103646663Y-44597000D02*
X103579996Y-44630333D01*
X103579996Y-44630333D02*
X103446663Y-44630333D01*
X104446662Y-44563666D02*
X104413329Y-44597000D01*
X104413329Y-44597000D02*
X104313329Y-44630333D01*
X104313329Y-44630333D02*
X104246662Y-44630333D01*
X104246662Y-44630333D02*
X104146662Y-44597000D01*
X104146662Y-44597000D02*
X104079996Y-44530333D01*
X104079996Y-44530333D02*
X104046662Y-44463666D01*
X104046662Y-44463666D02*
X104013329Y-44330333D01*
X104013329Y-44330333D02*
X104013329Y-44230333D01*
X104013329Y-44230333D02*
X104046662Y-44097000D01*
X104046662Y-44097000D02*
X104079996Y-44030333D01*
X104079996Y-44030333D02*
X104146662Y-43963666D01*
X104146662Y-43963666D02*
X104246662Y-43930333D01*
X104246662Y-43930333D02*
X104313329Y-43930333D01*
X104313329Y-43930333D02*
X104413329Y-43963666D01*
X104413329Y-43963666D02*
X104446662Y-43997000D01*
X104713329Y-44430333D02*
X105046662Y-44430333D01*
X104646662Y-44630333D02*
X104879996Y-43930333D01*
X104879996Y-43930333D02*
X105113329Y-44630333D01*
X105279996Y-43930333D02*
X105746662Y-43930333D01*
X105746662Y-43930333D02*
X105446662Y-44630333D01*
X106146663Y-43930333D02*
X106213329Y-43930333D01*
X106213329Y-43930333D02*
X106279996Y-43963666D01*
X106279996Y-43963666D02*
X106313329Y-43997000D01*
X106313329Y-43997000D02*
X106346663Y-44063666D01*
X106346663Y-44063666D02*
X106379996Y-44197000D01*
X106379996Y-44197000D02*
X106379996Y-44363666D01*
X106379996Y-44363666D02*
X106346663Y-44497000D01*
X106346663Y-44497000D02*
X106313329Y-44563666D01*
X106313329Y-44563666D02*
X106279996Y-44597000D01*
X106279996Y-44597000D02*
X106213329Y-44630333D01*
X106213329Y-44630333D02*
X106146663Y-44630333D01*
X106146663Y-44630333D02*
X106079996Y-44597000D01*
X106079996Y-44597000D02*
X106046663Y-44563666D01*
X106046663Y-44563666D02*
X106013329Y-44497000D01*
X106013329Y-44497000D02*
X105979996Y-44363666D01*
X105979996Y-44363666D02*
X105979996Y-44197000D01*
X105979996Y-44197000D02*
X106013329Y-44063666D01*
X106013329Y-44063666D02*
X106046663Y-43997000D01*
X106046663Y-43997000D02*
X106079996Y-43963666D01*
X106079996Y-43963666D02*
X106146663Y-43930333D01*
X106813330Y-43930333D02*
X106879996Y-43930333D01*
X106879996Y-43930333D02*
X106946663Y-43963666D01*
X106946663Y-43963666D02*
X106979996Y-43997000D01*
X106979996Y-43997000D02*
X107013330Y-44063666D01*
X107013330Y-44063666D02*
X107046663Y-44197000D01*
X107046663Y-44197000D02*
X107046663Y-44363666D01*
X107046663Y-44363666D02*
X107013330Y-44497000D01*
X107013330Y-44497000D02*
X106979996Y-44563666D01*
X106979996Y-44563666D02*
X106946663Y-44597000D01*
X106946663Y-44597000D02*
X106879996Y-44630333D01*
X106879996Y-44630333D02*
X106813330Y-44630333D01*
X106813330Y-44630333D02*
X106746663Y-44597000D01*
X106746663Y-44597000D02*
X106713330Y-44563666D01*
X106713330Y-44563666D02*
X106679996Y-44497000D01*
X106679996Y-44497000D02*
X106646663Y-44363666D01*
X106646663Y-44363666D02*
X106646663Y-44197000D01*
X106646663Y-44197000D02*
X106679996Y-44063666D01*
X106679996Y-44063666D02*
X106713330Y-43997000D01*
X106713330Y-43997000D02*
X106746663Y-43963666D01*
X106746663Y-43963666D02*
X106813330Y-43930333D01*
X107479997Y-43930333D02*
X107546663Y-43930333D01*
X107546663Y-43930333D02*
X107613330Y-43963666D01*
X107613330Y-43963666D02*
X107646663Y-43997000D01*
X107646663Y-43997000D02*
X107679997Y-44063666D01*
X107679997Y-44063666D02*
X107713330Y-44197000D01*
X107713330Y-44197000D02*
X107713330Y-44363666D01*
X107713330Y-44363666D02*
X107679997Y-44497000D01*
X107679997Y-44497000D02*
X107646663Y-44563666D01*
X107646663Y-44563666D02*
X107613330Y-44597000D01*
X107613330Y-44597000D02*
X107546663Y-44630333D01*
X107546663Y-44630333D02*
X107479997Y-44630333D01*
X107479997Y-44630333D02*
X107413330Y-44597000D01*
X107413330Y-44597000D02*
X107379997Y-44563666D01*
X107379997Y-44563666D02*
X107346663Y-44497000D01*
X107346663Y-44497000D02*
X107313330Y-44363666D01*
X107313330Y-44363666D02*
X107313330Y-44197000D01*
X107313330Y-44197000D02*
X107346663Y-44063666D01*
X107346663Y-44063666D02*
X107379997Y-43997000D01*
X107379997Y-43997000D02*
X107413330Y-43963666D01*
X107413330Y-43963666D02*
X107479997Y-43930333D01*
X108013330Y-44630333D02*
X108013330Y-43930333D01*
X108013330Y-44197000D02*
X108079997Y-44163666D01*
X108079997Y-44163666D02*
X108213330Y-44163666D01*
X108213330Y-44163666D02*
X108279997Y-44197000D01*
X108279997Y-44197000D02*
X108313330Y-44230333D01*
X108313330Y-44230333D02*
X108346664Y-44297000D01*
X108346664Y-44297000D02*
X108346664Y-44497000D01*
X108346664Y-44497000D02*
X108313330Y-44563666D01*
X108313330Y-44563666D02*
X108279997Y-44597000D01*
X108279997Y-44597000D02*
X108213330Y-44630333D01*
X108213330Y-44630333D02*
X108079997Y-44630333D01*
X108079997Y-44630333D02*
X108013330Y-44597000D01*
X108746663Y-44630333D02*
X108679997Y-44597000D01*
X108679997Y-44597000D02*
X108646663Y-44563666D01*
X108646663Y-44563666D02*
X108613330Y-44497000D01*
X108613330Y-44497000D02*
X108613330Y-44297000D01*
X108613330Y-44297000D02*
X108646663Y-44230333D01*
X108646663Y-44230333D02*
X108679997Y-44197000D01*
X108679997Y-44197000D02*
X108746663Y-44163666D01*
X108746663Y-44163666D02*
X108846663Y-44163666D01*
X108846663Y-44163666D02*
X108913330Y-44197000D01*
X108913330Y-44197000D02*
X108946663Y-44230333D01*
X108946663Y-44230333D02*
X108979997Y-44297000D01*
X108979997Y-44297000D02*
X108979997Y-44497000D01*
X108979997Y-44497000D02*
X108946663Y-44563666D01*
X108946663Y-44563666D02*
X108913330Y-44597000D01*
X108913330Y-44597000D02*
X108846663Y-44630333D01*
X108846663Y-44630333D02*
X108746663Y-44630333D01*
X109579996Y-44630333D02*
X109579996Y-44263666D01*
X109579996Y-44263666D02*
X109546663Y-44197000D01*
X109546663Y-44197000D02*
X109479996Y-44163666D01*
X109479996Y-44163666D02*
X109346663Y-44163666D01*
X109346663Y-44163666D02*
X109279996Y-44197000D01*
X109579996Y-44597000D02*
X109513330Y-44630333D01*
X109513330Y-44630333D02*
X109346663Y-44630333D01*
X109346663Y-44630333D02*
X109279996Y-44597000D01*
X109279996Y-44597000D02*
X109246663Y-44530333D01*
X109246663Y-44530333D02*
X109246663Y-44463666D01*
X109246663Y-44463666D02*
X109279996Y-44397000D01*
X109279996Y-44397000D02*
X109346663Y-44363666D01*
X109346663Y-44363666D02*
X109513330Y-44363666D01*
X109513330Y-44363666D02*
X109579996Y-44330333D01*
X109913329Y-44630333D02*
X109913329Y-44163666D01*
X109913329Y-44297000D02*
X109946663Y-44230333D01*
X109946663Y-44230333D02*
X109979996Y-44197000D01*
X109979996Y-44197000D02*
X110046663Y-44163666D01*
X110046663Y-44163666D02*
X110113329Y-44163666D01*
X110646662Y-44630333D02*
X110646662Y-43930333D01*
X110646662Y-44597000D02*
X110579996Y-44630333D01*
X110579996Y-44630333D02*
X110446662Y-44630333D01*
X110446662Y-44630333D02*
X110379996Y-44597000D01*
X110379996Y-44597000D02*
X110346662Y-44563666D01*
X110346662Y-44563666D02*
X110313329Y-44497000D01*
X110313329Y-44497000D02*
X110313329Y-44297000D01*
X110313329Y-44297000D02*
X110346662Y-44230333D01*
X110346662Y-44230333D02*
X110379996Y-44197000D01*
X110379996Y-44197000D02*
X110446662Y-44163666D01*
X110446662Y-44163666D02*
X110579996Y-44163666D01*
X110579996Y-44163666D02*
X110646662Y-44197000D01*
X93080000Y-45297666D02*
X93246666Y-45764333D01*
X93246666Y-45764333D02*
X93413333Y-45297666D01*
X93946666Y-45731000D02*
X93879999Y-45764333D01*
X93879999Y-45764333D02*
X93746666Y-45764333D01*
X93746666Y-45764333D02*
X93679999Y-45731000D01*
X93679999Y-45731000D02*
X93646666Y-45664333D01*
X93646666Y-45664333D02*
X93646666Y-45397666D01*
X93646666Y-45397666D02*
X93679999Y-45331000D01*
X93679999Y-45331000D02*
X93746666Y-45297666D01*
X93746666Y-45297666D02*
X93879999Y-45297666D01*
X93879999Y-45297666D02*
X93946666Y-45331000D01*
X93946666Y-45331000D02*
X93979999Y-45397666D01*
X93979999Y-45397666D02*
X93979999Y-45464333D01*
X93979999Y-45464333D02*
X93646666Y-45531000D01*
X94279999Y-45764333D02*
X94279999Y-45297666D01*
X94279999Y-45431000D02*
X94313333Y-45364333D01*
X94313333Y-45364333D02*
X94346666Y-45331000D01*
X94346666Y-45331000D02*
X94413333Y-45297666D01*
X94413333Y-45297666D02*
X94479999Y-45297666D01*
X94679999Y-45731000D02*
X94746666Y-45764333D01*
X94746666Y-45764333D02*
X94879999Y-45764333D01*
X94879999Y-45764333D02*
X94946666Y-45731000D01*
X94946666Y-45731000D02*
X94979999Y-45664333D01*
X94979999Y-45664333D02*
X94979999Y-45631000D01*
X94979999Y-45631000D02*
X94946666Y-45564333D01*
X94946666Y-45564333D02*
X94879999Y-45531000D01*
X94879999Y-45531000D02*
X94779999Y-45531000D01*
X94779999Y-45531000D02*
X94713332Y-45497666D01*
X94713332Y-45497666D02*
X94679999Y-45431000D01*
X94679999Y-45431000D02*
X94679999Y-45397666D01*
X94679999Y-45397666D02*
X94713332Y-45331000D01*
X94713332Y-45331000D02*
X94779999Y-45297666D01*
X94779999Y-45297666D02*
X94879999Y-45297666D01*
X94879999Y-45297666D02*
X94946666Y-45331000D01*
X95279999Y-45764333D02*
X95279999Y-45297666D01*
X95279999Y-45064333D02*
X95246666Y-45097666D01*
X95246666Y-45097666D02*
X95279999Y-45131000D01*
X95279999Y-45131000D02*
X95313333Y-45097666D01*
X95313333Y-45097666D02*
X95279999Y-45064333D01*
X95279999Y-45064333D02*
X95279999Y-45131000D01*
X95713332Y-45764333D02*
X95646666Y-45731000D01*
X95646666Y-45731000D02*
X95613332Y-45697666D01*
X95613332Y-45697666D02*
X95579999Y-45631000D01*
X95579999Y-45631000D02*
X95579999Y-45431000D01*
X95579999Y-45431000D02*
X95613332Y-45364333D01*
X95613332Y-45364333D02*
X95646666Y-45331000D01*
X95646666Y-45331000D02*
X95713332Y-45297666D01*
X95713332Y-45297666D02*
X95813332Y-45297666D01*
X95813332Y-45297666D02*
X95879999Y-45331000D01*
X95879999Y-45331000D02*
X95913332Y-45364333D01*
X95913332Y-45364333D02*
X95946666Y-45431000D01*
X95946666Y-45431000D02*
X95946666Y-45631000D01*
X95946666Y-45631000D02*
X95913332Y-45697666D01*
X95913332Y-45697666D02*
X95879999Y-45731000D01*
X95879999Y-45731000D02*
X95813332Y-45764333D01*
X95813332Y-45764333D02*
X95713332Y-45764333D01*
X96246665Y-45297666D02*
X96246665Y-45764333D01*
X96246665Y-45364333D02*
X96279999Y-45331000D01*
X96279999Y-45331000D02*
X96346665Y-45297666D01*
X96346665Y-45297666D02*
X96446665Y-45297666D01*
X96446665Y-45297666D02*
X96513332Y-45331000D01*
X96513332Y-45331000D02*
X96546665Y-45397666D01*
X96546665Y-45397666D02*
X96546665Y-45764333D01*
X97613331Y-45064333D02*
X97613331Y-45564333D01*
X97613331Y-45564333D02*
X97579998Y-45664333D01*
X97579998Y-45664333D02*
X97513331Y-45731000D01*
X97513331Y-45731000D02*
X97413331Y-45764333D01*
X97413331Y-45764333D02*
X97346665Y-45764333D01*
X98246664Y-45297666D02*
X98246664Y-45764333D01*
X97946664Y-45297666D02*
X97946664Y-45664333D01*
X97946664Y-45664333D02*
X97979998Y-45731000D01*
X97979998Y-45731000D02*
X98046664Y-45764333D01*
X98046664Y-45764333D02*
X98146664Y-45764333D01*
X98146664Y-45764333D02*
X98213331Y-45731000D01*
X98213331Y-45731000D02*
X98246664Y-45697666D01*
X98579997Y-45297666D02*
X98579997Y-45764333D01*
X98579997Y-45364333D02*
X98613331Y-45331000D01*
X98613331Y-45331000D02*
X98679997Y-45297666D01*
X98679997Y-45297666D02*
X98779997Y-45297666D01*
X98779997Y-45297666D02*
X98846664Y-45331000D01*
X98846664Y-45331000D02*
X98879997Y-45397666D01*
X98879997Y-45397666D02*
X98879997Y-45764333D01*
X99479997Y-45731000D02*
X99413330Y-45764333D01*
X99413330Y-45764333D02*
X99279997Y-45764333D01*
X99279997Y-45764333D02*
X99213330Y-45731000D01*
X99213330Y-45731000D02*
X99179997Y-45664333D01*
X99179997Y-45664333D02*
X99179997Y-45397666D01*
X99179997Y-45397666D02*
X99213330Y-45331000D01*
X99213330Y-45331000D02*
X99279997Y-45297666D01*
X99279997Y-45297666D02*
X99413330Y-45297666D01*
X99413330Y-45297666D02*
X99479997Y-45331000D01*
X99479997Y-45331000D02*
X99513330Y-45397666D01*
X99513330Y-45397666D02*
X99513330Y-45464333D01*
X99513330Y-45464333D02*
X99179997Y-45531000D01*
X100313330Y-45131000D02*
X100346663Y-45097666D01*
X100346663Y-45097666D02*
X100413330Y-45064333D01*
X100413330Y-45064333D02*
X100579997Y-45064333D01*
X100579997Y-45064333D02*
X100646663Y-45097666D01*
X100646663Y-45097666D02*
X100679997Y-45131000D01*
X100679997Y-45131000D02*
X100713330Y-45197666D01*
X100713330Y-45197666D02*
X100713330Y-45264333D01*
X100713330Y-45264333D02*
X100679997Y-45364333D01*
X100679997Y-45364333D02*
X100279997Y-45764333D01*
X100279997Y-45764333D02*
X100713330Y-45764333D01*
X101146664Y-45064333D02*
X101213330Y-45064333D01*
X101213330Y-45064333D02*
X101279997Y-45097666D01*
X101279997Y-45097666D02*
X101313330Y-45131000D01*
X101313330Y-45131000D02*
X101346664Y-45197666D01*
X101346664Y-45197666D02*
X101379997Y-45331000D01*
X101379997Y-45331000D02*
X101379997Y-45497666D01*
X101379997Y-45497666D02*
X101346664Y-45631000D01*
X101346664Y-45631000D02*
X101313330Y-45697666D01*
X101313330Y-45697666D02*
X101279997Y-45731000D01*
X101279997Y-45731000D02*
X101213330Y-45764333D01*
X101213330Y-45764333D02*
X101146664Y-45764333D01*
X101146664Y-45764333D02*
X101079997Y-45731000D01*
X101079997Y-45731000D02*
X101046664Y-45697666D01*
X101046664Y-45697666D02*
X101013330Y-45631000D01*
X101013330Y-45631000D02*
X100979997Y-45497666D01*
X100979997Y-45497666D02*
X100979997Y-45331000D01*
X100979997Y-45331000D02*
X101013330Y-45197666D01*
X101013330Y-45197666D02*
X101046664Y-45131000D01*
X101046664Y-45131000D02*
X101079997Y-45097666D01*
X101079997Y-45097666D02*
X101146664Y-45064333D01*
X101646664Y-45131000D02*
X101679997Y-45097666D01*
X101679997Y-45097666D02*
X101746664Y-45064333D01*
X101746664Y-45064333D02*
X101913331Y-45064333D01*
X101913331Y-45064333D02*
X101979997Y-45097666D01*
X101979997Y-45097666D02*
X102013331Y-45131000D01*
X102013331Y-45131000D02*
X102046664Y-45197666D01*
X102046664Y-45197666D02*
X102046664Y-45264333D01*
X102046664Y-45264333D02*
X102013331Y-45364333D01*
X102013331Y-45364333D02*
X101613331Y-45764333D01*
X101613331Y-45764333D02*
X102046664Y-45764333D01*
X102279998Y-45064333D02*
X102713331Y-45064333D01*
X102713331Y-45064333D02*
X102479998Y-45331000D01*
X102479998Y-45331000D02*
X102579998Y-45331000D01*
X102579998Y-45331000D02*
X102646664Y-45364333D01*
X102646664Y-45364333D02*
X102679998Y-45397666D01*
X102679998Y-45397666D02*
X102713331Y-45464333D01*
X102713331Y-45464333D02*
X102713331Y-45631000D01*
X102713331Y-45631000D02*
X102679998Y-45697666D01*
X102679998Y-45697666D02*
X102646664Y-45731000D01*
X102646664Y-45731000D02*
X102579998Y-45764333D01*
X102579998Y-45764333D02*
X102379998Y-45764333D01*
X102379998Y-45764333D02*
X102313331Y-45731000D01*
X102313331Y-45731000D02*
X102279998Y-45697666D01*
D11*
X143182380Y-41522857D02*
X143182380Y-42141904D01*
X143182380Y-42141904D02*
X142801428Y-41808571D01*
X142801428Y-41808571D02*
X142801428Y-41951428D01*
X142801428Y-41951428D02*
X142753809Y-42046666D01*
X142753809Y-42046666D02*
X142706190Y-42094285D01*
X142706190Y-42094285D02*
X142610952Y-42141904D01*
X142610952Y-42141904D02*
X142372857Y-42141904D01*
X142372857Y-42141904D02*
X142277619Y-42094285D01*
X142277619Y-42094285D02*
X142230000Y-42046666D01*
X142230000Y-42046666D02*
X142182380Y-41951428D01*
X142182380Y-41951428D02*
X142182380Y-41665714D01*
X142182380Y-41665714D02*
X142230000Y-41570476D01*
X142230000Y-41570476D02*
X142277619Y-41522857D01*
X143182380Y-42427619D02*
X142182380Y-42760952D01*
X142182380Y-42760952D02*
X143182380Y-43094285D01*
X143182380Y-43332381D02*
X143182380Y-43951428D01*
X143182380Y-43951428D02*
X142801428Y-43618095D01*
X142801428Y-43618095D02*
X142801428Y-43760952D01*
X142801428Y-43760952D02*
X142753809Y-43856190D01*
X142753809Y-43856190D02*
X142706190Y-43903809D01*
X142706190Y-43903809D02*
X142610952Y-43951428D01*
X142610952Y-43951428D02*
X142372857Y-43951428D01*
X142372857Y-43951428D02*
X142277619Y-43903809D01*
X142277619Y-43903809D02*
X142230000Y-43856190D01*
X142230000Y-43856190D02*
X142182380Y-43760952D01*
X142182380Y-43760952D02*
X142182380Y-43475238D01*
X142182380Y-43475238D02*
X142230000Y-43380000D01*
X142230000Y-43380000D02*
X142277619Y-43332381D01*
X144554761Y-42181904D02*
X144602380Y-42086666D01*
X144602380Y-42086666D02*
X144602380Y-41943809D01*
X144602380Y-41943809D02*
X144554761Y-41800952D01*
X144554761Y-41800952D02*
X144459523Y-41705714D01*
X144459523Y-41705714D02*
X144364285Y-41658095D01*
X144364285Y-41658095D02*
X144173809Y-41610476D01*
X144173809Y-41610476D02*
X144030952Y-41610476D01*
X144030952Y-41610476D02*
X143840476Y-41658095D01*
X143840476Y-41658095D02*
X143745238Y-41705714D01*
X143745238Y-41705714D02*
X143650000Y-41800952D01*
X143650000Y-41800952D02*
X143602380Y-41943809D01*
X143602380Y-41943809D02*
X143602380Y-42039047D01*
X143602380Y-42039047D02*
X143650000Y-42181904D01*
X143650000Y-42181904D02*
X143697619Y-42229523D01*
X143697619Y-42229523D02*
X144030952Y-42229523D01*
X144030952Y-42229523D02*
X144030952Y-42039047D01*
X143602380Y-42658095D02*
X144602380Y-42658095D01*
X144602380Y-42658095D02*
X143602380Y-43229523D01*
X143602380Y-43229523D02*
X144602380Y-43229523D01*
X143602380Y-43705714D02*
X144602380Y-43705714D01*
X144602380Y-43705714D02*
X144602380Y-43943809D01*
X144602380Y-43943809D02*
X144554761Y-44086666D01*
X144554761Y-44086666D02*
X144459523Y-44181904D01*
X144459523Y-44181904D02*
X144364285Y-44229523D01*
X144364285Y-44229523D02*
X144173809Y-44277142D01*
X144173809Y-44277142D02*
X144030952Y-44277142D01*
X144030952Y-44277142D02*
X143840476Y-44229523D01*
X143840476Y-44229523D02*
X143745238Y-44181904D01*
X143745238Y-44181904D02*
X143650000Y-44086666D01*
X143650000Y-44086666D02*
X143602380Y-43943809D01*
X143602380Y-43943809D02*
X143602380Y-43705714D01*
X140672380Y-42409523D02*
X141148571Y-42076190D01*
X140672380Y-41838095D02*
X141672380Y-41838095D01*
X141672380Y-41838095D02*
X141672380Y-42219047D01*
X141672380Y-42219047D02*
X141624761Y-42314285D01*
X141624761Y-42314285D02*
X141577142Y-42361904D01*
X141577142Y-42361904D02*
X141481904Y-42409523D01*
X141481904Y-42409523D02*
X141339047Y-42409523D01*
X141339047Y-42409523D02*
X141243809Y-42361904D01*
X141243809Y-42361904D02*
X141196190Y-42314285D01*
X141196190Y-42314285D02*
X141148571Y-42219047D01*
X141148571Y-42219047D02*
X141148571Y-41838095D01*
X141196190Y-42838095D02*
X141196190Y-43171428D01*
X140672380Y-43314285D02*
X140672380Y-42838095D01*
X140672380Y-42838095D02*
X141672380Y-42838095D01*
X141672380Y-42838095D02*
X141672380Y-43314285D01*
X140720000Y-43695238D02*
X140672380Y-43838095D01*
X140672380Y-43838095D02*
X140672380Y-44076190D01*
X140672380Y-44076190D02*
X140720000Y-44171428D01*
X140720000Y-44171428D02*
X140767619Y-44219047D01*
X140767619Y-44219047D02*
X140862857Y-44266666D01*
X140862857Y-44266666D02*
X140958095Y-44266666D01*
X140958095Y-44266666D02*
X141053333Y-44219047D01*
X141053333Y-44219047D02*
X141100952Y-44171428D01*
X141100952Y-44171428D02*
X141148571Y-44076190D01*
X141148571Y-44076190D02*
X141196190Y-43885714D01*
X141196190Y-43885714D02*
X141243809Y-43790476D01*
X141243809Y-43790476D02*
X141291428Y-43742857D01*
X141291428Y-43742857D02*
X141386666Y-43695238D01*
X141386666Y-43695238D02*
X141481904Y-43695238D01*
X141481904Y-43695238D02*
X141577142Y-43742857D01*
X141577142Y-43742857D02*
X141624761Y-43790476D01*
X141624761Y-43790476D02*
X141672380Y-43885714D01*
X141672380Y-43885714D02*
X141672380Y-44123809D01*
X141672380Y-44123809D02*
X141624761Y-44266666D01*
X127852380Y-44138095D02*
X128852380Y-44138095D01*
X128852380Y-44138095D02*
X128138095Y-44471428D01*
X128138095Y-44471428D02*
X128852380Y-44804761D01*
X128852380Y-44804761D02*
X127852380Y-44804761D01*
X128852380Y-45471428D02*
X128852380Y-45661904D01*
X128852380Y-45661904D02*
X128804761Y-45757142D01*
X128804761Y-45757142D02*
X128709523Y-45852380D01*
X128709523Y-45852380D02*
X128519047Y-45899999D01*
X128519047Y-45899999D02*
X128185714Y-45899999D01*
X128185714Y-45899999D02*
X127995238Y-45852380D01*
X127995238Y-45852380D02*
X127900000Y-45757142D01*
X127900000Y-45757142D02*
X127852380Y-45661904D01*
X127852380Y-45661904D02*
X127852380Y-45471428D01*
X127852380Y-45471428D02*
X127900000Y-45376190D01*
X127900000Y-45376190D02*
X127995238Y-45280952D01*
X127995238Y-45280952D02*
X128185714Y-45233333D01*
X128185714Y-45233333D02*
X128519047Y-45233333D01*
X128519047Y-45233333D02*
X128709523Y-45280952D01*
X128709523Y-45280952D02*
X128804761Y-45376190D01*
X128804761Y-45376190D02*
X128852380Y-45471428D01*
X127900000Y-46280952D02*
X127852380Y-46423809D01*
X127852380Y-46423809D02*
X127852380Y-46661904D01*
X127852380Y-46661904D02*
X127900000Y-46757142D01*
X127900000Y-46757142D02*
X127947619Y-46804761D01*
X127947619Y-46804761D02*
X128042857Y-46852380D01*
X128042857Y-46852380D02*
X128138095Y-46852380D01*
X128138095Y-46852380D02*
X128233333Y-46804761D01*
X128233333Y-46804761D02*
X128280952Y-46757142D01*
X128280952Y-46757142D02*
X128328571Y-46661904D01*
X128328571Y-46661904D02*
X128376190Y-46471428D01*
X128376190Y-46471428D02*
X128423809Y-46376190D01*
X128423809Y-46376190D02*
X128471428Y-46328571D01*
X128471428Y-46328571D02*
X128566666Y-46280952D01*
X128566666Y-46280952D02*
X128661904Y-46280952D01*
X128661904Y-46280952D02*
X128757142Y-46328571D01*
X128757142Y-46328571D02*
X128804761Y-46376190D01*
X128804761Y-46376190D02*
X128852380Y-46471428D01*
X128852380Y-46471428D02*
X128852380Y-46709523D01*
X128852380Y-46709523D02*
X128804761Y-46852380D01*
X127852380Y-47280952D02*
X128852380Y-47280952D01*
X125952380Y-44198095D02*
X126952380Y-44198095D01*
X126952380Y-44198095D02*
X126238095Y-44531428D01*
X126238095Y-44531428D02*
X126952380Y-44864761D01*
X126952380Y-44864761D02*
X125952380Y-44864761D01*
X125952380Y-45340952D02*
X126952380Y-45340952D01*
X126000000Y-45769523D02*
X125952380Y-45912380D01*
X125952380Y-45912380D02*
X125952380Y-46150475D01*
X125952380Y-46150475D02*
X126000000Y-46245713D01*
X126000000Y-46245713D02*
X126047619Y-46293332D01*
X126047619Y-46293332D02*
X126142857Y-46340951D01*
X126142857Y-46340951D02*
X126238095Y-46340951D01*
X126238095Y-46340951D02*
X126333333Y-46293332D01*
X126333333Y-46293332D02*
X126380952Y-46245713D01*
X126380952Y-46245713D02*
X126428571Y-46150475D01*
X126428571Y-46150475D02*
X126476190Y-45959999D01*
X126476190Y-45959999D02*
X126523809Y-45864761D01*
X126523809Y-45864761D02*
X126571428Y-45817142D01*
X126571428Y-45817142D02*
X126666666Y-45769523D01*
X126666666Y-45769523D02*
X126761904Y-45769523D01*
X126761904Y-45769523D02*
X126857142Y-45817142D01*
X126857142Y-45817142D02*
X126904761Y-45864761D01*
X126904761Y-45864761D02*
X126952380Y-45959999D01*
X126952380Y-45959999D02*
X126952380Y-46198094D01*
X126952380Y-46198094D02*
X126904761Y-46340951D01*
X126952380Y-46959999D02*
X126952380Y-47150475D01*
X126952380Y-47150475D02*
X126904761Y-47245713D01*
X126904761Y-47245713D02*
X126809523Y-47340951D01*
X126809523Y-47340951D02*
X126619047Y-47388570D01*
X126619047Y-47388570D02*
X126285714Y-47388570D01*
X126285714Y-47388570D02*
X126095238Y-47340951D01*
X126095238Y-47340951D02*
X126000000Y-47245713D01*
X126000000Y-47245713D02*
X125952380Y-47150475D01*
X125952380Y-47150475D02*
X125952380Y-46959999D01*
X125952380Y-46959999D02*
X126000000Y-46864761D01*
X126000000Y-46864761D02*
X126095238Y-46769523D01*
X126095238Y-46769523D02*
X126285714Y-46721904D01*
X126285714Y-46721904D02*
X126619047Y-46721904D01*
X126619047Y-46721904D02*
X126809523Y-46769523D01*
X126809523Y-46769523D02*
X126904761Y-46864761D01*
X126904761Y-46864761D02*
X126952380Y-46959999D01*
X123737619Y-45029523D02*
X123690000Y-44981904D01*
X123690000Y-44981904D02*
X123642380Y-44839047D01*
X123642380Y-44839047D02*
X123642380Y-44743809D01*
X123642380Y-44743809D02*
X123690000Y-44600952D01*
X123690000Y-44600952D02*
X123785238Y-44505714D01*
X123785238Y-44505714D02*
X123880476Y-44458095D01*
X123880476Y-44458095D02*
X124070952Y-44410476D01*
X124070952Y-44410476D02*
X124213809Y-44410476D01*
X124213809Y-44410476D02*
X124404285Y-44458095D01*
X124404285Y-44458095D02*
X124499523Y-44505714D01*
X124499523Y-44505714D02*
X124594761Y-44600952D01*
X124594761Y-44600952D02*
X124642380Y-44743809D01*
X124642380Y-44743809D02*
X124642380Y-44839047D01*
X124642380Y-44839047D02*
X124594761Y-44981904D01*
X124594761Y-44981904D02*
X124547142Y-45029523D01*
X123690000Y-45410476D02*
X123642380Y-45553333D01*
X123642380Y-45553333D02*
X123642380Y-45791428D01*
X123642380Y-45791428D02*
X123690000Y-45886666D01*
X123690000Y-45886666D02*
X123737619Y-45934285D01*
X123737619Y-45934285D02*
X123832857Y-45981904D01*
X123832857Y-45981904D02*
X123928095Y-45981904D01*
X123928095Y-45981904D02*
X124023333Y-45934285D01*
X124023333Y-45934285D02*
X124070952Y-45886666D01*
X124070952Y-45886666D02*
X124118571Y-45791428D01*
X124118571Y-45791428D02*
X124166190Y-45600952D01*
X124166190Y-45600952D02*
X124213809Y-45505714D01*
X124213809Y-45505714D02*
X124261428Y-45458095D01*
X124261428Y-45458095D02*
X124356666Y-45410476D01*
X124356666Y-45410476D02*
X124451904Y-45410476D01*
X124451904Y-45410476D02*
X124547142Y-45458095D01*
X124547142Y-45458095D02*
X124594761Y-45505714D01*
X124594761Y-45505714D02*
X124642380Y-45600952D01*
X124642380Y-45600952D02*
X124642380Y-45839047D01*
X124642380Y-45839047D02*
X124594761Y-45981904D01*
X121137619Y-44899523D02*
X121090000Y-44851904D01*
X121090000Y-44851904D02*
X121042380Y-44709047D01*
X121042380Y-44709047D02*
X121042380Y-44613809D01*
X121042380Y-44613809D02*
X121090000Y-44470952D01*
X121090000Y-44470952D02*
X121185238Y-44375714D01*
X121185238Y-44375714D02*
X121280476Y-44328095D01*
X121280476Y-44328095D02*
X121470952Y-44280476D01*
X121470952Y-44280476D02*
X121613809Y-44280476D01*
X121613809Y-44280476D02*
X121804285Y-44328095D01*
X121804285Y-44328095D02*
X121899523Y-44375714D01*
X121899523Y-44375714D02*
X121994761Y-44470952D01*
X121994761Y-44470952D02*
X122042380Y-44613809D01*
X122042380Y-44613809D02*
X122042380Y-44709047D01*
X122042380Y-44709047D02*
X121994761Y-44851904D01*
X121994761Y-44851904D02*
X121947142Y-44899523D01*
X121042380Y-45804285D02*
X121042380Y-45328095D01*
X121042380Y-45328095D02*
X122042380Y-45328095D01*
X121042380Y-46137619D02*
X122042380Y-46137619D01*
X121042380Y-46709047D02*
X121613809Y-46280476D01*
X122042380Y-46709047D02*
X121470952Y-46137619D01*
X118332380Y-44248095D02*
X119332380Y-44248095D01*
X118332380Y-44724285D02*
X119332380Y-44724285D01*
X119332380Y-44724285D02*
X118332380Y-45295713D01*
X118332380Y-45295713D02*
X119332380Y-45295713D01*
X119332380Y-45629047D02*
X119332380Y-46200475D01*
X118332380Y-45914761D02*
X119332380Y-45914761D01*
D12*
X140530000Y-59800000D02*
X140930000Y-59800000D01*
X140350000Y-61840000D02*
X140750000Y-61840000D01*
X140340000Y-63800000D02*
X140740000Y-63800000D01*
X138430000Y-66300000D02*
X138430000Y-66700000D01*
X136420000Y-66280000D02*
X136420000Y-66680000D01*
X134410000Y-66170000D02*
X134410000Y-66570000D01*
X132430000Y-66340000D02*
X132430000Y-66740000D01*
X130970000Y-63390000D02*
X130570000Y-63390000D01*
X131030000Y-61410000D02*
X130440000Y-61390000D01*
X131125000Y-59400000D02*
X130535000Y-59400000D01*
X133240000Y-56895000D02*
X133240000Y-56305000D01*
X135260000Y-56895000D02*
X135260000Y-56305000D01*
X137210000Y-56770000D02*
X137210000Y-56150000D01*
%TO.C,J1*%
X92246666Y-68612619D02*
X92246666Y-69326904D01*
X92246666Y-69326904D02*
X92199047Y-69469761D01*
X92199047Y-69469761D02*
X92103809Y-69565000D01*
X92103809Y-69565000D02*
X91960952Y-69612619D01*
X91960952Y-69612619D02*
X91865714Y-69612619D01*
X93246666Y-69612619D02*
X92675238Y-69612619D01*
X92960952Y-69612619D02*
X92960952Y-68612619D01*
X92960952Y-68612619D02*
X92865714Y-68755476D01*
X92865714Y-68755476D02*
X92770476Y-68850714D01*
X92770476Y-68850714D02*
X92675238Y-68898333D01*
%TO.C,D7*%
X116211369Y-48338094D02*
X115211369Y-48338094D01*
X115211369Y-48338094D02*
X115211369Y-48099999D01*
X115211369Y-48099999D02*
X115258988Y-47957142D01*
X115258988Y-47957142D02*
X115354226Y-47861904D01*
X115354226Y-47861904D02*
X115449464Y-47814285D01*
X115449464Y-47814285D02*
X115639940Y-47766666D01*
X115639940Y-47766666D02*
X115782797Y-47766666D01*
X115782797Y-47766666D02*
X115973273Y-47814285D01*
X115973273Y-47814285D02*
X116068511Y-47861904D01*
X116068511Y-47861904D02*
X116163750Y-47957142D01*
X116163750Y-47957142D02*
X116211369Y-48099999D01*
X116211369Y-48099999D02*
X116211369Y-48338094D01*
X115211369Y-47433332D02*
X115211369Y-46766666D01*
X115211369Y-46766666D02*
X116211369Y-47195237D01*
%TO.C,TP9*%
X153638095Y-52464619D02*
X154209523Y-52464619D01*
X153923809Y-53464619D02*
X153923809Y-52464619D01*
X154542857Y-53464619D02*
X154542857Y-52464619D01*
X154542857Y-52464619D02*
X154923809Y-52464619D01*
X154923809Y-52464619D02*
X155019047Y-52512238D01*
X155019047Y-52512238D02*
X155066666Y-52559857D01*
X155066666Y-52559857D02*
X155114285Y-52655095D01*
X155114285Y-52655095D02*
X155114285Y-52797952D01*
X155114285Y-52797952D02*
X155066666Y-52893190D01*
X155066666Y-52893190D02*
X155019047Y-52940809D01*
X155019047Y-52940809D02*
X154923809Y-52988428D01*
X154923809Y-52988428D02*
X154542857Y-52988428D01*
X155590476Y-53464619D02*
X155780952Y-53464619D01*
X155780952Y-53464619D02*
X155876190Y-53417000D01*
X155876190Y-53417000D02*
X155923809Y-53369380D01*
X155923809Y-53369380D02*
X156019047Y-53226523D01*
X156019047Y-53226523D02*
X156066666Y-53036047D01*
X156066666Y-53036047D02*
X156066666Y-52655095D01*
X156066666Y-52655095D02*
X156019047Y-52559857D01*
X156019047Y-52559857D02*
X155971428Y-52512238D01*
X155971428Y-52512238D02*
X155876190Y-52464619D01*
X155876190Y-52464619D02*
X155685714Y-52464619D01*
X155685714Y-52464619D02*
X155590476Y-52512238D01*
X155590476Y-52512238D02*
X155542857Y-52559857D01*
X155542857Y-52559857D02*
X155495238Y-52655095D01*
X155495238Y-52655095D02*
X155495238Y-52893190D01*
X155495238Y-52893190D02*
X155542857Y-52988428D01*
X155542857Y-52988428D02*
X155590476Y-53036047D01*
X155590476Y-53036047D02*
X155685714Y-53083666D01*
X155685714Y-53083666D02*
X155876190Y-53083666D01*
X155876190Y-53083666D02*
X155971428Y-53036047D01*
X155971428Y-53036047D02*
X156019047Y-52988428D01*
X156019047Y-52988428D02*
X156066666Y-52893190D01*
%TO.C,R6*%
X131233333Y-67442619D02*
X130900000Y-66966428D01*
X130661905Y-67442619D02*
X130661905Y-66442619D01*
X130661905Y-66442619D02*
X131042857Y-66442619D01*
X131042857Y-66442619D02*
X131138095Y-66490238D01*
X131138095Y-66490238D02*
X131185714Y-66537857D01*
X131185714Y-66537857D02*
X131233333Y-66633095D01*
X131233333Y-66633095D02*
X131233333Y-66775952D01*
X131233333Y-66775952D02*
X131185714Y-66871190D01*
X131185714Y-66871190D02*
X131138095Y-66918809D01*
X131138095Y-66918809D02*
X131042857Y-66966428D01*
X131042857Y-66966428D02*
X130661905Y-66966428D01*
X132090476Y-66442619D02*
X131900000Y-66442619D01*
X131900000Y-66442619D02*
X131804762Y-66490238D01*
X131804762Y-66490238D02*
X131757143Y-66537857D01*
X131757143Y-66537857D02*
X131661905Y-66680714D01*
X131661905Y-66680714D02*
X131614286Y-66871190D01*
X131614286Y-66871190D02*
X131614286Y-67252142D01*
X131614286Y-67252142D02*
X131661905Y-67347380D01*
X131661905Y-67347380D02*
X131709524Y-67395000D01*
X131709524Y-67395000D02*
X131804762Y-67442619D01*
X131804762Y-67442619D02*
X131995238Y-67442619D01*
X131995238Y-67442619D02*
X132090476Y-67395000D01*
X132090476Y-67395000D02*
X132138095Y-67347380D01*
X132138095Y-67347380D02*
X132185714Y-67252142D01*
X132185714Y-67252142D02*
X132185714Y-67014047D01*
X132185714Y-67014047D02*
X132138095Y-66918809D01*
X132138095Y-66918809D02*
X132090476Y-66871190D01*
X132090476Y-66871190D02*
X131995238Y-66823571D01*
X131995238Y-66823571D02*
X131804762Y-66823571D01*
X131804762Y-66823571D02*
X131709524Y-66871190D01*
X131709524Y-66871190D02*
X131661905Y-66918809D01*
X131661905Y-66918809D02*
X131614286Y-67014047D01*
%TO.C,C30*%
X126007142Y-52967380D02*
X125959523Y-53015000D01*
X125959523Y-53015000D02*
X125816666Y-53062619D01*
X125816666Y-53062619D02*
X125721428Y-53062619D01*
X125721428Y-53062619D02*
X125578571Y-53015000D01*
X125578571Y-53015000D02*
X125483333Y-52919761D01*
X125483333Y-52919761D02*
X125435714Y-52824523D01*
X125435714Y-52824523D02*
X125388095Y-52634047D01*
X125388095Y-52634047D02*
X125388095Y-52491190D01*
X125388095Y-52491190D02*
X125435714Y-52300714D01*
X125435714Y-52300714D02*
X125483333Y-52205476D01*
X125483333Y-52205476D02*
X125578571Y-52110238D01*
X125578571Y-52110238D02*
X125721428Y-52062619D01*
X125721428Y-52062619D02*
X125816666Y-52062619D01*
X125816666Y-52062619D02*
X125959523Y-52110238D01*
X125959523Y-52110238D02*
X126007142Y-52157857D01*
X126340476Y-52062619D02*
X126959523Y-52062619D01*
X126959523Y-52062619D02*
X126626190Y-52443571D01*
X126626190Y-52443571D02*
X126769047Y-52443571D01*
X126769047Y-52443571D02*
X126864285Y-52491190D01*
X126864285Y-52491190D02*
X126911904Y-52538809D01*
X126911904Y-52538809D02*
X126959523Y-52634047D01*
X126959523Y-52634047D02*
X126959523Y-52872142D01*
X126959523Y-52872142D02*
X126911904Y-52967380D01*
X126911904Y-52967380D02*
X126864285Y-53015000D01*
X126864285Y-53015000D02*
X126769047Y-53062619D01*
X126769047Y-53062619D02*
X126483333Y-53062619D01*
X126483333Y-53062619D02*
X126388095Y-53015000D01*
X126388095Y-53015000D02*
X126340476Y-52967380D01*
X127578571Y-52062619D02*
X127673809Y-52062619D01*
X127673809Y-52062619D02*
X127769047Y-52110238D01*
X127769047Y-52110238D02*
X127816666Y-52157857D01*
X127816666Y-52157857D02*
X127864285Y-52253095D01*
X127864285Y-52253095D02*
X127911904Y-52443571D01*
X127911904Y-52443571D02*
X127911904Y-52681666D01*
X127911904Y-52681666D02*
X127864285Y-52872142D01*
X127864285Y-52872142D02*
X127816666Y-52967380D01*
X127816666Y-52967380D02*
X127769047Y-53015000D01*
X127769047Y-53015000D02*
X127673809Y-53062619D01*
X127673809Y-53062619D02*
X127578571Y-53062619D01*
X127578571Y-53062619D02*
X127483333Y-53015000D01*
X127483333Y-53015000D02*
X127435714Y-52967380D01*
X127435714Y-52967380D02*
X127388095Y-52872142D01*
X127388095Y-52872142D02*
X127340476Y-52681666D01*
X127340476Y-52681666D02*
X127340476Y-52443571D01*
X127340476Y-52443571D02*
X127388095Y-52253095D01*
X127388095Y-52253095D02*
X127435714Y-52157857D01*
X127435714Y-52157857D02*
X127483333Y-52110238D01*
X127483333Y-52110238D02*
X127578571Y-52062619D01*
%TO.C,C47*%
X126807142Y-63717380D02*
X126759523Y-63765000D01*
X126759523Y-63765000D02*
X126616666Y-63812619D01*
X126616666Y-63812619D02*
X126521428Y-63812619D01*
X126521428Y-63812619D02*
X126378571Y-63765000D01*
X126378571Y-63765000D02*
X126283333Y-63669761D01*
X126283333Y-63669761D02*
X126235714Y-63574523D01*
X126235714Y-63574523D02*
X126188095Y-63384047D01*
X126188095Y-63384047D02*
X126188095Y-63241190D01*
X126188095Y-63241190D02*
X126235714Y-63050714D01*
X126235714Y-63050714D02*
X126283333Y-62955476D01*
X126283333Y-62955476D02*
X126378571Y-62860238D01*
X126378571Y-62860238D02*
X126521428Y-62812619D01*
X126521428Y-62812619D02*
X126616666Y-62812619D01*
X126616666Y-62812619D02*
X126759523Y-62860238D01*
X126759523Y-62860238D02*
X126807142Y-62907857D01*
X127664285Y-63145952D02*
X127664285Y-63812619D01*
X127426190Y-62765000D02*
X127188095Y-63479285D01*
X127188095Y-63479285D02*
X127807142Y-63479285D01*
X128092857Y-62812619D02*
X128759523Y-62812619D01*
X128759523Y-62812619D02*
X128330952Y-63812619D01*
%TO.C,R2*%
X94791369Y-60866666D02*
X94315178Y-61199999D01*
X94791369Y-61438094D02*
X93791369Y-61438094D01*
X93791369Y-61438094D02*
X93791369Y-61057142D01*
X93791369Y-61057142D02*
X93838988Y-60961904D01*
X93838988Y-60961904D02*
X93886607Y-60914285D01*
X93886607Y-60914285D02*
X93981845Y-60866666D01*
X93981845Y-60866666D02*
X94124702Y-60866666D01*
X94124702Y-60866666D02*
X94219940Y-60914285D01*
X94219940Y-60914285D02*
X94267559Y-60961904D01*
X94267559Y-60961904D02*
X94315178Y-61057142D01*
X94315178Y-61057142D02*
X94315178Y-61438094D01*
X93886607Y-60485713D02*
X93838988Y-60438094D01*
X93838988Y-60438094D02*
X93791369Y-60342856D01*
X93791369Y-60342856D02*
X93791369Y-60104761D01*
X93791369Y-60104761D02*
X93838988Y-60009523D01*
X93838988Y-60009523D02*
X93886607Y-59961904D01*
X93886607Y-59961904D02*
X93981845Y-59914285D01*
X93981845Y-59914285D02*
X94077083Y-59914285D01*
X94077083Y-59914285D02*
X94219940Y-59961904D01*
X94219940Y-59961904D02*
X94791369Y-60533332D01*
X94791369Y-60533332D02*
X94791369Y-59914285D01*
%TO.C,TP6*%
X154688095Y-49304619D02*
X155259523Y-49304619D01*
X154973809Y-50304619D02*
X154973809Y-49304619D01*
X155592857Y-50304619D02*
X155592857Y-49304619D01*
X155592857Y-49304619D02*
X155973809Y-49304619D01*
X155973809Y-49304619D02*
X156069047Y-49352238D01*
X156069047Y-49352238D02*
X156116666Y-49399857D01*
X156116666Y-49399857D02*
X156164285Y-49495095D01*
X156164285Y-49495095D02*
X156164285Y-49637952D01*
X156164285Y-49637952D02*
X156116666Y-49733190D01*
X156116666Y-49733190D02*
X156069047Y-49780809D01*
X156069047Y-49780809D02*
X155973809Y-49828428D01*
X155973809Y-49828428D02*
X155592857Y-49828428D01*
X157021428Y-49304619D02*
X156830952Y-49304619D01*
X156830952Y-49304619D02*
X156735714Y-49352238D01*
X156735714Y-49352238D02*
X156688095Y-49399857D01*
X156688095Y-49399857D02*
X156592857Y-49542714D01*
X156592857Y-49542714D02*
X156545238Y-49733190D01*
X156545238Y-49733190D02*
X156545238Y-50114142D01*
X156545238Y-50114142D02*
X156592857Y-50209380D01*
X156592857Y-50209380D02*
X156640476Y-50257000D01*
X156640476Y-50257000D02*
X156735714Y-50304619D01*
X156735714Y-50304619D02*
X156926190Y-50304619D01*
X156926190Y-50304619D02*
X157021428Y-50257000D01*
X157021428Y-50257000D02*
X157069047Y-50209380D01*
X157069047Y-50209380D02*
X157116666Y-50114142D01*
X157116666Y-50114142D02*
X157116666Y-49876047D01*
X157116666Y-49876047D02*
X157069047Y-49780809D01*
X157069047Y-49780809D02*
X157021428Y-49733190D01*
X157021428Y-49733190D02*
X156926190Y-49685571D01*
X156926190Y-49685571D02*
X156735714Y-49685571D01*
X156735714Y-49685571D02*
X156640476Y-49733190D01*
X156640476Y-49733190D02*
X156592857Y-49780809D01*
X156592857Y-49780809D02*
X156545238Y-49876047D01*
%TO.C,C49*%
X127347380Y-72992857D02*
X127395000Y-73040476D01*
X127395000Y-73040476D02*
X127442619Y-73183333D01*
X127442619Y-73183333D02*
X127442619Y-73278571D01*
X127442619Y-73278571D02*
X127395000Y-73421428D01*
X127395000Y-73421428D02*
X127299761Y-73516666D01*
X127299761Y-73516666D02*
X127204523Y-73564285D01*
X127204523Y-73564285D02*
X127014047Y-73611904D01*
X127014047Y-73611904D02*
X126871190Y-73611904D01*
X126871190Y-73611904D02*
X126680714Y-73564285D01*
X126680714Y-73564285D02*
X126585476Y-73516666D01*
X126585476Y-73516666D02*
X126490238Y-73421428D01*
X126490238Y-73421428D02*
X126442619Y-73278571D01*
X126442619Y-73278571D02*
X126442619Y-73183333D01*
X126442619Y-73183333D02*
X126490238Y-73040476D01*
X126490238Y-73040476D02*
X126537857Y-72992857D01*
X126775952Y-72135714D02*
X127442619Y-72135714D01*
X126395000Y-72373809D02*
X127109285Y-72611904D01*
X127109285Y-72611904D02*
X127109285Y-71992857D01*
X127442619Y-71564285D02*
X127442619Y-71373809D01*
X127442619Y-71373809D02*
X127395000Y-71278571D01*
X127395000Y-71278571D02*
X127347380Y-71230952D01*
X127347380Y-71230952D02*
X127204523Y-71135714D01*
X127204523Y-71135714D02*
X127014047Y-71088095D01*
X127014047Y-71088095D02*
X126633095Y-71088095D01*
X126633095Y-71088095D02*
X126537857Y-71135714D01*
X126537857Y-71135714D02*
X126490238Y-71183333D01*
X126490238Y-71183333D02*
X126442619Y-71278571D01*
X126442619Y-71278571D02*
X126442619Y-71469047D01*
X126442619Y-71469047D02*
X126490238Y-71564285D01*
X126490238Y-71564285D02*
X126537857Y-71611904D01*
X126537857Y-71611904D02*
X126633095Y-71659523D01*
X126633095Y-71659523D02*
X126871190Y-71659523D01*
X126871190Y-71659523D02*
X126966428Y-71611904D01*
X126966428Y-71611904D02*
X127014047Y-71564285D01*
X127014047Y-71564285D02*
X127061666Y-71469047D01*
X127061666Y-71469047D02*
X127061666Y-71278571D01*
X127061666Y-71278571D02*
X127014047Y-71183333D01*
X127014047Y-71183333D02*
X126966428Y-71135714D01*
X126966428Y-71135714D02*
X126871190Y-71088095D01*
%TO.C,C15*%
X107655892Y-55187380D02*
X107608273Y-55235000D01*
X107608273Y-55235000D02*
X107465416Y-55282619D01*
X107465416Y-55282619D02*
X107370178Y-55282619D01*
X107370178Y-55282619D02*
X107227321Y-55235000D01*
X107227321Y-55235000D02*
X107132083Y-55139761D01*
X107132083Y-55139761D02*
X107084464Y-55044523D01*
X107084464Y-55044523D02*
X107036845Y-54854047D01*
X107036845Y-54854047D02*
X107036845Y-54711190D01*
X107036845Y-54711190D02*
X107084464Y-54520714D01*
X107084464Y-54520714D02*
X107132083Y-54425476D01*
X107132083Y-54425476D02*
X107227321Y-54330238D01*
X107227321Y-54330238D02*
X107370178Y-54282619D01*
X107370178Y-54282619D02*
X107465416Y-54282619D01*
X107465416Y-54282619D02*
X107608273Y-54330238D01*
X107608273Y-54330238D02*
X107655892Y-54377857D01*
X108608273Y-55282619D02*
X108036845Y-55282619D01*
X108322559Y-55282619D02*
X108322559Y-54282619D01*
X108322559Y-54282619D02*
X108227321Y-54425476D01*
X108227321Y-54425476D02*
X108132083Y-54520714D01*
X108132083Y-54520714D02*
X108036845Y-54568333D01*
X109513035Y-54282619D02*
X109036845Y-54282619D01*
X109036845Y-54282619D02*
X108989226Y-54758809D01*
X108989226Y-54758809D02*
X109036845Y-54711190D01*
X109036845Y-54711190D02*
X109132083Y-54663571D01*
X109132083Y-54663571D02*
X109370178Y-54663571D01*
X109370178Y-54663571D02*
X109465416Y-54711190D01*
X109465416Y-54711190D02*
X109513035Y-54758809D01*
X109513035Y-54758809D02*
X109560654Y-54854047D01*
X109560654Y-54854047D02*
X109560654Y-55092142D01*
X109560654Y-55092142D02*
X109513035Y-55187380D01*
X109513035Y-55187380D02*
X109465416Y-55235000D01*
X109465416Y-55235000D02*
X109370178Y-55282619D01*
X109370178Y-55282619D02*
X109132083Y-55282619D01*
X109132083Y-55282619D02*
X109036845Y-55235000D01*
X109036845Y-55235000D02*
X108989226Y-55187380D01*
%TO.C,C29*%
X140767380Y-72692857D02*
X140815000Y-72740476D01*
X140815000Y-72740476D02*
X140862619Y-72883333D01*
X140862619Y-72883333D02*
X140862619Y-72978571D01*
X140862619Y-72978571D02*
X140815000Y-73121428D01*
X140815000Y-73121428D02*
X140719761Y-73216666D01*
X140719761Y-73216666D02*
X140624523Y-73264285D01*
X140624523Y-73264285D02*
X140434047Y-73311904D01*
X140434047Y-73311904D02*
X140291190Y-73311904D01*
X140291190Y-73311904D02*
X140100714Y-73264285D01*
X140100714Y-73264285D02*
X140005476Y-73216666D01*
X140005476Y-73216666D02*
X139910238Y-73121428D01*
X139910238Y-73121428D02*
X139862619Y-72978571D01*
X139862619Y-72978571D02*
X139862619Y-72883333D01*
X139862619Y-72883333D02*
X139910238Y-72740476D01*
X139910238Y-72740476D02*
X139957857Y-72692857D01*
X139957857Y-72311904D02*
X139910238Y-72264285D01*
X139910238Y-72264285D02*
X139862619Y-72169047D01*
X139862619Y-72169047D02*
X139862619Y-71930952D01*
X139862619Y-71930952D02*
X139910238Y-71835714D01*
X139910238Y-71835714D02*
X139957857Y-71788095D01*
X139957857Y-71788095D02*
X140053095Y-71740476D01*
X140053095Y-71740476D02*
X140148333Y-71740476D01*
X140148333Y-71740476D02*
X140291190Y-71788095D01*
X140291190Y-71788095D02*
X140862619Y-72359523D01*
X140862619Y-72359523D02*
X140862619Y-71740476D01*
X140862619Y-71264285D02*
X140862619Y-71073809D01*
X140862619Y-71073809D02*
X140815000Y-70978571D01*
X140815000Y-70978571D02*
X140767380Y-70930952D01*
X140767380Y-70930952D02*
X140624523Y-70835714D01*
X140624523Y-70835714D02*
X140434047Y-70788095D01*
X140434047Y-70788095D02*
X140053095Y-70788095D01*
X140053095Y-70788095D02*
X139957857Y-70835714D01*
X139957857Y-70835714D02*
X139910238Y-70883333D01*
X139910238Y-70883333D02*
X139862619Y-70978571D01*
X139862619Y-70978571D02*
X139862619Y-71169047D01*
X139862619Y-71169047D02*
X139910238Y-71264285D01*
X139910238Y-71264285D02*
X139957857Y-71311904D01*
X139957857Y-71311904D02*
X140053095Y-71359523D01*
X140053095Y-71359523D02*
X140291190Y-71359523D01*
X140291190Y-71359523D02*
X140386428Y-71311904D01*
X140386428Y-71311904D02*
X140434047Y-71264285D01*
X140434047Y-71264285D02*
X140481666Y-71169047D01*
X140481666Y-71169047D02*
X140481666Y-70978571D01*
X140481666Y-70978571D02*
X140434047Y-70883333D01*
X140434047Y-70883333D02*
X140386428Y-70835714D01*
X140386428Y-70835714D02*
X140291190Y-70788095D01*
%TO.C,C35*%
X120407142Y-80027380D02*
X120359523Y-80075000D01*
X120359523Y-80075000D02*
X120216666Y-80122619D01*
X120216666Y-80122619D02*
X120121428Y-80122619D01*
X120121428Y-80122619D02*
X119978571Y-80075000D01*
X119978571Y-80075000D02*
X119883333Y-79979761D01*
X119883333Y-79979761D02*
X119835714Y-79884523D01*
X119835714Y-79884523D02*
X119788095Y-79694047D01*
X119788095Y-79694047D02*
X119788095Y-79551190D01*
X119788095Y-79551190D02*
X119835714Y-79360714D01*
X119835714Y-79360714D02*
X119883333Y-79265476D01*
X119883333Y-79265476D02*
X119978571Y-79170238D01*
X119978571Y-79170238D02*
X120121428Y-79122619D01*
X120121428Y-79122619D02*
X120216666Y-79122619D01*
X120216666Y-79122619D02*
X120359523Y-79170238D01*
X120359523Y-79170238D02*
X120407142Y-79217857D01*
X120740476Y-79122619D02*
X121359523Y-79122619D01*
X121359523Y-79122619D02*
X121026190Y-79503571D01*
X121026190Y-79503571D02*
X121169047Y-79503571D01*
X121169047Y-79503571D02*
X121264285Y-79551190D01*
X121264285Y-79551190D02*
X121311904Y-79598809D01*
X121311904Y-79598809D02*
X121359523Y-79694047D01*
X121359523Y-79694047D02*
X121359523Y-79932142D01*
X121359523Y-79932142D02*
X121311904Y-80027380D01*
X121311904Y-80027380D02*
X121264285Y-80075000D01*
X121264285Y-80075000D02*
X121169047Y-80122619D01*
X121169047Y-80122619D02*
X120883333Y-80122619D01*
X120883333Y-80122619D02*
X120788095Y-80075000D01*
X120788095Y-80075000D02*
X120740476Y-80027380D01*
X122264285Y-79122619D02*
X121788095Y-79122619D01*
X121788095Y-79122619D02*
X121740476Y-79598809D01*
X121740476Y-79598809D02*
X121788095Y-79551190D01*
X121788095Y-79551190D02*
X121883333Y-79503571D01*
X121883333Y-79503571D02*
X122121428Y-79503571D01*
X122121428Y-79503571D02*
X122216666Y-79551190D01*
X122216666Y-79551190D02*
X122264285Y-79598809D01*
X122264285Y-79598809D02*
X122311904Y-79694047D01*
X122311904Y-79694047D02*
X122311904Y-79932142D01*
X122311904Y-79932142D02*
X122264285Y-80027380D01*
X122264285Y-80027380D02*
X122216666Y-80075000D01*
X122216666Y-80075000D02*
X122121428Y-80122619D01*
X122121428Y-80122619D02*
X121883333Y-80122619D01*
X121883333Y-80122619D02*
X121788095Y-80075000D01*
X121788095Y-80075000D02*
X121740476Y-80027380D01*
%TO.C,TP2*%
X151238095Y-58264619D02*
X151809523Y-58264619D01*
X151523809Y-59264619D02*
X151523809Y-58264619D01*
X152142857Y-59264619D02*
X152142857Y-58264619D01*
X152142857Y-58264619D02*
X152523809Y-58264619D01*
X152523809Y-58264619D02*
X152619047Y-58312238D01*
X152619047Y-58312238D02*
X152666666Y-58359857D01*
X152666666Y-58359857D02*
X152714285Y-58455095D01*
X152714285Y-58455095D02*
X152714285Y-58597952D01*
X152714285Y-58597952D02*
X152666666Y-58693190D01*
X152666666Y-58693190D02*
X152619047Y-58740809D01*
X152619047Y-58740809D02*
X152523809Y-58788428D01*
X152523809Y-58788428D02*
X152142857Y-58788428D01*
X153095238Y-58359857D02*
X153142857Y-58312238D01*
X153142857Y-58312238D02*
X153238095Y-58264619D01*
X153238095Y-58264619D02*
X153476190Y-58264619D01*
X153476190Y-58264619D02*
X153571428Y-58312238D01*
X153571428Y-58312238D02*
X153619047Y-58359857D01*
X153619047Y-58359857D02*
X153666666Y-58455095D01*
X153666666Y-58455095D02*
X153666666Y-58550333D01*
X153666666Y-58550333D02*
X153619047Y-58693190D01*
X153619047Y-58693190D02*
X153047619Y-59264619D01*
X153047619Y-59264619D02*
X153666666Y-59264619D01*
%TO.C,C9*%
X107917380Y-67266666D02*
X107965000Y-67314285D01*
X107965000Y-67314285D02*
X108012619Y-67457142D01*
X108012619Y-67457142D02*
X108012619Y-67552380D01*
X108012619Y-67552380D02*
X107965000Y-67695237D01*
X107965000Y-67695237D02*
X107869761Y-67790475D01*
X107869761Y-67790475D02*
X107774523Y-67838094D01*
X107774523Y-67838094D02*
X107584047Y-67885713D01*
X107584047Y-67885713D02*
X107441190Y-67885713D01*
X107441190Y-67885713D02*
X107250714Y-67838094D01*
X107250714Y-67838094D02*
X107155476Y-67790475D01*
X107155476Y-67790475D02*
X107060238Y-67695237D01*
X107060238Y-67695237D02*
X107012619Y-67552380D01*
X107012619Y-67552380D02*
X107012619Y-67457142D01*
X107012619Y-67457142D02*
X107060238Y-67314285D01*
X107060238Y-67314285D02*
X107107857Y-67266666D01*
X108012619Y-66790475D02*
X108012619Y-66599999D01*
X108012619Y-66599999D02*
X107965000Y-66504761D01*
X107965000Y-66504761D02*
X107917380Y-66457142D01*
X107917380Y-66457142D02*
X107774523Y-66361904D01*
X107774523Y-66361904D02*
X107584047Y-66314285D01*
X107584047Y-66314285D02*
X107203095Y-66314285D01*
X107203095Y-66314285D02*
X107107857Y-66361904D01*
X107107857Y-66361904D02*
X107060238Y-66409523D01*
X107060238Y-66409523D02*
X107012619Y-66504761D01*
X107012619Y-66504761D02*
X107012619Y-66695237D01*
X107012619Y-66695237D02*
X107060238Y-66790475D01*
X107060238Y-66790475D02*
X107107857Y-66838094D01*
X107107857Y-66838094D02*
X107203095Y-66885713D01*
X107203095Y-66885713D02*
X107441190Y-66885713D01*
X107441190Y-66885713D02*
X107536428Y-66838094D01*
X107536428Y-66838094D02*
X107584047Y-66790475D01*
X107584047Y-66790475D02*
X107631666Y-66695237D01*
X107631666Y-66695237D02*
X107631666Y-66504761D01*
X107631666Y-66504761D02*
X107584047Y-66409523D01*
X107584047Y-66409523D02*
X107536428Y-66361904D01*
X107536428Y-66361904D02*
X107441190Y-66314285D01*
%TO.C,C52*%
X153397142Y-71717380D02*
X153349523Y-71765000D01*
X153349523Y-71765000D02*
X153206666Y-71812619D01*
X153206666Y-71812619D02*
X153111428Y-71812619D01*
X153111428Y-71812619D02*
X152968571Y-71765000D01*
X152968571Y-71765000D02*
X152873333Y-71669761D01*
X152873333Y-71669761D02*
X152825714Y-71574523D01*
X152825714Y-71574523D02*
X152778095Y-71384047D01*
X152778095Y-71384047D02*
X152778095Y-71241190D01*
X152778095Y-71241190D02*
X152825714Y-71050714D01*
X152825714Y-71050714D02*
X152873333Y-70955476D01*
X152873333Y-70955476D02*
X152968571Y-70860238D01*
X152968571Y-70860238D02*
X153111428Y-70812619D01*
X153111428Y-70812619D02*
X153206666Y-70812619D01*
X153206666Y-70812619D02*
X153349523Y-70860238D01*
X153349523Y-70860238D02*
X153397142Y-70907857D01*
X154301904Y-70812619D02*
X153825714Y-70812619D01*
X153825714Y-70812619D02*
X153778095Y-71288809D01*
X153778095Y-71288809D02*
X153825714Y-71241190D01*
X153825714Y-71241190D02*
X153920952Y-71193571D01*
X153920952Y-71193571D02*
X154159047Y-71193571D01*
X154159047Y-71193571D02*
X154254285Y-71241190D01*
X154254285Y-71241190D02*
X154301904Y-71288809D01*
X154301904Y-71288809D02*
X154349523Y-71384047D01*
X154349523Y-71384047D02*
X154349523Y-71622142D01*
X154349523Y-71622142D02*
X154301904Y-71717380D01*
X154301904Y-71717380D02*
X154254285Y-71765000D01*
X154254285Y-71765000D02*
X154159047Y-71812619D01*
X154159047Y-71812619D02*
X153920952Y-71812619D01*
X153920952Y-71812619D02*
X153825714Y-71765000D01*
X153825714Y-71765000D02*
X153778095Y-71717380D01*
X154730476Y-70907857D02*
X154778095Y-70860238D01*
X154778095Y-70860238D02*
X154873333Y-70812619D01*
X154873333Y-70812619D02*
X155111428Y-70812619D01*
X155111428Y-70812619D02*
X155206666Y-70860238D01*
X155206666Y-70860238D02*
X155254285Y-70907857D01*
X155254285Y-70907857D02*
X155301904Y-71003095D01*
X155301904Y-71003095D02*
X155301904Y-71098333D01*
X155301904Y-71098333D02*
X155254285Y-71241190D01*
X155254285Y-71241190D02*
X154682857Y-71812619D01*
X154682857Y-71812619D02*
X155301904Y-71812619D01*
%TO.C,R8*%
X132482619Y-48166666D02*
X132006428Y-48499999D01*
X132482619Y-48738094D02*
X131482619Y-48738094D01*
X131482619Y-48738094D02*
X131482619Y-48357142D01*
X131482619Y-48357142D02*
X131530238Y-48261904D01*
X131530238Y-48261904D02*
X131577857Y-48214285D01*
X131577857Y-48214285D02*
X131673095Y-48166666D01*
X131673095Y-48166666D02*
X131815952Y-48166666D01*
X131815952Y-48166666D02*
X131911190Y-48214285D01*
X131911190Y-48214285D02*
X131958809Y-48261904D01*
X131958809Y-48261904D02*
X132006428Y-48357142D01*
X132006428Y-48357142D02*
X132006428Y-48738094D01*
X131911190Y-47595237D02*
X131863571Y-47690475D01*
X131863571Y-47690475D02*
X131815952Y-47738094D01*
X131815952Y-47738094D02*
X131720714Y-47785713D01*
X131720714Y-47785713D02*
X131673095Y-47785713D01*
X131673095Y-47785713D02*
X131577857Y-47738094D01*
X131577857Y-47738094D02*
X131530238Y-47690475D01*
X131530238Y-47690475D02*
X131482619Y-47595237D01*
X131482619Y-47595237D02*
X131482619Y-47404761D01*
X131482619Y-47404761D02*
X131530238Y-47309523D01*
X131530238Y-47309523D02*
X131577857Y-47261904D01*
X131577857Y-47261904D02*
X131673095Y-47214285D01*
X131673095Y-47214285D02*
X131720714Y-47214285D01*
X131720714Y-47214285D02*
X131815952Y-47261904D01*
X131815952Y-47261904D02*
X131863571Y-47309523D01*
X131863571Y-47309523D02*
X131911190Y-47404761D01*
X131911190Y-47404761D02*
X131911190Y-47595237D01*
X131911190Y-47595237D02*
X131958809Y-47690475D01*
X131958809Y-47690475D02*
X132006428Y-47738094D01*
X132006428Y-47738094D02*
X132101666Y-47785713D01*
X132101666Y-47785713D02*
X132292142Y-47785713D01*
X132292142Y-47785713D02*
X132387380Y-47738094D01*
X132387380Y-47738094D02*
X132435000Y-47690475D01*
X132435000Y-47690475D02*
X132482619Y-47595237D01*
X132482619Y-47595237D02*
X132482619Y-47404761D01*
X132482619Y-47404761D02*
X132435000Y-47309523D01*
X132435000Y-47309523D02*
X132387380Y-47261904D01*
X132387380Y-47261904D02*
X132292142Y-47214285D01*
X132292142Y-47214285D02*
X132101666Y-47214285D01*
X132101666Y-47214285D02*
X132006428Y-47261904D01*
X132006428Y-47261904D02*
X131958809Y-47309523D01*
X131958809Y-47309523D02*
X131911190Y-47404761D01*
%TO.C,L3*%
X112082083Y-50862619D02*
X111605893Y-50862619D01*
X111605893Y-50862619D02*
X111605893Y-49862619D01*
X112320179Y-49862619D02*
X112939226Y-49862619D01*
X112939226Y-49862619D02*
X112605893Y-50243571D01*
X112605893Y-50243571D02*
X112748750Y-50243571D01*
X112748750Y-50243571D02*
X112843988Y-50291190D01*
X112843988Y-50291190D02*
X112891607Y-50338809D01*
X112891607Y-50338809D02*
X112939226Y-50434047D01*
X112939226Y-50434047D02*
X112939226Y-50672142D01*
X112939226Y-50672142D02*
X112891607Y-50767380D01*
X112891607Y-50767380D02*
X112843988Y-50815000D01*
X112843988Y-50815000D02*
X112748750Y-50862619D01*
X112748750Y-50862619D02*
X112463036Y-50862619D01*
X112463036Y-50862619D02*
X112367798Y-50815000D01*
X112367798Y-50815000D02*
X112320179Y-50767380D01*
%TO.C,D3*%
X100699405Y-71282619D02*
X100699405Y-70282619D01*
X100699405Y-70282619D02*
X100937500Y-70282619D01*
X100937500Y-70282619D02*
X101080357Y-70330238D01*
X101080357Y-70330238D02*
X101175595Y-70425476D01*
X101175595Y-70425476D02*
X101223214Y-70520714D01*
X101223214Y-70520714D02*
X101270833Y-70711190D01*
X101270833Y-70711190D02*
X101270833Y-70854047D01*
X101270833Y-70854047D02*
X101223214Y-71044523D01*
X101223214Y-71044523D02*
X101175595Y-71139761D01*
X101175595Y-71139761D02*
X101080357Y-71235000D01*
X101080357Y-71235000D02*
X100937500Y-71282619D01*
X100937500Y-71282619D02*
X100699405Y-71282619D01*
X101604167Y-70282619D02*
X102223214Y-70282619D01*
X102223214Y-70282619D02*
X101889881Y-70663571D01*
X101889881Y-70663571D02*
X102032738Y-70663571D01*
X102032738Y-70663571D02*
X102127976Y-70711190D01*
X102127976Y-70711190D02*
X102175595Y-70758809D01*
X102175595Y-70758809D02*
X102223214Y-70854047D01*
X102223214Y-70854047D02*
X102223214Y-71092142D01*
X102223214Y-71092142D02*
X102175595Y-71187380D01*
X102175595Y-71187380D02*
X102127976Y-71235000D01*
X102127976Y-71235000D02*
X102032738Y-71282619D01*
X102032738Y-71282619D02*
X101747024Y-71282619D01*
X101747024Y-71282619D02*
X101651786Y-71235000D01*
X101651786Y-71235000D02*
X101604167Y-71187380D01*
%TO.C,D6*%
X115011369Y-58250594D02*
X114011369Y-58250594D01*
X114011369Y-58250594D02*
X114011369Y-58012499D01*
X114011369Y-58012499D02*
X114058988Y-57869642D01*
X114058988Y-57869642D02*
X114154226Y-57774404D01*
X114154226Y-57774404D02*
X114249464Y-57726785D01*
X114249464Y-57726785D02*
X114439940Y-57679166D01*
X114439940Y-57679166D02*
X114582797Y-57679166D01*
X114582797Y-57679166D02*
X114773273Y-57726785D01*
X114773273Y-57726785D02*
X114868511Y-57774404D01*
X114868511Y-57774404D02*
X114963750Y-57869642D01*
X114963750Y-57869642D02*
X115011369Y-58012499D01*
X115011369Y-58012499D02*
X115011369Y-58250594D01*
X114011369Y-56822023D02*
X114011369Y-57012499D01*
X114011369Y-57012499D02*
X114058988Y-57107737D01*
X114058988Y-57107737D02*
X114106607Y-57155356D01*
X114106607Y-57155356D02*
X114249464Y-57250594D01*
X114249464Y-57250594D02*
X114439940Y-57298213D01*
X114439940Y-57298213D02*
X114820892Y-57298213D01*
X114820892Y-57298213D02*
X114916130Y-57250594D01*
X114916130Y-57250594D02*
X114963750Y-57202975D01*
X114963750Y-57202975D02*
X115011369Y-57107737D01*
X115011369Y-57107737D02*
X115011369Y-56917261D01*
X115011369Y-56917261D02*
X114963750Y-56822023D01*
X114963750Y-56822023D02*
X114916130Y-56774404D01*
X114916130Y-56774404D02*
X114820892Y-56726785D01*
X114820892Y-56726785D02*
X114582797Y-56726785D01*
X114582797Y-56726785D02*
X114487559Y-56774404D01*
X114487559Y-56774404D02*
X114439940Y-56822023D01*
X114439940Y-56822023D02*
X114392321Y-56917261D01*
X114392321Y-56917261D02*
X114392321Y-57107737D01*
X114392321Y-57107737D02*
X114439940Y-57202975D01*
X114439940Y-57202975D02*
X114487559Y-57250594D01*
X114487559Y-57250594D02*
X114582797Y-57298213D01*
%TO.C,R16*%
X152307142Y-61192619D02*
X151973809Y-60716428D01*
X151735714Y-61192619D02*
X151735714Y-60192619D01*
X151735714Y-60192619D02*
X152116666Y-60192619D01*
X152116666Y-60192619D02*
X152211904Y-60240238D01*
X152211904Y-60240238D02*
X152259523Y-60287857D01*
X152259523Y-60287857D02*
X152307142Y-60383095D01*
X152307142Y-60383095D02*
X152307142Y-60525952D01*
X152307142Y-60525952D02*
X152259523Y-60621190D01*
X152259523Y-60621190D02*
X152211904Y-60668809D01*
X152211904Y-60668809D02*
X152116666Y-60716428D01*
X152116666Y-60716428D02*
X151735714Y-60716428D01*
X153259523Y-61192619D02*
X152688095Y-61192619D01*
X152973809Y-61192619D02*
X152973809Y-60192619D01*
X152973809Y-60192619D02*
X152878571Y-60335476D01*
X152878571Y-60335476D02*
X152783333Y-60430714D01*
X152783333Y-60430714D02*
X152688095Y-60478333D01*
X154116666Y-60192619D02*
X153926190Y-60192619D01*
X153926190Y-60192619D02*
X153830952Y-60240238D01*
X153830952Y-60240238D02*
X153783333Y-60287857D01*
X153783333Y-60287857D02*
X153688095Y-60430714D01*
X153688095Y-60430714D02*
X153640476Y-60621190D01*
X153640476Y-60621190D02*
X153640476Y-61002142D01*
X153640476Y-61002142D02*
X153688095Y-61097380D01*
X153688095Y-61097380D02*
X153735714Y-61145000D01*
X153735714Y-61145000D02*
X153830952Y-61192619D01*
X153830952Y-61192619D02*
X154021428Y-61192619D01*
X154021428Y-61192619D02*
X154116666Y-61145000D01*
X154116666Y-61145000D02*
X154164285Y-61097380D01*
X154164285Y-61097380D02*
X154211904Y-61002142D01*
X154211904Y-61002142D02*
X154211904Y-60764047D01*
X154211904Y-60764047D02*
X154164285Y-60668809D01*
X154164285Y-60668809D02*
X154116666Y-60621190D01*
X154116666Y-60621190D02*
X154021428Y-60573571D01*
X154021428Y-60573571D02*
X153830952Y-60573571D01*
X153830952Y-60573571D02*
X153735714Y-60621190D01*
X153735714Y-60621190D02*
X153688095Y-60668809D01*
X153688095Y-60668809D02*
X153640476Y-60764047D01*
%TO.C,D4*%
X100339405Y-75172619D02*
X100339405Y-74172619D01*
X100339405Y-74172619D02*
X100577500Y-74172619D01*
X100577500Y-74172619D02*
X100720357Y-74220238D01*
X100720357Y-74220238D02*
X100815595Y-74315476D01*
X100815595Y-74315476D02*
X100863214Y-74410714D01*
X100863214Y-74410714D02*
X100910833Y-74601190D01*
X100910833Y-74601190D02*
X100910833Y-74744047D01*
X100910833Y-74744047D02*
X100863214Y-74934523D01*
X100863214Y-74934523D02*
X100815595Y-75029761D01*
X100815595Y-75029761D02*
X100720357Y-75125000D01*
X100720357Y-75125000D02*
X100577500Y-75172619D01*
X100577500Y-75172619D02*
X100339405Y-75172619D01*
X101767976Y-74505952D02*
X101767976Y-75172619D01*
X101529881Y-74125000D02*
X101291786Y-74839285D01*
X101291786Y-74839285D02*
X101910833Y-74839285D01*
%TO.C,C19*%
X143177380Y-73572857D02*
X143225000Y-73620476D01*
X143225000Y-73620476D02*
X143272619Y-73763333D01*
X143272619Y-73763333D02*
X143272619Y-73858571D01*
X143272619Y-73858571D02*
X143225000Y-74001428D01*
X143225000Y-74001428D02*
X143129761Y-74096666D01*
X143129761Y-74096666D02*
X143034523Y-74144285D01*
X143034523Y-74144285D02*
X142844047Y-74191904D01*
X142844047Y-74191904D02*
X142701190Y-74191904D01*
X142701190Y-74191904D02*
X142510714Y-74144285D01*
X142510714Y-74144285D02*
X142415476Y-74096666D01*
X142415476Y-74096666D02*
X142320238Y-74001428D01*
X142320238Y-74001428D02*
X142272619Y-73858571D01*
X142272619Y-73858571D02*
X142272619Y-73763333D01*
X142272619Y-73763333D02*
X142320238Y-73620476D01*
X142320238Y-73620476D02*
X142367857Y-73572857D01*
X143272619Y-72620476D02*
X143272619Y-73191904D01*
X143272619Y-72906190D02*
X142272619Y-72906190D01*
X142272619Y-72906190D02*
X142415476Y-73001428D01*
X142415476Y-73001428D02*
X142510714Y-73096666D01*
X142510714Y-73096666D02*
X142558333Y-73191904D01*
X143272619Y-72144285D02*
X143272619Y-71953809D01*
X143272619Y-71953809D02*
X143225000Y-71858571D01*
X143225000Y-71858571D02*
X143177380Y-71810952D01*
X143177380Y-71810952D02*
X143034523Y-71715714D01*
X143034523Y-71715714D02*
X142844047Y-71668095D01*
X142844047Y-71668095D02*
X142463095Y-71668095D01*
X142463095Y-71668095D02*
X142367857Y-71715714D01*
X142367857Y-71715714D02*
X142320238Y-71763333D01*
X142320238Y-71763333D02*
X142272619Y-71858571D01*
X142272619Y-71858571D02*
X142272619Y-72049047D01*
X142272619Y-72049047D02*
X142320238Y-72144285D01*
X142320238Y-72144285D02*
X142367857Y-72191904D01*
X142367857Y-72191904D02*
X142463095Y-72239523D01*
X142463095Y-72239523D02*
X142701190Y-72239523D01*
X142701190Y-72239523D02*
X142796428Y-72191904D01*
X142796428Y-72191904D02*
X142844047Y-72144285D01*
X142844047Y-72144285D02*
X142891666Y-72049047D01*
X142891666Y-72049047D02*
X142891666Y-71858571D01*
X142891666Y-71858571D02*
X142844047Y-71763333D01*
X142844047Y-71763333D02*
X142796428Y-71715714D01*
X142796428Y-71715714D02*
X142701190Y-71668095D01*
%TO.C,L9*%
X118062619Y-61666666D02*
X118062619Y-62142856D01*
X118062619Y-62142856D02*
X117062619Y-62142856D01*
X118062619Y-61285713D02*
X118062619Y-61095237D01*
X118062619Y-61095237D02*
X118015000Y-60999999D01*
X118015000Y-60999999D02*
X117967380Y-60952380D01*
X117967380Y-60952380D02*
X117824523Y-60857142D01*
X117824523Y-60857142D02*
X117634047Y-60809523D01*
X117634047Y-60809523D02*
X117253095Y-60809523D01*
X117253095Y-60809523D02*
X117157857Y-60857142D01*
X117157857Y-60857142D02*
X117110238Y-60904761D01*
X117110238Y-60904761D02*
X117062619Y-60999999D01*
X117062619Y-60999999D02*
X117062619Y-61190475D01*
X117062619Y-61190475D02*
X117110238Y-61285713D01*
X117110238Y-61285713D02*
X117157857Y-61333332D01*
X117157857Y-61333332D02*
X117253095Y-61380951D01*
X117253095Y-61380951D02*
X117491190Y-61380951D01*
X117491190Y-61380951D02*
X117586428Y-61333332D01*
X117586428Y-61333332D02*
X117634047Y-61285713D01*
X117634047Y-61285713D02*
X117681666Y-61190475D01*
X117681666Y-61190475D02*
X117681666Y-60999999D01*
X117681666Y-60999999D02*
X117634047Y-60904761D01*
X117634047Y-60904761D02*
X117586428Y-60857142D01*
X117586428Y-60857142D02*
X117491190Y-60809523D01*
%TO.C,C41*%
X114007380Y-77362857D02*
X114055000Y-77410476D01*
X114055000Y-77410476D02*
X114102619Y-77553333D01*
X114102619Y-77553333D02*
X114102619Y-77648571D01*
X114102619Y-77648571D02*
X114055000Y-77791428D01*
X114055000Y-77791428D02*
X113959761Y-77886666D01*
X113959761Y-77886666D02*
X113864523Y-77934285D01*
X113864523Y-77934285D02*
X113674047Y-77981904D01*
X113674047Y-77981904D02*
X113531190Y-77981904D01*
X113531190Y-77981904D02*
X113340714Y-77934285D01*
X113340714Y-77934285D02*
X113245476Y-77886666D01*
X113245476Y-77886666D02*
X113150238Y-77791428D01*
X113150238Y-77791428D02*
X113102619Y-77648571D01*
X113102619Y-77648571D02*
X113102619Y-77553333D01*
X113102619Y-77553333D02*
X113150238Y-77410476D01*
X113150238Y-77410476D02*
X113197857Y-77362857D01*
X113435952Y-76505714D02*
X114102619Y-76505714D01*
X113055000Y-76743809D02*
X113769285Y-76981904D01*
X113769285Y-76981904D02*
X113769285Y-76362857D01*
X114102619Y-75458095D02*
X114102619Y-76029523D01*
X114102619Y-75743809D02*
X113102619Y-75743809D01*
X113102619Y-75743809D02*
X113245476Y-75839047D01*
X113245476Y-75839047D02*
X113340714Y-75934285D01*
X113340714Y-75934285D02*
X113388333Y-76029523D01*
%TO.C,C23*%
X144507142Y-68817380D02*
X144459523Y-68865000D01*
X144459523Y-68865000D02*
X144316666Y-68912619D01*
X144316666Y-68912619D02*
X144221428Y-68912619D01*
X144221428Y-68912619D02*
X144078571Y-68865000D01*
X144078571Y-68865000D02*
X143983333Y-68769761D01*
X143983333Y-68769761D02*
X143935714Y-68674523D01*
X143935714Y-68674523D02*
X143888095Y-68484047D01*
X143888095Y-68484047D02*
X143888095Y-68341190D01*
X143888095Y-68341190D02*
X143935714Y-68150714D01*
X143935714Y-68150714D02*
X143983333Y-68055476D01*
X143983333Y-68055476D02*
X144078571Y-67960238D01*
X144078571Y-67960238D02*
X144221428Y-67912619D01*
X144221428Y-67912619D02*
X144316666Y-67912619D01*
X144316666Y-67912619D02*
X144459523Y-67960238D01*
X144459523Y-67960238D02*
X144507142Y-68007857D01*
X144888095Y-68007857D02*
X144935714Y-67960238D01*
X144935714Y-67960238D02*
X145030952Y-67912619D01*
X145030952Y-67912619D02*
X145269047Y-67912619D01*
X145269047Y-67912619D02*
X145364285Y-67960238D01*
X145364285Y-67960238D02*
X145411904Y-68007857D01*
X145411904Y-68007857D02*
X145459523Y-68103095D01*
X145459523Y-68103095D02*
X145459523Y-68198333D01*
X145459523Y-68198333D02*
X145411904Y-68341190D01*
X145411904Y-68341190D02*
X144840476Y-68912619D01*
X144840476Y-68912619D02*
X145459523Y-68912619D01*
X145792857Y-67912619D02*
X146411904Y-67912619D01*
X146411904Y-67912619D02*
X146078571Y-68293571D01*
X146078571Y-68293571D02*
X146221428Y-68293571D01*
X146221428Y-68293571D02*
X146316666Y-68341190D01*
X146316666Y-68341190D02*
X146364285Y-68388809D01*
X146364285Y-68388809D02*
X146411904Y-68484047D01*
X146411904Y-68484047D02*
X146411904Y-68722142D01*
X146411904Y-68722142D02*
X146364285Y-68817380D01*
X146364285Y-68817380D02*
X146316666Y-68865000D01*
X146316666Y-68865000D02*
X146221428Y-68912619D01*
X146221428Y-68912619D02*
X145935714Y-68912619D01*
X145935714Y-68912619D02*
X145840476Y-68865000D01*
X145840476Y-68865000D02*
X145792857Y-68817380D01*
%TO.C,C42*%
X160607142Y-44317380D02*
X160559523Y-44365000D01*
X160559523Y-44365000D02*
X160416666Y-44412619D01*
X160416666Y-44412619D02*
X160321428Y-44412619D01*
X160321428Y-44412619D02*
X160178571Y-44365000D01*
X160178571Y-44365000D02*
X160083333Y-44269761D01*
X160083333Y-44269761D02*
X160035714Y-44174523D01*
X160035714Y-44174523D02*
X159988095Y-43984047D01*
X159988095Y-43984047D02*
X159988095Y-43841190D01*
X159988095Y-43841190D02*
X160035714Y-43650714D01*
X160035714Y-43650714D02*
X160083333Y-43555476D01*
X160083333Y-43555476D02*
X160178571Y-43460238D01*
X160178571Y-43460238D02*
X160321428Y-43412619D01*
X160321428Y-43412619D02*
X160416666Y-43412619D01*
X160416666Y-43412619D02*
X160559523Y-43460238D01*
X160559523Y-43460238D02*
X160607142Y-43507857D01*
X161464285Y-43745952D02*
X161464285Y-44412619D01*
X161226190Y-43365000D02*
X160988095Y-44079285D01*
X160988095Y-44079285D02*
X161607142Y-44079285D01*
X161940476Y-43507857D02*
X161988095Y-43460238D01*
X161988095Y-43460238D02*
X162083333Y-43412619D01*
X162083333Y-43412619D02*
X162321428Y-43412619D01*
X162321428Y-43412619D02*
X162416666Y-43460238D01*
X162416666Y-43460238D02*
X162464285Y-43507857D01*
X162464285Y-43507857D02*
X162511904Y-43603095D01*
X162511904Y-43603095D02*
X162511904Y-43698333D01*
X162511904Y-43698333D02*
X162464285Y-43841190D01*
X162464285Y-43841190D02*
X161892857Y-44412619D01*
X161892857Y-44412619D02*
X162511904Y-44412619D01*
%TO.C,C17*%
X113857380Y-71352857D02*
X113905000Y-71400476D01*
X113905000Y-71400476D02*
X113952619Y-71543333D01*
X113952619Y-71543333D02*
X113952619Y-71638571D01*
X113952619Y-71638571D02*
X113905000Y-71781428D01*
X113905000Y-71781428D02*
X113809761Y-71876666D01*
X113809761Y-71876666D02*
X113714523Y-71924285D01*
X113714523Y-71924285D02*
X113524047Y-71971904D01*
X113524047Y-71971904D02*
X113381190Y-71971904D01*
X113381190Y-71971904D02*
X113190714Y-71924285D01*
X113190714Y-71924285D02*
X113095476Y-71876666D01*
X113095476Y-71876666D02*
X113000238Y-71781428D01*
X113000238Y-71781428D02*
X112952619Y-71638571D01*
X112952619Y-71638571D02*
X112952619Y-71543333D01*
X112952619Y-71543333D02*
X113000238Y-71400476D01*
X113000238Y-71400476D02*
X113047857Y-71352857D01*
X113952619Y-70400476D02*
X113952619Y-70971904D01*
X113952619Y-70686190D02*
X112952619Y-70686190D01*
X112952619Y-70686190D02*
X113095476Y-70781428D01*
X113095476Y-70781428D02*
X113190714Y-70876666D01*
X113190714Y-70876666D02*
X113238333Y-70971904D01*
X112952619Y-70067142D02*
X112952619Y-69400476D01*
X112952619Y-69400476D02*
X113952619Y-69829047D01*
%TO.C,C3*%
X101746130Y-55916666D02*
X101793750Y-55964285D01*
X101793750Y-55964285D02*
X101841369Y-56107142D01*
X101841369Y-56107142D02*
X101841369Y-56202380D01*
X101841369Y-56202380D02*
X101793750Y-56345237D01*
X101793750Y-56345237D02*
X101698511Y-56440475D01*
X101698511Y-56440475D02*
X101603273Y-56488094D01*
X101603273Y-56488094D02*
X101412797Y-56535713D01*
X101412797Y-56535713D02*
X101269940Y-56535713D01*
X101269940Y-56535713D02*
X101079464Y-56488094D01*
X101079464Y-56488094D02*
X100984226Y-56440475D01*
X100984226Y-56440475D02*
X100888988Y-56345237D01*
X100888988Y-56345237D02*
X100841369Y-56202380D01*
X100841369Y-56202380D02*
X100841369Y-56107142D01*
X100841369Y-56107142D02*
X100888988Y-55964285D01*
X100888988Y-55964285D02*
X100936607Y-55916666D01*
X100841369Y-55583332D02*
X100841369Y-54964285D01*
X100841369Y-54964285D02*
X101222321Y-55297618D01*
X101222321Y-55297618D02*
X101222321Y-55154761D01*
X101222321Y-55154761D02*
X101269940Y-55059523D01*
X101269940Y-55059523D02*
X101317559Y-55011904D01*
X101317559Y-55011904D02*
X101412797Y-54964285D01*
X101412797Y-54964285D02*
X101650892Y-54964285D01*
X101650892Y-54964285D02*
X101746130Y-55011904D01*
X101746130Y-55011904D02*
X101793750Y-55059523D01*
X101793750Y-55059523D02*
X101841369Y-55154761D01*
X101841369Y-55154761D02*
X101841369Y-55440475D01*
X101841369Y-55440475D02*
X101793750Y-55535713D01*
X101793750Y-55535713D02*
X101746130Y-55583332D01*
%TO.C,C34*%
X126057142Y-55817380D02*
X126009523Y-55865000D01*
X126009523Y-55865000D02*
X125866666Y-55912619D01*
X125866666Y-55912619D02*
X125771428Y-55912619D01*
X125771428Y-55912619D02*
X125628571Y-55865000D01*
X125628571Y-55865000D02*
X125533333Y-55769761D01*
X125533333Y-55769761D02*
X125485714Y-55674523D01*
X125485714Y-55674523D02*
X125438095Y-55484047D01*
X125438095Y-55484047D02*
X125438095Y-55341190D01*
X125438095Y-55341190D02*
X125485714Y-55150714D01*
X125485714Y-55150714D02*
X125533333Y-55055476D01*
X125533333Y-55055476D02*
X125628571Y-54960238D01*
X125628571Y-54960238D02*
X125771428Y-54912619D01*
X125771428Y-54912619D02*
X125866666Y-54912619D01*
X125866666Y-54912619D02*
X126009523Y-54960238D01*
X126009523Y-54960238D02*
X126057142Y-55007857D01*
X126390476Y-54912619D02*
X127009523Y-54912619D01*
X127009523Y-54912619D02*
X126676190Y-55293571D01*
X126676190Y-55293571D02*
X126819047Y-55293571D01*
X126819047Y-55293571D02*
X126914285Y-55341190D01*
X126914285Y-55341190D02*
X126961904Y-55388809D01*
X126961904Y-55388809D02*
X127009523Y-55484047D01*
X127009523Y-55484047D02*
X127009523Y-55722142D01*
X127009523Y-55722142D02*
X126961904Y-55817380D01*
X126961904Y-55817380D02*
X126914285Y-55865000D01*
X126914285Y-55865000D02*
X126819047Y-55912619D01*
X126819047Y-55912619D02*
X126533333Y-55912619D01*
X126533333Y-55912619D02*
X126438095Y-55865000D01*
X126438095Y-55865000D02*
X126390476Y-55817380D01*
X127866666Y-55245952D02*
X127866666Y-55912619D01*
X127628571Y-54865000D02*
X127390476Y-55579285D01*
X127390476Y-55579285D02*
X128009523Y-55579285D01*
%TO.C,C44*%
X161007142Y-53117380D02*
X160959523Y-53165000D01*
X160959523Y-53165000D02*
X160816666Y-53212619D01*
X160816666Y-53212619D02*
X160721428Y-53212619D01*
X160721428Y-53212619D02*
X160578571Y-53165000D01*
X160578571Y-53165000D02*
X160483333Y-53069761D01*
X160483333Y-53069761D02*
X160435714Y-52974523D01*
X160435714Y-52974523D02*
X160388095Y-52784047D01*
X160388095Y-52784047D02*
X160388095Y-52641190D01*
X160388095Y-52641190D02*
X160435714Y-52450714D01*
X160435714Y-52450714D02*
X160483333Y-52355476D01*
X160483333Y-52355476D02*
X160578571Y-52260238D01*
X160578571Y-52260238D02*
X160721428Y-52212619D01*
X160721428Y-52212619D02*
X160816666Y-52212619D01*
X160816666Y-52212619D02*
X160959523Y-52260238D01*
X160959523Y-52260238D02*
X161007142Y-52307857D01*
X161864285Y-52545952D02*
X161864285Y-53212619D01*
X161626190Y-52165000D02*
X161388095Y-52879285D01*
X161388095Y-52879285D02*
X162007142Y-52879285D01*
X162816666Y-52545952D02*
X162816666Y-53212619D01*
X162578571Y-52165000D02*
X162340476Y-52879285D01*
X162340476Y-52879285D02*
X162959523Y-52879285D01*
%TO.C,R5*%
X146783333Y-67792619D02*
X146450000Y-67316428D01*
X146211905Y-67792619D02*
X146211905Y-66792619D01*
X146211905Y-66792619D02*
X146592857Y-66792619D01*
X146592857Y-66792619D02*
X146688095Y-66840238D01*
X146688095Y-66840238D02*
X146735714Y-66887857D01*
X146735714Y-66887857D02*
X146783333Y-66983095D01*
X146783333Y-66983095D02*
X146783333Y-67125952D01*
X146783333Y-67125952D02*
X146735714Y-67221190D01*
X146735714Y-67221190D02*
X146688095Y-67268809D01*
X146688095Y-67268809D02*
X146592857Y-67316428D01*
X146592857Y-67316428D02*
X146211905Y-67316428D01*
X147688095Y-66792619D02*
X147211905Y-66792619D01*
X147211905Y-66792619D02*
X147164286Y-67268809D01*
X147164286Y-67268809D02*
X147211905Y-67221190D01*
X147211905Y-67221190D02*
X147307143Y-67173571D01*
X147307143Y-67173571D02*
X147545238Y-67173571D01*
X147545238Y-67173571D02*
X147640476Y-67221190D01*
X147640476Y-67221190D02*
X147688095Y-67268809D01*
X147688095Y-67268809D02*
X147735714Y-67364047D01*
X147735714Y-67364047D02*
X147735714Y-67602142D01*
X147735714Y-67602142D02*
X147688095Y-67697380D01*
X147688095Y-67697380D02*
X147640476Y-67745000D01*
X147640476Y-67745000D02*
X147545238Y-67792619D01*
X147545238Y-67792619D02*
X147307143Y-67792619D01*
X147307143Y-67792619D02*
X147211905Y-67745000D01*
X147211905Y-67745000D02*
X147164286Y-67697380D01*
%TO.C,C24*%
X112855892Y-46647380D02*
X112808273Y-46695000D01*
X112808273Y-46695000D02*
X112665416Y-46742619D01*
X112665416Y-46742619D02*
X112570178Y-46742619D01*
X112570178Y-46742619D02*
X112427321Y-46695000D01*
X112427321Y-46695000D02*
X112332083Y-46599761D01*
X112332083Y-46599761D02*
X112284464Y-46504523D01*
X112284464Y-46504523D02*
X112236845Y-46314047D01*
X112236845Y-46314047D02*
X112236845Y-46171190D01*
X112236845Y-46171190D02*
X112284464Y-45980714D01*
X112284464Y-45980714D02*
X112332083Y-45885476D01*
X112332083Y-45885476D02*
X112427321Y-45790238D01*
X112427321Y-45790238D02*
X112570178Y-45742619D01*
X112570178Y-45742619D02*
X112665416Y-45742619D01*
X112665416Y-45742619D02*
X112808273Y-45790238D01*
X112808273Y-45790238D02*
X112855892Y-45837857D01*
X113236845Y-45837857D02*
X113284464Y-45790238D01*
X113284464Y-45790238D02*
X113379702Y-45742619D01*
X113379702Y-45742619D02*
X113617797Y-45742619D01*
X113617797Y-45742619D02*
X113713035Y-45790238D01*
X113713035Y-45790238D02*
X113760654Y-45837857D01*
X113760654Y-45837857D02*
X113808273Y-45933095D01*
X113808273Y-45933095D02*
X113808273Y-46028333D01*
X113808273Y-46028333D02*
X113760654Y-46171190D01*
X113760654Y-46171190D02*
X113189226Y-46742619D01*
X113189226Y-46742619D02*
X113808273Y-46742619D01*
X114665416Y-46075952D02*
X114665416Y-46742619D01*
X114427321Y-45695000D02*
X114189226Y-46409285D01*
X114189226Y-46409285D02*
X114808273Y-46409285D01*
%TO.C,L7*%
X110443333Y-68582619D02*
X109967143Y-68582619D01*
X109967143Y-68582619D02*
X109967143Y-67582619D01*
X110681429Y-67582619D02*
X111348095Y-67582619D01*
X111348095Y-67582619D02*
X110919524Y-68582619D01*
%TO.C,C38*%
X151067380Y-55692857D02*
X151115000Y-55740476D01*
X151115000Y-55740476D02*
X151162619Y-55883333D01*
X151162619Y-55883333D02*
X151162619Y-55978571D01*
X151162619Y-55978571D02*
X151115000Y-56121428D01*
X151115000Y-56121428D02*
X151019761Y-56216666D01*
X151019761Y-56216666D02*
X150924523Y-56264285D01*
X150924523Y-56264285D02*
X150734047Y-56311904D01*
X150734047Y-56311904D02*
X150591190Y-56311904D01*
X150591190Y-56311904D02*
X150400714Y-56264285D01*
X150400714Y-56264285D02*
X150305476Y-56216666D01*
X150305476Y-56216666D02*
X150210238Y-56121428D01*
X150210238Y-56121428D02*
X150162619Y-55978571D01*
X150162619Y-55978571D02*
X150162619Y-55883333D01*
X150162619Y-55883333D02*
X150210238Y-55740476D01*
X150210238Y-55740476D02*
X150257857Y-55692857D01*
X150162619Y-55359523D02*
X150162619Y-54740476D01*
X150162619Y-54740476D02*
X150543571Y-55073809D01*
X150543571Y-55073809D02*
X150543571Y-54930952D01*
X150543571Y-54930952D02*
X150591190Y-54835714D01*
X150591190Y-54835714D02*
X150638809Y-54788095D01*
X150638809Y-54788095D02*
X150734047Y-54740476D01*
X150734047Y-54740476D02*
X150972142Y-54740476D01*
X150972142Y-54740476D02*
X151067380Y-54788095D01*
X151067380Y-54788095D02*
X151115000Y-54835714D01*
X151115000Y-54835714D02*
X151162619Y-54930952D01*
X151162619Y-54930952D02*
X151162619Y-55216666D01*
X151162619Y-55216666D02*
X151115000Y-55311904D01*
X151115000Y-55311904D02*
X151067380Y-55359523D01*
X150591190Y-54169047D02*
X150543571Y-54264285D01*
X150543571Y-54264285D02*
X150495952Y-54311904D01*
X150495952Y-54311904D02*
X150400714Y-54359523D01*
X150400714Y-54359523D02*
X150353095Y-54359523D01*
X150353095Y-54359523D02*
X150257857Y-54311904D01*
X150257857Y-54311904D02*
X150210238Y-54264285D01*
X150210238Y-54264285D02*
X150162619Y-54169047D01*
X150162619Y-54169047D02*
X150162619Y-53978571D01*
X150162619Y-53978571D02*
X150210238Y-53883333D01*
X150210238Y-53883333D02*
X150257857Y-53835714D01*
X150257857Y-53835714D02*
X150353095Y-53788095D01*
X150353095Y-53788095D02*
X150400714Y-53788095D01*
X150400714Y-53788095D02*
X150495952Y-53835714D01*
X150495952Y-53835714D02*
X150543571Y-53883333D01*
X150543571Y-53883333D02*
X150591190Y-53978571D01*
X150591190Y-53978571D02*
X150591190Y-54169047D01*
X150591190Y-54169047D02*
X150638809Y-54264285D01*
X150638809Y-54264285D02*
X150686428Y-54311904D01*
X150686428Y-54311904D02*
X150781666Y-54359523D01*
X150781666Y-54359523D02*
X150972142Y-54359523D01*
X150972142Y-54359523D02*
X151067380Y-54311904D01*
X151067380Y-54311904D02*
X151115000Y-54264285D01*
X151115000Y-54264285D02*
X151162619Y-54169047D01*
X151162619Y-54169047D02*
X151162619Y-53978571D01*
X151162619Y-53978571D02*
X151115000Y-53883333D01*
X151115000Y-53883333D02*
X151067380Y-53835714D01*
X151067380Y-53835714D02*
X150972142Y-53788095D01*
X150972142Y-53788095D02*
X150781666Y-53788095D01*
X150781666Y-53788095D02*
X150686428Y-53835714D01*
X150686428Y-53835714D02*
X150638809Y-53883333D01*
X150638809Y-53883333D02*
X150591190Y-53978571D01*
%TO.C,C46*%
X131217380Y-51792857D02*
X131265000Y-51840476D01*
X131265000Y-51840476D02*
X131312619Y-51983333D01*
X131312619Y-51983333D02*
X131312619Y-52078571D01*
X131312619Y-52078571D02*
X131265000Y-52221428D01*
X131265000Y-52221428D02*
X131169761Y-52316666D01*
X131169761Y-52316666D02*
X131074523Y-52364285D01*
X131074523Y-52364285D02*
X130884047Y-52411904D01*
X130884047Y-52411904D02*
X130741190Y-52411904D01*
X130741190Y-52411904D02*
X130550714Y-52364285D01*
X130550714Y-52364285D02*
X130455476Y-52316666D01*
X130455476Y-52316666D02*
X130360238Y-52221428D01*
X130360238Y-52221428D02*
X130312619Y-52078571D01*
X130312619Y-52078571D02*
X130312619Y-51983333D01*
X130312619Y-51983333D02*
X130360238Y-51840476D01*
X130360238Y-51840476D02*
X130407857Y-51792857D01*
X130645952Y-50935714D02*
X131312619Y-50935714D01*
X130265000Y-51173809D02*
X130979285Y-51411904D01*
X130979285Y-51411904D02*
X130979285Y-50792857D01*
X130312619Y-49983333D02*
X130312619Y-50173809D01*
X130312619Y-50173809D02*
X130360238Y-50269047D01*
X130360238Y-50269047D02*
X130407857Y-50316666D01*
X130407857Y-50316666D02*
X130550714Y-50411904D01*
X130550714Y-50411904D02*
X130741190Y-50459523D01*
X130741190Y-50459523D02*
X131122142Y-50459523D01*
X131122142Y-50459523D02*
X131217380Y-50411904D01*
X131217380Y-50411904D02*
X131265000Y-50364285D01*
X131265000Y-50364285D02*
X131312619Y-50269047D01*
X131312619Y-50269047D02*
X131312619Y-50078571D01*
X131312619Y-50078571D02*
X131265000Y-49983333D01*
X131265000Y-49983333D02*
X131217380Y-49935714D01*
X131217380Y-49935714D02*
X131122142Y-49888095D01*
X131122142Y-49888095D02*
X130884047Y-49888095D01*
X130884047Y-49888095D02*
X130788809Y-49935714D01*
X130788809Y-49935714D02*
X130741190Y-49983333D01*
X130741190Y-49983333D02*
X130693571Y-50078571D01*
X130693571Y-50078571D02*
X130693571Y-50269047D01*
X130693571Y-50269047D02*
X130741190Y-50364285D01*
X130741190Y-50364285D02*
X130788809Y-50411904D01*
X130788809Y-50411904D02*
X130884047Y-50459523D01*
%TO.C,L2*%
X105861369Y-60466666D02*
X105861369Y-60942856D01*
X105861369Y-60942856D02*
X104861369Y-60942856D01*
X104956607Y-60180951D02*
X104908988Y-60133332D01*
X104908988Y-60133332D02*
X104861369Y-60038094D01*
X104861369Y-60038094D02*
X104861369Y-59799999D01*
X104861369Y-59799999D02*
X104908988Y-59704761D01*
X104908988Y-59704761D02*
X104956607Y-59657142D01*
X104956607Y-59657142D02*
X105051845Y-59609523D01*
X105051845Y-59609523D02*
X105147083Y-59609523D01*
X105147083Y-59609523D02*
X105289940Y-59657142D01*
X105289940Y-59657142D02*
X105861369Y-60228570D01*
X105861369Y-60228570D02*
X105861369Y-59609523D01*
%TO.C,C48*%
X141207142Y-52617380D02*
X141159523Y-52665000D01*
X141159523Y-52665000D02*
X141016666Y-52712619D01*
X141016666Y-52712619D02*
X140921428Y-52712619D01*
X140921428Y-52712619D02*
X140778571Y-52665000D01*
X140778571Y-52665000D02*
X140683333Y-52569761D01*
X140683333Y-52569761D02*
X140635714Y-52474523D01*
X140635714Y-52474523D02*
X140588095Y-52284047D01*
X140588095Y-52284047D02*
X140588095Y-52141190D01*
X140588095Y-52141190D02*
X140635714Y-51950714D01*
X140635714Y-51950714D02*
X140683333Y-51855476D01*
X140683333Y-51855476D02*
X140778571Y-51760238D01*
X140778571Y-51760238D02*
X140921428Y-51712619D01*
X140921428Y-51712619D02*
X141016666Y-51712619D01*
X141016666Y-51712619D02*
X141159523Y-51760238D01*
X141159523Y-51760238D02*
X141207142Y-51807857D01*
X142064285Y-52045952D02*
X142064285Y-52712619D01*
X141826190Y-51665000D02*
X141588095Y-52379285D01*
X141588095Y-52379285D02*
X142207142Y-52379285D01*
X142730952Y-52141190D02*
X142635714Y-52093571D01*
X142635714Y-52093571D02*
X142588095Y-52045952D01*
X142588095Y-52045952D02*
X142540476Y-51950714D01*
X142540476Y-51950714D02*
X142540476Y-51903095D01*
X142540476Y-51903095D02*
X142588095Y-51807857D01*
X142588095Y-51807857D02*
X142635714Y-51760238D01*
X142635714Y-51760238D02*
X142730952Y-51712619D01*
X142730952Y-51712619D02*
X142921428Y-51712619D01*
X142921428Y-51712619D02*
X143016666Y-51760238D01*
X143016666Y-51760238D02*
X143064285Y-51807857D01*
X143064285Y-51807857D02*
X143111904Y-51903095D01*
X143111904Y-51903095D02*
X143111904Y-51950714D01*
X143111904Y-51950714D02*
X143064285Y-52045952D01*
X143064285Y-52045952D02*
X143016666Y-52093571D01*
X143016666Y-52093571D02*
X142921428Y-52141190D01*
X142921428Y-52141190D02*
X142730952Y-52141190D01*
X142730952Y-52141190D02*
X142635714Y-52188809D01*
X142635714Y-52188809D02*
X142588095Y-52236428D01*
X142588095Y-52236428D02*
X142540476Y-52331666D01*
X142540476Y-52331666D02*
X142540476Y-52522142D01*
X142540476Y-52522142D02*
X142588095Y-52617380D01*
X142588095Y-52617380D02*
X142635714Y-52665000D01*
X142635714Y-52665000D02*
X142730952Y-52712619D01*
X142730952Y-52712619D02*
X142921428Y-52712619D01*
X142921428Y-52712619D02*
X143016666Y-52665000D01*
X143016666Y-52665000D02*
X143064285Y-52617380D01*
X143064285Y-52617380D02*
X143111904Y-52522142D01*
X143111904Y-52522142D02*
X143111904Y-52331666D01*
X143111904Y-52331666D02*
X143064285Y-52236428D01*
X143064285Y-52236428D02*
X143016666Y-52188809D01*
X143016666Y-52188809D02*
X142921428Y-52141190D01*
%TO.C,C8*%
X107432083Y-64447380D02*
X107384464Y-64495000D01*
X107384464Y-64495000D02*
X107241607Y-64542619D01*
X107241607Y-64542619D02*
X107146369Y-64542619D01*
X107146369Y-64542619D02*
X107003512Y-64495000D01*
X107003512Y-64495000D02*
X106908274Y-64399761D01*
X106908274Y-64399761D02*
X106860655Y-64304523D01*
X106860655Y-64304523D02*
X106813036Y-64114047D01*
X106813036Y-64114047D02*
X106813036Y-63971190D01*
X106813036Y-63971190D02*
X106860655Y-63780714D01*
X106860655Y-63780714D02*
X106908274Y-63685476D01*
X106908274Y-63685476D02*
X107003512Y-63590238D01*
X107003512Y-63590238D02*
X107146369Y-63542619D01*
X107146369Y-63542619D02*
X107241607Y-63542619D01*
X107241607Y-63542619D02*
X107384464Y-63590238D01*
X107384464Y-63590238D02*
X107432083Y-63637857D01*
X108003512Y-63971190D02*
X107908274Y-63923571D01*
X107908274Y-63923571D02*
X107860655Y-63875952D01*
X107860655Y-63875952D02*
X107813036Y-63780714D01*
X107813036Y-63780714D02*
X107813036Y-63733095D01*
X107813036Y-63733095D02*
X107860655Y-63637857D01*
X107860655Y-63637857D02*
X107908274Y-63590238D01*
X107908274Y-63590238D02*
X108003512Y-63542619D01*
X108003512Y-63542619D02*
X108193988Y-63542619D01*
X108193988Y-63542619D02*
X108289226Y-63590238D01*
X108289226Y-63590238D02*
X108336845Y-63637857D01*
X108336845Y-63637857D02*
X108384464Y-63733095D01*
X108384464Y-63733095D02*
X108384464Y-63780714D01*
X108384464Y-63780714D02*
X108336845Y-63875952D01*
X108336845Y-63875952D02*
X108289226Y-63923571D01*
X108289226Y-63923571D02*
X108193988Y-63971190D01*
X108193988Y-63971190D02*
X108003512Y-63971190D01*
X108003512Y-63971190D02*
X107908274Y-64018809D01*
X107908274Y-64018809D02*
X107860655Y-64066428D01*
X107860655Y-64066428D02*
X107813036Y-64161666D01*
X107813036Y-64161666D02*
X107813036Y-64352142D01*
X107813036Y-64352142D02*
X107860655Y-64447380D01*
X107860655Y-64447380D02*
X107908274Y-64495000D01*
X107908274Y-64495000D02*
X108003512Y-64542619D01*
X108003512Y-64542619D02*
X108193988Y-64542619D01*
X108193988Y-64542619D02*
X108289226Y-64495000D01*
X108289226Y-64495000D02*
X108336845Y-64447380D01*
X108336845Y-64447380D02*
X108384464Y-64352142D01*
X108384464Y-64352142D02*
X108384464Y-64161666D01*
X108384464Y-64161666D02*
X108336845Y-64066428D01*
X108336845Y-64066428D02*
X108289226Y-64018809D01*
X108289226Y-64018809D02*
X108193988Y-63971190D01*
%TO.C,R9*%
X155583333Y-47242619D02*
X155250000Y-46766428D01*
X155011905Y-47242619D02*
X155011905Y-46242619D01*
X155011905Y-46242619D02*
X155392857Y-46242619D01*
X155392857Y-46242619D02*
X155488095Y-46290238D01*
X155488095Y-46290238D02*
X155535714Y-46337857D01*
X155535714Y-46337857D02*
X155583333Y-46433095D01*
X155583333Y-46433095D02*
X155583333Y-46575952D01*
X155583333Y-46575952D02*
X155535714Y-46671190D01*
X155535714Y-46671190D02*
X155488095Y-46718809D01*
X155488095Y-46718809D02*
X155392857Y-46766428D01*
X155392857Y-46766428D02*
X155011905Y-46766428D01*
X156059524Y-47242619D02*
X156250000Y-47242619D01*
X156250000Y-47242619D02*
X156345238Y-47195000D01*
X156345238Y-47195000D02*
X156392857Y-47147380D01*
X156392857Y-47147380D02*
X156488095Y-47004523D01*
X156488095Y-47004523D02*
X156535714Y-46814047D01*
X156535714Y-46814047D02*
X156535714Y-46433095D01*
X156535714Y-46433095D02*
X156488095Y-46337857D01*
X156488095Y-46337857D02*
X156440476Y-46290238D01*
X156440476Y-46290238D02*
X156345238Y-46242619D01*
X156345238Y-46242619D02*
X156154762Y-46242619D01*
X156154762Y-46242619D02*
X156059524Y-46290238D01*
X156059524Y-46290238D02*
X156011905Y-46337857D01*
X156011905Y-46337857D02*
X155964286Y-46433095D01*
X155964286Y-46433095D02*
X155964286Y-46671190D01*
X155964286Y-46671190D02*
X156011905Y-46766428D01*
X156011905Y-46766428D02*
X156059524Y-46814047D01*
X156059524Y-46814047D02*
X156154762Y-46861666D01*
X156154762Y-46861666D02*
X156345238Y-46861666D01*
X156345238Y-46861666D02*
X156440476Y-46814047D01*
X156440476Y-46814047D02*
X156488095Y-46766428D01*
X156488095Y-46766428D02*
X156535714Y-46671190D01*
%TO.C,C4*%
X101846130Y-60016666D02*
X101893750Y-60064285D01*
X101893750Y-60064285D02*
X101941369Y-60207142D01*
X101941369Y-60207142D02*
X101941369Y-60302380D01*
X101941369Y-60302380D02*
X101893750Y-60445237D01*
X101893750Y-60445237D02*
X101798511Y-60540475D01*
X101798511Y-60540475D02*
X101703273Y-60588094D01*
X101703273Y-60588094D02*
X101512797Y-60635713D01*
X101512797Y-60635713D02*
X101369940Y-60635713D01*
X101369940Y-60635713D02*
X101179464Y-60588094D01*
X101179464Y-60588094D02*
X101084226Y-60540475D01*
X101084226Y-60540475D02*
X100988988Y-60445237D01*
X100988988Y-60445237D02*
X100941369Y-60302380D01*
X100941369Y-60302380D02*
X100941369Y-60207142D01*
X100941369Y-60207142D02*
X100988988Y-60064285D01*
X100988988Y-60064285D02*
X101036607Y-60016666D01*
X101274702Y-59159523D02*
X101941369Y-59159523D01*
X100893750Y-59397618D02*
X101608035Y-59635713D01*
X101608035Y-59635713D02*
X101608035Y-59016666D01*
%TO.C,J2*%
X138492619Y-42833333D02*
X139206904Y-42833333D01*
X139206904Y-42833333D02*
X139349761Y-42880952D01*
X139349761Y-42880952D02*
X139445000Y-42976190D01*
X139445000Y-42976190D02*
X139492619Y-43119047D01*
X139492619Y-43119047D02*
X139492619Y-43214285D01*
X138587857Y-42404761D02*
X138540238Y-42357142D01*
X138540238Y-42357142D02*
X138492619Y-42261904D01*
X138492619Y-42261904D02*
X138492619Y-42023809D01*
X138492619Y-42023809D02*
X138540238Y-41928571D01*
X138540238Y-41928571D02*
X138587857Y-41880952D01*
X138587857Y-41880952D02*
X138683095Y-41833333D01*
X138683095Y-41833333D02*
X138778333Y-41833333D01*
X138778333Y-41833333D02*
X138921190Y-41880952D01*
X138921190Y-41880952D02*
X139492619Y-42452380D01*
X139492619Y-42452380D02*
X139492619Y-41833333D01*
%TO.C,D5*%
X113952619Y-76380594D02*
X112952619Y-76380594D01*
X112952619Y-76380594D02*
X112952619Y-76142499D01*
X112952619Y-76142499D02*
X113000238Y-75999642D01*
X113000238Y-75999642D02*
X113095476Y-75904404D01*
X113095476Y-75904404D02*
X113190714Y-75856785D01*
X113190714Y-75856785D02*
X113381190Y-75809166D01*
X113381190Y-75809166D02*
X113524047Y-75809166D01*
X113524047Y-75809166D02*
X113714523Y-75856785D01*
X113714523Y-75856785D02*
X113809761Y-75904404D01*
X113809761Y-75904404D02*
X113905000Y-75999642D01*
X113905000Y-75999642D02*
X113952619Y-76142499D01*
X113952619Y-76142499D02*
X113952619Y-76380594D01*
X112952619Y-74904404D02*
X112952619Y-75380594D01*
X112952619Y-75380594D02*
X113428809Y-75428213D01*
X113428809Y-75428213D02*
X113381190Y-75380594D01*
X113381190Y-75380594D02*
X113333571Y-75285356D01*
X113333571Y-75285356D02*
X113333571Y-75047261D01*
X113333571Y-75047261D02*
X113381190Y-74952023D01*
X113381190Y-74952023D02*
X113428809Y-74904404D01*
X113428809Y-74904404D02*
X113524047Y-74856785D01*
X113524047Y-74856785D02*
X113762142Y-74856785D01*
X113762142Y-74856785D02*
X113857380Y-74904404D01*
X113857380Y-74904404D02*
X113905000Y-74952023D01*
X113905000Y-74952023D02*
X113952619Y-75047261D01*
X113952619Y-75047261D02*
X113952619Y-75285356D01*
X113952619Y-75285356D02*
X113905000Y-75380594D01*
X113905000Y-75380594D02*
X113857380Y-75428213D01*
%TO.C,C12*%
X125007142Y-66367380D02*
X124959523Y-66415000D01*
X124959523Y-66415000D02*
X124816666Y-66462619D01*
X124816666Y-66462619D02*
X124721428Y-66462619D01*
X124721428Y-66462619D02*
X124578571Y-66415000D01*
X124578571Y-66415000D02*
X124483333Y-66319761D01*
X124483333Y-66319761D02*
X124435714Y-66224523D01*
X124435714Y-66224523D02*
X124388095Y-66034047D01*
X124388095Y-66034047D02*
X124388095Y-65891190D01*
X124388095Y-65891190D02*
X124435714Y-65700714D01*
X124435714Y-65700714D02*
X124483333Y-65605476D01*
X124483333Y-65605476D02*
X124578571Y-65510238D01*
X124578571Y-65510238D02*
X124721428Y-65462619D01*
X124721428Y-65462619D02*
X124816666Y-65462619D01*
X124816666Y-65462619D02*
X124959523Y-65510238D01*
X124959523Y-65510238D02*
X125007142Y-65557857D01*
X125959523Y-66462619D02*
X125388095Y-66462619D01*
X125673809Y-66462619D02*
X125673809Y-65462619D01*
X125673809Y-65462619D02*
X125578571Y-65605476D01*
X125578571Y-65605476D02*
X125483333Y-65700714D01*
X125483333Y-65700714D02*
X125388095Y-65748333D01*
X126340476Y-65557857D02*
X126388095Y-65510238D01*
X126388095Y-65510238D02*
X126483333Y-65462619D01*
X126483333Y-65462619D02*
X126721428Y-65462619D01*
X126721428Y-65462619D02*
X126816666Y-65510238D01*
X126816666Y-65510238D02*
X126864285Y-65557857D01*
X126864285Y-65557857D02*
X126911904Y-65653095D01*
X126911904Y-65653095D02*
X126911904Y-65748333D01*
X126911904Y-65748333D02*
X126864285Y-65891190D01*
X126864285Y-65891190D02*
X126292857Y-66462619D01*
X126292857Y-66462619D02*
X126911904Y-66462619D01*
%TO.C,C2*%
X96627380Y-70666666D02*
X96675000Y-70714285D01*
X96675000Y-70714285D02*
X96722619Y-70857142D01*
X96722619Y-70857142D02*
X96722619Y-70952380D01*
X96722619Y-70952380D02*
X96675000Y-71095237D01*
X96675000Y-71095237D02*
X96579761Y-71190475D01*
X96579761Y-71190475D02*
X96484523Y-71238094D01*
X96484523Y-71238094D02*
X96294047Y-71285713D01*
X96294047Y-71285713D02*
X96151190Y-71285713D01*
X96151190Y-71285713D02*
X95960714Y-71238094D01*
X95960714Y-71238094D02*
X95865476Y-71190475D01*
X95865476Y-71190475D02*
X95770238Y-71095237D01*
X95770238Y-71095237D02*
X95722619Y-70952380D01*
X95722619Y-70952380D02*
X95722619Y-70857142D01*
X95722619Y-70857142D02*
X95770238Y-70714285D01*
X95770238Y-70714285D02*
X95817857Y-70666666D01*
X95817857Y-70285713D02*
X95770238Y-70238094D01*
X95770238Y-70238094D02*
X95722619Y-70142856D01*
X95722619Y-70142856D02*
X95722619Y-69904761D01*
X95722619Y-69904761D02*
X95770238Y-69809523D01*
X95770238Y-69809523D02*
X95817857Y-69761904D01*
X95817857Y-69761904D02*
X95913095Y-69714285D01*
X95913095Y-69714285D02*
X96008333Y-69714285D01*
X96008333Y-69714285D02*
X96151190Y-69761904D01*
X96151190Y-69761904D02*
X96722619Y-70333332D01*
X96722619Y-70333332D02*
X96722619Y-69714285D01*
%TO.C,L6*%
X119703333Y-71252619D02*
X119227143Y-71252619D01*
X119227143Y-71252619D02*
X119227143Y-70252619D01*
X120465238Y-70252619D02*
X120274762Y-70252619D01*
X120274762Y-70252619D02*
X120179524Y-70300238D01*
X120179524Y-70300238D02*
X120131905Y-70347857D01*
X120131905Y-70347857D02*
X120036667Y-70490714D01*
X120036667Y-70490714D02*
X119989048Y-70681190D01*
X119989048Y-70681190D02*
X119989048Y-71062142D01*
X119989048Y-71062142D02*
X120036667Y-71157380D01*
X120036667Y-71157380D02*
X120084286Y-71205000D01*
X120084286Y-71205000D02*
X120179524Y-71252619D01*
X120179524Y-71252619D02*
X120370000Y-71252619D01*
X120370000Y-71252619D02*
X120465238Y-71205000D01*
X120465238Y-71205000D02*
X120512857Y-71157380D01*
X120512857Y-71157380D02*
X120560476Y-71062142D01*
X120560476Y-71062142D02*
X120560476Y-70824047D01*
X120560476Y-70824047D02*
X120512857Y-70728809D01*
X120512857Y-70728809D02*
X120465238Y-70681190D01*
X120465238Y-70681190D02*
X120370000Y-70633571D01*
X120370000Y-70633571D02*
X120179524Y-70633571D01*
X120179524Y-70633571D02*
X120084286Y-70681190D01*
X120084286Y-70681190D02*
X120036667Y-70728809D01*
X120036667Y-70728809D02*
X119989048Y-70824047D01*
%TO.C,C5*%
X95287380Y-73846666D02*
X95335000Y-73894285D01*
X95335000Y-73894285D02*
X95382619Y-74037142D01*
X95382619Y-74037142D02*
X95382619Y-74132380D01*
X95382619Y-74132380D02*
X95335000Y-74275237D01*
X95335000Y-74275237D02*
X95239761Y-74370475D01*
X95239761Y-74370475D02*
X95144523Y-74418094D01*
X95144523Y-74418094D02*
X94954047Y-74465713D01*
X94954047Y-74465713D02*
X94811190Y-74465713D01*
X94811190Y-74465713D02*
X94620714Y-74418094D01*
X94620714Y-74418094D02*
X94525476Y-74370475D01*
X94525476Y-74370475D02*
X94430238Y-74275237D01*
X94430238Y-74275237D02*
X94382619Y-74132380D01*
X94382619Y-74132380D02*
X94382619Y-74037142D01*
X94382619Y-74037142D02*
X94430238Y-73894285D01*
X94430238Y-73894285D02*
X94477857Y-73846666D01*
X94382619Y-72941904D02*
X94382619Y-73418094D01*
X94382619Y-73418094D02*
X94858809Y-73465713D01*
X94858809Y-73465713D02*
X94811190Y-73418094D01*
X94811190Y-73418094D02*
X94763571Y-73322856D01*
X94763571Y-73322856D02*
X94763571Y-73084761D01*
X94763571Y-73084761D02*
X94811190Y-72989523D01*
X94811190Y-72989523D02*
X94858809Y-72941904D01*
X94858809Y-72941904D02*
X94954047Y-72894285D01*
X94954047Y-72894285D02*
X95192142Y-72894285D01*
X95192142Y-72894285D02*
X95287380Y-72941904D01*
X95287380Y-72941904D02*
X95335000Y-72989523D01*
X95335000Y-72989523D02*
X95382619Y-73084761D01*
X95382619Y-73084761D02*
X95382619Y-73322856D01*
X95382619Y-73322856D02*
X95335000Y-73418094D01*
X95335000Y-73418094D02*
X95287380Y-73465713D01*
%TO.C,C6*%
X98927380Y-67896666D02*
X98975000Y-67944285D01*
X98975000Y-67944285D02*
X99022619Y-68087142D01*
X99022619Y-68087142D02*
X99022619Y-68182380D01*
X99022619Y-68182380D02*
X98975000Y-68325237D01*
X98975000Y-68325237D02*
X98879761Y-68420475D01*
X98879761Y-68420475D02*
X98784523Y-68468094D01*
X98784523Y-68468094D02*
X98594047Y-68515713D01*
X98594047Y-68515713D02*
X98451190Y-68515713D01*
X98451190Y-68515713D02*
X98260714Y-68468094D01*
X98260714Y-68468094D02*
X98165476Y-68420475D01*
X98165476Y-68420475D02*
X98070238Y-68325237D01*
X98070238Y-68325237D02*
X98022619Y-68182380D01*
X98022619Y-68182380D02*
X98022619Y-68087142D01*
X98022619Y-68087142D02*
X98070238Y-67944285D01*
X98070238Y-67944285D02*
X98117857Y-67896666D01*
X98022619Y-67039523D02*
X98022619Y-67229999D01*
X98022619Y-67229999D02*
X98070238Y-67325237D01*
X98070238Y-67325237D02*
X98117857Y-67372856D01*
X98117857Y-67372856D02*
X98260714Y-67468094D01*
X98260714Y-67468094D02*
X98451190Y-67515713D01*
X98451190Y-67515713D02*
X98832142Y-67515713D01*
X98832142Y-67515713D02*
X98927380Y-67468094D01*
X98927380Y-67468094D02*
X98975000Y-67420475D01*
X98975000Y-67420475D02*
X99022619Y-67325237D01*
X99022619Y-67325237D02*
X99022619Y-67134761D01*
X99022619Y-67134761D02*
X98975000Y-67039523D01*
X98975000Y-67039523D02*
X98927380Y-66991904D01*
X98927380Y-66991904D02*
X98832142Y-66944285D01*
X98832142Y-66944285D02*
X98594047Y-66944285D01*
X98594047Y-66944285D02*
X98498809Y-66991904D01*
X98498809Y-66991904D02*
X98451190Y-67039523D01*
X98451190Y-67039523D02*
X98403571Y-67134761D01*
X98403571Y-67134761D02*
X98403571Y-67325237D01*
X98403571Y-67325237D02*
X98451190Y-67420475D01*
X98451190Y-67420475D02*
X98498809Y-67468094D01*
X98498809Y-67468094D02*
X98594047Y-67515713D01*
%TO.C,L10*%
X136107142Y-50712619D02*
X135630952Y-50712619D01*
X135630952Y-50712619D02*
X135630952Y-49712619D01*
X136964285Y-50712619D02*
X136392857Y-50712619D01*
X136678571Y-50712619D02*
X136678571Y-49712619D01*
X136678571Y-49712619D02*
X136583333Y-49855476D01*
X136583333Y-49855476D02*
X136488095Y-49950714D01*
X136488095Y-49950714D02*
X136392857Y-49998333D01*
X137583333Y-49712619D02*
X137678571Y-49712619D01*
X137678571Y-49712619D02*
X137773809Y-49760238D01*
X137773809Y-49760238D02*
X137821428Y-49807857D01*
X137821428Y-49807857D02*
X137869047Y-49903095D01*
X137869047Y-49903095D02*
X137916666Y-50093571D01*
X137916666Y-50093571D02*
X137916666Y-50331666D01*
X137916666Y-50331666D02*
X137869047Y-50522142D01*
X137869047Y-50522142D02*
X137821428Y-50617380D01*
X137821428Y-50617380D02*
X137773809Y-50665000D01*
X137773809Y-50665000D02*
X137678571Y-50712619D01*
X137678571Y-50712619D02*
X137583333Y-50712619D01*
X137583333Y-50712619D02*
X137488095Y-50665000D01*
X137488095Y-50665000D02*
X137440476Y-50617380D01*
X137440476Y-50617380D02*
X137392857Y-50522142D01*
X137392857Y-50522142D02*
X137345238Y-50331666D01*
X137345238Y-50331666D02*
X137345238Y-50093571D01*
X137345238Y-50093571D02*
X137392857Y-49903095D01*
X137392857Y-49903095D02*
X137440476Y-49807857D01*
X137440476Y-49807857D02*
X137488095Y-49760238D01*
X137488095Y-49760238D02*
X137583333Y-49712619D01*
%TO.C,L5*%
X135062619Y-77416666D02*
X135062619Y-77892856D01*
X135062619Y-77892856D02*
X134062619Y-77892856D01*
X134062619Y-76607142D02*
X134062619Y-77083332D01*
X134062619Y-77083332D02*
X134538809Y-77130951D01*
X134538809Y-77130951D02*
X134491190Y-77083332D01*
X134491190Y-77083332D02*
X134443571Y-76988094D01*
X134443571Y-76988094D02*
X134443571Y-76749999D01*
X134443571Y-76749999D02*
X134491190Y-76654761D01*
X134491190Y-76654761D02*
X134538809Y-76607142D01*
X134538809Y-76607142D02*
X134634047Y-76559523D01*
X134634047Y-76559523D02*
X134872142Y-76559523D01*
X134872142Y-76559523D02*
X134967380Y-76607142D01*
X134967380Y-76607142D02*
X135015000Y-76654761D01*
X135015000Y-76654761D02*
X135062619Y-76749999D01*
X135062619Y-76749999D02*
X135062619Y-76988094D01*
X135062619Y-76988094D02*
X135015000Y-77083332D01*
X135015000Y-77083332D02*
X134967380Y-77130951D01*
%TO.C,C10*%
X103987380Y-75332857D02*
X104035000Y-75380476D01*
X104035000Y-75380476D02*
X104082619Y-75523333D01*
X104082619Y-75523333D02*
X104082619Y-75618571D01*
X104082619Y-75618571D02*
X104035000Y-75761428D01*
X104035000Y-75761428D02*
X103939761Y-75856666D01*
X103939761Y-75856666D02*
X103844523Y-75904285D01*
X103844523Y-75904285D02*
X103654047Y-75951904D01*
X103654047Y-75951904D02*
X103511190Y-75951904D01*
X103511190Y-75951904D02*
X103320714Y-75904285D01*
X103320714Y-75904285D02*
X103225476Y-75856666D01*
X103225476Y-75856666D02*
X103130238Y-75761428D01*
X103130238Y-75761428D02*
X103082619Y-75618571D01*
X103082619Y-75618571D02*
X103082619Y-75523333D01*
X103082619Y-75523333D02*
X103130238Y-75380476D01*
X103130238Y-75380476D02*
X103177857Y-75332857D01*
X104082619Y-74380476D02*
X104082619Y-74951904D01*
X104082619Y-74666190D02*
X103082619Y-74666190D01*
X103082619Y-74666190D02*
X103225476Y-74761428D01*
X103225476Y-74761428D02*
X103320714Y-74856666D01*
X103320714Y-74856666D02*
X103368333Y-74951904D01*
X103082619Y-73761428D02*
X103082619Y-73666190D01*
X103082619Y-73666190D02*
X103130238Y-73570952D01*
X103130238Y-73570952D02*
X103177857Y-73523333D01*
X103177857Y-73523333D02*
X103273095Y-73475714D01*
X103273095Y-73475714D02*
X103463571Y-73428095D01*
X103463571Y-73428095D02*
X103701666Y-73428095D01*
X103701666Y-73428095D02*
X103892142Y-73475714D01*
X103892142Y-73475714D02*
X103987380Y-73523333D01*
X103987380Y-73523333D02*
X104035000Y-73570952D01*
X104035000Y-73570952D02*
X104082619Y-73666190D01*
X104082619Y-73666190D02*
X104082619Y-73761428D01*
X104082619Y-73761428D02*
X104035000Y-73856666D01*
X104035000Y-73856666D02*
X103987380Y-73904285D01*
X103987380Y-73904285D02*
X103892142Y-73951904D01*
X103892142Y-73951904D02*
X103701666Y-73999523D01*
X103701666Y-73999523D02*
X103463571Y-73999523D01*
X103463571Y-73999523D02*
X103273095Y-73951904D01*
X103273095Y-73951904D02*
X103177857Y-73904285D01*
X103177857Y-73904285D02*
X103130238Y-73856666D01*
X103130238Y-73856666D02*
X103082619Y-73761428D01*
%TO.C,TP5*%
X152688095Y-71204619D02*
X153259523Y-71204619D01*
X152973809Y-72204619D02*
X152973809Y-71204619D01*
X153592857Y-72204619D02*
X153592857Y-71204619D01*
X153592857Y-71204619D02*
X153973809Y-71204619D01*
X153973809Y-71204619D02*
X154069047Y-71252238D01*
X154069047Y-71252238D02*
X154116666Y-71299857D01*
X154116666Y-71299857D02*
X154164285Y-71395095D01*
X154164285Y-71395095D02*
X154164285Y-71537952D01*
X154164285Y-71537952D02*
X154116666Y-71633190D01*
X154116666Y-71633190D02*
X154069047Y-71680809D01*
X154069047Y-71680809D02*
X153973809Y-71728428D01*
X153973809Y-71728428D02*
X153592857Y-71728428D01*
X155069047Y-71204619D02*
X154592857Y-71204619D01*
X154592857Y-71204619D02*
X154545238Y-71680809D01*
X154545238Y-71680809D02*
X154592857Y-71633190D01*
X154592857Y-71633190D02*
X154688095Y-71585571D01*
X154688095Y-71585571D02*
X154926190Y-71585571D01*
X154926190Y-71585571D02*
X155021428Y-71633190D01*
X155021428Y-71633190D02*
X155069047Y-71680809D01*
X155069047Y-71680809D02*
X155116666Y-71776047D01*
X155116666Y-71776047D02*
X155116666Y-72014142D01*
X155116666Y-72014142D02*
X155069047Y-72109380D01*
X155069047Y-72109380D02*
X155021428Y-72157000D01*
X155021428Y-72157000D02*
X154926190Y-72204619D01*
X154926190Y-72204619D02*
X154688095Y-72204619D01*
X154688095Y-72204619D02*
X154592857Y-72157000D01*
X154592857Y-72157000D02*
X154545238Y-72109380D01*
%TO.C,R7*%
X133733333Y-44242619D02*
X133400000Y-43766428D01*
X133161905Y-44242619D02*
X133161905Y-43242619D01*
X133161905Y-43242619D02*
X133542857Y-43242619D01*
X133542857Y-43242619D02*
X133638095Y-43290238D01*
X133638095Y-43290238D02*
X133685714Y-43337857D01*
X133685714Y-43337857D02*
X133733333Y-43433095D01*
X133733333Y-43433095D02*
X133733333Y-43575952D01*
X133733333Y-43575952D02*
X133685714Y-43671190D01*
X133685714Y-43671190D02*
X133638095Y-43718809D01*
X133638095Y-43718809D02*
X133542857Y-43766428D01*
X133542857Y-43766428D02*
X133161905Y-43766428D01*
X134066667Y-43242619D02*
X134733333Y-43242619D01*
X134733333Y-43242619D02*
X134304762Y-44242619D01*
%TO.C,TP8*%
X161678095Y-57294619D02*
X162249523Y-57294619D01*
X161963809Y-58294619D02*
X161963809Y-57294619D01*
X162582857Y-58294619D02*
X162582857Y-57294619D01*
X162582857Y-57294619D02*
X162963809Y-57294619D01*
X162963809Y-57294619D02*
X163059047Y-57342238D01*
X163059047Y-57342238D02*
X163106666Y-57389857D01*
X163106666Y-57389857D02*
X163154285Y-57485095D01*
X163154285Y-57485095D02*
X163154285Y-57627952D01*
X163154285Y-57627952D02*
X163106666Y-57723190D01*
X163106666Y-57723190D02*
X163059047Y-57770809D01*
X163059047Y-57770809D02*
X162963809Y-57818428D01*
X162963809Y-57818428D02*
X162582857Y-57818428D01*
X163725714Y-57723190D02*
X163630476Y-57675571D01*
X163630476Y-57675571D02*
X163582857Y-57627952D01*
X163582857Y-57627952D02*
X163535238Y-57532714D01*
X163535238Y-57532714D02*
X163535238Y-57485095D01*
X163535238Y-57485095D02*
X163582857Y-57389857D01*
X163582857Y-57389857D02*
X163630476Y-57342238D01*
X163630476Y-57342238D02*
X163725714Y-57294619D01*
X163725714Y-57294619D02*
X163916190Y-57294619D01*
X163916190Y-57294619D02*
X164011428Y-57342238D01*
X164011428Y-57342238D02*
X164059047Y-57389857D01*
X164059047Y-57389857D02*
X164106666Y-57485095D01*
X164106666Y-57485095D02*
X164106666Y-57532714D01*
X164106666Y-57532714D02*
X164059047Y-57627952D01*
X164059047Y-57627952D02*
X164011428Y-57675571D01*
X164011428Y-57675571D02*
X163916190Y-57723190D01*
X163916190Y-57723190D02*
X163725714Y-57723190D01*
X163725714Y-57723190D02*
X163630476Y-57770809D01*
X163630476Y-57770809D02*
X163582857Y-57818428D01*
X163582857Y-57818428D02*
X163535238Y-57913666D01*
X163535238Y-57913666D02*
X163535238Y-58104142D01*
X163535238Y-58104142D02*
X163582857Y-58199380D01*
X163582857Y-58199380D02*
X163630476Y-58247000D01*
X163630476Y-58247000D02*
X163725714Y-58294619D01*
X163725714Y-58294619D02*
X163916190Y-58294619D01*
X163916190Y-58294619D02*
X164011428Y-58247000D01*
X164011428Y-58247000D02*
X164059047Y-58199380D01*
X164059047Y-58199380D02*
X164106666Y-58104142D01*
X164106666Y-58104142D02*
X164106666Y-57913666D01*
X164106666Y-57913666D02*
X164059047Y-57818428D01*
X164059047Y-57818428D02*
X164011428Y-57770809D01*
X164011428Y-57770809D02*
X163916190Y-57723190D01*
%TO.C,C45*%
X137357142Y-46767380D02*
X137309523Y-46815000D01*
X137309523Y-46815000D02*
X137166666Y-46862619D01*
X137166666Y-46862619D02*
X137071428Y-46862619D01*
X137071428Y-46862619D02*
X136928571Y-46815000D01*
X136928571Y-46815000D02*
X136833333Y-46719761D01*
X136833333Y-46719761D02*
X136785714Y-46624523D01*
X136785714Y-46624523D02*
X136738095Y-46434047D01*
X136738095Y-46434047D02*
X136738095Y-46291190D01*
X136738095Y-46291190D02*
X136785714Y-46100714D01*
X136785714Y-46100714D02*
X136833333Y-46005476D01*
X136833333Y-46005476D02*
X136928571Y-45910238D01*
X136928571Y-45910238D02*
X137071428Y-45862619D01*
X137071428Y-45862619D02*
X137166666Y-45862619D01*
X137166666Y-45862619D02*
X137309523Y-45910238D01*
X137309523Y-45910238D02*
X137357142Y-45957857D01*
X138214285Y-46195952D02*
X138214285Y-46862619D01*
X137976190Y-45815000D02*
X137738095Y-46529285D01*
X137738095Y-46529285D02*
X138357142Y-46529285D01*
X139214285Y-45862619D02*
X138738095Y-45862619D01*
X138738095Y-45862619D02*
X138690476Y-46338809D01*
X138690476Y-46338809D02*
X138738095Y-46291190D01*
X138738095Y-46291190D02*
X138833333Y-46243571D01*
X138833333Y-46243571D02*
X139071428Y-46243571D01*
X139071428Y-46243571D02*
X139166666Y-46291190D01*
X139166666Y-46291190D02*
X139214285Y-46338809D01*
X139214285Y-46338809D02*
X139261904Y-46434047D01*
X139261904Y-46434047D02*
X139261904Y-46672142D01*
X139261904Y-46672142D02*
X139214285Y-46767380D01*
X139214285Y-46767380D02*
X139166666Y-46815000D01*
X139166666Y-46815000D02*
X139071428Y-46862619D01*
X139071428Y-46862619D02*
X138833333Y-46862619D01*
X138833333Y-46862619D02*
X138738095Y-46815000D01*
X138738095Y-46815000D02*
X138690476Y-46767380D01*
%TO.C,R19*%
X147107142Y-59542619D02*
X146773809Y-59066428D01*
X146535714Y-59542619D02*
X146535714Y-58542619D01*
X146535714Y-58542619D02*
X146916666Y-58542619D01*
X146916666Y-58542619D02*
X147011904Y-58590238D01*
X147011904Y-58590238D02*
X147059523Y-58637857D01*
X147059523Y-58637857D02*
X147107142Y-58733095D01*
X147107142Y-58733095D02*
X147107142Y-58875952D01*
X147107142Y-58875952D02*
X147059523Y-58971190D01*
X147059523Y-58971190D02*
X147011904Y-59018809D01*
X147011904Y-59018809D02*
X146916666Y-59066428D01*
X146916666Y-59066428D02*
X146535714Y-59066428D01*
X148059523Y-59542619D02*
X147488095Y-59542619D01*
X147773809Y-59542619D02*
X147773809Y-58542619D01*
X147773809Y-58542619D02*
X147678571Y-58685476D01*
X147678571Y-58685476D02*
X147583333Y-58780714D01*
X147583333Y-58780714D02*
X147488095Y-58828333D01*
X148535714Y-59542619D02*
X148726190Y-59542619D01*
X148726190Y-59542619D02*
X148821428Y-59495000D01*
X148821428Y-59495000D02*
X148869047Y-59447380D01*
X148869047Y-59447380D02*
X148964285Y-59304523D01*
X148964285Y-59304523D02*
X149011904Y-59114047D01*
X149011904Y-59114047D02*
X149011904Y-58733095D01*
X149011904Y-58733095D02*
X148964285Y-58637857D01*
X148964285Y-58637857D02*
X148916666Y-58590238D01*
X148916666Y-58590238D02*
X148821428Y-58542619D01*
X148821428Y-58542619D02*
X148630952Y-58542619D01*
X148630952Y-58542619D02*
X148535714Y-58590238D01*
X148535714Y-58590238D02*
X148488095Y-58637857D01*
X148488095Y-58637857D02*
X148440476Y-58733095D01*
X148440476Y-58733095D02*
X148440476Y-58971190D01*
X148440476Y-58971190D02*
X148488095Y-59066428D01*
X148488095Y-59066428D02*
X148535714Y-59114047D01*
X148535714Y-59114047D02*
X148630952Y-59161666D01*
X148630952Y-59161666D02*
X148821428Y-59161666D01*
X148821428Y-59161666D02*
X148916666Y-59114047D01*
X148916666Y-59114047D02*
X148964285Y-59066428D01*
X148964285Y-59066428D02*
X149011904Y-58971190D01*
%TO.C,C43*%
X138467380Y-72742857D02*
X138515000Y-72790476D01*
X138515000Y-72790476D02*
X138562619Y-72933333D01*
X138562619Y-72933333D02*
X138562619Y-73028571D01*
X138562619Y-73028571D02*
X138515000Y-73171428D01*
X138515000Y-73171428D02*
X138419761Y-73266666D01*
X138419761Y-73266666D02*
X138324523Y-73314285D01*
X138324523Y-73314285D02*
X138134047Y-73361904D01*
X138134047Y-73361904D02*
X137991190Y-73361904D01*
X137991190Y-73361904D02*
X137800714Y-73314285D01*
X137800714Y-73314285D02*
X137705476Y-73266666D01*
X137705476Y-73266666D02*
X137610238Y-73171428D01*
X137610238Y-73171428D02*
X137562619Y-73028571D01*
X137562619Y-73028571D02*
X137562619Y-72933333D01*
X137562619Y-72933333D02*
X137610238Y-72790476D01*
X137610238Y-72790476D02*
X137657857Y-72742857D01*
X137895952Y-71885714D02*
X138562619Y-71885714D01*
X137515000Y-72123809D02*
X138229285Y-72361904D01*
X138229285Y-72361904D02*
X138229285Y-71742857D01*
X137562619Y-71457142D02*
X137562619Y-70838095D01*
X137562619Y-70838095D02*
X137943571Y-71171428D01*
X137943571Y-71171428D02*
X137943571Y-71028571D01*
X137943571Y-71028571D02*
X137991190Y-70933333D01*
X137991190Y-70933333D02*
X138038809Y-70885714D01*
X138038809Y-70885714D02*
X138134047Y-70838095D01*
X138134047Y-70838095D02*
X138372142Y-70838095D01*
X138372142Y-70838095D02*
X138467380Y-70885714D01*
X138467380Y-70885714D02*
X138515000Y-70933333D01*
X138515000Y-70933333D02*
X138562619Y-71028571D01*
X138562619Y-71028571D02*
X138562619Y-71314285D01*
X138562619Y-71314285D02*
X138515000Y-71409523D01*
X138515000Y-71409523D02*
X138467380Y-71457142D01*
%TO.C,L4*%
X112382083Y-60812619D02*
X111905893Y-60812619D01*
X111905893Y-60812619D02*
X111905893Y-59812619D01*
X113143988Y-60145952D02*
X113143988Y-60812619D01*
X112905893Y-59765000D02*
X112667798Y-60479285D01*
X112667798Y-60479285D02*
X113286845Y-60479285D01*
%TO.C,C55*%
X123947380Y-73412857D02*
X123995000Y-73460476D01*
X123995000Y-73460476D02*
X124042619Y-73603333D01*
X124042619Y-73603333D02*
X124042619Y-73698571D01*
X124042619Y-73698571D02*
X123995000Y-73841428D01*
X123995000Y-73841428D02*
X123899761Y-73936666D01*
X123899761Y-73936666D02*
X123804523Y-73984285D01*
X123804523Y-73984285D02*
X123614047Y-74031904D01*
X123614047Y-74031904D02*
X123471190Y-74031904D01*
X123471190Y-74031904D02*
X123280714Y-73984285D01*
X123280714Y-73984285D02*
X123185476Y-73936666D01*
X123185476Y-73936666D02*
X123090238Y-73841428D01*
X123090238Y-73841428D02*
X123042619Y-73698571D01*
X123042619Y-73698571D02*
X123042619Y-73603333D01*
X123042619Y-73603333D02*
X123090238Y-73460476D01*
X123090238Y-73460476D02*
X123137857Y-73412857D01*
X123042619Y-72508095D02*
X123042619Y-72984285D01*
X123042619Y-72984285D02*
X123518809Y-73031904D01*
X123518809Y-73031904D02*
X123471190Y-72984285D01*
X123471190Y-72984285D02*
X123423571Y-72889047D01*
X123423571Y-72889047D02*
X123423571Y-72650952D01*
X123423571Y-72650952D02*
X123471190Y-72555714D01*
X123471190Y-72555714D02*
X123518809Y-72508095D01*
X123518809Y-72508095D02*
X123614047Y-72460476D01*
X123614047Y-72460476D02*
X123852142Y-72460476D01*
X123852142Y-72460476D02*
X123947380Y-72508095D01*
X123947380Y-72508095D02*
X123995000Y-72555714D01*
X123995000Y-72555714D02*
X124042619Y-72650952D01*
X124042619Y-72650952D02*
X124042619Y-72889047D01*
X124042619Y-72889047D02*
X123995000Y-72984285D01*
X123995000Y-72984285D02*
X123947380Y-73031904D01*
X123042619Y-71555714D02*
X123042619Y-72031904D01*
X123042619Y-72031904D02*
X123518809Y-72079523D01*
X123518809Y-72079523D02*
X123471190Y-72031904D01*
X123471190Y-72031904D02*
X123423571Y-71936666D01*
X123423571Y-71936666D02*
X123423571Y-71698571D01*
X123423571Y-71698571D02*
X123471190Y-71603333D01*
X123471190Y-71603333D02*
X123518809Y-71555714D01*
X123518809Y-71555714D02*
X123614047Y-71508095D01*
X123614047Y-71508095D02*
X123852142Y-71508095D01*
X123852142Y-71508095D02*
X123947380Y-71555714D01*
X123947380Y-71555714D02*
X123995000Y-71603333D01*
X123995000Y-71603333D02*
X124042619Y-71698571D01*
X124042619Y-71698571D02*
X124042619Y-71936666D01*
X124042619Y-71936666D02*
X123995000Y-72031904D01*
X123995000Y-72031904D02*
X123947380Y-72079523D01*
%TO.C,C13*%
X119047380Y-55742857D02*
X119095000Y-55790476D01*
X119095000Y-55790476D02*
X119142619Y-55933333D01*
X119142619Y-55933333D02*
X119142619Y-56028571D01*
X119142619Y-56028571D02*
X119095000Y-56171428D01*
X119095000Y-56171428D02*
X118999761Y-56266666D01*
X118999761Y-56266666D02*
X118904523Y-56314285D01*
X118904523Y-56314285D02*
X118714047Y-56361904D01*
X118714047Y-56361904D02*
X118571190Y-56361904D01*
X118571190Y-56361904D02*
X118380714Y-56314285D01*
X118380714Y-56314285D02*
X118285476Y-56266666D01*
X118285476Y-56266666D02*
X118190238Y-56171428D01*
X118190238Y-56171428D02*
X118142619Y-56028571D01*
X118142619Y-56028571D02*
X118142619Y-55933333D01*
X118142619Y-55933333D02*
X118190238Y-55790476D01*
X118190238Y-55790476D02*
X118237857Y-55742857D01*
X119142619Y-54790476D02*
X119142619Y-55361904D01*
X119142619Y-55076190D02*
X118142619Y-55076190D01*
X118142619Y-55076190D02*
X118285476Y-55171428D01*
X118285476Y-55171428D02*
X118380714Y-55266666D01*
X118380714Y-55266666D02*
X118428333Y-55361904D01*
X118142619Y-54457142D02*
X118142619Y-53838095D01*
X118142619Y-53838095D02*
X118523571Y-54171428D01*
X118523571Y-54171428D02*
X118523571Y-54028571D01*
X118523571Y-54028571D02*
X118571190Y-53933333D01*
X118571190Y-53933333D02*
X118618809Y-53885714D01*
X118618809Y-53885714D02*
X118714047Y-53838095D01*
X118714047Y-53838095D02*
X118952142Y-53838095D01*
X118952142Y-53838095D02*
X119047380Y-53885714D01*
X119047380Y-53885714D02*
X119095000Y-53933333D01*
X119095000Y-53933333D02*
X119142619Y-54028571D01*
X119142619Y-54028571D02*
X119142619Y-54314285D01*
X119142619Y-54314285D02*
X119095000Y-54409523D01*
X119095000Y-54409523D02*
X119047380Y-54457142D01*
%TO.C,D10*%
X141383119Y-63015785D02*
X140383119Y-63015785D01*
X140383119Y-63015785D02*
X140383119Y-62777690D01*
X140383119Y-62777690D02*
X140430738Y-62634833D01*
X140430738Y-62634833D02*
X140525976Y-62539595D01*
X140525976Y-62539595D02*
X140621214Y-62491976D01*
X140621214Y-62491976D02*
X140811690Y-62444357D01*
X140811690Y-62444357D02*
X140954547Y-62444357D01*
X140954547Y-62444357D02*
X141145023Y-62491976D01*
X141145023Y-62491976D02*
X141240261Y-62539595D01*
X141240261Y-62539595D02*
X141335500Y-62634833D01*
X141335500Y-62634833D02*
X141383119Y-62777690D01*
X141383119Y-62777690D02*
X141383119Y-63015785D01*
X141383119Y-61491976D02*
X141383119Y-62063404D01*
X141383119Y-61777690D02*
X140383119Y-61777690D01*
X140383119Y-61777690D02*
X140525976Y-61872928D01*
X140525976Y-61872928D02*
X140621214Y-61968166D01*
X140621214Y-61968166D02*
X140668833Y-62063404D01*
X140383119Y-60872928D02*
X140383119Y-60777690D01*
X140383119Y-60777690D02*
X140430738Y-60682452D01*
X140430738Y-60682452D02*
X140478357Y-60634833D01*
X140478357Y-60634833D02*
X140573595Y-60587214D01*
X140573595Y-60587214D02*
X140764071Y-60539595D01*
X140764071Y-60539595D02*
X141002166Y-60539595D01*
X141002166Y-60539595D02*
X141192642Y-60587214D01*
X141192642Y-60587214D02*
X141287880Y-60634833D01*
X141287880Y-60634833D02*
X141335500Y-60682452D01*
X141335500Y-60682452D02*
X141383119Y-60777690D01*
X141383119Y-60777690D02*
X141383119Y-60872928D01*
X141383119Y-60872928D02*
X141335500Y-60968166D01*
X141335500Y-60968166D02*
X141287880Y-61015785D01*
X141287880Y-61015785D02*
X141192642Y-61063404D01*
X141192642Y-61063404D02*
X141002166Y-61111023D01*
X141002166Y-61111023D02*
X140764071Y-61111023D01*
X140764071Y-61111023D02*
X140573595Y-61063404D01*
X140573595Y-61063404D02*
X140478357Y-61015785D01*
X140478357Y-61015785D02*
X140430738Y-60968166D01*
X140430738Y-60968166D02*
X140383119Y-60872928D01*
%TO.C,C32*%
X130837380Y-72792857D02*
X130885000Y-72840476D01*
X130885000Y-72840476D02*
X130932619Y-72983333D01*
X130932619Y-72983333D02*
X130932619Y-73078571D01*
X130932619Y-73078571D02*
X130885000Y-73221428D01*
X130885000Y-73221428D02*
X130789761Y-73316666D01*
X130789761Y-73316666D02*
X130694523Y-73364285D01*
X130694523Y-73364285D02*
X130504047Y-73411904D01*
X130504047Y-73411904D02*
X130361190Y-73411904D01*
X130361190Y-73411904D02*
X130170714Y-73364285D01*
X130170714Y-73364285D02*
X130075476Y-73316666D01*
X130075476Y-73316666D02*
X129980238Y-73221428D01*
X129980238Y-73221428D02*
X129932619Y-73078571D01*
X129932619Y-73078571D02*
X129932619Y-72983333D01*
X129932619Y-72983333D02*
X129980238Y-72840476D01*
X129980238Y-72840476D02*
X130027857Y-72792857D01*
X129932619Y-72459523D02*
X129932619Y-71840476D01*
X129932619Y-71840476D02*
X130313571Y-72173809D01*
X130313571Y-72173809D02*
X130313571Y-72030952D01*
X130313571Y-72030952D02*
X130361190Y-71935714D01*
X130361190Y-71935714D02*
X130408809Y-71888095D01*
X130408809Y-71888095D02*
X130504047Y-71840476D01*
X130504047Y-71840476D02*
X130742142Y-71840476D01*
X130742142Y-71840476D02*
X130837380Y-71888095D01*
X130837380Y-71888095D02*
X130885000Y-71935714D01*
X130885000Y-71935714D02*
X130932619Y-72030952D01*
X130932619Y-72030952D02*
X130932619Y-72316666D01*
X130932619Y-72316666D02*
X130885000Y-72411904D01*
X130885000Y-72411904D02*
X130837380Y-72459523D01*
X130027857Y-71459523D02*
X129980238Y-71411904D01*
X129980238Y-71411904D02*
X129932619Y-71316666D01*
X129932619Y-71316666D02*
X129932619Y-71078571D01*
X129932619Y-71078571D02*
X129980238Y-70983333D01*
X129980238Y-70983333D02*
X130027857Y-70935714D01*
X130027857Y-70935714D02*
X130123095Y-70888095D01*
X130123095Y-70888095D02*
X130218333Y-70888095D01*
X130218333Y-70888095D02*
X130361190Y-70935714D01*
X130361190Y-70935714D02*
X130932619Y-71507142D01*
X130932619Y-71507142D02*
X130932619Y-70888095D01*
%TO.C,C22*%
X137817380Y-72742857D02*
X137865000Y-72790476D01*
X137865000Y-72790476D02*
X137912619Y-72933333D01*
X137912619Y-72933333D02*
X137912619Y-73028571D01*
X137912619Y-73028571D02*
X137865000Y-73171428D01*
X137865000Y-73171428D02*
X137769761Y-73266666D01*
X137769761Y-73266666D02*
X137674523Y-73314285D01*
X137674523Y-73314285D02*
X137484047Y-73361904D01*
X137484047Y-73361904D02*
X137341190Y-73361904D01*
X137341190Y-73361904D02*
X137150714Y-73314285D01*
X137150714Y-73314285D02*
X137055476Y-73266666D01*
X137055476Y-73266666D02*
X136960238Y-73171428D01*
X136960238Y-73171428D02*
X136912619Y-73028571D01*
X136912619Y-73028571D02*
X136912619Y-72933333D01*
X136912619Y-72933333D02*
X136960238Y-72790476D01*
X136960238Y-72790476D02*
X137007857Y-72742857D01*
X137007857Y-72361904D02*
X136960238Y-72314285D01*
X136960238Y-72314285D02*
X136912619Y-72219047D01*
X136912619Y-72219047D02*
X136912619Y-71980952D01*
X136912619Y-71980952D02*
X136960238Y-71885714D01*
X136960238Y-71885714D02*
X137007857Y-71838095D01*
X137007857Y-71838095D02*
X137103095Y-71790476D01*
X137103095Y-71790476D02*
X137198333Y-71790476D01*
X137198333Y-71790476D02*
X137341190Y-71838095D01*
X137341190Y-71838095D02*
X137912619Y-72409523D01*
X137912619Y-72409523D02*
X137912619Y-71790476D01*
X137007857Y-71409523D02*
X136960238Y-71361904D01*
X136960238Y-71361904D02*
X136912619Y-71266666D01*
X136912619Y-71266666D02*
X136912619Y-71028571D01*
X136912619Y-71028571D02*
X136960238Y-70933333D01*
X136960238Y-70933333D02*
X137007857Y-70885714D01*
X137007857Y-70885714D02*
X137103095Y-70838095D01*
X137103095Y-70838095D02*
X137198333Y-70838095D01*
X137198333Y-70838095D02*
X137341190Y-70885714D01*
X137341190Y-70885714D02*
X137912619Y-71457142D01*
X137912619Y-71457142D02*
X137912619Y-70838095D01*
%TO.C,L8*%
X118062619Y-55856666D02*
X118062619Y-56332856D01*
X118062619Y-56332856D02*
X117062619Y-56332856D01*
X117491190Y-55380475D02*
X117443571Y-55475713D01*
X117443571Y-55475713D02*
X117395952Y-55523332D01*
X117395952Y-55523332D02*
X117300714Y-55570951D01*
X117300714Y-55570951D02*
X117253095Y-55570951D01*
X117253095Y-55570951D02*
X117157857Y-55523332D01*
X117157857Y-55523332D02*
X117110238Y-55475713D01*
X117110238Y-55475713D02*
X117062619Y-55380475D01*
X117062619Y-55380475D02*
X117062619Y-55189999D01*
X117062619Y-55189999D02*
X117110238Y-55094761D01*
X117110238Y-55094761D02*
X117157857Y-55047142D01*
X117157857Y-55047142D02*
X117253095Y-54999523D01*
X117253095Y-54999523D02*
X117300714Y-54999523D01*
X117300714Y-54999523D02*
X117395952Y-55047142D01*
X117395952Y-55047142D02*
X117443571Y-55094761D01*
X117443571Y-55094761D02*
X117491190Y-55189999D01*
X117491190Y-55189999D02*
X117491190Y-55380475D01*
X117491190Y-55380475D02*
X117538809Y-55475713D01*
X117538809Y-55475713D02*
X117586428Y-55523332D01*
X117586428Y-55523332D02*
X117681666Y-55570951D01*
X117681666Y-55570951D02*
X117872142Y-55570951D01*
X117872142Y-55570951D02*
X117967380Y-55523332D01*
X117967380Y-55523332D02*
X118015000Y-55475713D01*
X118015000Y-55475713D02*
X118062619Y-55380475D01*
X118062619Y-55380475D02*
X118062619Y-55189999D01*
X118062619Y-55189999D02*
X118015000Y-55094761D01*
X118015000Y-55094761D02*
X117967380Y-55047142D01*
X117967380Y-55047142D02*
X117872142Y-54999523D01*
X117872142Y-54999523D02*
X117681666Y-54999523D01*
X117681666Y-54999523D02*
X117586428Y-55047142D01*
X117586428Y-55047142D02*
X117538809Y-55094761D01*
X117538809Y-55094761D02*
X117491190Y-55189999D01*
%TO.C,R3*%
X137532619Y-77466666D02*
X137056428Y-77799999D01*
X137532619Y-78038094D02*
X136532619Y-78038094D01*
X136532619Y-78038094D02*
X136532619Y-77657142D01*
X136532619Y-77657142D02*
X136580238Y-77561904D01*
X136580238Y-77561904D02*
X136627857Y-77514285D01*
X136627857Y-77514285D02*
X136723095Y-77466666D01*
X136723095Y-77466666D02*
X136865952Y-77466666D01*
X136865952Y-77466666D02*
X136961190Y-77514285D01*
X136961190Y-77514285D02*
X137008809Y-77561904D01*
X137008809Y-77561904D02*
X137056428Y-77657142D01*
X137056428Y-77657142D02*
X137056428Y-78038094D01*
X136532619Y-77133332D02*
X136532619Y-76514285D01*
X136532619Y-76514285D02*
X136913571Y-76847618D01*
X136913571Y-76847618D02*
X136913571Y-76704761D01*
X136913571Y-76704761D02*
X136961190Y-76609523D01*
X136961190Y-76609523D02*
X137008809Y-76561904D01*
X137008809Y-76561904D02*
X137104047Y-76514285D01*
X137104047Y-76514285D02*
X137342142Y-76514285D01*
X137342142Y-76514285D02*
X137437380Y-76561904D01*
X137437380Y-76561904D02*
X137485000Y-76609523D01*
X137485000Y-76609523D02*
X137532619Y-76704761D01*
X137532619Y-76704761D02*
X137532619Y-76990475D01*
X137532619Y-76990475D02*
X137485000Y-77085713D01*
X137485000Y-77085713D02*
X137437380Y-77133332D01*
%TO.C,C39*%
X144797142Y-49687380D02*
X144749523Y-49735000D01*
X144749523Y-49735000D02*
X144606666Y-49782619D01*
X144606666Y-49782619D02*
X144511428Y-49782619D01*
X144511428Y-49782619D02*
X144368571Y-49735000D01*
X144368571Y-49735000D02*
X144273333Y-49639761D01*
X144273333Y-49639761D02*
X144225714Y-49544523D01*
X144225714Y-49544523D02*
X144178095Y-49354047D01*
X144178095Y-49354047D02*
X144178095Y-49211190D01*
X144178095Y-49211190D02*
X144225714Y-49020714D01*
X144225714Y-49020714D02*
X144273333Y-48925476D01*
X144273333Y-48925476D02*
X144368571Y-48830238D01*
X144368571Y-48830238D02*
X144511428Y-48782619D01*
X144511428Y-48782619D02*
X144606666Y-48782619D01*
X144606666Y-48782619D02*
X144749523Y-48830238D01*
X144749523Y-48830238D02*
X144797142Y-48877857D01*
X145130476Y-48782619D02*
X145749523Y-48782619D01*
X145749523Y-48782619D02*
X145416190Y-49163571D01*
X145416190Y-49163571D02*
X145559047Y-49163571D01*
X145559047Y-49163571D02*
X145654285Y-49211190D01*
X145654285Y-49211190D02*
X145701904Y-49258809D01*
X145701904Y-49258809D02*
X145749523Y-49354047D01*
X145749523Y-49354047D02*
X145749523Y-49592142D01*
X145749523Y-49592142D02*
X145701904Y-49687380D01*
X145701904Y-49687380D02*
X145654285Y-49735000D01*
X145654285Y-49735000D02*
X145559047Y-49782619D01*
X145559047Y-49782619D02*
X145273333Y-49782619D01*
X145273333Y-49782619D02*
X145178095Y-49735000D01*
X145178095Y-49735000D02*
X145130476Y-49687380D01*
X146225714Y-49782619D02*
X146416190Y-49782619D01*
X146416190Y-49782619D02*
X146511428Y-49735000D01*
X146511428Y-49735000D02*
X146559047Y-49687380D01*
X146559047Y-49687380D02*
X146654285Y-49544523D01*
X146654285Y-49544523D02*
X146701904Y-49354047D01*
X146701904Y-49354047D02*
X146701904Y-48973095D01*
X146701904Y-48973095D02*
X146654285Y-48877857D01*
X146654285Y-48877857D02*
X146606666Y-48830238D01*
X146606666Y-48830238D02*
X146511428Y-48782619D01*
X146511428Y-48782619D02*
X146320952Y-48782619D01*
X146320952Y-48782619D02*
X146225714Y-48830238D01*
X146225714Y-48830238D02*
X146178095Y-48877857D01*
X146178095Y-48877857D02*
X146130476Y-48973095D01*
X146130476Y-48973095D02*
X146130476Y-49211190D01*
X146130476Y-49211190D02*
X146178095Y-49306428D01*
X146178095Y-49306428D02*
X146225714Y-49354047D01*
X146225714Y-49354047D02*
X146320952Y-49401666D01*
X146320952Y-49401666D02*
X146511428Y-49401666D01*
X146511428Y-49401666D02*
X146606666Y-49354047D01*
X146606666Y-49354047D02*
X146654285Y-49306428D01*
X146654285Y-49306428D02*
X146701904Y-49211190D01*
%TO.C,C56*%
X148117142Y-78487380D02*
X148069523Y-78535000D01*
X148069523Y-78535000D02*
X147926666Y-78582619D01*
X147926666Y-78582619D02*
X147831428Y-78582619D01*
X147831428Y-78582619D02*
X147688571Y-78535000D01*
X147688571Y-78535000D02*
X147593333Y-78439761D01*
X147593333Y-78439761D02*
X147545714Y-78344523D01*
X147545714Y-78344523D02*
X147498095Y-78154047D01*
X147498095Y-78154047D02*
X147498095Y-78011190D01*
X147498095Y-78011190D02*
X147545714Y-77820714D01*
X147545714Y-77820714D02*
X147593333Y-77725476D01*
X147593333Y-77725476D02*
X147688571Y-77630238D01*
X147688571Y-77630238D02*
X147831428Y-77582619D01*
X147831428Y-77582619D02*
X147926666Y-77582619D01*
X147926666Y-77582619D02*
X148069523Y-77630238D01*
X148069523Y-77630238D02*
X148117142Y-77677857D01*
X149021904Y-77582619D02*
X148545714Y-77582619D01*
X148545714Y-77582619D02*
X148498095Y-78058809D01*
X148498095Y-78058809D02*
X148545714Y-78011190D01*
X148545714Y-78011190D02*
X148640952Y-77963571D01*
X148640952Y-77963571D02*
X148879047Y-77963571D01*
X148879047Y-77963571D02*
X148974285Y-78011190D01*
X148974285Y-78011190D02*
X149021904Y-78058809D01*
X149021904Y-78058809D02*
X149069523Y-78154047D01*
X149069523Y-78154047D02*
X149069523Y-78392142D01*
X149069523Y-78392142D02*
X149021904Y-78487380D01*
X149021904Y-78487380D02*
X148974285Y-78535000D01*
X148974285Y-78535000D02*
X148879047Y-78582619D01*
X148879047Y-78582619D02*
X148640952Y-78582619D01*
X148640952Y-78582619D02*
X148545714Y-78535000D01*
X148545714Y-78535000D02*
X148498095Y-78487380D01*
X149926666Y-77582619D02*
X149736190Y-77582619D01*
X149736190Y-77582619D02*
X149640952Y-77630238D01*
X149640952Y-77630238D02*
X149593333Y-77677857D01*
X149593333Y-77677857D02*
X149498095Y-77820714D01*
X149498095Y-77820714D02*
X149450476Y-78011190D01*
X149450476Y-78011190D02*
X149450476Y-78392142D01*
X149450476Y-78392142D02*
X149498095Y-78487380D01*
X149498095Y-78487380D02*
X149545714Y-78535000D01*
X149545714Y-78535000D02*
X149640952Y-78582619D01*
X149640952Y-78582619D02*
X149831428Y-78582619D01*
X149831428Y-78582619D02*
X149926666Y-78535000D01*
X149926666Y-78535000D02*
X149974285Y-78487380D01*
X149974285Y-78487380D02*
X150021904Y-78392142D01*
X150021904Y-78392142D02*
X150021904Y-78154047D01*
X150021904Y-78154047D02*
X149974285Y-78058809D01*
X149974285Y-78058809D02*
X149926666Y-78011190D01*
X149926666Y-78011190D02*
X149831428Y-77963571D01*
X149831428Y-77963571D02*
X149640952Y-77963571D01*
X149640952Y-77963571D02*
X149545714Y-78011190D01*
X149545714Y-78011190D02*
X149498095Y-78058809D01*
X149498095Y-78058809D02*
X149450476Y-78154047D01*
%TO.C,C36*%
X152277380Y-55702857D02*
X152325000Y-55750476D01*
X152325000Y-55750476D02*
X152372619Y-55893333D01*
X152372619Y-55893333D02*
X152372619Y-55988571D01*
X152372619Y-55988571D02*
X152325000Y-56131428D01*
X152325000Y-56131428D02*
X152229761Y-56226666D01*
X152229761Y-56226666D02*
X152134523Y-56274285D01*
X152134523Y-56274285D02*
X151944047Y-56321904D01*
X151944047Y-56321904D02*
X151801190Y-56321904D01*
X151801190Y-56321904D02*
X151610714Y-56274285D01*
X151610714Y-56274285D02*
X151515476Y-56226666D01*
X151515476Y-56226666D02*
X151420238Y-56131428D01*
X151420238Y-56131428D02*
X151372619Y-55988571D01*
X151372619Y-55988571D02*
X151372619Y-55893333D01*
X151372619Y-55893333D02*
X151420238Y-55750476D01*
X151420238Y-55750476D02*
X151467857Y-55702857D01*
X151372619Y-55369523D02*
X151372619Y-54750476D01*
X151372619Y-54750476D02*
X151753571Y-55083809D01*
X151753571Y-55083809D02*
X151753571Y-54940952D01*
X151753571Y-54940952D02*
X151801190Y-54845714D01*
X151801190Y-54845714D02*
X151848809Y-54798095D01*
X151848809Y-54798095D02*
X151944047Y-54750476D01*
X151944047Y-54750476D02*
X152182142Y-54750476D01*
X152182142Y-54750476D02*
X152277380Y-54798095D01*
X152277380Y-54798095D02*
X152325000Y-54845714D01*
X152325000Y-54845714D02*
X152372619Y-54940952D01*
X152372619Y-54940952D02*
X152372619Y-55226666D01*
X152372619Y-55226666D02*
X152325000Y-55321904D01*
X152325000Y-55321904D02*
X152277380Y-55369523D01*
X151372619Y-53893333D02*
X151372619Y-54083809D01*
X151372619Y-54083809D02*
X151420238Y-54179047D01*
X151420238Y-54179047D02*
X151467857Y-54226666D01*
X151467857Y-54226666D02*
X151610714Y-54321904D01*
X151610714Y-54321904D02*
X151801190Y-54369523D01*
X151801190Y-54369523D02*
X152182142Y-54369523D01*
X152182142Y-54369523D02*
X152277380Y-54321904D01*
X152277380Y-54321904D02*
X152325000Y-54274285D01*
X152325000Y-54274285D02*
X152372619Y-54179047D01*
X152372619Y-54179047D02*
X152372619Y-53988571D01*
X152372619Y-53988571D02*
X152325000Y-53893333D01*
X152325000Y-53893333D02*
X152277380Y-53845714D01*
X152277380Y-53845714D02*
X152182142Y-53798095D01*
X152182142Y-53798095D02*
X151944047Y-53798095D01*
X151944047Y-53798095D02*
X151848809Y-53845714D01*
X151848809Y-53845714D02*
X151801190Y-53893333D01*
X151801190Y-53893333D02*
X151753571Y-53988571D01*
X151753571Y-53988571D02*
X151753571Y-54179047D01*
X151753571Y-54179047D02*
X151801190Y-54274285D01*
X151801190Y-54274285D02*
X151848809Y-54321904D01*
X151848809Y-54321904D02*
X151944047Y-54369523D01*
%TO.C,C7*%
X107032083Y-54397380D02*
X106984464Y-54445000D01*
X106984464Y-54445000D02*
X106841607Y-54492619D01*
X106841607Y-54492619D02*
X106746369Y-54492619D01*
X106746369Y-54492619D02*
X106603512Y-54445000D01*
X106603512Y-54445000D02*
X106508274Y-54349761D01*
X106508274Y-54349761D02*
X106460655Y-54254523D01*
X106460655Y-54254523D02*
X106413036Y-54064047D01*
X106413036Y-54064047D02*
X106413036Y-53921190D01*
X106413036Y-53921190D02*
X106460655Y-53730714D01*
X106460655Y-53730714D02*
X106508274Y-53635476D01*
X106508274Y-53635476D02*
X106603512Y-53540238D01*
X106603512Y-53540238D02*
X106746369Y-53492619D01*
X106746369Y-53492619D02*
X106841607Y-53492619D01*
X106841607Y-53492619D02*
X106984464Y-53540238D01*
X106984464Y-53540238D02*
X107032083Y-53587857D01*
X107365417Y-53492619D02*
X108032083Y-53492619D01*
X108032083Y-53492619D02*
X107603512Y-54492619D01*
%TO.C,C20*%
X148727380Y-49962857D02*
X148775000Y-50010476D01*
X148775000Y-50010476D02*
X148822619Y-50153333D01*
X148822619Y-50153333D02*
X148822619Y-50248571D01*
X148822619Y-50248571D02*
X148775000Y-50391428D01*
X148775000Y-50391428D02*
X148679761Y-50486666D01*
X148679761Y-50486666D02*
X148584523Y-50534285D01*
X148584523Y-50534285D02*
X148394047Y-50581904D01*
X148394047Y-50581904D02*
X148251190Y-50581904D01*
X148251190Y-50581904D02*
X148060714Y-50534285D01*
X148060714Y-50534285D02*
X147965476Y-50486666D01*
X147965476Y-50486666D02*
X147870238Y-50391428D01*
X147870238Y-50391428D02*
X147822619Y-50248571D01*
X147822619Y-50248571D02*
X147822619Y-50153333D01*
X147822619Y-50153333D02*
X147870238Y-50010476D01*
X147870238Y-50010476D02*
X147917857Y-49962857D01*
X147917857Y-49581904D02*
X147870238Y-49534285D01*
X147870238Y-49534285D02*
X147822619Y-49439047D01*
X147822619Y-49439047D02*
X147822619Y-49200952D01*
X147822619Y-49200952D02*
X147870238Y-49105714D01*
X147870238Y-49105714D02*
X147917857Y-49058095D01*
X147917857Y-49058095D02*
X148013095Y-49010476D01*
X148013095Y-49010476D02*
X148108333Y-49010476D01*
X148108333Y-49010476D02*
X148251190Y-49058095D01*
X148251190Y-49058095D02*
X148822619Y-49629523D01*
X148822619Y-49629523D02*
X148822619Y-49010476D01*
X147822619Y-48391428D02*
X147822619Y-48296190D01*
X147822619Y-48296190D02*
X147870238Y-48200952D01*
X147870238Y-48200952D02*
X147917857Y-48153333D01*
X147917857Y-48153333D02*
X148013095Y-48105714D01*
X148013095Y-48105714D02*
X148203571Y-48058095D01*
X148203571Y-48058095D02*
X148441666Y-48058095D01*
X148441666Y-48058095D02*
X148632142Y-48105714D01*
X148632142Y-48105714D02*
X148727380Y-48153333D01*
X148727380Y-48153333D02*
X148775000Y-48200952D01*
X148775000Y-48200952D02*
X148822619Y-48296190D01*
X148822619Y-48296190D02*
X148822619Y-48391428D01*
X148822619Y-48391428D02*
X148775000Y-48486666D01*
X148775000Y-48486666D02*
X148727380Y-48534285D01*
X148727380Y-48534285D02*
X148632142Y-48581904D01*
X148632142Y-48581904D02*
X148441666Y-48629523D01*
X148441666Y-48629523D02*
X148203571Y-48629523D01*
X148203571Y-48629523D02*
X148013095Y-48581904D01*
X148013095Y-48581904D02*
X147917857Y-48534285D01*
X147917857Y-48534285D02*
X147870238Y-48486666D01*
X147870238Y-48486666D02*
X147822619Y-48391428D01*
%TO.C,C14*%
X119047380Y-59992857D02*
X119095000Y-60040476D01*
X119095000Y-60040476D02*
X119142619Y-60183333D01*
X119142619Y-60183333D02*
X119142619Y-60278571D01*
X119142619Y-60278571D02*
X119095000Y-60421428D01*
X119095000Y-60421428D02*
X118999761Y-60516666D01*
X118999761Y-60516666D02*
X118904523Y-60564285D01*
X118904523Y-60564285D02*
X118714047Y-60611904D01*
X118714047Y-60611904D02*
X118571190Y-60611904D01*
X118571190Y-60611904D02*
X118380714Y-60564285D01*
X118380714Y-60564285D02*
X118285476Y-60516666D01*
X118285476Y-60516666D02*
X118190238Y-60421428D01*
X118190238Y-60421428D02*
X118142619Y-60278571D01*
X118142619Y-60278571D02*
X118142619Y-60183333D01*
X118142619Y-60183333D02*
X118190238Y-60040476D01*
X118190238Y-60040476D02*
X118237857Y-59992857D01*
X119142619Y-59040476D02*
X119142619Y-59611904D01*
X119142619Y-59326190D02*
X118142619Y-59326190D01*
X118142619Y-59326190D02*
X118285476Y-59421428D01*
X118285476Y-59421428D02*
X118380714Y-59516666D01*
X118380714Y-59516666D02*
X118428333Y-59611904D01*
X118475952Y-58183333D02*
X119142619Y-58183333D01*
X118095000Y-58421428D02*
X118809285Y-58659523D01*
X118809285Y-58659523D02*
X118809285Y-58040476D01*
%TO.C,Y1*%
X128223809Y-74736428D02*
X128223809Y-75212619D01*
X127890476Y-74212619D02*
X128223809Y-74736428D01*
X128223809Y-74736428D02*
X128557142Y-74212619D01*
X129414285Y-75212619D02*
X128842857Y-75212619D01*
X129128571Y-75212619D02*
X129128571Y-74212619D01*
X129128571Y-74212619D02*
X129033333Y-74355476D01*
X129033333Y-74355476D02*
X128938095Y-74450714D01*
X128938095Y-74450714D02*
X128842857Y-74498333D01*
%TO.C,L1*%
X105861369Y-54766666D02*
X105861369Y-55242856D01*
X105861369Y-55242856D02*
X104861369Y-55242856D01*
X105861369Y-53909523D02*
X105861369Y-54480951D01*
X105861369Y-54195237D02*
X104861369Y-54195237D01*
X104861369Y-54195237D02*
X105004226Y-54290475D01*
X105004226Y-54290475D02*
X105099464Y-54385713D01*
X105099464Y-54385713D02*
X105147083Y-54480951D01*
%TO.C,C21*%
X149819642Y-67417380D02*
X149772023Y-67465000D01*
X149772023Y-67465000D02*
X149629166Y-67512619D01*
X149629166Y-67512619D02*
X149533928Y-67512619D01*
X149533928Y-67512619D02*
X149391071Y-67465000D01*
X149391071Y-67465000D02*
X149295833Y-67369761D01*
X149295833Y-67369761D02*
X149248214Y-67274523D01*
X149248214Y-67274523D02*
X149200595Y-67084047D01*
X149200595Y-67084047D02*
X149200595Y-66941190D01*
X149200595Y-66941190D02*
X149248214Y-66750714D01*
X149248214Y-66750714D02*
X149295833Y-66655476D01*
X149295833Y-66655476D02*
X149391071Y-66560238D01*
X149391071Y-66560238D02*
X149533928Y-66512619D01*
X149533928Y-66512619D02*
X149629166Y-66512619D01*
X149629166Y-66512619D02*
X149772023Y-66560238D01*
X149772023Y-66560238D02*
X149819642Y-66607857D01*
X150200595Y-66607857D02*
X150248214Y-66560238D01*
X150248214Y-66560238D02*
X150343452Y-66512619D01*
X150343452Y-66512619D02*
X150581547Y-66512619D01*
X150581547Y-66512619D02*
X150676785Y-66560238D01*
X150676785Y-66560238D02*
X150724404Y-66607857D01*
X150724404Y-66607857D02*
X150772023Y-66703095D01*
X150772023Y-66703095D02*
X150772023Y-66798333D01*
X150772023Y-66798333D02*
X150724404Y-66941190D01*
X150724404Y-66941190D02*
X150152976Y-67512619D01*
X150152976Y-67512619D02*
X150772023Y-67512619D01*
X151724404Y-67512619D02*
X151152976Y-67512619D01*
X151438690Y-67512619D02*
X151438690Y-66512619D01*
X151438690Y-66512619D02*
X151343452Y-66655476D01*
X151343452Y-66655476D02*
X151248214Y-66750714D01*
X151248214Y-66750714D02*
X151152976Y-66798333D01*
%TO.C,U1*%
X160588095Y-51017619D02*
X160588095Y-51827142D01*
X160588095Y-51827142D02*
X160635714Y-51922380D01*
X160635714Y-51922380D02*
X160683333Y-51970000D01*
X160683333Y-51970000D02*
X160778571Y-52017619D01*
X160778571Y-52017619D02*
X160969047Y-52017619D01*
X160969047Y-52017619D02*
X161064285Y-51970000D01*
X161064285Y-51970000D02*
X161111904Y-51922380D01*
X161111904Y-51922380D02*
X161159523Y-51827142D01*
X161159523Y-51827142D02*
X161159523Y-51017619D01*
X162159523Y-52017619D02*
X161588095Y-52017619D01*
X161873809Y-52017619D02*
X161873809Y-51017619D01*
X161873809Y-51017619D02*
X161778571Y-51160476D01*
X161778571Y-51160476D02*
X161683333Y-51255714D01*
X161683333Y-51255714D02*
X161588095Y-51303333D01*
%TO.C,D2*%
X100391905Y-73962619D02*
X100391905Y-72962619D01*
X100391905Y-72962619D02*
X100630000Y-72962619D01*
X100630000Y-72962619D02*
X100772857Y-73010238D01*
X100772857Y-73010238D02*
X100868095Y-73105476D01*
X100868095Y-73105476D02*
X100915714Y-73200714D01*
X100915714Y-73200714D02*
X100963333Y-73391190D01*
X100963333Y-73391190D02*
X100963333Y-73534047D01*
X100963333Y-73534047D02*
X100915714Y-73724523D01*
X100915714Y-73724523D02*
X100868095Y-73819761D01*
X100868095Y-73819761D02*
X100772857Y-73915000D01*
X100772857Y-73915000D02*
X100630000Y-73962619D01*
X100630000Y-73962619D02*
X100391905Y-73962619D01*
X101344286Y-73057857D02*
X101391905Y-73010238D01*
X101391905Y-73010238D02*
X101487143Y-72962619D01*
X101487143Y-72962619D02*
X101725238Y-72962619D01*
X101725238Y-72962619D02*
X101820476Y-73010238D01*
X101820476Y-73010238D02*
X101868095Y-73057857D01*
X101868095Y-73057857D02*
X101915714Y-73153095D01*
X101915714Y-73153095D02*
X101915714Y-73248333D01*
X101915714Y-73248333D02*
X101868095Y-73391190D01*
X101868095Y-73391190D02*
X101296667Y-73962619D01*
X101296667Y-73962619D02*
X101915714Y-73962619D01*
%TO.C,R1*%
X98581369Y-55116666D02*
X98105178Y-55449999D01*
X98581369Y-55688094D02*
X97581369Y-55688094D01*
X97581369Y-55688094D02*
X97581369Y-55307142D01*
X97581369Y-55307142D02*
X97628988Y-55211904D01*
X97628988Y-55211904D02*
X97676607Y-55164285D01*
X97676607Y-55164285D02*
X97771845Y-55116666D01*
X97771845Y-55116666D02*
X97914702Y-55116666D01*
X97914702Y-55116666D02*
X98009940Y-55164285D01*
X98009940Y-55164285D02*
X98057559Y-55211904D01*
X98057559Y-55211904D02*
X98105178Y-55307142D01*
X98105178Y-55307142D02*
X98105178Y-55688094D01*
X98581369Y-54164285D02*
X98581369Y-54735713D01*
X98581369Y-54449999D02*
X97581369Y-54449999D01*
X97581369Y-54449999D02*
X97724226Y-54545237D01*
X97724226Y-54545237D02*
X97819464Y-54640475D01*
X97819464Y-54640475D02*
X97867083Y-54735713D01*
%TO.C,L11*%
X112157142Y-65112619D02*
X111680952Y-65112619D01*
X111680952Y-65112619D02*
X111680952Y-64112619D01*
X113014285Y-65112619D02*
X112442857Y-65112619D01*
X112728571Y-65112619D02*
X112728571Y-64112619D01*
X112728571Y-64112619D02*
X112633333Y-64255476D01*
X112633333Y-64255476D02*
X112538095Y-64350714D01*
X112538095Y-64350714D02*
X112442857Y-64398333D01*
X113966666Y-65112619D02*
X113395238Y-65112619D01*
X113680952Y-65112619D02*
X113680952Y-64112619D01*
X113680952Y-64112619D02*
X113585714Y-64255476D01*
X113585714Y-64255476D02*
X113490476Y-64350714D01*
X113490476Y-64350714D02*
X113395238Y-64398333D01*
%TO.C,TP7*%
X156258095Y-57064619D02*
X156829523Y-57064619D01*
X156543809Y-58064619D02*
X156543809Y-57064619D01*
X157162857Y-58064619D02*
X157162857Y-57064619D01*
X157162857Y-57064619D02*
X157543809Y-57064619D01*
X157543809Y-57064619D02*
X157639047Y-57112238D01*
X157639047Y-57112238D02*
X157686666Y-57159857D01*
X157686666Y-57159857D02*
X157734285Y-57255095D01*
X157734285Y-57255095D02*
X157734285Y-57397952D01*
X157734285Y-57397952D02*
X157686666Y-57493190D01*
X157686666Y-57493190D02*
X157639047Y-57540809D01*
X157639047Y-57540809D02*
X157543809Y-57588428D01*
X157543809Y-57588428D02*
X157162857Y-57588428D01*
X158067619Y-57064619D02*
X158734285Y-57064619D01*
X158734285Y-57064619D02*
X158305714Y-58064619D01*
%TO.C,C53*%
X147857142Y-75027380D02*
X147809523Y-75075000D01*
X147809523Y-75075000D02*
X147666666Y-75122619D01*
X147666666Y-75122619D02*
X147571428Y-75122619D01*
X147571428Y-75122619D02*
X147428571Y-75075000D01*
X147428571Y-75075000D02*
X147333333Y-74979761D01*
X147333333Y-74979761D02*
X147285714Y-74884523D01*
X147285714Y-74884523D02*
X147238095Y-74694047D01*
X147238095Y-74694047D02*
X147238095Y-74551190D01*
X147238095Y-74551190D02*
X147285714Y-74360714D01*
X147285714Y-74360714D02*
X147333333Y-74265476D01*
X147333333Y-74265476D02*
X147428571Y-74170238D01*
X147428571Y-74170238D02*
X147571428Y-74122619D01*
X147571428Y-74122619D02*
X147666666Y-74122619D01*
X147666666Y-74122619D02*
X147809523Y-74170238D01*
X147809523Y-74170238D02*
X147857142Y-74217857D01*
X148761904Y-74122619D02*
X148285714Y-74122619D01*
X148285714Y-74122619D02*
X148238095Y-74598809D01*
X148238095Y-74598809D02*
X148285714Y-74551190D01*
X148285714Y-74551190D02*
X148380952Y-74503571D01*
X148380952Y-74503571D02*
X148619047Y-74503571D01*
X148619047Y-74503571D02*
X148714285Y-74551190D01*
X148714285Y-74551190D02*
X148761904Y-74598809D01*
X148761904Y-74598809D02*
X148809523Y-74694047D01*
X148809523Y-74694047D02*
X148809523Y-74932142D01*
X148809523Y-74932142D02*
X148761904Y-75027380D01*
X148761904Y-75027380D02*
X148714285Y-75075000D01*
X148714285Y-75075000D02*
X148619047Y-75122619D01*
X148619047Y-75122619D02*
X148380952Y-75122619D01*
X148380952Y-75122619D02*
X148285714Y-75075000D01*
X148285714Y-75075000D02*
X148238095Y-75027380D01*
X149142857Y-74122619D02*
X149761904Y-74122619D01*
X149761904Y-74122619D02*
X149428571Y-74503571D01*
X149428571Y-74503571D02*
X149571428Y-74503571D01*
X149571428Y-74503571D02*
X149666666Y-74551190D01*
X149666666Y-74551190D02*
X149714285Y-74598809D01*
X149714285Y-74598809D02*
X149761904Y-74694047D01*
X149761904Y-74694047D02*
X149761904Y-74932142D01*
X149761904Y-74932142D02*
X149714285Y-75027380D01*
X149714285Y-75027380D02*
X149666666Y-75075000D01*
X149666666Y-75075000D02*
X149571428Y-75122619D01*
X149571428Y-75122619D02*
X149285714Y-75122619D01*
X149285714Y-75122619D02*
X149190476Y-75075000D01*
X149190476Y-75075000D02*
X149142857Y-75027380D01*
%TO.C,C51*%
X143427142Y-44817380D02*
X143379523Y-44865000D01*
X143379523Y-44865000D02*
X143236666Y-44912619D01*
X143236666Y-44912619D02*
X143141428Y-44912619D01*
X143141428Y-44912619D02*
X142998571Y-44865000D01*
X142998571Y-44865000D02*
X142903333Y-44769761D01*
X142903333Y-44769761D02*
X142855714Y-44674523D01*
X142855714Y-44674523D02*
X142808095Y-44484047D01*
X142808095Y-44484047D02*
X142808095Y-44341190D01*
X142808095Y-44341190D02*
X142855714Y-44150714D01*
X142855714Y-44150714D02*
X142903333Y-44055476D01*
X142903333Y-44055476D02*
X142998571Y-43960238D01*
X142998571Y-43960238D02*
X143141428Y-43912619D01*
X143141428Y-43912619D02*
X143236666Y-43912619D01*
X143236666Y-43912619D02*
X143379523Y-43960238D01*
X143379523Y-43960238D02*
X143427142Y-44007857D01*
X144331904Y-43912619D02*
X143855714Y-43912619D01*
X143855714Y-43912619D02*
X143808095Y-44388809D01*
X143808095Y-44388809D02*
X143855714Y-44341190D01*
X143855714Y-44341190D02*
X143950952Y-44293571D01*
X143950952Y-44293571D02*
X144189047Y-44293571D01*
X144189047Y-44293571D02*
X144284285Y-44341190D01*
X144284285Y-44341190D02*
X144331904Y-44388809D01*
X144331904Y-44388809D02*
X144379523Y-44484047D01*
X144379523Y-44484047D02*
X144379523Y-44722142D01*
X144379523Y-44722142D02*
X144331904Y-44817380D01*
X144331904Y-44817380D02*
X144284285Y-44865000D01*
X144284285Y-44865000D02*
X144189047Y-44912619D01*
X144189047Y-44912619D02*
X143950952Y-44912619D01*
X143950952Y-44912619D02*
X143855714Y-44865000D01*
X143855714Y-44865000D02*
X143808095Y-44817380D01*
X145331904Y-44912619D02*
X144760476Y-44912619D01*
X145046190Y-44912619D02*
X145046190Y-43912619D01*
X145046190Y-43912619D02*
X144950952Y-44055476D01*
X144950952Y-44055476D02*
X144855714Y-44150714D01*
X144855714Y-44150714D02*
X144760476Y-44198333D01*
%TO.C,D1*%
X100661905Y-64902619D02*
X100661905Y-63902619D01*
X100661905Y-63902619D02*
X100900000Y-63902619D01*
X100900000Y-63902619D02*
X101042857Y-63950238D01*
X101042857Y-63950238D02*
X101138095Y-64045476D01*
X101138095Y-64045476D02*
X101185714Y-64140714D01*
X101185714Y-64140714D02*
X101233333Y-64331190D01*
X101233333Y-64331190D02*
X101233333Y-64474047D01*
X101233333Y-64474047D02*
X101185714Y-64664523D01*
X101185714Y-64664523D02*
X101138095Y-64759761D01*
X101138095Y-64759761D02*
X101042857Y-64855000D01*
X101042857Y-64855000D02*
X100900000Y-64902619D01*
X100900000Y-64902619D02*
X100661905Y-64902619D01*
X102185714Y-64902619D02*
X101614286Y-64902619D01*
X101900000Y-64902619D02*
X101900000Y-63902619D01*
X101900000Y-63902619D02*
X101804762Y-64045476D01*
X101804762Y-64045476D02*
X101709524Y-64140714D01*
X101709524Y-64140714D02*
X101614286Y-64188333D01*
D13*
%TO.C,J1*%
X93910000Y-68150000D02*
X92580000Y-68150000D01*
X93910000Y-66820000D02*
X93910000Y-68150000D01*
X93910000Y-65550000D02*
X93910000Y-57870000D01*
X93910000Y-65550000D02*
X91250000Y-65550000D01*
X93910000Y-57870000D02*
X91250000Y-57870000D01*
X91250000Y-65550000D02*
X91250000Y-57870000D01*
%TO.C,D7*%
X114908750Y-47600000D02*
X114908750Y-45925000D01*
X114908750Y-47600000D02*
X114908750Y-48250000D01*
X111788750Y-47600000D02*
X111788750Y-46950000D01*
X111788750Y-47600000D02*
X111788750Y-48250000D01*
%TO.C,TP9*%
X155600000Y-54450000D02*
G75*
G03*
X155600000Y-54450000I-700000J0D01*
G01*
%TO.C,R6*%
X130672936Y-67890000D02*
X132127064Y-67890000D01*
X130672936Y-69710000D02*
X132127064Y-69710000D01*
%TO.C,C30*%
X125938748Y-53540000D02*
X127361252Y-53540000D01*
X125938748Y-55360000D02*
X127361252Y-55360000D01*
%TO.C,C47*%
X128161252Y-62410000D02*
X126738748Y-62410000D01*
X128161252Y-60590000D02*
X126738748Y-60590000D01*
%TO.C,R2*%
X95238750Y-61427064D02*
X95238750Y-59972936D01*
X97058750Y-61427064D02*
X97058750Y-59972936D01*
%TO.C,TP6*%
X156650000Y-51290000D02*
G75*
G03*
X156650000Y-51290000I-700000J0D01*
G01*
%TO.C,C49*%
X126035000Y-72088748D02*
X126035000Y-72611252D01*
X124565000Y-72088748D02*
X124565000Y-72611252D01*
%TO.C,C15*%
X108037498Y-55765000D02*
X108560002Y-55765000D01*
X108037498Y-57235000D02*
X108560002Y-57235000D01*
%TO.C,C29*%
X141340000Y-72761252D02*
X141340000Y-71338748D01*
X143160000Y-72761252D02*
X143160000Y-71338748D01*
%TO.C,C35*%
X121761252Y-78720000D02*
X120338748Y-78720000D01*
X121761252Y-76000000D02*
X120338748Y-76000000D01*
%TO.C,TP2*%
X153200000Y-60250000D02*
G75*
G03*
X153200000Y-60250000I-700000J0D01*
G01*
%TO.C,C9*%
X106610000Y-66388748D02*
X106610000Y-67811252D01*
X104790000Y-66388748D02*
X104790000Y-67811252D01*
%TO.C,C52*%
X154751252Y-70410000D02*
X153328748Y-70410000D01*
X154751252Y-67690000D02*
X153328748Y-67690000D01*
%TO.C,R8*%
X131110000Y-47272936D02*
X131110000Y-48727064D01*
X129290000Y-47272936D02*
X129290000Y-48727064D01*
%TO.C,L3*%
X111413508Y-51390000D02*
X113083992Y-51390000D01*
X111413508Y-53210000D02*
X113083992Y-53210000D01*
%TO.C,D3*%
X103797500Y-69820000D02*
X103797500Y-67820000D01*
X103797500Y-69820000D02*
X99787500Y-69820000D01*
X103797500Y-67820000D02*
X99787500Y-67820000D01*
%TO.C,D6*%
X113708750Y-57512500D02*
X113708750Y-55837500D01*
X113708750Y-57512500D02*
X113708750Y-58162500D01*
X110588750Y-57512500D02*
X110588750Y-56862500D01*
X110588750Y-57512500D02*
X110588750Y-58162500D01*
%TO.C,R16*%
X152222936Y-61640000D02*
X153677064Y-61640000D01*
X152222936Y-63460000D02*
X153677064Y-63460000D01*
%TO.C,D4*%
X103437500Y-73710000D02*
X103437500Y-71710000D01*
X103437500Y-73710000D02*
X99427500Y-73710000D01*
X103437500Y-71710000D02*
X99427500Y-71710000D01*
%TO.C,C19*%
X143750000Y-73641252D02*
X143750000Y-72218748D01*
X145570000Y-73641252D02*
X145570000Y-72218748D01*
%TO.C,L9*%
X118590000Y-62335242D02*
X118590000Y-60664758D01*
X120410000Y-62335242D02*
X120410000Y-60664758D01*
%TO.C,C41*%
X114580000Y-77431252D02*
X114580000Y-76008748D01*
X117300000Y-77431252D02*
X117300000Y-76008748D01*
%TO.C,C23*%
X145861252Y-67510000D02*
X144438748Y-67510000D01*
X145861252Y-65690000D02*
X144438748Y-65690000D01*
%TO.C,C42*%
X160538748Y-44890000D02*
X161961252Y-44890000D01*
X160538748Y-47610000D02*
X161961252Y-47610000D01*
%TO.C,C17*%
X114430000Y-71421252D02*
X114430000Y-69998748D01*
X116250000Y-71421252D02*
X116250000Y-69998748D01*
%TO.C,C3*%
X100433750Y-55488748D02*
X100433750Y-56011252D01*
X98963750Y-55488748D02*
X98963750Y-56011252D01*
%TO.C,C34*%
X125988748Y-56390000D02*
X127411252Y-56390000D01*
X125988748Y-58210000D02*
X127411252Y-58210000D01*
%TO.C,C44*%
X162361252Y-51810000D02*
X160938748Y-51810000D01*
X162361252Y-49990000D02*
X160938748Y-49990000D01*
%TO.C,R5*%
X146222936Y-68240000D02*
X147677064Y-68240000D01*
X146222936Y-70060000D02*
X147677064Y-70060000D01*
%TO.C,C24*%
X113760002Y-45335000D02*
X113237498Y-45335000D01*
X113760002Y-43865000D02*
X113237498Y-43865000D01*
%TO.C,L7*%
X109774758Y-69110000D02*
X111445242Y-69110000D01*
X109774758Y-70930000D02*
X111445242Y-70930000D01*
%TO.C,C38*%
X151640000Y-55761252D02*
X151640000Y-54338748D01*
X153460000Y-55761252D02*
X153460000Y-54338748D01*
%TO.C,C46*%
X131790000Y-51861252D02*
X131790000Y-50438748D01*
X133610000Y-51861252D02*
X133610000Y-50438748D01*
%TO.C,L2*%
X104408750Y-59464758D02*
X104408750Y-61135242D01*
X102588750Y-59464758D02*
X102588750Y-61135242D01*
%TO.C,C48*%
X141138748Y-53190000D02*
X142561252Y-53190000D01*
X141138748Y-55010000D02*
X142561252Y-55010000D01*
%TO.C,C8*%
X107860002Y-63135000D02*
X107337498Y-63135000D01*
X107860002Y-61665000D02*
X107337498Y-61665000D01*
%TO.C,R9*%
X155022936Y-47690000D02*
X156477064Y-47690000D01*
X155022936Y-49510000D02*
X156477064Y-49510000D01*
%TO.C,C4*%
X100533750Y-59588748D02*
X100533750Y-60111252D01*
X99063750Y-59588748D02*
X99063750Y-60111252D01*
%TO.C,J2*%
X138030000Y-41170000D02*
X138030000Y-42500000D01*
X136700000Y-41170000D02*
X138030000Y-41170000D01*
X135430000Y-41170000D02*
X117590000Y-41170000D01*
X135430000Y-41170000D02*
X135430000Y-43830000D01*
X117590000Y-41170000D02*
X117590000Y-43830000D01*
X135430000Y-43830000D02*
X117590000Y-43830000D01*
%TO.C,D5*%
X112640000Y-72132500D02*
X109340000Y-72132500D01*
X112640000Y-72132500D02*
X112640000Y-77642500D01*
X109340000Y-72132500D02*
X109340000Y-77642500D01*
%TO.C,C12*%
X124938748Y-66940000D02*
X126361252Y-66940000D01*
X124938748Y-69660000D02*
X126361252Y-69660000D01*
%TO.C,C2*%
X95315000Y-70238748D02*
X95315000Y-70761252D01*
X93845000Y-70238748D02*
X93845000Y-70761252D01*
%TO.C,L6*%
X120705242Y-69800000D02*
X119034758Y-69800000D01*
X120705242Y-67980000D02*
X119034758Y-67980000D01*
%TO.C,C5*%
X95860000Y-74391252D02*
X95860000Y-72968748D01*
X97680000Y-74391252D02*
X97680000Y-72968748D01*
%TO.C,C6*%
X97620000Y-67018748D02*
X97620000Y-68441252D01*
X95800000Y-67018748D02*
X95800000Y-68441252D01*
%TO.C,L10*%
X135914758Y-51240000D02*
X137585242Y-51240000D01*
X135914758Y-53060000D02*
X137585242Y-53060000D01*
%TO.C,L5*%
X133610000Y-76414758D02*
X133610000Y-78085242D01*
X131790000Y-76414758D02*
X131790000Y-78085242D01*
%TO.C,C10*%
X104560000Y-75401252D02*
X104560000Y-73978748D01*
X106380000Y-75401252D02*
X106380000Y-73978748D01*
%TO.C,TP5*%
X154650000Y-73190000D02*
G75*
G03*
X154650000Y-73190000I-700000J0D01*
G01*
%TO.C,R7*%
X133172936Y-44690000D02*
X134627064Y-44690000D01*
X133172936Y-46510000D02*
X134627064Y-46510000D01*
%TO.C,TP8*%
X163640000Y-59280000D02*
G75*
G03*
X163640000Y-59280000I-700000J0D01*
G01*
%TO.C,C45*%
X137288748Y-47340000D02*
X138711252Y-47340000D01*
X137288748Y-49160000D02*
X138711252Y-49160000D01*
%TO.C,R19*%
X147022936Y-59990000D02*
X148477064Y-59990000D01*
X147022936Y-61810000D02*
X148477064Y-61810000D01*
%TO.C,C43*%
X137160000Y-71388748D02*
X137160000Y-72811252D01*
X135340000Y-71388748D02*
X135340000Y-72811252D01*
%TO.C,L4*%
X111713508Y-61340000D02*
X113383992Y-61340000D01*
X111713508Y-63160000D02*
X113383992Y-63160000D01*
%TO.C,C55*%
X122640000Y-72058748D02*
X122640000Y-73481252D01*
X119920000Y-72058748D02*
X119920000Y-73481252D01*
%TO.C,C13*%
X117735000Y-54838748D02*
X117735000Y-55361252D01*
X116265000Y-54838748D02*
X116265000Y-55361252D01*
%TO.C,D10*%
X131510500Y-57691500D02*
X132060500Y-57691500D01*
X139730500Y-58241500D02*
X139730500Y-57691500D01*
X131510500Y-58241500D02*
X131510500Y-57691500D01*
X139730500Y-65361500D02*
X139730500Y-65911500D01*
X131510500Y-65361500D02*
X131510500Y-65911500D01*
X139730500Y-65911500D02*
X139180500Y-65911500D01*
X131510500Y-65911500D02*
X132060500Y-65911500D01*
%TO.C,C32*%
X131415000Y-72411252D02*
X131415000Y-71888748D01*
X132885000Y-72411252D02*
X132885000Y-71888748D01*
%TO.C,C22*%
X138390000Y-72811252D02*
X138390000Y-71388748D01*
X140210000Y-72811252D02*
X140210000Y-71388748D01*
%TO.C,L8*%
X118590000Y-56525242D02*
X118590000Y-54854758D01*
X120410000Y-56525242D02*
X120410000Y-54854758D01*
%TO.C,R3*%
X136160000Y-76572936D02*
X136160000Y-78027064D01*
X134340000Y-76572936D02*
X134340000Y-78027064D01*
%TO.C,C39*%
X144728748Y-50260000D02*
X146151252Y-50260000D01*
X144728748Y-52080000D02*
X146151252Y-52080000D01*
%TO.C,C56*%
X149471252Y-77180000D02*
X148048748Y-77180000D01*
X149471252Y-74460000D02*
X148048748Y-74460000D01*
%TO.C,C36*%
X150970000Y-54348748D02*
X150970000Y-55771252D01*
X148250000Y-54348748D02*
X148250000Y-55771252D01*
%TO.C,C7*%
X107460002Y-53085000D02*
X106937498Y-53085000D01*
X107460002Y-51615000D02*
X106937498Y-51615000D01*
%TO.C,C20*%
X149300000Y-50031252D02*
X149300000Y-48608748D01*
X151120000Y-50031252D02*
X151120000Y-48608748D01*
%TO.C,C14*%
X117735000Y-59088748D02*
X117735000Y-59611252D01*
X116265000Y-59088748D02*
X116265000Y-59611252D01*
%TO.C,Y1*%
X130700000Y-73950000D02*
X130700000Y-70650000D01*
X130700000Y-70650000D02*
X126700000Y-70650000D01*
%TO.C,L1*%
X104408750Y-53764758D02*
X104408750Y-55435242D01*
X102588750Y-53764758D02*
X102588750Y-55435242D01*
%TO.C,C21*%
X151173752Y-66110000D02*
X149751248Y-66110000D01*
X151173752Y-64290000D02*
X149751248Y-64290000D01*
%TO.C,U1*%
X158600000Y-52390000D02*
X158600000Y-52650000D01*
X158600000Y-52650000D02*
X156950000Y-52650000D01*
X158600000Y-57840000D02*
X158600000Y-57580000D01*
X161350000Y-52390000D02*
X158600000Y-52390000D01*
X161350000Y-52390000D02*
X164100000Y-52390000D01*
X161350000Y-57840000D02*
X158600000Y-57840000D01*
X161350000Y-57840000D02*
X164100000Y-57840000D01*
X164100000Y-52390000D02*
X164100000Y-52650000D01*
X164100000Y-57840000D02*
X164100000Y-57580000D01*
%TO.C,D2*%
X98770000Y-74500000D02*
X98770000Y-76500000D01*
X98770000Y-74500000D02*
X102780000Y-74500000D01*
X98770000Y-76500000D02*
X102780000Y-76500000D01*
%TO.C,R1*%
X97208750Y-54222936D02*
X97208750Y-55677064D01*
X95388750Y-54222936D02*
X95388750Y-55677064D01*
%TO.C,L11*%
X111964758Y-65640000D02*
X113635242Y-65640000D01*
X111964758Y-67460000D02*
X113635242Y-67460000D01*
%TO.C,TP7*%
X158220000Y-59050000D02*
G75*
G03*
X158220000Y-59050000I-700000J0D01*
G01*
%TO.C,C53*%
X149211252Y-73720000D02*
X147788748Y-73720000D01*
X149211252Y-71000000D02*
X147788748Y-71000000D01*
%TO.C,C51*%
X143358748Y-45390000D02*
X144781252Y-45390000D01*
X143358748Y-47210000D02*
X144781252Y-47210000D01*
%TO.C,D1*%
X99040000Y-65440000D02*
X99040000Y-67440000D01*
X99040000Y-65440000D02*
X103050000Y-65440000D01*
X99040000Y-67440000D02*
X103050000Y-67440000D01*
%TD*%
%LPC*%
D14*
%TO.C,J1*%
X92580000Y-66820000D03*
D15*
X92580000Y-64280000D03*
X92580000Y-61740000D03*
X92580000Y-59200000D03*
%TD*%
D16*
%TO.C,D7*%
X114298750Y-46662500D03*
X112398750Y-46662500D03*
X113348750Y-48537500D03*
%TD*%
D17*
%TO.C,TP9*%
X154900000Y-54450000D03*
%TD*%
D18*
%TO.C,R6*%
X129850000Y-68800000D03*
X132950000Y-68800000D03*
%TD*%
D19*
%TO.C,C30*%
X125087500Y-54450000D03*
X128212500Y-54450000D03*
%TD*%
D20*
%TO.C,C47*%
X129012500Y-61500000D03*
X125887500Y-61500000D03*
%TD*%
D21*
%TO.C,R2*%
X96148750Y-62250000D03*
X96148750Y-59150000D03*
%TD*%
D17*
%TO.C,TP6*%
X155950000Y-51290000D03*
%TD*%
D22*
%TO.C,C49*%
X125300000Y-71312500D03*
X125300000Y-73387500D03*
%TD*%
D23*
%TO.C,C15*%
X107261250Y-56500000D03*
X109336250Y-56500000D03*
%TD*%
D24*
%TO.C,C29*%
X142250000Y-73612500D03*
X142250000Y-70487500D03*
%TD*%
D25*
%TO.C,C35*%
X122612500Y-77360000D03*
X119487500Y-77360000D03*
%TD*%
D17*
%TO.C,TP2*%
X152500000Y-60250000D03*
%TD*%
D26*
%TO.C,C9*%
X105700000Y-65537500D03*
X105700000Y-68662500D03*
%TD*%
D25*
%TO.C,C52*%
X155602500Y-69050000D03*
X152477500Y-69050000D03*
%TD*%
D27*
%TO.C,R8*%
X130200000Y-46450000D03*
X130200000Y-49550000D03*
%TD*%
D28*
%TO.C,L3*%
X110586250Y-52300000D03*
X113911250Y-52300000D03*
%TD*%
D29*
%TO.C,D3*%
X103087500Y-68820000D03*
X99787500Y-68820000D03*
%TD*%
D16*
%TO.C,D6*%
X113098750Y-56575000D03*
X111198750Y-56575000D03*
X112148750Y-58450000D03*
%TD*%
D18*
%TO.C,R16*%
X151400000Y-62550000D03*
X154500000Y-62550000D03*
%TD*%
D29*
%TO.C,D4*%
X102727500Y-72710000D03*
X99427500Y-72710000D03*
%TD*%
D24*
%TO.C,C19*%
X144660000Y-74492500D03*
X144660000Y-71367500D03*
%TD*%
D30*
%TO.C,L9*%
X119500000Y-63162500D03*
X119500000Y-59837500D03*
%TD*%
D31*
%TO.C,C41*%
X115940000Y-78282500D03*
X115940000Y-75157500D03*
%TD*%
D20*
%TO.C,C23*%
X146712500Y-66600000D03*
X143587500Y-66600000D03*
%TD*%
D32*
%TO.C,C42*%
X159687500Y-46250000D03*
X162812500Y-46250000D03*
%TD*%
D24*
%TO.C,C17*%
X115340000Y-72272500D03*
X115340000Y-69147500D03*
%TD*%
D22*
%TO.C,C3*%
X99698750Y-54712500D03*
X99698750Y-56787500D03*
%TD*%
D19*
%TO.C,C34*%
X125137500Y-57300000D03*
X128262500Y-57300000D03*
%TD*%
D20*
%TO.C,C44*%
X163212500Y-50900000D03*
X160087500Y-50900000D03*
%TD*%
D18*
%TO.C,R5*%
X145400000Y-69150000D03*
X148500000Y-69150000D03*
%TD*%
D33*
%TO.C,C24*%
X114536250Y-44600000D03*
X112461250Y-44600000D03*
%TD*%
D28*
%TO.C,L7*%
X108947500Y-70020000D03*
X112272500Y-70020000D03*
%TD*%
D24*
%TO.C,C38*%
X152550000Y-56612500D03*
X152550000Y-53487500D03*
%TD*%
%TO.C,C46*%
X132700000Y-52712500D03*
X132700000Y-49587500D03*
%TD*%
D34*
%TO.C,L2*%
X103498750Y-58637500D03*
X103498750Y-61962500D03*
%TD*%
D19*
%TO.C,C48*%
X140287500Y-54100000D03*
X143412500Y-54100000D03*
%TD*%
D33*
%TO.C,C8*%
X108636250Y-62400000D03*
X106561250Y-62400000D03*
%TD*%
D18*
%TO.C,R9*%
X154200000Y-48600000D03*
X157300000Y-48600000D03*
%TD*%
D22*
%TO.C,C4*%
X99798750Y-58812500D03*
X99798750Y-60887500D03*
%TD*%
D14*
%TO.C,J2*%
X136700000Y-42500000D03*
D15*
X134160000Y-42500000D03*
X131620000Y-42500000D03*
X129080000Y-42500000D03*
X126540000Y-42500000D03*
X124000000Y-42500000D03*
X121460000Y-42500000D03*
X118920000Y-42500000D03*
%TD*%
D35*
%TO.C,D5*%
X110990000Y-73642500D03*
X110990000Y-77642500D03*
%TD*%
D32*
%TO.C,C12*%
X124087500Y-68300000D03*
X127212500Y-68300000D03*
%TD*%
D22*
%TO.C,C2*%
X94580000Y-69462500D03*
X94580000Y-71537500D03*
%TD*%
D36*
%TO.C,L6*%
X121532500Y-68890000D03*
X118207500Y-68890000D03*
%TD*%
D24*
%TO.C,C5*%
X96770000Y-75242500D03*
X96770000Y-72117500D03*
%TD*%
D26*
%TO.C,C6*%
X96710000Y-66167500D03*
X96710000Y-69292500D03*
%TD*%
D28*
%TO.C,L10*%
X135087500Y-52150000D03*
X138412500Y-52150000D03*
%TD*%
D34*
%TO.C,L5*%
X132700000Y-75587500D03*
X132700000Y-78912500D03*
%TD*%
D24*
%TO.C,C10*%
X105470000Y-76252500D03*
X105470000Y-73127500D03*
%TD*%
D17*
%TO.C,TP5*%
X153950000Y-73190000D03*
%TD*%
D18*
%TO.C,R7*%
X132350000Y-45600000D03*
X135450000Y-45600000D03*
%TD*%
D17*
%TO.C,TP8*%
X162940000Y-59280000D03*
%TD*%
D19*
%TO.C,C45*%
X136437500Y-48250000D03*
X139562500Y-48250000D03*
%TD*%
D18*
%TO.C,R19*%
X146200000Y-60900000D03*
X149300000Y-60900000D03*
%TD*%
D26*
%TO.C,C43*%
X136250000Y-70537500D03*
X136250000Y-73662500D03*
%TD*%
D28*
%TO.C,L4*%
X110886250Y-62250000D03*
X114211250Y-62250000D03*
%TD*%
D37*
%TO.C,C55*%
X121280000Y-71207500D03*
X121280000Y-74332500D03*
%TD*%
D22*
%TO.C,C13*%
X117000000Y-54062500D03*
X117000000Y-56137500D03*
%TD*%
D38*
%TO.C,D10*%
X138820500Y-57864000D03*
X138420500Y-57864000D03*
X138020500Y-57864000D03*
X137620500Y-57864000D03*
X137220500Y-57864000D03*
X136820500Y-57864000D03*
X136420500Y-57864000D03*
X136020500Y-57864000D03*
X135620500Y-57864000D03*
X135220500Y-57864000D03*
X134820500Y-57864000D03*
X134420500Y-57864000D03*
X134020500Y-57864000D03*
X133620500Y-57864000D03*
X133220500Y-57864000D03*
X132820500Y-57864000D03*
X132420500Y-57864000D03*
D39*
X131683000Y-58601500D03*
X131683000Y-59001500D03*
X131683000Y-59401500D03*
X131683000Y-59801500D03*
X131683000Y-60201500D03*
X131683000Y-60601500D03*
X131683000Y-61001500D03*
X131683000Y-61401500D03*
X131683000Y-61801500D03*
X131683000Y-62201500D03*
X131683000Y-62601500D03*
X131683000Y-63001500D03*
X131683000Y-63401500D03*
X131683000Y-63801500D03*
X131683000Y-64201500D03*
X131683000Y-64601500D03*
X131683000Y-65001500D03*
D38*
X132420500Y-65739000D03*
X132820500Y-65739000D03*
X133220500Y-65739000D03*
X133620500Y-65739000D03*
X134020500Y-65739000D03*
X134420500Y-65739000D03*
X134820500Y-65739000D03*
X135220500Y-65739000D03*
X135620500Y-65739000D03*
X136020500Y-65739000D03*
X136420500Y-65739000D03*
X136820500Y-65739000D03*
X137220500Y-65739000D03*
X137620500Y-65739000D03*
X138020500Y-65739000D03*
X138420500Y-65739000D03*
X138820500Y-65739000D03*
D39*
X139558000Y-65001500D03*
X139558000Y-64601500D03*
X139558000Y-64201500D03*
X139558000Y-63801500D03*
X139558000Y-63401500D03*
X139558000Y-63001500D03*
X139558000Y-62601500D03*
X139558000Y-62201500D03*
X139558000Y-61801500D03*
X139558000Y-61401500D03*
X139558000Y-61001500D03*
X139558000Y-60601500D03*
X139558000Y-60201500D03*
X139558000Y-59801500D03*
X139558000Y-59401500D03*
X139558000Y-59001500D03*
X139558000Y-58601500D03*
D40*
X135620500Y-61801500D03*
%TD*%
D41*
%TO.C,C32*%
X132150000Y-73187500D03*
X132150000Y-71112500D03*
%TD*%
D24*
%TO.C,C22*%
X139300000Y-73662500D03*
X139300000Y-70537500D03*
%TD*%
D30*
%TO.C,L8*%
X119500000Y-57352500D03*
X119500000Y-54027500D03*
%TD*%
D27*
%TO.C,R3*%
X135250000Y-75750000D03*
X135250000Y-78850000D03*
%TD*%
D19*
%TO.C,C39*%
X143877500Y-51170000D03*
X147002500Y-51170000D03*
%TD*%
D25*
%TO.C,C56*%
X150322500Y-75820000D03*
X147197500Y-75820000D03*
%TD*%
D37*
%TO.C,C36*%
X149610000Y-53497500D03*
X149610000Y-56622500D03*
%TD*%
D33*
%TO.C,C7*%
X108236250Y-52350000D03*
X106161250Y-52350000D03*
%TD*%
D24*
%TO.C,C20*%
X150210000Y-50882500D03*
X150210000Y-47757500D03*
%TD*%
D22*
%TO.C,C14*%
X117000000Y-58312500D03*
X117000000Y-60387500D03*
%TD*%
D42*
%TO.C,Y1*%
X129800000Y-71450000D03*
X127600000Y-71450000D03*
X127600000Y-73150000D03*
X129800000Y-73150000D03*
%TD*%
D34*
%TO.C,L1*%
X103498750Y-52937500D03*
X103498750Y-56262500D03*
%TD*%
D20*
%TO.C,C21*%
X152025000Y-65200000D03*
X148900000Y-65200000D03*
%TD*%
D43*
%TO.C,U1*%
X157750000Y-53210000D03*
X157750000Y-54480000D03*
X157750000Y-55750000D03*
X157750000Y-57020000D03*
X164950000Y-57020000D03*
X164950000Y-55750000D03*
X164950000Y-54480000D03*
X164950000Y-53210000D03*
%TD*%
D44*
%TO.C,D2*%
X99480000Y-75500000D03*
X102780000Y-75500000D03*
%TD*%
D27*
%TO.C,R1*%
X96298750Y-53400000D03*
X96298750Y-56500000D03*
%TD*%
D28*
%TO.C,L11*%
X111137500Y-66550000D03*
X114462500Y-66550000D03*
%TD*%
D17*
%TO.C,TP7*%
X157520000Y-59050000D03*
%TD*%
D25*
%TO.C,C53*%
X150062500Y-72360000D03*
X146937500Y-72360000D03*
%TD*%
D19*
%TO.C,C51*%
X142507500Y-46300000D03*
X145632500Y-46300000D03*
%TD*%
D44*
%TO.C,D1*%
X99750000Y-66440000D03*
X103050000Y-66440000D03*
%TD*%
%LPD*%
D45*
X91000000Y-40500000D02*
X167000000Y-40500000D01*
X167000000Y-80500000D01*
X91000000Y-80500000D01*
X91000000Y-40500000D01*
M02*
