%TF.GenerationSoftware,KiCad,Pcbnew,7.0.2*%
%TF.CreationDate,2023-06-20T23:12:55+02:00*%
%TF.ProjectId,qca7000,71636137-3030-4302-9e6b-696361645f70,rev?*%
%TF.SameCoordinates,Original*%
%TF.FileFunction,Copper,L2,Bot*%
%TF.FilePolarity,Positive*%
%FSLAX46Y46*%
G04 Gerber Fmt 4.6, Leading zero omitted, Abs format (unit mm)*
G04 Created by KiCad (PCBNEW 7.0.2) date 2023-06-20 23:12:55*
%MOMM*%
%LPD*%
G01*
G04 APERTURE LIST*
G04 Aperture macros list*
%AMRoundRect*
0 Rectangle with rounded corners*
0 $1 Rounding radius*
0 $2 $3 $4 $5 $6 $7 $8 $9 X,Y pos of 4 corners*
0 Add a 4 corners polygon primitive as box body*
4,1,4,$2,$3,$4,$5,$6,$7,$8,$9,$2,$3,0*
0 Add four circle primitives for the rounded corners*
1,1,$1+$1,$2,$3*
1,1,$1+$1,$4,$5*
1,1,$1+$1,$6,$7*
1,1,$1+$1,$8,$9*
0 Add four rect primitives between the rounded corners*
20,1,$1+$1,$2,$3,$4,$5,0*
20,1,$1+$1,$4,$5,$6,$7,0*
20,1,$1+$1,$6,$7,$8,$9,0*
20,1,$1+$1,$8,$9,$2,$3,0*%
G04 Aperture macros list end*
%TA.AperFunction,ComponentPad*%
%ADD10R,1.700000X1.700000*%
%TD*%
%TA.AperFunction,ComponentPad*%
%ADD11O,1.700000X1.700000*%
%TD*%
%TA.AperFunction,ComponentPad*%
%ADD12C,1.000000*%
%TD*%
%TA.AperFunction,ComponentPad*%
%ADD13C,0.500000*%
%TD*%
%TA.AperFunction,SMDPad,CuDef*%
%ADD14R,5.200000X5.200000*%
%TD*%
%TA.AperFunction,SMDPad,CuDef*%
%ADD15RoundRect,0.250000X0.412500X0.650000X-0.412500X0.650000X-0.412500X-0.650000X0.412500X-0.650000X0*%
%TD*%
%TA.AperFunction,SMDPad,CuDef*%
%ADD16RoundRect,0.250000X-0.650000X0.412500X-0.650000X-0.412500X0.650000X-0.412500X0.650000X0.412500X0*%
%TD*%
%TA.AperFunction,SMDPad,CuDef*%
%ADD17RoundRect,0.250000X-0.412500X-1.100000X0.412500X-1.100000X0.412500X1.100000X-0.412500X1.100000X0*%
%TD*%
%TA.AperFunction,SMDPad,CuDef*%
%ADD18RoundRect,0.250000X0.650000X-0.412500X0.650000X0.412500X-0.650000X0.412500X-0.650000X-0.412500X0*%
%TD*%
%TA.AperFunction,SMDPad,CuDef*%
%ADD19RoundRect,0.250000X0.337500X0.475000X-0.337500X0.475000X-0.337500X-0.475000X0.337500X-0.475000X0*%
%TD*%
%TA.AperFunction,SMDPad,CuDef*%
%ADD20RoundRect,0.250000X-1.100000X0.412500X-1.100000X-0.412500X1.100000X-0.412500X1.100000X0.412500X0*%
%TD*%
%TA.AperFunction,ViaPad*%
%ADD21C,0.550000*%
%TD*%
%TA.AperFunction,ViaPad*%
%ADD22C,0.800000*%
%TD*%
%TA.AperFunction,ViaPad*%
%ADD23C,0.600000*%
%TD*%
%TA.AperFunction,Conductor*%
%ADD24C,0.200000*%
%TD*%
%TA.AperFunction,Conductor*%
%ADD25C,0.800000*%
%TD*%
%TA.AperFunction,Conductor*%
%ADD26C,0.500000*%
%TD*%
%TA.AperFunction,Conductor*%
%ADD27C,0.600000*%
%TD*%
%TA.AperFunction,Conductor*%
%ADD28C,0.300000*%
%TD*%
%TA.AperFunction,Conductor*%
%ADD29C,0.250000*%
%TD*%
%TA.AperFunction,Conductor*%
%ADD30C,0.400000*%
%TD*%
%TA.AperFunction,Profile*%
%ADD31C,0.100000*%
%TD*%
G04 APERTURE END LIST*
D10*
%TO.P,J1,1,Pin_1*%
%TO.N,TX_P*%
X92580000Y-66820000D03*
D11*
%TO.P,J1,2,Pin_2*%
%TO.N,TX_N*%
X92580000Y-64280000D03*
%TO.P,J1,3,Pin_3*%
%TO.N,RX_P*%
X92580000Y-61740000D03*
%TO.P,J1,4,Pin_4*%
%TO.N,RX_N*%
X92580000Y-59200000D03*
%TD*%
D12*
%TO.P,TP9,1,1*%
%TO.N,SPI_DI*%
X154900000Y-54450000D03*
%TD*%
%TO.P,TP6,1,1*%
%TO.N,SPI_CS_L*%
X155950000Y-51290000D03*
%TD*%
D10*
%TO.P,J2,1,Pin_1*%
%TO.N,GND*%
X136700000Y-42500000D03*
D11*
%TO.P,J2,2,Pin_2*%
%TO.N,+3V3_D*%
X134160000Y-42500000D03*
%TO.P,J2,3,Pin_3*%
%TO.N,RESET#*%
X131620000Y-42500000D03*
%TO.P,J2,4,Pin_4*%
%TO.N,SERIAL_IO_4_MOSI*%
X129080000Y-42500000D03*
%TO.P,J2,5,Pin_5*%
%TO.N,SERIAL_IO_3_MISO*%
X126540000Y-42500000D03*
%TO.P,J2,6,Pin_6*%
%TO.N,SERIAL_IO_2_CS*%
X124000000Y-42500000D03*
%TO.P,J2,7,Pin_7*%
%TO.N,SERIAL_IO_1_CLK*%
X121460000Y-42500000D03*
%TO.P,J2,8,Pin_8*%
%TO.N,SERIAL_IO_0_INT*%
X118920000Y-42500000D03*
%TD*%
D12*
%TO.P,TP8,1,1*%
%TO.N,SPI_DO*%
X162940000Y-59280000D03*
%TD*%
D13*
%TO.P,D10,69,GND*%
%TO.N,GND*%
X137970500Y-59451500D03*
X136795500Y-59451500D03*
X135620500Y-59451500D03*
X134445500Y-59451500D03*
X133270500Y-59451500D03*
X137970500Y-60626500D03*
X136795500Y-60626500D03*
X135620500Y-60626500D03*
X134445500Y-60626500D03*
X133270500Y-60626500D03*
X137970500Y-61801500D03*
X136795500Y-61801500D03*
X135620500Y-61801500D03*
D14*
X135620500Y-61801500D03*
D13*
X134445500Y-61801500D03*
X133270500Y-61801500D03*
X137970500Y-62976500D03*
X136795500Y-62976500D03*
X135620500Y-62976500D03*
X134445500Y-62976500D03*
X133270500Y-62976500D03*
X137970500Y-64151500D03*
X136795500Y-64151500D03*
X135620500Y-64151500D03*
X134445500Y-64151500D03*
X133270500Y-64151500D03*
%TD*%
D12*
%TO.P,TP7,1,1*%
%TO.N,SPI_CLK*%
X157520000Y-59050000D03*
%TD*%
D15*
%TO.P,C31,1*%
%TO.N,GND*%
X146212500Y-62600000D03*
%TO.P,C31,2*%
%TO.N,+3V3_D*%
X143087500Y-62600000D03*
%TD*%
%TO.P,C26,1*%
%TO.N,GND*%
X144612500Y-68900000D03*
%TO.P,C26,2*%
%TO.N,+1V2_C*%
X141487500Y-68900000D03*
%TD*%
D16*
%TO.P,C11,1*%
%TO.N,+3V3_A*%
X132000000Y-68237500D03*
%TO.P,C11,2*%
%TO.N,GND*%
X132000000Y-71362500D03*
%TD*%
D15*
%TO.P,C28,1*%
%TO.N,GND*%
X143512500Y-72550000D03*
%TO.P,C28,2*%
%TO.N,+3V3_D*%
X140387500Y-72550000D03*
%TD*%
%TO.P,C40,1*%
%TO.N,+1V2_C*%
X128762500Y-58750000D03*
%TO.P,C40,2*%
%TO.N,GND*%
X125637500Y-58750000D03*
%TD*%
D17*
%TO.P,C54,1*%
%TO.N,+1V2_C*%
X143887500Y-55350000D03*
%TO.P,C54,2*%
%TO.N,GND*%
X147012500Y-55350000D03*
%TD*%
D15*
%TO.P,C50,1*%
%TO.N,+3V3_D*%
X130062500Y-55950000D03*
%TO.P,C50,2*%
%TO.N,GND*%
X126937500Y-55950000D03*
%TD*%
D18*
%TO.P,C25,1*%
%TO.N,GND*%
X134500000Y-71312500D03*
%TO.P,C25,2*%
%TO.N,Net-(#FLG0106-pwr)*%
X134500000Y-68187500D03*
%TD*%
D15*
%TO.P,C33,1*%
%TO.N,+3V3_A*%
X129112500Y-64500000D03*
%TO.P,C33,2*%
%TO.N,GND*%
X125987500Y-64500000D03*
%TD*%
%TO.P,C16,1*%
%TO.N,GND*%
X145212500Y-66500000D03*
%TO.P,C16,2*%
%TO.N,+1V2_C*%
X142087500Y-66500000D03*
%TD*%
D19*
%TO.P,C18,1*%
%TO.N,GND*%
X135977500Y-57990000D03*
%TO.P,C18,2*%
%TO.N,+1V2_C*%
X133902500Y-57990000D03*
%TD*%
D18*
%TO.P,C27,1*%
%TO.N,+1V2_C*%
X141450000Y-55462500D03*
%TO.P,C27,2*%
%TO.N,GND*%
X141450000Y-52337500D03*
%TD*%
D20*
%TO.P,C37,1*%
%TO.N,GND*%
X129930000Y-50307500D03*
%TO.P,C37,2*%
%TO.N,+3V3_D*%
X129930000Y-53432500D03*
%TD*%
D21*
%TO.N,GND*%
X136900000Y-74850000D03*
X106000000Y-79500000D03*
X148000000Y-67350000D03*
X111430000Y-78550000D03*
X124500000Y-52000000D03*
X99070000Y-63990000D03*
X148900000Y-53150000D03*
X141620000Y-73960000D03*
X130240000Y-73080000D03*
X150470000Y-73280000D03*
X110200000Y-41040000D03*
X92880000Y-79530000D03*
X132550000Y-60390000D03*
X105148750Y-58100000D03*
X155350000Y-56700000D03*
X132100000Y-49150000D03*
X114290000Y-46120000D03*
X155940000Y-68010000D03*
X93270000Y-41970000D03*
X125500000Y-61550000D03*
X139950000Y-74050000D03*
X127150000Y-71160000D03*
X136800000Y-73300000D03*
X154160000Y-61950000D03*
X153150000Y-53100000D03*
X124750000Y-56650000D03*
X135790000Y-78680000D03*
X115940000Y-78282500D03*
X150000000Y-74730000D03*
X147002500Y-51170000D03*
X150750000Y-65450000D03*
X145430000Y-45700000D03*
X112880000Y-67110000D03*
X132630000Y-73050000D03*
X93100000Y-50130000D03*
X130450000Y-61000000D03*
X139950000Y-48850000D03*
X107248750Y-57750000D03*
X101498750Y-56750000D03*
X133300000Y-49950000D03*
X124450000Y-69350000D03*
X139150000Y-47600000D03*
X125500000Y-41000000D03*
X114098750Y-56500000D03*
X125450000Y-55050000D03*
X142860000Y-73940000D03*
X118500000Y-61500000D03*
X119180000Y-62440000D03*
X138850000Y-74900000D03*
X101498750Y-58800000D03*
X103340000Y-77012500D03*
X145290000Y-74060000D03*
X125500000Y-48000000D03*
X138720000Y-63560000D03*
X110450000Y-78520000D03*
X120000000Y-55450642D03*
X116580000Y-40930000D03*
X134756020Y-64893429D03*
X144020000Y-74090000D03*
X114450000Y-44160000D03*
X125710000Y-71040000D03*
X124500000Y-67200000D03*
X118210000Y-63810000D03*
X150600000Y-76740000D03*
X150760000Y-50510000D03*
X155290000Y-69990000D03*
X150900000Y-53200000D03*
X141850000Y-54050000D03*
X159750000Y-50300000D03*
X119500000Y-46020000D03*
X147050000Y-68950000D03*
X100480000Y-41310000D03*
X115860000Y-71920000D03*
X122612500Y-77360000D03*
X124650000Y-53800000D03*
X105148750Y-57100000D03*
X93430000Y-56620000D03*
X115948750Y-58300000D03*
X149770000Y-71200000D03*
X125500000Y-57900000D03*
X159350000Y-45180000D03*
X126000000Y-62500000D03*
X130400000Y-60300000D03*
X119500000Y-49500000D03*
X121280000Y-74332500D03*
X119500000Y-52500000D03*
%TO.N,+1V2_C*%
X141000000Y-65500000D03*
X140750000Y-66600000D03*
D22*
X128950000Y-60399500D03*
D21*
X143890000Y-51330000D03*
X142250000Y-68900000D03*
X134361037Y-58663180D03*
X139550000Y-57900000D03*
X139900000Y-55750000D03*
X143000000Y-65350000D03*
D22*
X130200000Y-58600000D03*
%TO.N,Net-(D3-K)*%
X104050000Y-68620000D03*
D21*
X103820000Y-72712500D03*
%TO.N,+3V3_D*%
X161650000Y-55000000D03*
X140430000Y-72170000D03*
X140447197Y-60224500D03*
X132545998Y-59620128D03*
X159150000Y-55650000D03*
X131260000Y-57000000D03*
X137169757Y-64876001D03*
X141974500Y-60224500D03*
D23*
X136300000Y-67150000D03*
D21*
X140505989Y-62193529D03*
X141950000Y-62200000D03*
%TO.N,Net-(D6-A)*%
X112550000Y-65624500D03*
X112570000Y-64025500D03*
%TO.N,+3V3_A*%
X132512753Y-64313224D03*
X131150000Y-67250000D03*
%TO.N,Net-(D10-RSVD02)*%
X142894004Y-64608030D03*
X140050000Y-65400000D03*
%TO.N,Net-(D10-RSVD03)*%
X138650000Y-69100000D03*
X137846000Y-66725500D03*
%TO.N,Net-(#FLG0106-pwr)*%
X134195000Y-67100000D03*
%TO.N,Net-(#FLG0104-pwr)*%
X135300000Y-53550000D03*
X135042882Y-56305762D03*
%TO.N,Net-(D10-RESET_L)*%
X138100000Y-54250000D03*
X137395000Y-56850000D03*
%TO.N,SERIAL_IO_4_MOSI*%
X131737970Y-54157600D03*
X133174075Y-55355925D03*
%TO.N,SERIAL_IO_3_MISO*%
X133137675Y-56213134D03*
X131227900Y-54732100D03*
%TO.N,SERIAL_IO_2_CS*%
X132486609Y-56584440D03*
X131199500Y-55481064D03*
%TO.N,SPI_DI*%
X138150000Y-56800000D03*
X138685263Y-54718210D03*
%TO.N,Net-(D10-RBIAS)*%
X139950000Y-68274500D03*
X139400000Y-66025500D03*
%TO.N,GPIO_1*%
X140908698Y-61328816D03*
X143240000Y-61120000D03*
%TO.N,GPIO_2*%
X142800000Y-60400000D03*
X138695002Y-60852871D03*
%TO.N,SPI_CS_L*%
X144450000Y-59824500D03*
X138699146Y-59891750D03*
%TO.N,SPI_DO*%
X145650000Y-59200000D03*
X140810000Y-59074500D03*
%TO.N,SPI_CLK*%
X145250000Y-58550000D03*
X138714480Y-59142405D03*
%TD*%
D24*
%TO.N,GND*%
X141450000Y-74850000D02*
X142250000Y-74850000D01*
X125550000Y-67150000D02*
X125550000Y-68100000D01*
D25*
%TO.N,+1V2_C*%
X142250000Y-66662500D02*
X142087500Y-66500000D01*
D26*
X128950000Y-60399500D02*
X128950000Y-58937500D01*
X128950000Y-60399500D02*
X128950000Y-59850000D01*
D27*
X139550000Y-57900000D02*
X139550000Y-56100000D01*
D26*
X143887500Y-55350000D02*
X143887500Y-51332500D01*
D25*
X139900000Y-57540000D02*
X139733224Y-57540000D01*
D24*
X134361037Y-58448537D02*
X133902500Y-57990000D01*
D25*
X139900000Y-55750000D02*
X141162500Y-55750000D01*
D24*
X142087500Y-67937500D02*
X142087500Y-66500000D01*
X140750000Y-66600000D02*
X141725000Y-67575000D01*
D26*
X128950000Y-59850000D02*
X130200000Y-58600000D01*
X128912500Y-58600000D02*
X128762500Y-58750000D01*
X141987500Y-66600000D02*
X142087500Y-66500000D01*
D25*
X141000000Y-65500000D02*
X142850000Y-65500000D01*
D26*
X141087500Y-65500000D02*
X142087500Y-66500000D01*
D25*
X141162500Y-55750000D02*
X141450000Y-55462500D01*
D24*
X142250000Y-68100000D02*
X142087500Y-67937500D01*
X142250000Y-68100000D02*
X142250000Y-68900000D01*
D27*
X140970000Y-55350000D02*
X143887500Y-55350000D01*
D25*
X143775000Y-55462500D02*
X143887500Y-55350000D01*
D27*
X139550000Y-57900000D02*
X139550000Y-56770000D01*
D26*
X130200000Y-58600000D02*
X128912500Y-58600000D01*
X140750000Y-67400000D02*
X142250000Y-68900000D01*
X141000000Y-66850000D02*
X141725000Y-67575000D01*
X140750000Y-66600000D02*
X140750000Y-67400000D01*
X140750000Y-66600000D02*
X141987500Y-66600000D01*
X140750000Y-66600000D02*
X140750000Y-68162500D01*
D25*
X141450000Y-55462500D02*
X143775000Y-55462500D01*
X141000000Y-67650000D02*
X142250000Y-68900000D01*
D26*
X140750000Y-68162500D02*
X141487500Y-68900000D01*
D25*
X142250000Y-68900000D02*
X142250000Y-66662500D01*
D26*
X141000000Y-65500000D02*
X141087500Y-65500000D01*
D27*
X139550000Y-56100000D02*
X139900000Y-55750000D01*
D26*
X143887500Y-51332500D02*
X143890000Y-51330000D01*
D24*
X134361037Y-58663180D02*
X134361037Y-58448537D01*
D25*
X141000000Y-65500000D02*
X141000000Y-67650000D01*
D27*
X139550000Y-56770000D02*
X140970000Y-55350000D01*
D26*
X128950000Y-58937500D02*
X128762500Y-58750000D01*
D28*
X142850000Y-65500000D02*
X143000000Y-65350000D01*
D25*
X139900000Y-55750000D02*
X139900000Y-57540000D01*
D26*
X143000000Y-65587500D02*
X142087500Y-66500000D01*
X143000000Y-65350000D02*
X143000000Y-65587500D01*
D24*
X141725000Y-67575000D02*
X142250000Y-68100000D01*
D26*
X141000000Y-65500000D02*
X141000000Y-66850000D01*
D29*
%TO.N,Net-(D3-K)*%
X103820000Y-68850000D02*
X104050000Y-68620000D01*
X103820000Y-72712500D02*
X103820000Y-68850000D01*
D30*
%TO.N,+3V3_D*%
X140447197Y-60212803D02*
X140450000Y-60210000D01*
D26*
X130062500Y-55950000D02*
X130062500Y-53565000D01*
D25*
X141950000Y-62200000D02*
X141946184Y-62203816D01*
D26*
X131260000Y-57000000D02*
X131260000Y-58334130D01*
D25*
X159150000Y-55650000D02*
X161000000Y-55650000D01*
X140516276Y-62203816D02*
X140505989Y-62193529D01*
X142350000Y-62600000D02*
X141950000Y-62200000D01*
D30*
X141960000Y-60210000D02*
X141974500Y-60224500D01*
D26*
X136300000Y-65745758D02*
X137169757Y-64876001D01*
X136300000Y-67150000D02*
X136300000Y-65745758D01*
D25*
X161000000Y-55650000D02*
X161650000Y-55000000D01*
D26*
X131260000Y-58334130D02*
X132545998Y-59620128D01*
D25*
X143087500Y-62600000D02*
X142350000Y-62600000D01*
D26*
X130062500Y-53565000D02*
X129930000Y-53432500D01*
D30*
X140447197Y-60224500D02*
X140447197Y-60212803D01*
D25*
X131112500Y-57000000D02*
X130062500Y-55950000D01*
X141946184Y-62203816D02*
X140516276Y-62203816D01*
X131260000Y-57000000D02*
X131112500Y-57000000D01*
D30*
X140450000Y-60210000D02*
X141960000Y-60210000D01*
D24*
%TO.N,Net-(D6-A)*%
X112550000Y-64045500D02*
X112570000Y-64025500D01*
X112550000Y-65624500D02*
X112550000Y-64045500D01*
D25*
%TO.N,+3V3_A*%
X132000000Y-68100000D02*
X131150000Y-67250000D01*
X129299276Y-64313224D02*
X132130000Y-64313224D01*
D24*
X132512753Y-64313224D02*
X132130000Y-64313224D01*
D25*
X132000000Y-68237500D02*
X132000000Y-68100000D01*
X129112500Y-64500000D02*
X129299276Y-64313224D01*
D24*
%TO.N,Net-(D10-RSVD02)*%
X140050000Y-65400000D02*
X140800000Y-64650000D01*
X142900000Y-64650000D02*
X142900000Y-64614026D01*
X142900000Y-64614026D02*
X142894004Y-64608030D01*
X140800000Y-64650000D02*
X142900000Y-64650000D01*
%TO.N,Net-(D10-RSVD03)*%
X137846000Y-66725500D02*
X137846000Y-68296000D01*
X137846000Y-68296000D02*
X138650000Y-69100000D01*
%TO.N,Net-(#FLG0106-pwr)*%
X134195000Y-67100000D02*
X134195000Y-67882500D01*
X134195000Y-67882500D02*
X134500000Y-68187500D01*
%TO.N,Net-(#FLG0104-pwr)*%
X135042882Y-56305762D02*
X135300000Y-56048644D01*
X135300000Y-56048644D02*
X135300000Y-53550000D01*
%TO.N,Net-(D10-RESET_L)*%
X137395000Y-56741827D02*
X137750000Y-56386827D01*
X137750000Y-56386827D02*
X137750000Y-54600000D01*
X137750000Y-54600000D02*
X138100000Y-54250000D01*
X137395000Y-56850000D02*
X137395000Y-56741827D01*
%TO.N,SERIAL_IO_4_MOSI*%
X133105925Y-55355925D02*
X131907600Y-54157600D01*
X131907600Y-54157600D02*
X131737970Y-54157600D01*
X133174075Y-55355925D02*
X133105925Y-55355925D01*
%TO.N,SERIAL_IO_3_MISO*%
X131737783Y-54732100D02*
X131227900Y-54732100D01*
X133137675Y-56131992D02*
X131737783Y-54732100D01*
X133137675Y-56213134D02*
X133137675Y-56131992D01*
%TO.N,SERIAL_IO_2_CS*%
X131199500Y-55481064D02*
X131231064Y-55481064D01*
X132002169Y-56100000D02*
X132486609Y-56584440D01*
X131231064Y-55481064D02*
X131850000Y-56100000D01*
X131850000Y-56100000D02*
X132002169Y-56100000D01*
%TO.N,SPI_DI*%
X138600000Y-54650000D02*
X138617053Y-54650000D01*
X138150000Y-56800000D02*
X138150000Y-55100000D01*
X138617053Y-54650000D02*
X138685263Y-54718210D01*
X138150000Y-55100000D02*
X138600000Y-54650000D01*
%TO.N,Net-(D10-RBIAS)*%
X139400000Y-66025500D02*
X139400000Y-67724500D01*
X139400000Y-67724500D02*
X139950000Y-68274500D01*
%TO.N,GPIO_1*%
X140908698Y-61328816D02*
X143031184Y-61328816D01*
X143031184Y-61328816D02*
X143240000Y-61120000D01*
%TO.N,GPIO_2*%
X141736327Y-60799500D02*
X142400500Y-60799500D01*
X138695002Y-60852871D02*
X138837873Y-60710000D01*
X140119524Y-60710000D02*
X140209024Y-60799500D01*
X138837873Y-60710000D02*
X140119524Y-60710000D01*
X140685370Y-60799500D02*
X140774870Y-60710000D01*
X140774870Y-60710000D02*
X141646827Y-60710000D01*
X141646827Y-60710000D02*
X141736327Y-60799500D01*
X142400500Y-60799500D02*
X142800000Y-60400000D01*
X140209024Y-60799500D02*
X140685370Y-60799500D01*
%TO.N,SPI_CS_L*%
X144275500Y-59650000D02*
X139020058Y-59650000D01*
X138778308Y-59891750D02*
X138699146Y-59891750D01*
X144450000Y-59824500D02*
X144275500Y-59650000D01*
X139020058Y-59650000D02*
X138778308Y-59891750D01*
%TO.N,SPI_DO*%
X145600000Y-59250000D02*
X145650000Y-59200000D01*
X140810000Y-59074500D02*
X140985500Y-59250000D01*
X140985500Y-59250000D02*
X145600000Y-59250000D01*
%TO.N,SPI_CLK*%
X141398673Y-58850000D02*
X144950000Y-58850000D01*
X138836885Y-59020000D02*
X140050000Y-59020000D01*
X138714480Y-59142405D02*
X138836885Y-59020000D01*
X140050000Y-59020000D02*
X140570500Y-58499500D01*
X141048173Y-58499500D02*
X141398673Y-58850000D01*
X144950000Y-58850000D02*
X145250000Y-58550000D01*
X140570500Y-58499500D02*
X141048173Y-58499500D01*
%TD*%
%TA.AperFunction,Conductor*%
%TO.N,GND*%
G36*
X166867539Y-40595185D02*
G01*
X166913294Y-40647989D01*
X166924500Y-40699500D01*
X166924500Y-80360500D01*
X166904815Y-80427539D01*
X166852011Y-80473294D01*
X166800500Y-80484500D01*
X91199500Y-80484500D01*
X91132461Y-80464815D01*
X91086706Y-80412011D01*
X91075500Y-80360500D01*
X91075500Y-73254266D01*
X139524500Y-73254266D01*
X139524769Y-73257139D01*
X139524770Y-73257151D01*
X139527353Y-73284696D01*
X139572207Y-73412884D01*
X139652849Y-73522150D01*
X139762115Y-73602792D01*
X139762118Y-73602793D01*
X139890301Y-73647646D01*
X139920734Y-73650500D01*
X139923627Y-73650500D01*
X140851373Y-73650500D01*
X140854266Y-73650500D01*
X140884699Y-73647646D01*
X141012882Y-73602793D01*
X141012882Y-73602792D01*
X141012884Y-73602792D01*
X141122150Y-73522150D01*
X141202792Y-73412884D01*
X141202793Y-73412882D01*
X141247646Y-73284699D01*
X141250500Y-73254266D01*
X141250500Y-72800000D01*
X142350001Y-72800000D01*
X142350001Y-73246829D01*
X142350321Y-73253111D01*
X142360493Y-73352695D01*
X142415642Y-73519122D01*
X142507683Y-73668345D01*
X142631654Y-73792316D01*
X142780877Y-73884357D01*
X142947303Y-73939506D01*
X143046890Y-73949680D01*
X143053168Y-73949999D01*
X143262499Y-73949999D01*
X143262500Y-73949998D01*
X143262500Y-72800000D01*
X143762500Y-72800000D01*
X143762500Y-73949999D01*
X143971829Y-73949999D01*
X143978111Y-73949678D01*
X144077695Y-73939506D01*
X144244122Y-73884357D01*
X144393345Y-73792316D01*
X144517316Y-73668345D01*
X144609357Y-73519122D01*
X144664506Y-73352696D01*
X144674680Y-73253109D01*
X144675000Y-73246831D01*
X144675000Y-72800000D01*
X143762500Y-72800000D01*
X143262500Y-72800000D01*
X142350001Y-72800000D01*
X141250500Y-72800000D01*
X141250500Y-72300000D01*
X142350000Y-72300000D01*
X143262500Y-72300000D01*
X143262500Y-71150000D01*
X143762500Y-71150000D01*
X143762500Y-72300000D01*
X144674999Y-72300000D01*
X144674999Y-71853170D01*
X144674678Y-71846888D01*
X144664506Y-71747304D01*
X144609357Y-71580877D01*
X144517316Y-71431654D01*
X144393345Y-71307683D01*
X144244122Y-71215642D01*
X144077696Y-71160493D01*
X143978109Y-71150319D01*
X143971832Y-71150000D01*
X143762500Y-71150000D01*
X143262500Y-71150000D01*
X143053171Y-71150000D01*
X143046888Y-71150321D01*
X142947304Y-71160493D01*
X142780877Y-71215642D01*
X142631654Y-71307683D01*
X142507683Y-71431654D01*
X142415642Y-71580877D01*
X142360493Y-71747303D01*
X142350319Y-71846890D01*
X142350000Y-71853168D01*
X142350000Y-72300000D01*
X141250500Y-72300000D01*
X141250500Y-71845734D01*
X141247646Y-71815301D01*
X141202793Y-71687118D01*
X141202792Y-71687115D01*
X141122150Y-71577849D01*
X141012884Y-71497207D01*
X140884696Y-71452353D01*
X140857151Y-71449770D01*
X140857139Y-71449769D01*
X140854266Y-71449500D01*
X139920734Y-71449500D01*
X139917861Y-71449769D01*
X139917848Y-71449770D01*
X139890303Y-71452353D01*
X139762115Y-71497207D01*
X139652849Y-71577849D01*
X139572207Y-71687115D01*
X139527353Y-71815303D01*
X139524770Y-71842848D01*
X139524769Y-71842861D01*
X139524500Y-71845734D01*
X139524500Y-73254266D01*
X91075500Y-73254266D01*
X91075500Y-72712499D01*
X103339610Y-72712499D01*
X103359068Y-72847842D01*
X103415869Y-72972217D01*
X103505412Y-73075556D01*
X103620437Y-73149477D01*
X103620439Y-73149478D01*
X103751633Y-73188000D01*
X103888367Y-73188000D01*
X104019561Y-73149478D01*
X104134589Y-73075555D01*
X104224130Y-72972218D01*
X104280931Y-72847842D01*
X104300390Y-72712500D01*
X104280931Y-72577158D01*
X104224130Y-72452782D01*
X104224129Y-72452781D01*
X104224129Y-72452780D01*
X104175787Y-72396990D01*
X104146762Y-72333435D01*
X104145500Y-72315788D01*
X104145500Y-71612500D01*
X130600001Y-71612500D01*
X130600001Y-71821829D01*
X130600321Y-71828111D01*
X130610493Y-71927695D01*
X130665642Y-72094122D01*
X130757683Y-72243345D01*
X130881654Y-72367316D01*
X131030877Y-72459357D01*
X131197303Y-72514506D01*
X131296890Y-72524680D01*
X131303168Y-72524999D01*
X131749999Y-72524999D01*
X132250000Y-72524999D01*
X132696829Y-72524999D01*
X132703111Y-72524678D01*
X132802695Y-72514506D01*
X132969122Y-72459357D01*
X133118342Y-72367318D01*
X133187318Y-72298342D01*
X133248641Y-72264857D01*
X133318333Y-72269841D01*
X133362683Y-72298343D01*
X133381658Y-72317318D01*
X133530877Y-72409357D01*
X133697303Y-72464506D01*
X133796890Y-72474680D01*
X133803168Y-72474999D01*
X134249999Y-72474999D01*
X134250000Y-72474998D01*
X134250000Y-71562500D01*
X134750000Y-71562500D01*
X134750000Y-72474999D01*
X135196829Y-72474999D01*
X135203111Y-72474678D01*
X135302695Y-72464506D01*
X135469122Y-72409357D01*
X135618345Y-72317316D01*
X135742316Y-72193345D01*
X135834357Y-72044122D01*
X135889506Y-71877696D01*
X135899680Y-71778109D01*
X135900000Y-71771831D01*
X135900000Y-71562500D01*
X134750000Y-71562500D01*
X134250000Y-71562500D01*
X133440000Y-71562500D01*
X133426319Y-71576181D01*
X133364996Y-71609666D01*
X133338638Y-71612500D01*
X132250000Y-71612500D01*
X132250000Y-72524999D01*
X131749999Y-72524999D01*
X131749999Y-72524998D01*
X131750000Y-71612500D01*
X130600001Y-71612500D01*
X104145500Y-71612500D01*
X104145500Y-71112500D01*
X130600000Y-71112500D01*
X131750000Y-71112500D01*
X132250000Y-71112500D01*
X133060000Y-71112500D01*
X133073681Y-71098819D01*
X133135004Y-71065334D01*
X133161362Y-71062500D01*
X134250000Y-71062500D01*
X134250000Y-70150000D01*
X134750000Y-70150000D01*
X134750000Y-71062500D01*
X135899999Y-71062500D01*
X135899999Y-70853170D01*
X135899678Y-70846888D01*
X135889506Y-70747304D01*
X135834357Y-70580877D01*
X135742316Y-70431654D01*
X135618345Y-70307683D01*
X135469122Y-70215642D01*
X135302696Y-70160493D01*
X135203109Y-70150319D01*
X135196832Y-70150000D01*
X134750000Y-70150000D01*
X134250000Y-70150000D01*
X133803171Y-70150000D01*
X133796888Y-70150321D01*
X133697304Y-70160493D01*
X133530877Y-70215642D01*
X133381656Y-70307681D01*
X133312680Y-70376658D01*
X133251356Y-70410142D01*
X133181665Y-70405157D01*
X133137316Y-70376656D01*
X133118341Y-70357681D01*
X132969122Y-70265642D01*
X132802696Y-70210493D01*
X132703109Y-70200319D01*
X132696832Y-70200000D01*
X132250000Y-70200000D01*
X132250000Y-71112500D01*
X131750000Y-71112500D01*
X131750000Y-70200000D01*
X131303171Y-70200000D01*
X131296888Y-70200321D01*
X131197304Y-70210493D01*
X131030877Y-70265642D01*
X130881654Y-70357683D01*
X130757683Y-70481654D01*
X130665642Y-70630877D01*
X130610493Y-70797303D01*
X130600319Y-70896890D01*
X130600000Y-70903168D01*
X130600000Y-71112500D01*
X104145500Y-71112500D01*
X104145500Y-69313273D01*
X104165185Y-69246234D01*
X104217989Y-69200479D01*
X104222032Y-69198718D01*
X104352841Y-69144536D01*
X104478282Y-69048282D01*
X104574536Y-68922841D01*
X104635044Y-68776762D01*
X104655682Y-68620000D01*
X104635044Y-68463238D01*
X104574536Y-68317159D01*
X104528309Y-68256914D01*
X104478282Y-68191717D01*
X104352840Y-68095463D01*
X104206762Y-68034956D01*
X104049999Y-68014317D01*
X103893237Y-68034956D01*
X103747159Y-68095463D01*
X103621717Y-68191717D01*
X103525463Y-68317159D01*
X103464956Y-68463237D01*
X103444317Y-68620000D01*
X103464955Y-68776761D01*
X103485061Y-68825299D01*
X103494500Y-68872752D01*
X103494500Y-72315788D01*
X103474815Y-72382827D01*
X103464213Y-72396990D01*
X103415870Y-72452780D01*
X103359068Y-72577157D01*
X103339610Y-72712499D01*
X91075500Y-72712499D01*
X91075500Y-67689748D01*
X91529500Y-67689748D01*
X91541132Y-67748230D01*
X91585447Y-67814552D01*
X91651769Y-67858867D01*
X91710251Y-67870500D01*
X91710252Y-67870500D01*
X93449749Y-67870500D01*
X93478989Y-67864683D01*
X93508231Y-67858867D01*
X93574552Y-67814552D01*
X93618867Y-67748231D01*
X93630500Y-67689748D01*
X93630500Y-67249999D01*
X130544317Y-67249999D01*
X130564956Y-67406762D01*
X130625463Y-67552840D01*
X130695073Y-67643558D01*
X130695079Y-67643565D01*
X130697550Y-67646785D01*
X130700424Y-67649659D01*
X130863180Y-67812415D01*
X130896665Y-67873738D01*
X130899499Y-67900096D01*
X130899499Y-68701373D01*
X130899500Y-68701394D01*
X130899500Y-68704266D01*
X130899769Y-68707139D01*
X130899770Y-68707151D01*
X130902353Y-68734696D01*
X130947207Y-68862884D01*
X131027849Y-68972150D01*
X131137115Y-69052792D01*
X131137118Y-69052793D01*
X131265301Y-69097646D01*
X131295734Y-69100500D01*
X131298627Y-69100500D01*
X132701373Y-69100500D01*
X132704266Y-69100500D01*
X132734699Y-69097646D01*
X132862882Y-69052793D01*
X132862882Y-69052792D01*
X132862884Y-69052792D01*
X132972150Y-68972150D01*
X133052792Y-68862884D01*
X133060701Y-68840282D01*
X133097646Y-68734699D01*
X133100500Y-68704266D01*
X133100500Y-68654266D01*
X133399500Y-68654266D01*
X133399769Y-68657139D01*
X133399770Y-68657151D01*
X133402353Y-68684696D01*
X133447207Y-68812884D01*
X133527849Y-68922150D01*
X133637115Y-69002792D01*
X133637118Y-69002793D01*
X133765301Y-69047646D01*
X133795734Y-69050500D01*
X133798627Y-69050500D01*
X135201373Y-69050500D01*
X135204266Y-69050500D01*
X135234699Y-69047646D01*
X135362882Y-69002793D01*
X135362882Y-69002792D01*
X135362884Y-69002792D01*
X135472150Y-68922150D01*
X135552792Y-68812884D01*
X135552793Y-68812882D01*
X135597646Y-68684699D01*
X135600500Y-68654266D01*
X135600500Y-67720734D01*
X135597646Y-67690301D01*
X135552793Y-67562118D01*
X135552792Y-67562115D01*
X135472150Y-67452849D01*
X135362884Y-67372207D01*
X135234696Y-67327353D01*
X135207151Y-67324770D01*
X135207139Y-67324769D01*
X135204266Y-67324500D01*
X135201373Y-67324500D01*
X134786216Y-67324500D01*
X134719177Y-67304815D01*
X134673422Y-67252011D01*
X134663478Y-67182854D01*
X134670585Y-67133418D01*
X134675390Y-67100000D01*
X134655931Y-66964658D01*
X134647939Y-66947159D01*
X134599130Y-66840282D01*
X134583044Y-66821718D01*
X134509589Y-66736945D01*
X134509588Y-66736944D01*
X134509587Y-66736943D01*
X134394562Y-66663022D01*
X134263367Y-66624500D01*
X134126633Y-66624500D01*
X133995437Y-66663022D01*
X133880412Y-66736943D01*
X133790869Y-66840282D01*
X133734068Y-66964657D01*
X133714610Y-67100000D01*
X133733640Y-67232361D01*
X133723696Y-67301519D01*
X133677941Y-67354323D01*
X133651859Y-67367048D01*
X133637116Y-67372207D01*
X133527849Y-67452849D01*
X133447207Y-67562115D01*
X133402353Y-67690303D01*
X133399770Y-67717848D01*
X133399769Y-67717861D01*
X133399500Y-67720734D01*
X133399500Y-68654266D01*
X133100500Y-68654266D01*
X133100500Y-67770734D01*
X133097646Y-67740301D01*
X133052793Y-67612118D01*
X133052792Y-67612115D01*
X132972150Y-67502849D01*
X132862884Y-67422207D01*
X132734696Y-67377353D01*
X132707151Y-67374770D01*
X132707139Y-67374769D01*
X132704266Y-67374500D01*
X132701373Y-67374500D01*
X132175097Y-67374500D01*
X132108058Y-67354815D01*
X132087416Y-67338181D01*
X131549659Y-66800424D01*
X131546785Y-66797550D01*
X131543565Y-66795079D01*
X131543558Y-66795073D01*
X131452840Y-66725463D01*
X131306762Y-66664956D01*
X131150000Y-66644317D01*
X130993237Y-66664956D01*
X130847159Y-66725463D01*
X130721717Y-66821717D01*
X130625463Y-66947159D01*
X130564956Y-67093237D01*
X130544317Y-67249999D01*
X93630500Y-67249999D01*
X93630500Y-65950252D01*
X93618867Y-65891769D01*
X93591054Y-65850144D01*
X93574552Y-65825447D01*
X93508230Y-65781132D01*
X93449749Y-65769500D01*
X93449748Y-65769500D01*
X91710252Y-65769500D01*
X91710251Y-65769500D01*
X91651769Y-65781132D01*
X91585447Y-65825447D01*
X91541132Y-65891769D01*
X91529500Y-65950251D01*
X91529500Y-67689748D01*
X91075500Y-67689748D01*
X91075500Y-65624499D01*
X112069610Y-65624499D01*
X112089068Y-65759842D01*
X112145869Y-65884217D01*
X112235412Y-65987556D01*
X112294455Y-66025500D01*
X112350439Y-66061478D01*
X112481633Y-66100000D01*
X112618367Y-66100000D01*
X112749561Y-66061478D01*
X112864589Y-65987555D01*
X112954130Y-65884218D01*
X113010931Y-65759842D01*
X113030390Y-65624500D01*
X113010931Y-65489158D01*
X113009895Y-65486890D01*
X112954129Y-65364780D01*
X112880787Y-65280138D01*
X112851762Y-65216582D01*
X112850500Y-65198936D01*
X112850500Y-64750000D01*
X124825001Y-64750000D01*
X124825001Y-65196829D01*
X124825321Y-65203111D01*
X124835493Y-65302695D01*
X124890642Y-65469122D01*
X124982683Y-65618345D01*
X125106654Y-65742316D01*
X125255877Y-65834357D01*
X125422303Y-65889506D01*
X125521890Y-65899680D01*
X125528168Y-65899999D01*
X125737498Y-65899999D01*
X125737499Y-65899998D01*
X125737500Y-64750000D01*
X126237499Y-64750000D01*
X126237499Y-65899998D01*
X126237500Y-65899999D01*
X126446829Y-65899999D01*
X126453111Y-65899678D01*
X126552695Y-65889506D01*
X126719122Y-65834357D01*
X126868345Y-65742316D01*
X126992316Y-65618345D01*
X127084357Y-65469122D01*
X127139506Y-65302696D01*
X127149562Y-65204266D01*
X128249500Y-65204266D01*
X128249769Y-65207139D01*
X128249770Y-65207151D01*
X128252353Y-65234696D01*
X128297207Y-65362884D01*
X128377849Y-65472150D01*
X128487115Y-65552792D01*
X128487118Y-65552793D01*
X128615301Y-65597646D01*
X128645734Y-65600500D01*
X128648627Y-65600500D01*
X129576373Y-65600500D01*
X129579266Y-65600500D01*
X129609699Y-65597646D01*
X129737882Y-65552793D01*
X129737882Y-65552792D01*
X129737884Y-65552792D01*
X129847150Y-65472150D01*
X129927792Y-65362884D01*
X129927793Y-65362882D01*
X129972646Y-65234699D01*
X129975500Y-65204266D01*
X129975500Y-65037723D01*
X129995185Y-64970685D01*
X130047989Y-64924930D01*
X130099500Y-64913724D01*
X132165308Y-64913724D01*
X132169361Y-64913724D01*
X132286762Y-64898268D01*
X132432841Y-64837760D01*
X132463350Y-64814349D01*
X132528520Y-64789154D01*
X132538838Y-64788724D01*
X132581119Y-64788724D01*
X132581120Y-64788724D01*
X132712314Y-64750202D01*
X132712316Y-64750200D01*
X132727766Y-64745664D01*
X132797635Y-64745664D01*
X132828674Y-64759648D01*
X132943027Y-64831502D01*
X133102555Y-64887323D01*
X133270500Y-64906246D01*
X133438446Y-64887323D01*
X133597210Y-64831767D01*
X134118785Y-64831767D01*
X134277553Y-64887323D01*
X134445500Y-64906246D01*
X134613446Y-64887323D01*
X134772210Y-64831767D01*
X135293785Y-64831767D01*
X135452553Y-64887323D01*
X135620500Y-64906246D01*
X135788446Y-64887323D01*
X135947213Y-64831766D01*
X135947214Y-64831766D01*
X135620501Y-64505053D01*
X135620500Y-64505053D01*
X135293785Y-64831766D01*
X135293785Y-64831767D01*
X134772210Y-64831767D01*
X134772213Y-64831766D01*
X134772214Y-64831765D01*
X134445501Y-64505053D01*
X134445500Y-64505053D01*
X134118785Y-64831766D01*
X134118785Y-64831767D01*
X133597210Y-64831767D01*
X133597213Y-64831766D01*
X133007964Y-64242517D01*
X132981439Y-64193940D01*
X132981091Y-64194100D01*
X132978866Y-64189229D01*
X132976007Y-64183992D01*
X133170500Y-64183992D01*
X133208697Y-64236565D01*
X133254662Y-64251500D01*
X133286338Y-64251500D01*
X133332303Y-64236565D01*
X133370500Y-64183992D01*
X133370500Y-64119008D01*
X133332303Y-64066435D01*
X133286338Y-64051500D01*
X133254662Y-64051500D01*
X133208697Y-64066435D01*
X133170500Y-64119008D01*
X133170500Y-64183992D01*
X132976007Y-64183992D01*
X132974479Y-64181194D01*
X132974010Y-64178595D01*
X132916883Y-64053506D01*
X132870519Y-63999999D01*
X132827342Y-63950169D01*
X132827341Y-63950168D01*
X132827340Y-63950167D01*
X132712315Y-63876246D01*
X132642702Y-63855806D01*
X132590368Y-63824753D01*
X132562010Y-63831226D01*
X132492271Y-63826951D01*
X132458933Y-63808709D01*
X132432840Y-63788687D01*
X132286762Y-63728180D01*
X132173380Y-63713253D01*
X132173378Y-63713252D01*
X132169361Y-63712724D01*
X132165308Y-63712724D01*
X130042232Y-63712724D01*
X129975193Y-63693039D01*
X129939425Y-63651761D01*
X129938892Y-63652155D01*
X129933867Y-63645346D01*
X129929438Y-63640235D01*
X129928650Y-63638278D01*
X129847150Y-63527849D01*
X129737884Y-63447207D01*
X129610676Y-63402696D01*
X129609699Y-63402354D01*
X129609698Y-63402353D01*
X129609696Y-63402353D01*
X129582151Y-63399770D01*
X129582139Y-63399769D01*
X129579266Y-63399500D01*
X128645734Y-63399500D01*
X128642861Y-63399769D01*
X128642848Y-63399770D01*
X128615303Y-63402353D01*
X128487115Y-63447207D01*
X128377849Y-63527849D01*
X128297207Y-63637115D01*
X128252353Y-63765303D01*
X128249770Y-63792848D01*
X128249769Y-63792861D01*
X128249500Y-63795734D01*
X128249500Y-65204266D01*
X127149562Y-65204266D01*
X127149680Y-65203109D01*
X127150000Y-65196831D01*
X127150000Y-64750000D01*
X126237499Y-64750000D01*
X125737500Y-64750000D01*
X124825001Y-64750000D01*
X112850500Y-64750000D01*
X112850500Y-64474144D01*
X112870185Y-64407105D01*
X112880787Y-64392941D01*
X112884585Y-64388557D01*
X112884589Y-64388555D01*
X112974130Y-64285218D01*
X112990214Y-64250000D01*
X124825000Y-64250000D01*
X125737499Y-64250000D01*
X125737499Y-63100000D01*
X126237499Y-63100000D01*
X126237499Y-64249999D01*
X126237501Y-64250000D01*
X127149998Y-64250000D01*
X127149999Y-63803170D01*
X127149678Y-63796888D01*
X127139506Y-63697304D01*
X127084357Y-63530877D01*
X126992316Y-63381654D01*
X126868345Y-63257683D01*
X126719122Y-63165642D01*
X126552696Y-63110493D01*
X126453109Y-63100319D01*
X126446832Y-63100000D01*
X126237499Y-63100000D01*
X125737499Y-63100000D01*
X125528171Y-63100000D01*
X125521888Y-63100321D01*
X125422304Y-63110493D01*
X125255877Y-63165642D01*
X125106654Y-63257683D01*
X124982683Y-63381654D01*
X124890642Y-63530877D01*
X124835493Y-63697303D01*
X124825319Y-63796890D01*
X124825000Y-63803168D01*
X124825000Y-64250000D01*
X112990214Y-64250000D01*
X113030931Y-64160842D01*
X113050390Y-64025500D01*
X113030931Y-63890158D01*
X113024486Y-63876046D01*
X112974130Y-63765782D01*
X112928614Y-63713253D01*
X112884589Y-63662445D01*
X112884588Y-63662444D01*
X112884587Y-63662443D01*
X112769562Y-63588522D01*
X112638367Y-63550000D01*
X112501633Y-63550000D01*
X112370437Y-63588522D01*
X112255412Y-63662443D01*
X112165869Y-63765782D01*
X112109068Y-63890157D01*
X112089610Y-64025500D01*
X112109068Y-64160842D01*
X112165870Y-64285219D01*
X112219212Y-64346779D01*
X112248237Y-64410334D01*
X112249499Y-64427981D01*
X112249499Y-65198936D01*
X112229814Y-65265975D01*
X112219213Y-65280138D01*
X112145869Y-65364782D01*
X112089068Y-65489157D01*
X112069610Y-65624499D01*
X91075500Y-65624499D01*
X91075500Y-64279999D01*
X91524417Y-64279999D01*
X91544699Y-64485932D01*
X91552894Y-64512946D01*
X91604768Y-64683954D01*
X91702315Y-64866450D01*
X91734975Y-64906246D01*
X91833589Y-65026410D01*
X91911416Y-65090280D01*
X91993550Y-65157685D01*
X92176046Y-65255232D01*
X92374066Y-65315300D01*
X92580000Y-65335583D01*
X92785934Y-65315300D01*
X92983954Y-65255232D01*
X93166450Y-65157685D01*
X93326410Y-65026410D01*
X93457685Y-64866450D01*
X93555232Y-64683954D01*
X93615300Y-64485934D01*
X93635583Y-64280000D01*
X93615300Y-64074066D01*
X93555232Y-63876046D01*
X93457685Y-63693550D01*
X93392047Y-63613569D01*
X93326410Y-63533589D01*
X93221151Y-63447207D01*
X93166450Y-63402315D01*
X93075201Y-63353541D01*
X92983956Y-63304769D01*
X92983955Y-63304768D01*
X92983954Y-63304768D01*
X92828734Y-63257683D01*
X92785932Y-63244699D01*
X92602497Y-63226632D01*
X92580000Y-63224417D01*
X92579999Y-63224417D01*
X92374067Y-63244699D01*
X92202218Y-63296829D01*
X92181509Y-63303111D01*
X92176043Y-63304769D01*
X91993551Y-63402314D01*
X91833589Y-63533589D01*
X91702314Y-63693551D01*
X91604769Y-63876043D01*
X91544699Y-64074067D01*
X91524417Y-64279999D01*
X91075500Y-64279999D01*
X91075500Y-62976499D01*
X132515753Y-62976499D01*
X132534676Y-63144444D01*
X132590232Y-63303214D01*
X132884455Y-63008992D01*
X133170500Y-63008992D01*
X133208697Y-63061565D01*
X133254662Y-63076500D01*
X133286338Y-63076500D01*
X133332303Y-63061565D01*
X133370500Y-63008992D01*
X133370500Y-62944008D01*
X133332303Y-62891435D01*
X133286338Y-62876500D01*
X133254662Y-62876500D01*
X133208697Y-62891435D01*
X133170500Y-62944008D01*
X133170500Y-63008992D01*
X132884455Y-63008992D01*
X132916947Y-62976500D01*
X132590232Y-62649785D01*
X132534676Y-62808555D01*
X132515753Y-62976499D01*
X91075500Y-62976499D01*
X91075500Y-61739999D01*
X91524417Y-61739999D01*
X91544699Y-61945932D01*
X91551832Y-61969446D01*
X91604768Y-62143954D01*
X91702315Y-62326450D01*
X91721642Y-62350000D01*
X91833589Y-62486410D01*
X91845726Y-62496370D01*
X91993550Y-62617685D01*
X92176046Y-62715232D01*
X92374066Y-62775300D01*
X92580000Y-62795583D01*
X92785934Y-62775300D01*
X92983954Y-62715232D01*
X93166450Y-62617685D01*
X93326410Y-62486410D01*
X93457685Y-62326450D01*
X93555232Y-62143954D01*
X93615300Y-61945934D01*
X93629526Y-61801500D01*
X132515753Y-61801500D01*
X132534676Y-61969444D01*
X132590232Y-62128214D01*
X132884455Y-61833992D01*
X133170500Y-61833992D01*
X133208697Y-61886565D01*
X133254662Y-61901500D01*
X133286338Y-61901500D01*
X133332303Y-61886565D01*
X133370500Y-61833992D01*
X133370500Y-61769008D01*
X133332303Y-61716435D01*
X133286338Y-61701500D01*
X133254662Y-61701500D01*
X133208697Y-61716435D01*
X133170500Y-61769008D01*
X133170500Y-61833992D01*
X132884455Y-61833992D01*
X132916947Y-61801500D01*
X132590232Y-61474785D01*
X132534676Y-61633555D01*
X132515753Y-61801500D01*
X93629526Y-61801500D01*
X93635583Y-61740000D01*
X93615300Y-61534066D01*
X93555232Y-61336046D01*
X93457685Y-61153550D01*
X93354909Y-61028316D01*
X93326410Y-60993589D01*
X93228952Y-60913608D01*
X93166450Y-60862315D01*
X92983954Y-60764768D01*
X92857800Y-60726500D01*
X92785932Y-60704699D01*
X92602497Y-60686632D01*
X92580000Y-60684417D01*
X92579999Y-60684417D01*
X92374067Y-60704699D01*
X92176043Y-60764769D01*
X91993551Y-60862314D01*
X91833589Y-60993589D01*
X91702314Y-61153551D01*
X91604769Y-61336043D01*
X91544699Y-61534067D01*
X91524417Y-61739999D01*
X91075500Y-61739999D01*
X91075500Y-59200000D01*
X91524417Y-59200000D01*
X91544699Y-59405932D01*
X91559010Y-59453109D01*
X91604768Y-59603954D01*
X91702315Y-59786450D01*
X91725581Y-59814800D01*
X91833589Y-59946410D01*
X91899101Y-60000173D01*
X91993550Y-60077685D01*
X92176046Y-60175232D01*
X92374066Y-60235300D01*
X92580000Y-60255583D01*
X92785934Y-60235300D01*
X92983954Y-60175232D01*
X93166450Y-60077685D01*
X93326410Y-59946410D01*
X93457685Y-59786450D01*
X93555232Y-59603954D01*
X93615300Y-59405934D01*
X93635583Y-59200000D01*
X93615884Y-59000000D01*
X124475001Y-59000000D01*
X124475001Y-59446829D01*
X124475321Y-59453111D01*
X124485493Y-59552695D01*
X124540642Y-59719122D01*
X124632683Y-59868345D01*
X124756654Y-59992316D01*
X124905877Y-60084357D01*
X125072303Y-60139506D01*
X125171890Y-60149680D01*
X125178168Y-60149999D01*
X125387499Y-60149999D01*
X125387499Y-60149998D01*
X125387500Y-59000000D01*
X125887500Y-59000000D01*
X125887500Y-60149999D01*
X126096829Y-60149999D01*
X126103111Y-60149678D01*
X126202695Y-60139506D01*
X126369122Y-60084357D01*
X126518345Y-59992316D01*
X126642316Y-59868345D01*
X126734357Y-59719122D01*
X126789506Y-59552696D01*
X126799562Y-59454266D01*
X127899500Y-59454266D01*
X127899769Y-59457139D01*
X127899770Y-59457151D01*
X127902353Y-59484696D01*
X127947207Y-59612884D01*
X128027849Y-59722150D01*
X128137115Y-59802792D01*
X128137118Y-59802793D01*
X128265301Y-59847646D01*
X128295734Y-59850500D01*
X128362901Y-59850500D01*
X128429940Y-59870185D01*
X128475695Y-59922989D01*
X128485639Y-59992147D01*
X128461277Y-60049986D01*
X128425463Y-60096659D01*
X128364956Y-60242737D01*
X128344317Y-60399499D01*
X128364956Y-60556262D01*
X128425463Y-60702340D01*
X128521717Y-60827782D01*
X128566722Y-60862315D01*
X128647159Y-60924036D01*
X128793238Y-60984544D01*
X128950000Y-61005182D01*
X129106762Y-60984544D01*
X129252841Y-60924036D01*
X129378282Y-60827782D01*
X129474536Y-60702341D01*
X129535044Y-60556262D01*
X129555682Y-60399500D01*
X129535044Y-60242738D01*
X129492284Y-60139506D01*
X129468289Y-60081576D01*
X129472060Y-60080013D01*
X129457321Y-60041883D01*
X129471363Y-59973439D01*
X129493208Y-59943894D01*
X130206423Y-59230679D01*
X130267744Y-59197196D01*
X130277898Y-59195426D01*
X130356762Y-59185044D01*
X130502841Y-59124536D01*
X130628282Y-59028282D01*
X130724536Y-58902841D01*
X130785044Y-58756762D01*
X130785044Y-58756760D01*
X130789985Y-58744832D01*
X130833825Y-58690428D01*
X130900120Y-58668363D01*
X130966559Y-58684904D01*
X130969262Y-58686465D01*
X130994930Y-58706164D01*
X132103567Y-59814800D01*
X132128680Y-59850969D01*
X132141867Y-59879845D01*
X132167398Y-59909310D01*
X132220145Y-59970184D01*
X132231410Y-59983184D01*
X132346435Y-60057105D01*
X132346437Y-60057106D01*
X132477631Y-60095628D01*
X132493941Y-60095628D01*
X132560980Y-60115313D01*
X132606735Y-60168117D01*
X132616679Y-60237275D01*
X132598934Y-60285601D01*
X132590497Y-60299027D01*
X132534676Y-60458555D01*
X132515753Y-60626500D01*
X132534676Y-60794444D01*
X132590232Y-60953213D01*
X132884453Y-60658992D01*
X133170500Y-60658992D01*
X133208697Y-60711565D01*
X133254662Y-60726500D01*
X133286338Y-60726500D01*
X133332303Y-60711565D01*
X133370500Y-60658992D01*
X133370500Y-60594008D01*
X133332303Y-60541435D01*
X133286338Y-60526500D01*
X133254662Y-60526500D01*
X133208697Y-60541435D01*
X133170500Y-60594008D01*
X133170500Y-60658992D01*
X132884453Y-60658992D01*
X133182818Y-60360627D01*
X133244141Y-60327142D01*
X133313832Y-60332126D01*
X133358180Y-60360627D01*
X133536371Y-60538818D01*
X133569856Y-60600141D01*
X133564872Y-60669833D01*
X133536371Y-60714180D01*
X133036553Y-61213998D01*
X133036553Y-61213999D01*
X133270500Y-61447947D01*
X133536371Y-61713818D01*
X133569856Y-61775141D01*
X133564872Y-61844833D01*
X133536371Y-61889180D01*
X133036553Y-62388997D01*
X133036553Y-62388999D01*
X133270500Y-62622947D01*
X133536371Y-62888818D01*
X133569856Y-62950141D01*
X133564872Y-63019833D01*
X133536371Y-63064180D01*
X133036553Y-63563998D01*
X133036553Y-63563999D01*
X133270500Y-63797947D01*
X133857999Y-64385446D01*
X134059453Y-64183992D01*
X134345500Y-64183992D01*
X134383697Y-64236565D01*
X134429662Y-64251500D01*
X134461338Y-64251500D01*
X134507303Y-64236565D01*
X134545500Y-64183992D01*
X134545500Y-64119008D01*
X134507303Y-64066435D01*
X134461338Y-64051500D01*
X134429662Y-64051500D01*
X134383697Y-64066435D01*
X134345500Y-64119008D01*
X134345500Y-64183992D01*
X134059453Y-64183992D01*
X134357819Y-63885627D01*
X134419142Y-63852142D01*
X134488834Y-63857126D01*
X134533181Y-63885627D01*
X135033000Y-64385446D01*
X135234454Y-64183992D01*
X135520500Y-64183992D01*
X135558697Y-64236565D01*
X135604662Y-64251500D01*
X135636338Y-64251500D01*
X135682303Y-64236565D01*
X135720500Y-64183992D01*
X135720500Y-64119008D01*
X135682303Y-64066435D01*
X135636338Y-64051500D01*
X135604662Y-64051500D01*
X135558697Y-64066435D01*
X135520500Y-64119008D01*
X135520500Y-64183992D01*
X135234454Y-64183992D01*
X135532819Y-63885627D01*
X135594142Y-63852142D01*
X135663834Y-63857126D01*
X135708181Y-63885627D01*
X136207999Y-64385445D01*
X136409452Y-64183992D01*
X136695500Y-64183992D01*
X136733697Y-64236565D01*
X136779662Y-64251500D01*
X136811338Y-64251500D01*
X136857303Y-64236565D01*
X136895500Y-64183992D01*
X136895500Y-64119008D01*
X136857303Y-64066435D01*
X136811338Y-64051500D01*
X136779662Y-64051500D01*
X136733697Y-64066435D01*
X136695500Y-64119008D01*
X136695500Y-64183992D01*
X136409452Y-64183992D01*
X136707818Y-63885627D01*
X136769141Y-63852142D01*
X136838832Y-63857126D01*
X136883180Y-63885627D01*
X137061371Y-64063818D01*
X137094856Y-64125141D01*
X137089872Y-64194833D01*
X137061371Y-64239180D01*
X136468784Y-64831766D01*
X136473623Y-64852966D01*
X136469350Y-64922705D01*
X136440413Y-64968239D01*
X136004264Y-65404389D01*
X135993898Y-65413653D01*
X135966031Y-65435876D01*
X135933824Y-65483114D01*
X135931144Y-65486890D01*
X135893633Y-65537717D01*
X135891301Y-65542336D01*
X135872674Y-65602724D01*
X135871225Y-65607127D01*
X135850369Y-65666731D01*
X135849500Y-65671847D01*
X135849500Y-65735019D01*
X135849413Y-65739656D01*
X135847050Y-65802787D01*
X135849500Y-65821393D01*
X135849500Y-66904663D01*
X135838294Y-66956175D01*
X135814834Y-67007542D01*
X135794353Y-67149999D01*
X135814834Y-67292457D01*
X135874623Y-67423374D01*
X135968870Y-67532141D01*
X135968872Y-67532143D01*
X136089947Y-67609953D01*
X136228039Y-67650500D01*
X136371961Y-67650500D01*
X136510053Y-67609953D01*
X136631128Y-67532143D01*
X136725377Y-67423373D01*
X136785165Y-67292457D01*
X136805647Y-67150000D01*
X136785165Y-67007543D01*
X136774969Y-66985218D01*
X136761706Y-66956175D01*
X136750500Y-66904663D01*
X136750500Y-66725499D01*
X137365610Y-66725499D01*
X137385068Y-66860842D01*
X137441870Y-66985219D01*
X137515213Y-67069862D01*
X137544238Y-67133418D01*
X137545500Y-67151064D01*
X137545500Y-68226756D01*
X137542756Y-68243577D01*
X137545368Y-68300078D01*
X137545500Y-68305804D01*
X137545500Y-68324818D01*
X137547181Y-68339307D01*
X137548415Y-68365993D01*
X137551213Y-68372330D01*
X137559666Y-68399626D01*
X137560938Y-68406434D01*
X137574997Y-68429140D01*
X137583002Y-68444327D01*
X137593792Y-68468763D01*
X137598688Y-68473659D01*
X137616434Y-68496063D01*
X137620081Y-68501952D01*
X137641396Y-68518048D01*
X137654351Y-68529322D01*
X138132686Y-69007657D01*
X138166171Y-69068980D01*
X138166651Y-69082414D01*
X138167073Y-69082354D01*
X138189068Y-69235342D01*
X138245869Y-69359717D01*
X138245870Y-69359718D01*
X138302034Y-69424536D01*
X138335412Y-69463056D01*
X138381151Y-69492450D01*
X138450439Y-69536978D01*
X138581633Y-69575500D01*
X138718367Y-69575500D01*
X138849561Y-69536978D01*
X138964589Y-69463055D01*
X139054130Y-69359718D01*
X139110931Y-69235342D01*
X139130390Y-69100000D01*
X139110931Y-68964658D01*
X139091833Y-68922840D01*
X139054130Y-68840282D01*
X138964587Y-68736943D01*
X138849562Y-68663022D01*
X138718367Y-68624500D01*
X138650833Y-68624500D01*
X138583794Y-68604815D01*
X138563152Y-68588181D01*
X138182819Y-68207847D01*
X138149334Y-68146524D01*
X138146500Y-68120166D01*
X138146500Y-67151064D01*
X138166185Y-67084025D01*
X138176787Y-67069862D01*
X138250129Y-66985219D01*
X138250128Y-66985219D01*
X138250130Y-66985218D01*
X138306931Y-66860842D01*
X138326390Y-66725500D01*
X138306931Y-66590158D01*
X138250130Y-66465782D01*
X138160589Y-66362445D01*
X138160588Y-66362444D01*
X138160587Y-66362443D01*
X138045562Y-66288522D01*
X137914367Y-66250000D01*
X137777633Y-66250000D01*
X137646437Y-66288522D01*
X137531412Y-66362443D01*
X137441869Y-66465782D01*
X137385068Y-66590157D01*
X137365610Y-66725499D01*
X136750500Y-66725499D01*
X136750500Y-66025499D01*
X138919610Y-66025499D01*
X138939068Y-66160842D01*
X138995870Y-66285219D01*
X139069213Y-66369862D01*
X139098238Y-66433418D01*
X139099500Y-66451064D01*
X139099500Y-67655256D01*
X139096756Y-67672077D01*
X139099368Y-67728578D01*
X139099500Y-67734304D01*
X139099500Y-67753318D01*
X139101181Y-67767807D01*
X139102415Y-67794493D01*
X139105213Y-67800830D01*
X139113666Y-67828126D01*
X139114938Y-67834934D01*
X139128997Y-67857640D01*
X139137002Y-67872827D01*
X139147792Y-67897263D01*
X139152688Y-67902159D01*
X139170434Y-67924563D01*
X139174081Y-67930452D01*
X139195396Y-67946548D01*
X139208351Y-67957822D01*
X139432686Y-68182157D01*
X139466171Y-68243480D01*
X139466651Y-68256914D01*
X139467073Y-68256854D01*
X139489068Y-68409842D01*
X139545869Y-68534217D01*
X139635412Y-68637556D01*
X139743706Y-68707151D01*
X139750439Y-68711478D01*
X139881633Y-68750000D01*
X140018367Y-68750000D01*
X140149561Y-68711478D01*
X140264589Y-68637555D01*
X140327488Y-68564963D01*
X140386265Y-68527190D01*
X140456134Y-68527189D01*
X140508882Y-68558486D01*
X140588181Y-68637785D01*
X140621666Y-68699108D01*
X140624500Y-68725465D01*
X140624500Y-69604266D01*
X140624769Y-69607139D01*
X140624770Y-69607151D01*
X140627353Y-69634696D01*
X140672207Y-69762884D01*
X140752849Y-69872150D01*
X140862115Y-69952792D01*
X140862118Y-69952793D01*
X140990301Y-69997646D01*
X141020734Y-70000500D01*
X141023627Y-70000500D01*
X141951373Y-70000500D01*
X141954266Y-70000500D01*
X141984699Y-69997646D01*
X142112882Y-69952793D01*
X142112882Y-69952792D01*
X142112884Y-69952792D01*
X142222150Y-69872150D01*
X142302792Y-69762884D01*
X142302793Y-69762882D01*
X142347646Y-69634699D01*
X142350500Y-69604266D01*
X142350500Y-69591202D01*
X142370185Y-69524163D01*
X142422989Y-69478408D01*
X142427036Y-69476646D01*
X142552841Y-69424536D01*
X142678282Y-69328282D01*
X142774536Y-69202841D01*
X142796423Y-69150000D01*
X143450001Y-69150000D01*
X143450001Y-69596829D01*
X143450321Y-69603111D01*
X143460493Y-69702695D01*
X143515642Y-69869122D01*
X143607683Y-70018345D01*
X143731654Y-70142316D01*
X143880877Y-70234357D01*
X144047303Y-70289506D01*
X144146890Y-70299680D01*
X144153168Y-70299999D01*
X144362499Y-70299999D01*
X144362500Y-70299998D01*
X144362500Y-69150000D01*
X144862500Y-69150000D01*
X144862500Y-70299999D01*
X145071829Y-70299999D01*
X145078111Y-70299678D01*
X145177695Y-70289506D01*
X145344122Y-70234357D01*
X145493345Y-70142316D01*
X145617316Y-70018345D01*
X145709357Y-69869122D01*
X145764506Y-69702696D01*
X145774680Y-69603109D01*
X145775000Y-69596831D01*
X145775000Y-69150000D01*
X144862500Y-69150000D01*
X144362500Y-69150000D01*
X143450001Y-69150000D01*
X142796423Y-69150000D01*
X142835044Y-69056762D01*
X142838566Y-69030009D01*
X142855682Y-68900000D01*
X142851561Y-68868696D01*
X142850500Y-68852511D01*
X142850500Y-68650000D01*
X143450000Y-68650000D01*
X145774999Y-68650000D01*
X145774999Y-68203170D01*
X145774678Y-68196888D01*
X145764506Y-68097304D01*
X145742770Y-68031709D01*
X145740368Y-67961880D01*
X145776100Y-67901839D01*
X145821473Y-67874999D01*
X145944121Y-67834357D01*
X146093345Y-67742316D01*
X146217316Y-67618345D01*
X146309357Y-67469122D01*
X146364506Y-67302696D01*
X146374680Y-67203109D01*
X146375000Y-67196831D01*
X146375000Y-66750000D01*
X144050001Y-66750000D01*
X144050001Y-67196829D01*
X144050321Y-67203111D01*
X144060493Y-67302697D01*
X144082229Y-67368290D01*
X144084631Y-67438118D01*
X144048899Y-67498160D01*
X144003528Y-67524999D01*
X143880876Y-67565642D01*
X143731654Y-67657683D01*
X143607683Y-67781654D01*
X143515642Y-67930877D01*
X143460493Y-68097303D01*
X143450319Y-68196890D01*
X143450000Y-68203168D01*
X143450000Y-68650000D01*
X142850500Y-68650000D01*
X142850500Y-67474539D01*
X142870185Y-67407500D01*
X142874731Y-67400904D01*
X142888962Y-67381622D01*
X142902793Y-67362882D01*
X142947646Y-67234699D01*
X142950500Y-67204266D01*
X142950500Y-66325463D01*
X142970185Y-66258425D01*
X142976974Y-66250000D01*
X144050000Y-66250000D01*
X144962500Y-66250000D01*
X144962500Y-65100000D01*
X145462500Y-65100000D01*
X145462500Y-66250000D01*
X146374999Y-66250000D01*
X146374999Y-65803170D01*
X146374678Y-65796888D01*
X146364506Y-65697304D01*
X146309357Y-65530877D01*
X146217316Y-65381654D01*
X146093345Y-65257683D01*
X145944122Y-65165642D01*
X145777696Y-65110493D01*
X145678109Y-65100319D01*
X145671832Y-65100000D01*
X145462500Y-65100000D01*
X144962500Y-65100000D01*
X144753171Y-65100000D01*
X144746888Y-65100321D01*
X144647304Y-65110493D01*
X144480877Y-65165642D01*
X144331654Y-65257683D01*
X144207683Y-65381654D01*
X144115642Y-65530877D01*
X144060493Y-65697303D01*
X144050319Y-65796890D01*
X144050000Y-65803168D01*
X144050000Y-66250000D01*
X142976974Y-66250000D01*
X142986815Y-66237787D01*
X143295744Y-65928857D01*
X143306093Y-65919609D01*
X143333970Y-65897379D01*
X143366191Y-65850118D01*
X143368859Y-65846359D01*
X143402793Y-65800382D01*
X143402794Y-65800377D01*
X143406381Y-65795518D01*
X143408692Y-65790941D01*
X143410470Y-65785175D01*
X143410472Y-65785173D01*
X143427330Y-65730514D01*
X143428775Y-65726126D01*
X143429952Y-65722765D01*
X143447646Y-65672199D01*
X143447646Y-65672197D01*
X143449637Y-65666508D01*
X143450500Y-65661430D01*
X143450500Y-65598238D01*
X143450587Y-65593601D01*
X143453158Y-65524891D01*
X143458454Y-65502565D01*
X143460929Y-65485344D01*
X143460931Y-65485342D01*
X143480390Y-65350000D01*
X143460931Y-65214658D01*
X143456185Y-65204266D01*
X143404129Y-65090280D01*
X143320351Y-64993594D01*
X143291326Y-64930038D01*
X143301269Y-64860881D01*
X143354935Y-64743372D01*
X143374394Y-64608030D01*
X143357732Y-64492146D01*
X143354935Y-64472687D01*
X143298134Y-64348312D01*
X143243463Y-64285218D01*
X143208593Y-64244975D01*
X143208592Y-64244974D01*
X143208591Y-64244973D01*
X143093566Y-64171052D01*
X142962371Y-64132530D01*
X142825637Y-64132530D01*
X142694441Y-64171052D01*
X142579416Y-64244973D01*
X142525929Y-64306702D01*
X142467151Y-64344477D01*
X142432215Y-64349500D01*
X140869243Y-64349500D01*
X140852422Y-64346756D01*
X140818764Y-64348312D01*
X140795919Y-64349368D01*
X140790195Y-64349500D01*
X140771183Y-64349500D01*
X140756695Y-64351181D01*
X140730007Y-64352415D01*
X140723666Y-64355215D01*
X140696378Y-64363665D01*
X140689568Y-64364938D01*
X140666859Y-64378998D01*
X140651677Y-64387000D01*
X140627233Y-64397794D01*
X140622333Y-64402694D01*
X140599943Y-64420429D01*
X140594048Y-64424079D01*
X140577950Y-64445396D01*
X140566679Y-64458348D01*
X140136848Y-64888181D01*
X140075525Y-64921666D01*
X140049167Y-64924500D01*
X139981633Y-64924500D01*
X139850437Y-64963022D01*
X139735412Y-65036943D01*
X139645869Y-65140282D01*
X139589068Y-65264657D01*
X139569610Y-65400000D01*
X139570811Y-65408354D01*
X139560867Y-65477512D01*
X139515112Y-65530316D01*
X139448073Y-65550000D01*
X139331633Y-65550000D01*
X139200437Y-65588522D01*
X139085412Y-65662443D01*
X138995869Y-65765782D01*
X138939068Y-65890157D01*
X138919610Y-66025499D01*
X136750500Y-66025499D01*
X136750500Y-65983722D01*
X136770185Y-65916683D01*
X136786815Y-65896045D01*
X137361473Y-65321386D01*
X137382105Y-65304760D01*
X137484346Y-65239056D01*
X137573887Y-65135719D01*
X137630688Y-65011343D01*
X137634450Y-64985175D01*
X137663474Y-64921620D01*
X137722251Y-64883844D01*
X137792121Y-64883843D01*
X137798144Y-64885780D01*
X137802554Y-64887323D01*
X137970500Y-64906246D01*
X138138446Y-64887323D01*
X138297213Y-64831766D01*
X138297214Y-64831766D01*
X137704628Y-64239180D01*
X137674493Y-64183992D01*
X137870500Y-64183992D01*
X137908697Y-64236565D01*
X137954662Y-64251500D01*
X137986338Y-64251500D01*
X138032303Y-64236565D01*
X138070500Y-64183992D01*
X138070500Y-64151499D01*
X138324053Y-64151499D01*
X138650766Y-64478214D01*
X138650767Y-64478214D01*
X138706323Y-64319447D01*
X138725246Y-64151500D01*
X138706323Y-63983553D01*
X138650767Y-63824785D01*
X138650766Y-63824785D01*
X138324053Y-64151498D01*
X138324053Y-64151499D01*
X138070500Y-64151499D01*
X138070500Y-64119008D01*
X138032303Y-64066435D01*
X137986338Y-64051500D01*
X137954662Y-64051500D01*
X137908697Y-64066435D01*
X137870500Y-64119008D01*
X137870500Y-64183992D01*
X137674493Y-64183992D01*
X137671143Y-64177857D01*
X137676127Y-64108165D01*
X137704628Y-64063818D01*
X137970500Y-63797947D01*
X138204447Y-63564000D01*
X137704628Y-63064181D01*
X137674492Y-63008992D01*
X137870500Y-63008992D01*
X137908697Y-63061565D01*
X137954662Y-63076500D01*
X137986338Y-63076500D01*
X138032303Y-63061565D01*
X138070500Y-63008992D01*
X138070500Y-62976499D01*
X138324053Y-62976499D01*
X138650766Y-63303214D01*
X138650767Y-63303214D01*
X138706323Y-63144447D01*
X138725246Y-62976500D01*
X138706323Y-62808553D01*
X138650767Y-62649785D01*
X138650766Y-62649785D01*
X138324053Y-62976498D01*
X138324053Y-62976499D01*
X138070500Y-62976499D01*
X138070500Y-62944008D01*
X138032303Y-62891435D01*
X137986338Y-62876500D01*
X137954662Y-62876500D01*
X137908697Y-62891435D01*
X137870500Y-62944008D01*
X137870500Y-63008992D01*
X137674492Y-63008992D01*
X137671143Y-63002858D01*
X137676127Y-62933166D01*
X137704628Y-62888819D01*
X138204447Y-62389000D01*
X137704628Y-61889181D01*
X137674492Y-61833992D01*
X137870500Y-61833992D01*
X137908697Y-61886565D01*
X137954662Y-61901500D01*
X137986338Y-61901500D01*
X138032303Y-61886565D01*
X138070500Y-61833992D01*
X138070500Y-61769008D01*
X138032303Y-61716435D01*
X137986338Y-61701500D01*
X137954662Y-61701500D01*
X137908697Y-61716435D01*
X137870500Y-61769008D01*
X137870500Y-61833992D01*
X137674492Y-61833992D01*
X137671143Y-61827858D01*
X137676127Y-61758166D01*
X137704628Y-61713819D01*
X137882818Y-61535628D01*
X137944141Y-61502143D01*
X138013832Y-61507127D01*
X138058180Y-61535628D01*
X138650766Y-62128214D01*
X138650766Y-62128213D01*
X138706323Y-61969446D01*
X138725246Y-61801500D01*
X138706323Y-61633555D01*
X138657255Y-61493325D01*
X138653694Y-61423547D01*
X138688423Y-61362919D01*
X138750416Y-61330692D01*
X138757961Y-61329958D01*
X138763366Y-61328371D01*
X138763369Y-61328371D01*
X138894563Y-61289849D01*
X139009591Y-61215926D01*
X139099132Y-61112589D01*
X139112650Y-61082987D01*
X139158407Y-61030184D01*
X139225445Y-61010500D01*
X139946395Y-61010500D01*
X140013434Y-61030185D01*
X140029935Y-61042864D01*
X140048091Y-61059416D01*
X140054478Y-61061890D01*
X140054547Y-61061917D01*
X140079834Y-61075245D01*
X140085543Y-61079156D01*
X140111538Y-61085269D01*
X140127934Y-61090346D01*
X140152851Y-61100000D01*
X140159775Y-61100000D01*
X140188164Y-61103293D01*
X140194905Y-61104879D01*
X140221357Y-61101188D01*
X140238489Y-61100000D01*
X140318103Y-61100000D01*
X140385142Y-61119685D01*
X140430897Y-61172489D01*
X140440841Y-61241647D01*
X140428308Y-61328816D01*
X140448443Y-61468865D01*
X140438499Y-61538023D01*
X140392744Y-61590827D01*
X140363950Y-61601373D01*
X140364309Y-61602238D01*
X140203147Y-61668993D01*
X140077706Y-61765246D01*
X139981452Y-61890688D01*
X139920945Y-62036766D01*
X139900306Y-62193528D01*
X139920945Y-62350291D01*
X139981452Y-62496369D01*
X140051062Y-62587087D01*
X140051068Y-62587094D01*
X140053539Y-62590314D01*
X140056413Y-62593188D01*
X140058075Y-62594850D01*
X140068770Y-62607045D01*
X140076934Y-62617685D01*
X140087994Y-62632098D01*
X140136124Y-62669029D01*
X140213435Y-62728352D01*
X140359514Y-62788860D01*
X140484974Y-62805377D01*
X140516275Y-62809498D01*
X140516275Y-62809497D01*
X140516276Y-62809498D01*
X140547578Y-62805376D01*
X140563763Y-62804316D01*
X141653719Y-62804316D01*
X141720758Y-62824001D01*
X141741400Y-62840635D01*
X141891799Y-62991034D01*
X141902494Y-63003229D01*
X141921717Y-63028282D01*
X142040711Y-63119588D01*
X142045630Y-63123902D01*
X142047157Y-63124534D01*
X142047158Y-63124535D01*
X142047159Y-63124536D01*
X142147953Y-63166286D01*
X142202356Y-63210127D01*
X142224421Y-63276421D01*
X142224500Y-63280847D01*
X142224500Y-63304266D01*
X142224769Y-63307139D01*
X142224770Y-63307151D01*
X142227353Y-63334696D01*
X142272207Y-63462884D01*
X142352849Y-63572150D01*
X142462115Y-63652792D01*
X142462118Y-63652793D01*
X142590301Y-63697646D01*
X142620734Y-63700500D01*
X142623627Y-63700500D01*
X143551373Y-63700500D01*
X143554266Y-63700500D01*
X143584699Y-63697646D01*
X143712882Y-63652793D01*
X143712882Y-63652792D01*
X143712884Y-63652792D01*
X143822150Y-63572150D01*
X143902792Y-63462884D01*
X143908278Y-63447207D01*
X143947646Y-63334699D01*
X143950500Y-63304266D01*
X143950500Y-62850000D01*
X145050001Y-62850000D01*
X145050001Y-63296829D01*
X145050321Y-63303111D01*
X145060493Y-63402695D01*
X145115642Y-63569122D01*
X145207683Y-63718345D01*
X145331654Y-63842316D01*
X145480877Y-63934357D01*
X145647303Y-63989506D01*
X145746890Y-63999680D01*
X145753168Y-63999999D01*
X145962499Y-63999999D01*
X145962500Y-63999998D01*
X145962500Y-62850000D01*
X146462500Y-62850000D01*
X146462500Y-63999999D01*
X146671829Y-63999999D01*
X146678111Y-63999678D01*
X146777695Y-63989506D01*
X146944122Y-63934357D01*
X147093345Y-63842316D01*
X147217316Y-63718345D01*
X147309357Y-63569122D01*
X147364506Y-63402696D01*
X147374680Y-63303109D01*
X147375000Y-63296831D01*
X147375000Y-62850000D01*
X146462500Y-62850000D01*
X145962500Y-62850000D01*
X145050001Y-62850000D01*
X143950500Y-62850000D01*
X143950500Y-62350000D01*
X145050000Y-62350000D01*
X145962500Y-62350000D01*
X145962500Y-61200000D01*
X146462500Y-61200000D01*
X146462500Y-62350000D01*
X147374999Y-62350000D01*
X147374999Y-61903170D01*
X147374678Y-61896888D01*
X147364506Y-61797304D01*
X147309357Y-61630877D01*
X147217316Y-61481654D01*
X147093345Y-61357683D01*
X146944122Y-61265642D01*
X146777696Y-61210493D01*
X146678109Y-61200319D01*
X146671832Y-61200000D01*
X146462500Y-61200000D01*
X145962500Y-61200000D01*
X145753171Y-61200000D01*
X145746888Y-61200321D01*
X145647304Y-61210493D01*
X145480877Y-61265642D01*
X145331654Y-61357683D01*
X145207683Y-61481654D01*
X145115642Y-61630877D01*
X145060493Y-61797303D01*
X145050319Y-61896890D01*
X145050000Y-61903168D01*
X145050000Y-62350000D01*
X143950500Y-62350000D01*
X143950500Y-61895734D01*
X143947646Y-61865301D01*
X143902793Y-61737118D01*
X143902792Y-61737115D01*
X143822150Y-61627849D01*
X143697845Y-61536108D01*
X143698240Y-61535572D01*
X143659186Y-61507561D01*
X143633440Y-61442608D01*
X143644124Y-61379731D01*
X143700931Y-61255342D01*
X143707379Y-61210493D01*
X143720390Y-61120000D01*
X143700931Y-60984658D01*
X143700878Y-60984543D01*
X143644130Y-60860282D01*
X143561368Y-60764769D01*
X143554589Y-60756945D01*
X143554588Y-60756944D01*
X143554587Y-60756943D01*
X143439562Y-60683022D01*
X143350887Y-60656985D01*
X143292109Y-60619211D01*
X143263084Y-60555655D01*
X143263084Y-60520367D01*
X143280390Y-60400000D01*
X143260931Y-60264658D01*
X143259478Y-60261477D01*
X143197613Y-60126012D01*
X143187669Y-60056854D01*
X143216694Y-59993298D01*
X143275472Y-59955523D01*
X143310407Y-59950500D01*
X143905113Y-59950500D01*
X143972152Y-59970185D01*
X144017907Y-60022988D01*
X144045869Y-60084217D01*
X144054213Y-60093847D01*
X144124731Y-60175230D01*
X144135412Y-60187556D01*
X144241266Y-60255583D01*
X144250439Y-60261478D01*
X144381633Y-60300000D01*
X144518367Y-60300000D01*
X144649561Y-60261478D01*
X144764589Y-60187555D01*
X144854130Y-60084218D01*
X144910931Y-59959842D01*
X144930390Y-59824500D01*
X144917376Y-59733986D01*
X144911361Y-59692146D01*
X144921305Y-59622988D01*
X144967060Y-59570184D01*
X145034099Y-59550500D01*
X145279466Y-59550500D01*
X145346503Y-59570183D01*
X145450439Y-59636978D01*
X145581633Y-59675500D01*
X145718367Y-59675500D01*
X145849561Y-59636978D01*
X145964589Y-59563055D01*
X146054130Y-59459718D01*
X146110931Y-59335342D01*
X146130390Y-59200000D01*
X146110931Y-59064658D01*
X146104237Y-59050000D01*
X156814354Y-59050000D01*
X156834860Y-59218872D01*
X156895182Y-59377930D01*
X156991815Y-59517927D01*
X156991816Y-59517928D01*
X156991817Y-59517929D01*
X157119148Y-59630734D01*
X157269775Y-59709790D01*
X157434944Y-59750500D01*
X157434945Y-59750500D01*
X157605055Y-59750500D01*
X157605056Y-59750500D01*
X157770225Y-59709790D01*
X157920852Y-59630734D01*
X158048183Y-59517929D01*
X158144818Y-59377930D01*
X158181957Y-59280000D01*
X162234354Y-59280000D01*
X162254860Y-59448872D01*
X162315182Y-59607930D01*
X162411815Y-59747927D01*
X162411816Y-59747928D01*
X162411817Y-59747929D01*
X162539148Y-59860734D01*
X162689775Y-59939790D01*
X162854944Y-59980500D01*
X162854945Y-59980500D01*
X163025055Y-59980500D01*
X163025056Y-59980500D01*
X163190225Y-59939790D01*
X163340852Y-59860734D01*
X163468183Y-59747929D01*
X163564818Y-59607930D01*
X163625140Y-59448872D01*
X163645645Y-59280000D01*
X163625140Y-59111128D01*
X163564818Y-58952070D01*
X163506645Y-58867793D01*
X163468184Y-58812072D01*
X163440053Y-58787150D01*
X163340852Y-58699266D01*
X163300109Y-58677882D01*
X163190224Y-58620209D01*
X163065764Y-58589533D01*
X163025056Y-58579500D01*
X162854944Y-58579500D01*
X162822284Y-58587549D01*
X162689775Y-58620209D01*
X162539149Y-58699265D01*
X162411815Y-58812072D01*
X162315182Y-58952069D01*
X162254860Y-59111127D01*
X162234354Y-59280000D01*
X158181957Y-59280000D01*
X158205140Y-59218872D01*
X158225645Y-59050000D01*
X158205140Y-58881128D01*
X158144818Y-58722070D01*
X158074508Y-58620209D01*
X158048184Y-58582072D01*
X158011639Y-58549696D01*
X157920852Y-58469266D01*
X157890982Y-58453589D01*
X157770224Y-58390209D01*
X157645765Y-58359533D01*
X157605056Y-58349500D01*
X157434944Y-58349500D01*
X157402284Y-58357549D01*
X157269775Y-58390209D01*
X157119149Y-58469265D01*
X156991815Y-58582072D01*
X156895182Y-58722069D01*
X156834860Y-58881127D01*
X156814354Y-59050000D01*
X146104237Y-59050000D01*
X146081402Y-59000000D01*
X146054130Y-58940282D01*
X146039067Y-58922898D01*
X145964589Y-58836945D01*
X145964588Y-58836944D01*
X145964587Y-58836943D01*
X145849562Y-58763022D01*
X145808924Y-58751090D01*
X145750146Y-58713316D01*
X145721121Y-58649760D01*
X145721121Y-58614466D01*
X145723201Y-58600000D01*
X145730390Y-58550000D01*
X145710931Y-58414658D01*
X145708625Y-58409609D01*
X145654130Y-58290282D01*
X145588412Y-58214439D01*
X145564589Y-58186945D01*
X145564588Y-58186944D01*
X145564587Y-58186943D01*
X145449562Y-58113022D01*
X145318367Y-58074500D01*
X145181633Y-58074500D01*
X145050437Y-58113022D01*
X144935412Y-58186943D01*
X144845869Y-58290282D01*
X144789068Y-58414657D01*
X144784973Y-58443146D01*
X144755949Y-58506702D01*
X144697171Y-58544477D01*
X144662235Y-58549500D01*
X141574506Y-58549500D01*
X141507467Y-58529815D01*
X141486825Y-58513181D01*
X141309623Y-58335979D01*
X141299670Y-58322145D01*
X141257854Y-58284024D01*
X141253713Y-58280069D01*
X141240283Y-58266639D01*
X141228851Y-58257583D01*
X141209107Y-58239584D01*
X141202641Y-58237079D01*
X141177365Y-58223756D01*
X141171654Y-58219844D01*
X141171653Y-58219843D01*
X141171651Y-58219842D01*
X141145657Y-58213728D01*
X141129260Y-58208651D01*
X141104346Y-58199000D01*
X141097422Y-58199000D01*
X141069032Y-58195706D01*
X141062292Y-58194121D01*
X141062291Y-58194121D01*
X141050930Y-58195706D01*
X141035839Y-58197811D01*
X141018708Y-58199000D01*
X140639743Y-58199000D01*
X140622922Y-58196256D01*
X140579808Y-58198249D01*
X140566419Y-58198868D01*
X140560695Y-58199000D01*
X140541683Y-58199000D01*
X140527195Y-58200681D01*
X140500507Y-58201915D01*
X140494166Y-58204715D01*
X140466878Y-58213165D01*
X140460068Y-58214438D01*
X140437359Y-58228498D01*
X140422177Y-58236500D01*
X140397733Y-58247294D01*
X140392833Y-58252194D01*
X140370443Y-58269929D01*
X140364548Y-58273579D01*
X140348450Y-58294896D01*
X140337179Y-58307848D01*
X139961848Y-58683181D01*
X139900525Y-58716666D01*
X139874167Y-58719500D01*
X138972348Y-58719500D01*
X138931970Y-58707643D01*
X138931147Y-58710450D01*
X138914041Y-58705427D01*
X138782847Y-58666905D01*
X138646113Y-58666905D01*
X138514917Y-58705427D01*
X138421973Y-58765158D01*
X138354934Y-58784842D01*
X138312392Y-58772589D01*
X138311160Y-58776112D01*
X138138444Y-58715676D01*
X137970500Y-58696753D01*
X137802555Y-58715676D01*
X137643785Y-58771232D01*
X138236372Y-59363819D01*
X138269857Y-59425142D01*
X138264873Y-59494834D01*
X138236372Y-59539181D01*
X138058181Y-59717372D01*
X137996858Y-59750857D01*
X137927166Y-59745873D01*
X137882819Y-59717372D01*
X137649439Y-59483992D01*
X137870500Y-59483992D01*
X137908697Y-59536565D01*
X137954662Y-59551500D01*
X137986338Y-59551500D01*
X138032303Y-59536565D01*
X138070500Y-59483992D01*
X138070500Y-59419008D01*
X138032303Y-59366435D01*
X137986338Y-59351500D01*
X137954662Y-59351500D01*
X137908697Y-59366435D01*
X137870500Y-59419008D01*
X137870500Y-59483992D01*
X137649439Y-59483992D01*
X137383000Y-59217553D01*
X136883181Y-59717372D01*
X136821858Y-59750857D01*
X136752166Y-59745873D01*
X136707819Y-59717372D01*
X136529628Y-59539181D01*
X136499492Y-59483992D01*
X136695500Y-59483992D01*
X136733697Y-59536565D01*
X136779662Y-59551500D01*
X136811338Y-59551500D01*
X136857303Y-59536565D01*
X136895500Y-59483992D01*
X136895500Y-59419008D01*
X136857303Y-59366435D01*
X136811338Y-59351500D01*
X136779662Y-59351500D01*
X136733697Y-59366435D01*
X136695500Y-59419008D01*
X136695500Y-59483992D01*
X136499492Y-59483992D01*
X136496143Y-59477858D01*
X136501127Y-59408166D01*
X136529628Y-59363819D01*
X137122214Y-58771233D01*
X137121326Y-58767345D01*
X137074286Y-58733606D01*
X137048539Y-58668653D01*
X137054313Y-58618277D01*
X137054506Y-58617693D01*
X137064680Y-58518109D01*
X137065000Y-58511831D01*
X137065000Y-58240000D01*
X136227500Y-58240000D01*
X136227500Y-58941271D01*
X136268210Y-58981981D01*
X136301695Y-59043304D01*
X136296711Y-59112996D01*
X136268210Y-59157343D01*
X136213008Y-59212544D01*
X136186633Y-59245273D01*
X136172638Y-59252914D01*
X135708180Y-59717371D01*
X135646857Y-59750856D01*
X135577165Y-59745872D01*
X135532818Y-59717371D01*
X135354627Y-59539181D01*
X135324491Y-59483992D01*
X135520500Y-59483992D01*
X135558697Y-59536565D01*
X135604662Y-59551500D01*
X135636338Y-59551500D01*
X135682303Y-59536565D01*
X135720500Y-59483992D01*
X135720500Y-59419008D01*
X135682303Y-59366435D01*
X135636338Y-59351500D01*
X135604662Y-59351500D01*
X135558697Y-59366435D01*
X135520500Y-59419008D01*
X135520500Y-59483992D01*
X135324491Y-59483992D01*
X135321142Y-59477858D01*
X135326126Y-59408167D01*
X135354627Y-59363819D01*
X135727500Y-58990946D01*
X135727500Y-57740000D01*
X136227500Y-57740000D01*
X137064999Y-57740000D01*
X137064999Y-57468170D01*
X137064679Y-57461896D01*
X137060966Y-57425553D01*
X137073735Y-57356860D01*
X137121614Y-57305975D01*
X137189404Y-57289053D01*
X137219257Y-57293971D01*
X137326633Y-57325500D01*
X137463367Y-57325500D01*
X137594561Y-57286978D01*
X137709589Y-57213055D01*
X137712057Y-57210206D01*
X137770831Y-57172431D01*
X137840700Y-57172427D01*
X137872809Y-57187089D01*
X137950439Y-57236978D01*
X138081633Y-57275500D01*
X138218367Y-57275500D01*
X138349561Y-57236978D01*
X138464589Y-57163055D01*
X138554130Y-57059718D01*
X138610931Y-56935342D01*
X138629517Y-56806072D01*
X139045641Y-56806072D01*
X139046666Y-56810784D01*
X139049500Y-56837143D01*
X139049500Y-57935798D01*
X139064834Y-58042457D01*
X139124623Y-58173374D01*
X139211451Y-58273579D01*
X139218872Y-58282143D01*
X139339947Y-58359953D01*
X139478039Y-58400500D01*
X139621961Y-58400500D01*
X139760053Y-58359953D01*
X139881128Y-58282143D01*
X139975377Y-58173373D01*
X139975379Y-58173368D01*
X139981327Y-58166504D01*
X140040105Y-58128729D01*
X140055942Y-58125383D01*
X140056759Y-58125044D01*
X140056762Y-58125044D01*
X140202841Y-58064536D01*
X140328282Y-57968282D01*
X140424536Y-57842841D01*
X140485044Y-57696762D01*
X140485601Y-57692522D01*
X140486643Y-57684619D01*
X140505682Y-57540000D01*
X140501561Y-57508696D01*
X140500500Y-57492511D01*
X140500500Y-56578674D01*
X140520185Y-56511635D01*
X140536810Y-56491002D01*
X140640996Y-56386816D01*
X140702317Y-56353334D01*
X140728675Y-56350500D01*
X141115013Y-56350500D01*
X141131197Y-56351560D01*
X141162500Y-56355682D01*
X141319262Y-56335044D01*
X141319515Y-56334938D01*
X141366968Y-56325500D01*
X142151373Y-56325500D01*
X142154266Y-56325500D01*
X142184699Y-56322646D01*
X142312882Y-56277793D01*
X142312882Y-56277792D01*
X142312884Y-56277792D01*
X142422148Y-56197152D01*
X142422148Y-56197150D01*
X142422150Y-56197150D01*
X142483984Y-56113366D01*
X142539632Y-56071116D01*
X142583755Y-56063000D01*
X142900500Y-56063000D01*
X142967539Y-56082685D01*
X143013294Y-56135489D01*
X143024500Y-56186999D01*
X143024500Y-56504266D01*
X143024769Y-56507139D01*
X143024770Y-56507151D01*
X143027353Y-56534696D01*
X143072207Y-56662884D01*
X143152849Y-56772150D01*
X143262115Y-56852792D01*
X143262118Y-56852793D01*
X143390301Y-56897646D01*
X143420734Y-56900500D01*
X143423627Y-56900500D01*
X144351373Y-56900500D01*
X144354266Y-56900500D01*
X144384699Y-56897646D01*
X144512882Y-56852793D01*
X144512882Y-56852792D01*
X144512884Y-56852792D01*
X144622150Y-56772150D01*
X144702792Y-56662884D01*
X144706212Y-56653111D01*
X144747646Y-56534699D01*
X144750500Y-56504266D01*
X144750500Y-55600000D01*
X145850001Y-55600000D01*
X145850001Y-56496829D01*
X145850321Y-56503111D01*
X145860493Y-56602695D01*
X145915642Y-56769122D01*
X146007683Y-56918345D01*
X146131654Y-57042316D01*
X146280877Y-57134357D01*
X146447303Y-57189506D01*
X146546890Y-57199680D01*
X146553168Y-57199999D01*
X146762499Y-57199999D01*
X146762500Y-57199998D01*
X146762500Y-55600000D01*
X147262500Y-55600000D01*
X147262500Y-57199999D01*
X147471829Y-57199999D01*
X147478111Y-57199678D01*
X147577695Y-57189506D01*
X147744122Y-57134357D01*
X147893345Y-57042316D01*
X148017316Y-56918345D01*
X148109357Y-56769122D01*
X148164506Y-56602696D01*
X148174680Y-56503109D01*
X148175000Y-56496831D01*
X148175000Y-55649999D01*
X158544317Y-55649999D01*
X158564956Y-55806762D01*
X158625463Y-55952840D01*
X158721717Y-56078282D01*
X158797033Y-56136073D01*
X158847159Y-56174536D01*
X158993238Y-56235044D01*
X159110639Y-56250500D01*
X160952513Y-56250500D01*
X160968697Y-56251560D01*
X161000000Y-56255682D01*
X161156762Y-56235044D01*
X161302841Y-56174536D01*
X161308763Y-56169992D01*
X161428282Y-56078282D01*
X161447509Y-56053223D01*
X161458190Y-56041043D01*
X162102450Y-55396785D01*
X162174536Y-55302841D01*
X162235044Y-55156762D01*
X162255682Y-55000000D01*
X162235044Y-54843238D01*
X162174536Y-54697159D01*
X162122592Y-54629464D01*
X162078282Y-54571717D01*
X161952840Y-54475463D01*
X161806762Y-54414956D01*
X161649999Y-54394317D01*
X161493237Y-54414956D01*
X161347159Y-54475463D01*
X161256441Y-54545073D01*
X161256426Y-54545085D01*
X161253215Y-54547550D01*
X161250348Y-54550416D01*
X161250340Y-54550424D01*
X160787584Y-55013181D01*
X160726261Y-55046666D01*
X160699903Y-55049500D01*
X159110639Y-55049500D01*
X159106622Y-55050028D01*
X159106619Y-55050029D01*
X158993237Y-55064956D01*
X158847159Y-55125463D01*
X158721717Y-55221717D01*
X158625463Y-55347159D01*
X158564956Y-55493237D01*
X158544317Y-55649999D01*
X148175000Y-55649999D01*
X148175000Y-55600000D01*
X147262500Y-55600000D01*
X146762500Y-55600000D01*
X145850001Y-55600000D01*
X144750500Y-55600000D01*
X144750500Y-55100000D01*
X145850000Y-55100000D01*
X146762500Y-55100000D01*
X146762500Y-53500000D01*
X147262500Y-53500000D01*
X147262500Y-55100000D01*
X148174999Y-55100000D01*
X148174999Y-54450000D01*
X154194354Y-54450000D01*
X154214860Y-54618872D01*
X154275182Y-54777930D01*
X154371815Y-54917927D01*
X154371816Y-54917928D01*
X154371817Y-54917929D01*
X154499148Y-55030734D01*
X154649775Y-55109790D01*
X154814944Y-55150500D01*
X154814945Y-55150500D01*
X154985055Y-55150500D01*
X154985056Y-55150500D01*
X155150225Y-55109790D01*
X155300852Y-55030734D01*
X155428183Y-54917929D01*
X155524818Y-54777930D01*
X155585140Y-54618872D01*
X155605645Y-54450000D01*
X155585140Y-54281128D01*
X155524818Y-54122070D01*
X155468965Y-54041154D01*
X155428184Y-53982072D01*
X155400920Y-53957918D01*
X155300852Y-53869266D01*
X155286588Y-53861780D01*
X155150224Y-53790209D01*
X155018881Y-53757837D01*
X154985056Y-53749500D01*
X154814944Y-53749500D01*
X154782284Y-53757549D01*
X154649775Y-53790209D01*
X154499149Y-53869265D01*
X154371815Y-53982072D01*
X154275182Y-54122069D01*
X154214860Y-54281127D01*
X154194354Y-54450000D01*
X148174999Y-54450000D01*
X148174999Y-54203170D01*
X148174678Y-54196888D01*
X148164506Y-54097304D01*
X148109357Y-53930877D01*
X148017316Y-53781654D01*
X147893345Y-53657683D01*
X147744122Y-53565642D01*
X147577696Y-53510493D01*
X147478109Y-53500319D01*
X147471832Y-53500000D01*
X147262500Y-53500000D01*
X146762500Y-53500000D01*
X146553171Y-53500000D01*
X146546888Y-53500321D01*
X146447304Y-53510493D01*
X146280877Y-53565642D01*
X146131654Y-53657683D01*
X146007683Y-53781654D01*
X145915642Y-53930877D01*
X145860493Y-54097303D01*
X145850319Y-54196890D01*
X145850000Y-54203168D01*
X145850000Y-55100000D01*
X144750500Y-55100000D01*
X144750500Y-54195734D01*
X144747646Y-54165301D01*
X144702793Y-54037118D01*
X144702792Y-54037115D01*
X144622150Y-53927849D01*
X144512885Y-53847208D01*
X144421045Y-53815072D01*
X144364269Y-53774350D01*
X144338522Y-53709397D01*
X144338000Y-53698030D01*
X144338000Y-51520632D01*
X144349207Y-51469118D01*
X144350931Y-51465342D01*
X144359699Y-51404357D01*
X144370390Y-51330000D01*
X144364639Y-51289999D01*
X155244354Y-51289999D01*
X155264860Y-51458872D01*
X155325182Y-51617930D01*
X155421815Y-51757927D01*
X155421816Y-51757928D01*
X155421817Y-51757929D01*
X155549148Y-51870734D01*
X155699775Y-51949790D01*
X155864944Y-51990500D01*
X155864945Y-51990500D01*
X156035055Y-51990500D01*
X156035056Y-51990500D01*
X156200225Y-51949790D01*
X156350852Y-51870734D01*
X156478183Y-51757929D01*
X156574818Y-51617930D01*
X156635140Y-51458872D01*
X156655645Y-51290000D01*
X156635140Y-51121128D01*
X156574818Y-50962070D01*
X156513127Y-50872696D01*
X156478184Y-50822072D01*
X156422916Y-50773109D01*
X156350852Y-50709266D01*
X156336588Y-50701780D01*
X156200224Y-50630209D01*
X156075765Y-50599533D01*
X156035056Y-50589500D01*
X155864944Y-50589500D01*
X155832284Y-50597549D01*
X155699775Y-50630209D01*
X155549149Y-50709265D01*
X155421815Y-50822072D01*
X155325182Y-50962069D01*
X155264860Y-51121127D01*
X155244354Y-51289999D01*
X144364639Y-51289999D01*
X144350931Y-51194658D01*
X144346745Y-51185493D01*
X144294130Y-51070282D01*
X144204587Y-50966943D01*
X144089562Y-50893022D01*
X143958367Y-50854500D01*
X143821633Y-50854500D01*
X143690437Y-50893022D01*
X143575412Y-50966943D01*
X143485869Y-51070282D01*
X143429068Y-51194657D01*
X143409610Y-51330000D01*
X143431606Y-51482991D01*
X143431205Y-51483048D01*
X143437000Y-51509684D01*
X143437000Y-53698030D01*
X143417315Y-53765069D01*
X143364511Y-53810824D01*
X143353955Y-53815072D01*
X143262114Y-53847208D01*
X143152849Y-53927849D01*
X143072207Y-54037115D01*
X143027353Y-54165303D01*
X143024770Y-54192848D01*
X143024769Y-54192861D01*
X143024500Y-54195734D01*
X143024500Y-54198625D01*
X143024500Y-54198626D01*
X143024500Y-54725500D01*
X143004815Y-54792539D01*
X142952011Y-54838294D01*
X142900500Y-54849500D01*
X142574530Y-54849500D01*
X142507491Y-54829815D01*
X142474760Y-54799133D01*
X142422150Y-54727849D01*
X142312884Y-54647207D01*
X142184696Y-54602353D01*
X142157151Y-54599770D01*
X142157139Y-54599769D01*
X142154266Y-54599500D01*
X140745734Y-54599500D01*
X140742861Y-54599769D01*
X140742848Y-54599770D01*
X140715303Y-54602353D01*
X140587115Y-54647207D01*
X140477849Y-54727849D01*
X140397207Y-54837115D01*
X140352353Y-54965303D01*
X140349770Y-54992848D01*
X140349769Y-54992861D01*
X140349500Y-54995734D01*
X140349500Y-54998626D01*
X140349500Y-55025500D01*
X140329815Y-55092539D01*
X140277011Y-55138294D01*
X140225500Y-55149500D01*
X139947487Y-55149500D01*
X139931302Y-55148439D01*
X139927376Y-55147922D01*
X139899999Y-55144317D01*
X139864741Y-55148959D01*
X139860639Y-55149500D01*
X139817442Y-55155187D01*
X139743237Y-55164956D01*
X139597159Y-55225463D01*
X139471717Y-55321717D01*
X139375464Y-55447158D01*
X139308709Y-55608320D01*
X139307670Y-55607889D01*
X139287025Y-55654552D01*
X139280038Y-55662146D01*
X139243569Y-55698615D01*
X139222936Y-55715244D01*
X139218872Y-55717855D01*
X139186351Y-55755386D01*
X139180330Y-55761854D01*
X139170777Y-55771408D01*
X139162677Y-55782227D01*
X139157132Y-55789107D01*
X139124624Y-55826624D01*
X139122618Y-55831017D01*
X139109098Y-55853802D01*
X139106203Y-55857668D01*
X139088851Y-55904191D01*
X139085466Y-55912365D01*
X139064834Y-55957545D01*
X139064147Y-55962323D01*
X139057596Y-55987990D01*
X139055909Y-55992513D01*
X139052365Y-56042053D01*
X139051420Y-56050837D01*
X139049707Y-56062762D01*
X139049500Y-56064203D01*
X139049500Y-56077691D01*
X139049184Y-56086538D01*
X139045641Y-56136072D01*
X139046666Y-56140784D01*
X139049500Y-56167143D01*
X139049500Y-56747691D01*
X139049184Y-56756538D01*
X139045641Y-56806072D01*
X138629517Y-56806072D01*
X138630390Y-56800000D01*
X138610931Y-56664658D01*
X138606789Y-56655589D01*
X138554129Y-56540280D01*
X138480787Y-56455638D01*
X138451762Y-56392082D01*
X138450500Y-56374436D01*
X138450500Y-55310496D01*
X138470185Y-55243457D01*
X138522989Y-55197702D01*
X138592147Y-55187758D01*
X138609426Y-55191516D01*
X138616896Y-55193710D01*
X138616898Y-55193710D01*
X138753630Y-55193710D01*
X138884824Y-55155188D01*
X138999852Y-55081265D01*
X139089393Y-54977928D01*
X139146194Y-54853552D01*
X139165653Y-54718210D01*
X139146194Y-54582868D01*
X139144492Y-54579142D01*
X139089393Y-54458492D01*
X139033904Y-54394454D01*
X138999852Y-54355155D01*
X138999851Y-54355154D01*
X138999850Y-54355153D01*
X138884825Y-54281232D01*
X138753630Y-54242710D01*
X138686789Y-54242710D01*
X138619750Y-54223025D01*
X138573995Y-54170221D01*
X138564051Y-54136357D01*
X138560931Y-54114657D01*
X138504130Y-53990282D01*
X138451635Y-53929699D01*
X138414589Y-53886945D01*
X138414588Y-53886944D01*
X138414587Y-53886943D01*
X138299562Y-53813022D01*
X138168367Y-53774500D01*
X138031633Y-53774500D01*
X137900437Y-53813022D01*
X137785412Y-53886943D01*
X137695869Y-53990282D01*
X137639068Y-54114657D01*
X137631080Y-54170221D01*
X137619928Y-54247792D01*
X137617073Y-54267647D01*
X137612913Y-54267049D01*
X137607529Y-54304427D01*
X137579284Y-54337005D01*
X137581383Y-54338918D01*
X137534523Y-54390318D01*
X137530573Y-54394454D01*
X137517141Y-54407886D01*
X137508087Y-54419317D01*
X137490083Y-54439067D01*
X137487578Y-54445534D01*
X137474259Y-54470802D01*
X137470343Y-54476518D01*
X137464228Y-54502517D01*
X137459151Y-54518913D01*
X137449500Y-54543826D01*
X137449500Y-54550752D01*
X137446206Y-54579142D01*
X137444621Y-54585880D01*
X137448311Y-54612333D01*
X137449500Y-54629464D01*
X137449500Y-56210993D01*
X137429815Y-56278032D01*
X137413181Y-56298674D01*
X137364192Y-56347663D01*
X137311446Y-56378959D01*
X137195437Y-56413022D01*
X137080412Y-56486943D01*
X136990869Y-56590282D01*
X136934068Y-56714657D01*
X136921226Y-56803980D01*
X136892201Y-56867536D01*
X136833423Y-56905310D01*
X136763553Y-56905310D01*
X136733392Y-56891872D01*
X136634122Y-56830642D01*
X136467696Y-56775493D01*
X136368109Y-56765319D01*
X136361832Y-56765000D01*
X136227500Y-56765000D01*
X136227500Y-57740000D01*
X135727500Y-57740000D01*
X135727500Y-56765000D01*
X135593171Y-56765000D01*
X135586885Y-56765321D01*
X135554552Y-56768624D01*
X135485860Y-56755854D01*
X135434976Y-56707973D01*
X135418056Y-56640183D01*
X135440473Y-56574006D01*
X135446842Y-56565851D01*
X135447010Y-56565481D01*
X135447012Y-56565480D01*
X135503813Y-56441104D01*
X135523272Y-56305762D01*
X135523271Y-56305761D01*
X135525809Y-56288115D01*
X135528505Y-56288502D01*
X135534592Y-56246174D01*
X135555751Y-56214146D01*
X135559915Y-56209578D01*
X135559914Y-56209578D01*
X135559916Y-56209577D01*
X135562417Y-56203118D01*
X135575748Y-56177830D01*
X135579657Y-56172124D01*
X135585775Y-56146111D01*
X135590845Y-56129737D01*
X135600500Y-56104817D01*
X135600500Y-56097892D01*
X135603794Y-56069501D01*
X135605379Y-56062763D01*
X135601689Y-56036309D01*
X135600500Y-56019179D01*
X135600500Y-53975564D01*
X135620185Y-53908525D01*
X135630787Y-53894362D01*
X135704129Y-53809719D01*
X135704128Y-53809719D01*
X135704130Y-53809718D01*
X135760931Y-53685342D01*
X135780390Y-53550000D01*
X135760931Y-53414658D01*
X135704130Y-53290282D01*
X135614589Y-53186945D01*
X135614588Y-53186944D01*
X135614587Y-53186943D01*
X135499562Y-53113022D01*
X135368367Y-53074500D01*
X135231633Y-53074500D01*
X135100437Y-53113022D01*
X134985412Y-53186943D01*
X134895869Y-53290282D01*
X134839068Y-53414657D01*
X134819610Y-53549999D01*
X134839068Y-53685342D01*
X134895870Y-53809719D01*
X134969213Y-53894362D01*
X134998238Y-53957918D01*
X134999500Y-53975564D01*
X134999500Y-55730100D01*
X134979815Y-55797139D01*
X134927011Y-55842894D01*
X134910436Y-55849077D01*
X134843319Y-55868784D01*
X134728294Y-55942705D01*
X134638751Y-56046044D01*
X134581950Y-56170419D01*
X134562492Y-56305761D01*
X134581950Y-56441104D01*
X134638751Y-56565479D01*
X134655181Y-56584440D01*
X134724688Y-56664657D01*
X134728294Y-56668818D01*
X134807597Y-56719782D01*
X134843321Y-56742740D01*
X134974515Y-56781262D01*
X135013714Y-56781262D01*
X135080753Y-56800947D01*
X135126508Y-56853751D01*
X135136452Y-56922909D01*
X135107427Y-56986465D01*
X135101395Y-56992943D01*
X135047683Y-57046654D01*
X134955642Y-57195876D01*
X134899904Y-57364081D01*
X134860131Y-57421525D01*
X134795615Y-57448348D01*
X134726839Y-57436033D01*
X134675639Y-57388489D01*
X134665156Y-57366029D01*
X134664474Y-57364081D01*
X134642793Y-57302118D01*
X134642792Y-57302115D01*
X134562150Y-57192849D01*
X134452884Y-57112207D01*
X134324696Y-57067353D01*
X134297151Y-57064770D01*
X134297139Y-57064769D01*
X134294266Y-57064500D01*
X133510734Y-57064500D01*
X133507861Y-57064769D01*
X133507848Y-57064770D01*
X133480303Y-57067353D01*
X133352115Y-57112207D01*
X133242849Y-57192849D01*
X133162207Y-57302115D01*
X133117353Y-57430303D01*
X133114770Y-57457848D01*
X133114769Y-57457861D01*
X133114500Y-57460734D01*
X133114500Y-58519266D01*
X133114769Y-58522139D01*
X133114770Y-58522151D01*
X133117353Y-58549696D01*
X133126528Y-58575916D01*
X133130089Y-58645695D01*
X133095360Y-58706322D01*
X133050441Y-58733912D01*
X132943784Y-58771232D01*
X133536372Y-59363819D01*
X133569857Y-59425142D01*
X133564873Y-59494834D01*
X133536372Y-59539181D01*
X133358181Y-59717372D01*
X133296858Y-59750857D01*
X133227166Y-59745873D01*
X133182819Y-59717372D01*
X133045632Y-59580185D01*
X133012147Y-59518862D01*
X133010575Y-59510148D01*
X133006929Y-59484785D01*
X133006567Y-59483992D01*
X133170500Y-59483992D01*
X133208697Y-59536565D01*
X133254662Y-59551500D01*
X133286338Y-59551500D01*
X133332303Y-59536565D01*
X133370500Y-59483992D01*
X133370500Y-59419008D01*
X133332303Y-59366435D01*
X133286338Y-59351500D01*
X133254662Y-59351500D01*
X133208697Y-59366435D01*
X133170500Y-59419008D01*
X133170500Y-59483992D01*
X133006567Y-59483992D01*
X132950128Y-59360410D01*
X132860586Y-59257072D01*
X132758352Y-59191371D01*
X132737710Y-59174736D01*
X131746819Y-58183844D01*
X131713334Y-58122521D01*
X131710500Y-58096163D01*
X131710500Y-57441419D01*
X131730185Y-57374380D01*
X131736124Y-57365932D01*
X131784536Y-57302841D01*
X131845044Y-57156762D01*
X131865682Y-57000000D01*
X131856581Y-56930874D01*
X131867346Y-56861842D01*
X131913726Y-56809586D01*
X131980994Y-56790700D01*
X132047795Y-56811180D01*
X132073233Y-56833489D01*
X132172019Y-56947495D01*
X132287046Y-57021417D01*
X132287048Y-57021418D01*
X132418242Y-57059940D01*
X132554976Y-57059940D01*
X132686170Y-57021418D01*
X132801198Y-56947495D01*
X132890739Y-56844158D01*
X132929846Y-56758525D01*
X132975601Y-56705722D01*
X133042640Y-56686038D01*
X133060692Y-56688634D01*
X133069308Y-56688634D01*
X133206042Y-56688634D01*
X133337236Y-56650112D01*
X133452264Y-56576189D01*
X133541805Y-56472852D01*
X133598606Y-56348476D01*
X133618065Y-56213134D01*
X133600057Y-56087882D01*
X133598606Y-56077791D01*
X133541804Y-55953414D01*
X133484027Y-55886735D01*
X133455002Y-55823179D01*
X133464946Y-55754021D01*
X133484027Y-55724330D01*
X133488661Y-55718981D01*
X133488664Y-55718980D01*
X133578205Y-55615643D01*
X133635006Y-55491267D01*
X133654465Y-55355925D01*
X133635006Y-55220583D01*
X133622733Y-55193710D01*
X133578205Y-55096207D01*
X133538192Y-55050029D01*
X133488664Y-54992870D01*
X133488663Y-54992869D01*
X133488662Y-54992868D01*
X133373637Y-54918947D01*
X133242442Y-54880425D01*
X133106759Y-54880425D01*
X133039720Y-54860740D01*
X133019078Y-54844106D01*
X132216125Y-54041154D01*
X132191012Y-54004984D01*
X132142101Y-53897883D01*
X132098190Y-53847207D01*
X132052559Y-53794545D01*
X132052558Y-53794544D01*
X132052557Y-53794543D01*
X131937532Y-53720622D01*
X131806337Y-53682100D01*
X131669603Y-53682100D01*
X131669602Y-53682100D01*
X131639434Y-53690958D01*
X131569565Y-53690958D01*
X131510787Y-53653183D01*
X131481762Y-53589628D01*
X131480500Y-53571981D01*
X131480500Y-52968626D01*
X131480500Y-52968625D01*
X131480500Y-52965734D01*
X131477646Y-52935301D01*
X131432793Y-52807118D01*
X131432792Y-52807115D01*
X131352150Y-52697849D01*
X131242884Y-52617207D01*
X131157985Y-52587500D01*
X140050001Y-52587500D01*
X140050001Y-52796829D01*
X140050321Y-52803111D01*
X140060493Y-52902695D01*
X140115642Y-53069122D01*
X140207683Y-53218345D01*
X140331654Y-53342316D01*
X140480877Y-53434357D01*
X140647303Y-53489506D01*
X140746890Y-53499680D01*
X140753168Y-53499999D01*
X141199999Y-53499999D01*
X141200000Y-53499998D01*
X141200000Y-52587500D01*
X141700000Y-52587500D01*
X141700000Y-53499999D01*
X142146829Y-53499999D01*
X142153111Y-53499678D01*
X142252695Y-53489506D01*
X142419122Y-53434357D01*
X142568345Y-53342316D01*
X142692316Y-53218345D01*
X142784357Y-53069122D01*
X142839506Y-52902696D01*
X142849680Y-52803109D01*
X142850000Y-52796831D01*
X142850000Y-52587500D01*
X141700000Y-52587500D01*
X141200000Y-52587500D01*
X140050001Y-52587500D01*
X131157985Y-52587500D01*
X131114696Y-52572353D01*
X131087151Y-52569770D01*
X131087139Y-52569769D01*
X131084266Y-52569500D01*
X128775734Y-52569500D01*
X128772861Y-52569769D01*
X128772848Y-52569770D01*
X128745303Y-52572353D01*
X128617115Y-52617207D01*
X128507849Y-52697849D01*
X128427207Y-52807115D01*
X128382353Y-52935303D01*
X128379770Y-52962848D01*
X128379769Y-52962861D01*
X128379500Y-52965734D01*
X128379500Y-53899266D01*
X128379769Y-53902139D01*
X128379770Y-53902151D01*
X128382353Y-53929696D01*
X128427207Y-54057884D01*
X128507849Y-54167150D01*
X128617115Y-54247792D01*
X128617118Y-54247793D01*
X128745301Y-54292646D01*
X128775734Y-54295500D01*
X129488000Y-54295500D01*
X129555039Y-54315185D01*
X129600794Y-54367989D01*
X129612000Y-54419500D01*
X129612000Y-54748030D01*
X129592315Y-54815069D01*
X129539511Y-54860824D01*
X129528955Y-54865072D01*
X129437114Y-54897208D01*
X129327849Y-54977849D01*
X129247207Y-55087115D01*
X129202353Y-55215303D01*
X129199770Y-55242848D01*
X129199769Y-55242861D01*
X129199500Y-55245734D01*
X129199500Y-56654266D01*
X129199769Y-56657139D01*
X129199770Y-56657151D01*
X129202353Y-56684696D01*
X129247207Y-56812884D01*
X129327849Y-56922150D01*
X129437115Y-57002792D01*
X129437118Y-57002793D01*
X129565301Y-57047646D01*
X129595734Y-57050500D01*
X130262403Y-57050500D01*
X130329442Y-57070185D01*
X130350084Y-57086819D01*
X130654299Y-57391034D01*
X130664994Y-57403229D01*
X130684217Y-57428282D01*
X130722749Y-57457848D01*
X130745754Y-57475500D01*
X130760985Y-57487187D01*
X130802188Y-57543611D01*
X130809500Y-57585563D01*
X130809500Y-58059324D01*
X130789815Y-58126363D01*
X130737011Y-58172118D01*
X130667853Y-58182062D01*
X130610014Y-58157700D01*
X130502840Y-58075463D01*
X130356762Y-58014956D01*
X130200000Y-57994317D01*
X130043237Y-58014956D01*
X129897161Y-58075462D01*
X129873525Y-58093598D01*
X129834065Y-58123876D01*
X129768898Y-58149070D01*
X129758581Y-58149500D01*
X129748146Y-58149500D01*
X129681107Y-58129815D01*
X129635352Y-58077011D01*
X129624688Y-58037076D01*
X129622646Y-58015303D01*
X129622646Y-58015301D01*
X129577793Y-57887118D01*
X129577792Y-57887115D01*
X129497150Y-57777849D01*
X129387884Y-57697207D01*
X129259696Y-57652353D01*
X129232151Y-57649770D01*
X129232139Y-57649769D01*
X129229266Y-57649500D01*
X128295734Y-57649500D01*
X128292861Y-57649769D01*
X128292848Y-57649770D01*
X128265303Y-57652353D01*
X128137115Y-57697207D01*
X128027849Y-57777849D01*
X127947207Y-57887115D01*
X127902353Y-58015303D01*
X127899770Y-58042848D01*
X127899769Y-58042861D01*
X127899500Y-58045734D01*
X127899500Y-59454266D01*
X126799562Y-59454266D01*
X126799680Y-59453109D01*
X126800000Y-59446831D01*
X126800000Y-59000000D01*
X125887500Y-59000000D01*
X125387500Y-59000000D01*
X124475001Y-59000000D01*
X93615884Y-59000000D01*
X93615300Y-58994066D01*
X93555232Y-58796046D01*
X93457685Y-58613550D01*
X93379359Y-58518109D01*
X93364498Y-58500000D01*
X124475000Y-58500000D01*
X125387500Y-58500000D01*
X125387500Y-57350000D01*
X125178171Y-57350000D01*
X125171888Y-57350321D01*
X125072304Y-57360493D01*
X124905877Y-57415642D01*
X124756654Y-57507683D01*
X124632683Y-57631654D01*
X124540642Y-57780877D01*
X124485493Y-57947303D01*
X124475319Y-58046890D01*
X124475000Y-58053168D01*
X124475000Y-58500000D01*
X93364498Y-58500000D01*
X93326410Y-58453589D01*
X93199575Y-58349500D01*
X93166450Y-58322315D01*
X92983954Y-58224768D01*
X92859267Y-58186945D01*
X92785932Y-58164699D01*
X92602497Y-58146632D01*
X92580000Y-58144417D01*
X92579999Y-58144417D01*
X92374067Y-58164699D01*
X92198692Y-58217898D01*
X92179386Y-58223755D01*
X92176043Y-58224769D01*
X91993551Y-58322314D01*
X91833589Y-58453589D01*
X91702314Y-58613551D01*
X91604769Y-58796043D01*
X91544699Y-58994067D01*
X91524417Y-59200000D01*
X91075500Y-59200000D01*
X91075500Y-56200000D01*
X125775001Y-56200000D01*
X125775001Y-56646829D01*
X125775321Y-56653111D01*
X125785493Y-56752695D01*
X125840642Y-56919122D01*
X125932683Y-57068345D01*
X126002657Y-57138319D01*
X126036142Y-57199642D01*
X126031158Y-57269334D01*
X125989286Y-57325267D01*
X125923822Y-57349684D01*
X125914976Y-57350000D01*
X125887500Y-57350000D01*
X125887500Y-58500000D01*
X126799999Y-58500000D01*
X126799999Y-58053170D01*
X126799678Y-58046888D01*
X126789506Y-57947304D01*
X126734357Y-57780877D01*
X126642316Y-57631654D01*
X126572342Y-57561680D01*
X126538857Y-57500357D01*
X126543841Y-57430665D01*
X126585713Y-57374732D01*
X126651177Y-57350315D01*
X126660023Y-57349999D01*
X126687499Y-57349999D01*
X126687500Y-57349998D01*
X127187499Y-57349998D01*
X127187500Y-57349999D01*
X127396829Y-57349999D01*
X127403111Y-57349678D01*
X127502695Y-57339506D01*
X127669122Y-57284357D01*
X127818345Y-57192316D01*
X127942316Y-57068345D01*
X128034357Y-56919122D01*
X128089506Y-56752696D01*
X128099680Y-56653109D01*
X128100000Y-56646831D01*
X128100000Y-56200000D01*
X127187500Y-56200000D01*
X127187499Y-57349998D01*
X126687500Y-57349998D01*
X126687500Y-56200000D01*
X125775001Y-56200000D01*
X91075500Y-56200000D01*
X91075500Y-55700000D01*
X125775000Y-55700000D01*
X126687500Y-55700000D01*
X126687500Y-54550000D01*
X127187500Y-54550000D01*
X127187500Y-55700000D01*
X128099999Y-55700000D01*
X128099999Y-55253170D01*
X128099678Y-55246888D01*
X128089506Y-55147304D01*
X128034357Y-54980877D01*
X127942316Y-54831654D01*
X127818345Y-54707683D01*
X127669122Y-54615642D01*
X127502696Y-54560493D01*
X127403109Y-54550319D01*
X127396832Y-54550000D01*
X127187500Y-54550000D01*
X126687500Y-54550000D01*
X126478171Y-54550000D01*
X126471888Y-54550321D01*
X126372304Y-54560493D01*
X126205877Y-54615642D01*
X126056654Y-54707683D01*
X125932683Y-54831654D01*
X125840642Y-54980877D01*
X125785493Y-55147303D01*
X125775319Y-55246890D01*
X125775000Y-55253168D01*
X125775000Y-55700000D01*
X91075500Y-55700000D01*
X91075500Y-52087500D01*
X140050000Y-52087500D01*
X141200000Y-52087500D01*
X141200000Y-51175000D01*
X141700000Y-51175000D01*
X141700000Y-52087500D01*
X142849999Y-52087500D01*
X142849999Y-51878170D01*
X142849678Y-51871888D01*
X142839506Y-51772304D01*
X142784357Y-51605877D01*
X142692316Y-51456654D01*
X142568345Y-51332683D01*
X142419122Y-51240642D01*
X142252696Y-51185493D01*
X142153109Y-51175319D01*
X142146832Y-51175000D01*
X141700000Y-51175000D01*
X141200000Y-51175000D01*
X140753171Y-51175000D01*
X140746888Y-51175321D01*
X140647304Y-51185493D01*
X140480877Y-51240642D01*
X140331654Y-51332683D01*
X140207683Y-51456654D01*
X140115642Y-51605877D01*
X140060493Y-51772303D01*
X140050319Y-51871890D01*
X140050000Y-51878168D01*
X140050000Y-52087500D01*
X91075500Y-52087500D01*
X91075500Y-50557500D01*
X128080001Y-50557500D01*
X128080001Y-50766829D01*
X128080321Y-50773111D01*
X128090493Y-50872695D01*
X128145642Y-51039122D01*
X128237683Y-51188345D01*
X128361654Y-51312316D01*
X128510877Y-51404357D01*
X128677303Y-51459506D01*
X128776890Y-51469680D01*
X128783168Y-51469999D01*
X129679999Y-51469999D01*
X129679999Y-51469998D01*
X129680000Y-50557500D01*
X130180000Y-50557500D01*
X130180000Y-51469999D01*
X131076829Y-51469999D01*
X131083111Y-51469678D01*
X131182695Y-51459506D01*
X131349122Y-51404357D01*
X131498345Y-51312316D01*
X131622316Y-51188345D01*
X131714357Y-51039122D01*
X131769506Y-50872696D01*
X131779680Y-50773109D01*
X131780000Y-50766831D01*
X131780000Y-50557500D01*
X130180000Y-50557500D01*
X129680000Y-50557500D01*
X128080001Y-50557500D01*
X91075500Y-50557500D01*
X91075500Y-50057500D01*
X128080000Y-50057500D01*
X129679999Y-50057500D01*
X129679999Y-49145000D01*
X130180000Y-49145000D01*
X130180000Y-50057500D01*
X131779999Y-50057500D01*
X131779999Y-49848170D01*
X131779678Y-49841888D01*
X131769506Y-49742304D01*
X131714357Y-49575877D01*
X131622316Y-49426654D01*
X131498345Y-49302683D01*
X131349122Y-49210642D01*
X131182696Y-49155493D01*
X131083109Y-49145319D01*
X131076832Y-49145000D01*
X130180000Y-49145000D01*
X129679999Y-49145000D01*
X128783171Y-49145000D01*
X128776888Y-49145321D01*
X128677304Y-49155493D01*
X128510877Y-49210642D01*
X128361654Y-49302683D01*
X128237683Y-49426654D01*
X128145642Y-49575877D01*
X128090493Y-49742303D01*
X128080319Y-49841890D01*
X128080000Y-49848168D01*
X128080000Y-50057500D01*
X91075500Y-50057500D01*
X91075500Y-42499999D01*
X117864417Y-42499999D01*
X117884699Y-42705932D01*
X117944769Y-42903956D01*
X117987917Y-42984680D01*
X118042315Y-43086450D01*
X118093608Y-43148952D01*
X118173589Y-43246410D01*
X118253569Y-43312047D01*
X118333550Y-43377685D01*
X118516046Y-43475232D01*
X118714066Y-43535300D01*
X118920000Y-43555583D01*
X119125934Y-43535300D01*
X119323954Y-43475232D01*
X119506450Y-43377685D01*
X119666410Y-43246410D01*
X119797685Y-43086450D01*
X119895232Y-42903954D01*
X119955300Y-42705934D01*
X119975583Y-42500000D01*
X119975583Y-42499999D01*
X120404417Y-42499999D01*
X120424699Y-42705932D01*
X120484769Y-42903956D01*
X120527917Y-42984680D01*
X120582315Y-43086450D01*
X120633608Y-43148952D01*
X120713589Y-43246410D01*
X120793569Y-43312047D01*
X120873550Y-43377685D01*
X121056046Y-43475232D01*
X121254066Y-43535300D01*
X121460000Y-43555583D01*
X121665934Y-43535300D01*
X121863954Y-43475232D01*
X122046450Y-43377685D01*
X122206410Y-43246410D01*
X122337685Y-43086450D01*
X122435232Y-42903954D01*
X122495300Y-42705934D01*
X122515583Y-42500000D01*
X122515583Y-42499999D01*
X122944417Y-42499999D01*
X122964699Y-42705932D01*
X123024769Y-42903956D01*
X123067917Y-42984680D01*
X123122315Y-43086450D01*
X123173609Y-43148952D01*
X123253589Y-43246410D01*
X123333569Y-43312047D01*
X123413550Y-43377685D01*
X123596046Y-43475232D01*
X123794066Y-43535300D01*
X124000000Y-43555583D01*
X124205934Y-43535300D01*
X124403954Y-43475232D01*
X124586450Y-43377685D01*
X124746410Y-43246410D01*
X124877685Y-43086450D01*
X124975232Y-42903954D01*
X125035300Y-42705934D01*
X125055583Y-42500000D01*
X125055583Y-42499999D01*
X125484417Y-42499999D01*
X125504699Y-42705932D01*
X125564769Y-42903956D01*
X125607917Y-42984680D01*
X125662315Y-43086450D01*
X125713609Y-43148952D01*
X125793589Y-43246410D01*
X125873569Y-43312047D01*
X125953550Y-43377685D01*
X126136046Y-43475232D01*
X126334066Y-43535300D01*
X126540000Y-43555583D01*
X126745934Y-43535300D01*
X126943954Y-43475232D01*
X127126450Y-43377685D01*
X127286410Y-43246410D01*
X127417685Y-43086450D01*
X127515232Y-42903954D01*
X127575300Y-42705934D01*
X127595583Y-42500000D01*
X127595583Y-42499999D01*
X128024417Y-42499999D01*
X128044699Y-42705932D01*
X128104769Y-42903956D01*
X128147917Y-42984680D01*
X128202315Y-43086450D01*
X128253608Y-43148952D01*
X128333589Y-43246410D01*
X128413569Y-43312047D01*
X128493550Y-43377685D01*
X128676046Y-43475232D01*
X128874066Y-43535300D01*
X129080000Y-43555583D01*
X129285934Y-43535300D01*
X129483954Y-43475232D01*
X129666450Y-43377685D01*
X129826410Y-43246410D01*
X129957685Y-43086450D01*
X130055232Y-42903954D01*
X130115300Y-42705934D01*
X130135583Y-42500000D01*
X130135583Y-42499999D01*
X130564417Y-42499999D01*
X130584699Y-42705932D01*
X130644769Y-42903956D01*
X130687917Y-42984680D01*
X130742315Y-43086450D01*
X130793608Y-43148952D01*
X130873589Y-43246410D01*
X130953569Y-43312047D01*
X131033550Y-43377685D01*
X131216046Y-43475232D01*
X131414066Y-43535300D01*
X131620000Y-43555583D01*
X131825934Y-43535300D01*
X132023954Y-43475232D01*
X132206450Y-43377685D01*
X132366410Y-43246410D01*
X132497685Y-43086450D01*
X132595232Y-42903954D01*
X132655300Y-42705934D01*
X132675583Y-42500000D01*
X132675583Y-42499999D01*
X133104417Y-42499999D01*
X133124699Y-42705932D01*
X133184769Y-42903956D01*
X133227917Y-42984680D01*
X133282315Y-43086450D01*
X133333609Y-43148952D01*
X133413589Y-43246410D01*
X133493569Y-43312047D01*
X133573550Y-43377685D01*
X133756046Y-43475232D01*
X133954066Y-43535300D01*
X134160000Y-43555583D01*
X134365934Y-43535300D01*
X134563954Y-43475232D01*
X134746450Y-43377685D01*
X134906410Y-43246410D01*
X135037685Y-43086450D01*
X135116643Y-42938730D01*
X135165604Y-42888888D01*
X135233742Y-42873427D01*
X135299421Y-42897259D01*
X135341790Y-42952816D01*
X135350000Y-42997185D01*
X135350000Y-43394518D01*
X135350354Y-43401132D01*
X135356400Y-43457371D01*
X135406647Y-43592089D01*
X135492811Y-43707188D01*
X135607910Y-43793352D01*
X135742628Y-43843599D01*
X135798867Y-43849645D01*
X135805482Y-43850000D01*
X136450000Y-43850000D01*
X136450000Y-42935501D01*
X136557685Y-42984680D01*
X136664237Y-43000000D01*
X136735763Y-43000000D01*
X136842315Y-42984680D01*
X136950000Y-42935501D01*
X136950000Y-43850000D01*
X137594518Y-43850000D01*
X137601132Y-43849645D01*
X137657371Y-43843599D01*
X137792089Y-43793352D01*
X137907188Y-43707188D01*
X137993352Y-43592089D01*
X138043599Y-43457371D01*
X138049645Y-43401132D01*
X138050000Y-43394518D01*
X138050000Y-42750000D01*
X137133686Y-42750000D01*
X137159493Y-42709844D01*
X137200000Y-42571889D01*
X137200000Y-42428111D01*
X137159493Y-42290156D01*
X137133686Y-42250000D01*
X138050000Y-42250000D01*
X138050000Y-41605481D01*
X138049645Y-41598867D01*
X138043599Y-41542628D01*
X137993352Y-41407910D01*
X137907188Y-41292811D01*
X137792089Y-41206647D01*
X137657371Y-41156400D01*
X137601132Y-41150354D01*
X137594518Y-41150000D01*
X136950000Y-41150000D01*
X136950000Y-42064498D01*
X136842315Y-42015320D01*
X136735763Y-42000000D01*
X136664237Y-42000000D01*
X136557685Y-42015320D01*
X136450000Y-42064498D01*
X136450000Y-41150000D01*
X135805482Y-41150000D01*
X135798867Y-41150354D01*
X135742628Y-41156400D01*
X135607910Y-41206647D01*
X135492811Y-41292811D01*
X135406647Y-41407910D01*
X135356400Y-41542628D01*
X135350354Y-41598867D01*
X135350000Y-41605481D01*
X135350000Y-42002814D01*
X135330315Y-42069853D01*
X135277511Y-42115608D01*
X135208353Y-42125552D01*
X135144797Y-42096527D01*
X135116642Y-42061267D01*
X135037685Y-41913550D01*
X134972047Y-41833570D01*
X134906410Y-41753589D01*
X134808952Y-41673609D01*
X134746450Y-41622315D01*
X134563954Y-41524768D01*
X134464944Y-41494734D01*
X134365932Y-41464699D01*
X134160000Y-41444417D01*
X133954067Y-41464699D01*
X133756043Y-41524769D01*
X133573551Y-41622314D01*
X133413589Y-41753589D01*
X133282314Y-41913551D01*
X133184769Y-42096043D01*
X133124699Y-42294067D01*
X133104417Y-42499999D01*
X132675583Y-42499999D01*
X132655300Y-42294066D01*
X132595232Y-42096046D01*
X132497685Y-41913550D01*
X132432047Y-41833570D01*
X132366410Y-41753589D01*
X132268952Y-41673608D01*
X132206450Y-41622315D01*
X132023954Y-41524768D01*
X131924944Y-41494734D01*
X131825932Y-41464699D01*
X131620000Y-41444417D01*
X131414067Y-41464699D01*
X131216043Y-41524769D01*
X131033551Y-41622314D01*
X130873589Y-41753589D01*
X130742314Y-41913551D01*
X130644769Y-42096043D01*
X130584699Y-42294067D01*
X130564417Y-42499999D01*
X130135583Y-42499999D01*
X130115300Y-42294066D01*
X130055232Y-42096046D01*
X129957685Y-41913550D01*
X129892047Y-41833570D01*
X129826410Y-41753589D01*
X129728952Y-41673608D01*
X129666450Y-41622315D01*
X129483954Y-41524768D01*
X129384944Y-41494734D01*
X129285932Y-41464699D01*
X129102497Y-41446632D01*
X129080000Y-41444417D01*
X129079999Y-41444417D01*
X128874067Y-41464699D01*
X128676043Y-41524769D01*
X128493551Y-41622314D01*
X128333589Y-41753589D01*
X128202314Y-41913551D01*
X128104769Y-42096043D01*
X128044699Y-42294067D01*
X128024417Y-42499999D01*
X127595583Y-42499999D01*
X127575300Y-42294066D01*
X127515232Y-42096046D01*
X127417685Y-41913550D01*
X127352047Y-41833570D01*
X127286410Y-41753589D01*
X127188952Y-41673608D01*
X127126450Y-41622315D01*
X126943954Y-41524768D01*
X126844944Y-41494734D01*
X126745932Y-41464699D01*
X126540000Y-41444417D01*
X126334067Y-41464699D01*
X126136043Y-41524769D01*
X125953551Y-41622314D01*
X125793589Y-41753589D01*
X125662314Y-41913551D01*
X125564769Y-42096043D01*
X125504699Y-42294067D01*
X125484417Y-42499999D01*
X125055583Y-42499999D01*
X125035300Y-42294066D01*
X124975232Y-42096046D01*
X124877685Y-41913550D01*
X124812047Y-41833570D01*
X124746410Y-41753589D01*
X124648952Y-41673608D01*
X124586450Y-41622315D01*
X124403954Y-41524768D01*
X124304944Y-41494734D01*
X124205932Y-41464699D01*
X124000000Y-41444417D01*
X123794067Y-41464699D01*
X123596043Y-41524769D01*
X123413551Y-41622314D01*
X123253589Y-41753589D01*
X123122314Y-41913551D01*
X123024769Y-42096043D01*
X122964699Y-42294067D01*
X122944417Y-42499999D01*
X122515583Y-42499999D01*
X122495300Y-42294066D01*
X122435232Y-42096046D01*
X122337685Y-41913550D01*
X122272047Y-41833569D01*
X122206410Y-41753589D01*
X122108952Y-41673608D01*
X122046450Y-41622315D01*
X121863954Y-41524768D01*
X121764944Y-41494734D01*
X121665932Y-41464699D01*
X121482497Y-41446632D01*
X121460000Y-41444417D01*
X121459999Y-41444417D01*
X121254067Y-41464699D01*
X121056043Y-41524769D01*
X120873551Y-41622314D01*
X120713589Y-41753589D01*
X120582314Y-41913551D01*
X120484769Y-42096043D01*
X120424699Y-42294067D01*
X120404417Y-42499999D01*
X119975583Y-42499999D01*
X119955300Y-42294066D01*
X119895232Y-42096046D01*
X119797685Y-41913550D01*
X119732047Y-41833569D01*
X119666410Y-41753589D01*
X119568952Y-41673608D01*
X119506450Y-41622315D01*
X119323954Y-41524768D01*
X119224944Y-41494734D01*
X119125932Y-41464699D01*
X118920000Y-41444417D01*
X118714067Y-41464699D01*
X118516043Y-41524769D01*
X118333551Y-41622314D01*
X118173589Y-41753589D01*
X118042314Y-41913551D01*
X117944769Y-42096043D01*
X117884699Y-42294067D01*
X117864417Y-42499999D01*
X91075500Y-42499999D01*
X91075500Y-40699500D01*
X91095185Y-40632461D01*
X91147989Y-40586706D01*
X91199500Y-40575500D01*
X166800500Y-40575500D01*
X166867539Y-40595185D01*
G37*
%TD.AperFunction*%
%TD*%
D31*
X91000000Y-40500000D02*
X167000000Y-40500000D01*
X167000000Y-80500000D01*
X91000000Y-80500000D01*
X91000000Y-40500000D01*
M02*
