M48
; DRILL file {KiCad 7.0.2} date Tue Jun 20 23:13:00 2023
; FORMAT={-:-/ absolute / inch / decimal}
; #@! TF.CreationDate,2023-06-20T23:13:00+02:00
; #@! TF.GenerationSoftware,Kicad,Pcbnew,7.0.2
; #@! TF.FileFunction,Plated,1,2,PTH
FMAT,2
INCH
; #@! TA.AperFunction,Plated,PTH,ComponentDrill
T1C0.0079
; #@! TA.AperFunction,Plated,PTH,ViaDrill
T2C0.0118
; #@! TA.AperFunction,Plated,PTH,ViaDrill
T3C0.0157
; #@! TA.AperFunction,Plated,PTH,ComponentDrill
T4C0.0197
; #@! TA.AperFunction,Plated,PTH,ComponentDrill
T5C0.0394
%
G90
G05
T1
X5.2469Y-2.3406
X5.2469Y-2.3869
X5.2469Y-2.4331
X5.2469Y-2.4794
X5.2469Y-2.5256
X5.2931Y-2.3406
X5.2931Y-2.3869
X5.2931Y-2.4331
X5.2931Y-2.4794
X5.2931Y-2.5256
X5.3394Y-2.3406
X5.3394Y-2.3869
X5.3394Y-2.4331
X5.3394Y-2.4794
X5.3394Y-2.5256
X5.3856Y-2.3406
X5.3856Y-2.3869
X5.3856Y-2.4331
X5.3856Y-2.4794
X5.3856Y-2.5256
X5.4319Y-2.3406
X5.4319Y-2.3869
X5.4319Y-2.4331
X5.4319Y-2.4794
X5.4319Y-2.5256
T2
X3.6567Y-3.1311
X3.6654Y-1.9736
X3.672Y-1.6524
X3.6783Y-2.2291
X3.9004Y-2.5193
X3.9559Y-1.6264
X3.996Y-2.2343
X3.996Y-2.315
X4.0685Y-3.032
X4.0874Y-2.8627
X4.1397Y-2.248
X4.1397Y-2.2874
X4.1732Y-3.1299
X4.2224Y-2.2736
X4.3386Y-1.6157
X4.3484Y-3.0913
X4.387Y-3.0925
X4.4311Y-2.5836
X4.4319Y-2.5207
X4.4441Y-2.6421
X4.4921Y-2.2244
X4.4996Y-1.8157
X4.5059Y-1.7386
X4.5614Y-2.8315
X4.5646Y-3.082
X4.5649Y-2.2953
X4.5898Y-1.6114
X4.6539Y-2.5122
X4.6654Y-2.4213
X4.6921Y-2.4583
X4.7047Y-1.8118
X4.7047Y-1.9488
X4.7047Y-2.0669
X4.7244Y-2.1831
X4.7748Y-2.9265
X4.8273Y-3.0457
X4.8996Y-2.7303
X4.9016Y-2.0472
X4.9016Y-2.6457
X4.9075Y-2.1181
X4.9114Y-2.2303
X4.939Y-2.1673
X4.9409Y-1.6142
X4.9409Y-1.8898
X4.9409Y-2.2795
X4.9409Y-2.4232
X4.9492Y-2.7969
X4.9606Y-2.4606
X5.0059Y-2.8016
X5.1276Y-2.8772
X5.1339Y-2.374
X5.1358Y-2.4016
X5.1634Y-2.6476
X5.1653Y-2.1843
X5.1665Y-2.1548
X5.1677Y-2.2441
X5.1865Y-2.1322
X5.2008Y-1.935
X5.216Y-2.2277
X5.217Y-2.532
X5.2183Y-2.3472
X5.2185Y-2.3776
X5.2217Y-2.876
X5.2416Y-2.2131
X5.2431Y-2.1794
X5.248Y-1.9665
X5.2833Y-2.6417
X5.2898Y-2.3096
X5.3054Y-2.5549
X5.3166Y-2.2168
X5.3268Y-2.1083
X5.3461Y-3.0976
X5.3661Y-2.6437
X5.3858Y-2.8858
X5.3898Y-2.9469
X5.4004Y-2.5542
X5.4093Y-2.2382
X5.427Y-2.627
X5.437Y-2.1358
X5.439Y-2.2362
X5.4587Y-2.7205
X5.46Y-2.1543
X5.4604Y-2.3958
X5.4606Y-2.3579
X5.4612Y-2.3284
X5.4614Y-2.5024
X5.4665Y-2.9488
X5.4783Y-1.874
X5.4882Y-2.5994
X5.4941Y-2.2795
X5.5079Y-2.1949
X5.5098Y-1.9232
X5.5098Y-2.688
X5.5098Y-2.9154
X5.5138Y-2.5748
X5.5287Y-2.8413
X5.5294Y-2.371
X5.5317Y-2.4486
X5.5413Y-2.622
X5.5437Y-2.3258
X5.5476Y-2.4145
X5.5512Y-2.5787
X5.5756Y-2.9118
X5.5846Y-2.128
X5.5886Y-2.4488
X5.5895Y-2.371
X5.6004Y-2.7126
X5.622Y-2.378
X5.6244Y-2.911
X5.6257Y-2.5436
X5.6299Y-2.5728
X5.6394Y-2.4063
X5.665Y-2.0209
X5.6701Y-2.9169
X5.687Y-2.3553
X5.7185Y-2.3051
X5.7201Y-2.9157
X5.7256Y-1.7992
X5.7343Y-2.3307
X5.7875Y-2.0146
X5.7894Y-2.7146
X5.8268Y-2.6516
X5.8622Y-2.0925
X5.8965Y-2.8031
X5.9055Y-2.9421
X5.924Y-2.885
X5.9291Y-3.0213
X5.935Y-2.5768
X5.9354Y-1.9886
X5.9409Y-2.0945
X6.0295Y-2.0906
X6.0693Y-2.439
X6.1138Y-2.7555
X6.1161Y-2.2323
X6.1394Y-2.6776
X6.2657Y-2.1909
X6.2736Y-1.7787
X6.2894Y-1.9803
X6.3642Y-2.1654
T3
X4.0965Y-2.7016
X5.0768Y-2.3779
X5.126Y-2.3071
T4
X6.0984Y-2.1437
X6.1398Y-2.0193
X6.2016Y-2.3248
X6.415Y-2.3339
T5
X3.6449Y-2.3307
X3.6449Y-2.4307
X3.6449Y-2.5307
X3.6449Y-2.6307
X4.6819Y-1.6732
X4.7819Y-1.6732
X4.8819Y-1.6732
X4.9819Y-1.6732
X5.0819Y-1.6732
X5.1819Y-1.6732
X5.2819Y-1.6732
X5.3819Y-1.6732
T0
M30
